<?xml version="1.0" encoding="utf-8"?>
<!-- Generator: Adobe Illustrator 19.1.0, SVG Export Plug-In . SVG Version: 6.00 Build 0)  -->
<svg version="1.1" id="圖層_1" xmlns="http://www.w3.org/2000/svg" xmlns:xlink="http://www.w3.org/1999/xlink" x="0px" y="0px"
	 viewBox="0 0 180 180" style="enable-background:new 0 0 180 180;" xml:space="preserve">
<style type="text/css">
	.st0{fill:none;stroke:#FFFFFF;stroke-width:0.533;stroke-linejoin:round;stroke-miterlimit:10;}
	.st1{fill:none;stroke:#FFFFFF;stroke-width:0.533;stroke-miterlimit:10;}
	.st2{fill:#D9DADB;}
	.st3{fill:#EC675A;}
	.st4{fill:none;stroke:#FFFFFF;stroke-width:0.4052;stroke-linejoin:round;stroke-miterlimit:10;}
	.st5{fill:none;stroke:#FFFFFF;stroke-width:0.5566;stroke-linejoin:round;stroke-miterlimit:10;}
	.st6{fill:none;stroke:#FFFFFF;stroke-width:0.2388;stroke-linejoin:round;stroke-miterlimit:10;}
	.st7{font-family:'Comfortaa';}
	.st8{font-size:5.4862px;}
	.st9{fill:#EC675A;stroke:#EC675A;stroke-width:0.2896;stroke-miterlimit:10;}
	.st10{fill:none;stroke:#EC675A;stroke-width:0.3846;stroke-miterlimit:10;}
	.st11{font-size:16.2422px;}
	.st12{fill:#FFFFFF;}
	.st13{font-size:14.6991px;}
</style>
<line class="st0" x1="17.7" y1="24.8" x2="20.2" y2="21.7"/>
<g>
	<polyline class="st0" points="158.7,20.7 158.5,14.4 163.8,7.9 163.8,15.2 	"/>
	<polyline class="st0" points="163.8,7.9 166.1,9.5 166.1,11.6 168.4,13.4 168.2,18.2 	"/>
	<polygon class="st2" points="158.6,20.7 163.8,14.8 168.4,18.2 163.1,24 	"/>
</g>
<g>
	<polyline class="st0" points="19.5,8.4 13,16 13,23.9 	"/>
	<polyline class="st0" points="25.4,23.6 20.4,29.6 15.7,28.6 	"/>
	<polygon class="st0" points="16.1,19.6 16.1,25.8 17.7,26.2 17.7,20 	"/>
	<polyline class="st0" points="16.1,19.6 11.6,25.8 11.6,31.1 16.1,25.8 	"/>
	<polyline class="st0" points="11.6,31.1 13.3,31.5 17.7,26.2 	"/>
	<polygon class="st3" points="19.3,8.2 25.4,9.7 25.5,23.7 19.3,22.8 	"/>
</g>
<g>
	<polyline class="st4" points="163.5,169.1 163.4,166.2 167.1,163.4 167.1,166.6 	"/>
	<polyline class="st4" points="167.1,163.4 168.6,164.1 168.6,165.1 170.4,165.8 170.3,168 	"/>
	<polygon class="st3" points="163.4,169.1 167.1,166.4 170.4,168 167.5,170.6 	"/>
</g>
<g>
	<path class="st5" d="M18.6,158.6c-0.2,0,6-2.2,6-2.2l-0.7,4.5l-6,2.1L18.6,158.6z"/>
	<line class="st5" x1="22.9" y1="165.4" x2="25.4" y2="164.7"/>
	<polyline class="st5" points="17.9,163 20.4,166.2 21.4,165.9 	"/>
	<polygon class="st5" points="21.5,168.6 24,172.2 30.2,170.8 28.1,166.9 	"/>
	<polyline class="st5" points="30.2,170.8 30.2,163.9 28.3,160.3 28.1,166.9 	"/>
	<path class="st5" d="M21.5,168.6v-4.1l1.1-0.4c0,0,0.3,2.7,1.5,2.4c1.4-0.3,1.3-1.9,1.3-1.9l0.2-3.6l2.7-0.8"/>
	<line class="st5" x1="23.9" y1="160.9" x2="25.5" y2="163"/>
	<polyline class="st5" points="24.6,156.4 26.5,159.6 26.3,160.8 	"/>
	<g>
		<text transform="matrix(0.6827 0.9858 -0.8221 0.5693 8.4358 147.1517)" class="st6 st7 st8">2017</text>
	</g>
</g>
<g>
	<path class="st9" d="M41.5,133.4c-0.2-0.2-0.3-0.5-0.3-0.8c0-0.2,0-0.3,0.1-0.4c0.1-0.1,0.1-0.3,0.3-0.4c0.1-0.1,0.2-0.2,0.4-0.3
		c0.1-0.1,0.3-0.1,0.4-0.1c0.3,0,0.6,0.1,0.8,0.3c0.2,0.2,0.3,0.5,0.3,0.8c0,0.3-0.1,0.6-0.3,0.8c0,0-0.1,0.1-0.1,0.1
		c0.1,0,0.1,0.1,0.2,0.1c0.1,0,0.1,0.1,0.1,0.1c0.3,0.3,0.4,0.6,0.4,1s-0.1,0.7-0.4,1c-0.3,0.3-0.6,0.4-1,0.4c-0.4,0-0.7-0.1-1-0.4
		c-0.3-0.3-0.4-0.6-0.4-1c0-0.4,0.1-0.7,0.4-1c0.1-0.1,0.2-0.2,0.3-0.2C41.6,133.4,41.5,133.4,41.5,133.4z M42.3,133.7
		c-0.3,0-0.5,0.1-0.7,0.3c-0.2,0.2-0.3,0.4-0.3,0.7c0,0.3,0.1,0.5,0.3,0.7c0.2,0.2,0.5,0.3,0.7,0.3c0.3,0,0.5-0.1,0.7-0.3
		c0.2-0.2,0.3-0.4,0.3-0.7c0-0.3-0.1-0.5-0.3-0.7C42.8,133.8,42.6,133.7,42.3,133.7z M42.3,131.8c-0.2,0-0.4,0.1-0.6,0.2
		c-0.2,0.2-0.2,0.3-0.2,0.5c0,0.2,0.1,0.4,0.2,0.6c0.2,0.2,0.3,0.2,0.6,0.2c0.2,0,0.4-0.1,0.6-0.2c0.2-0.2,0.2-0.3,0.2-0.6
		s-0.1-0.4-0.2-0.5C42.7,131.8,42.5,131.8,42.3,131.8z"/>
	<path class="st9" d="M45.9,135.7c0.1,0,0.1,0,0.1,0.1c0,0,0.1,0.1,0.1,0.1c0,0.1,0,0.1-0.1,0.1c0,0-0.1,0.1-0.1,0.1
		c-0.8,0-1.2-0.4-1.2-1.2v-1.8h-0.3c-0.1,0-0.1,0-0.1-0.1c0,0-0.1-0.1-0.1-0.1c0-0.1,0-0.1,0.1-0.1c0,0,0.1-0.1,0.1-0.1h0.3v-1.2
		c0-0.1,0-0.1,0.1-0.1c0,0,0.1-0.1,0.1-0.1c0.1,0,0.1,0,0.1,0.1c0,0,0.1,0.1,0.1,0.1v1.2h0.5c0.1,0,0.1,0,0.1,0.1
		c0,0,0.1,0.1,0.1,0.1c0,0.1,0,0.1-0.1,0.1c0,0-0.1,0.1-0.1,0.1h-0.5v1.8C45.1,135.5,45.3,135.7,45.9,135.7z"/>
	<path class="st9" d="M46.6,131.6c0-0.1,0-0.1,0.1-0.1c0,0,0.1-0.1,0.1-0.1c0.1,0,0.1,0,0.1,0.1c0,0,0.1,0.1,0.1,0.1v1.8
		c0.4-0.3,0.7-0.5,1.2-0.5c0.4,0,0.8,0.1,1.1,0.4c0.3,0.3,0.4,0.7,0.4,1.1v1.6c0,0.1,0,0.1-0.1,0.1c0,0-0.1,0.1-0.1,0.1
		c-0.1,0-0.1,0-0.1-0.1c0,0-0.1-0.1-0.1-0.1v-1.6c0-0.3-0.1-0.6-0.3-0.8c-0.2-0.2-0.5-0.3-0.8-0.3c-0.3,0-0.6,0.1-0.8,0.3
		c-0.2,0.2-0.3,0.5-0.3,0.8v1.6c0,0.1,0,0.1-0.1,0.1c0,0-0.1,0.1-0.1,0.1c-0.1,0-0.1,0-0.1-0.1c0,0-0.1-0.1-0.1-0.1V131.6z"/>
	<path class="st3" d="M52.8,135.4c0-0.1,0-0.1,0.1-0.1c0,0,0.1-0.1,0.1-0.1c0.1,0,0.1,0,0.2,0.1c0,0,0.1,0.1,0.1,0.1
		c0.1,0.1,0.2,0.2,0.3,0.3c0.1,0.1,0.3,0.1,0.5,0.1c0.2,0,0.5-0.1,0.7-0.2c0.1-0.1,0.2-0.2,0.3-0.3c0.1-0.1,0.1-0.3,0.1-0.5
		c0-0.2-0.1-0.5-0.2-0.7c-0.2-0.2-0.4-0.3-0.7-0.4c-0.4-0.1-0.6-0.2-0.8-0.4c-0.1-0.1-0.2-0.2-0.2-0.3c0-0.1-0.1-0.3-0.1-0.4
		c0-0.4,0.1-0.7,0.4-0.9c0.2-0.2,0.5-0.3,0.7-0.3c0.3,0,0.6,0.1,0.9,0.4c0,0.1,0.1,0.1,0.1,0.2c0,0,0,0.1,0,0.1c0,0,0,0.1-0.1,0.1
		c0,0-0.1,0.1-0.1,0.1c-0.1,0-0.1,0-0.1,0c0,0-0.1-0.1-0.1-0.1c-0.1-0.2-0.3-0.3-0.5-0.3c-0.2,0-0.4,0-0.6,0.2
		c-0.2,0.1-0.3,0.3-0.3,0.5c0,0.1,0,0.2,0,0.3c0,0.1,0.1,0.2,0.1,0.3c0.1,0.1,0.3,0.2,0.6,0.3c0.4,0.1,0.6,0.2,0.8,0.5
		c0.1,0.1,0.2,0.3,0.2,0.4c0.1,0.1,0.1,0.3,0.1,0.5c0,0.3,0,0.5-0.1,0.6c-0.1,0.2-0.2,0.3-0.4,0.4c-0.3,0.2-0.6,0.3-0.9,0.3
		c-0.4,0-0.8-0.2-1.1-0.5c0,0-0.1-0.1-0.1-0.1C52.8,135.4,52.8,135.4,52.8,135.4z"/>
	<path class="st3" d="M57.6,135.7c0.1,0,0.1,0,0.1,0.1c0,0,0.1,0.1,0.1,0.1c0,0.1,0,0.1-0.1,0.1c0,0-0.1,0.1-0.1,0.1
		c-0.8,0-1.2-0.4-1.2-1.2v-1.8h-0.3c-0.1,0-0.1,0-0.1-0.1c0,0-0.1-0.1-0.1-0.1c0-0.1,0-0.1,0.1-0.1c0,0,0.1-0.1,0.1-0.1h0.3v-1.2
		c0-0.1,0-0.1,0.1-0.1c0,0,0.1-0.1,0.1-0.1c0.1,0,0.1,0,0.1,0.1c0,0,0.1,0.1,0.1,0.1v1.2h0.5c0.1,0,0.1,0,0.1,0.1
		c0,0,0.1,0.1,0.1,0.1c0,0.1,0,0.1-0.1,0.1c0,0-0.1,0.1-0.1,0.1h-0.5v1.8C56.8,135.5,57.1,135.7,57.6,135.7z"/>
	<path class="st3" d="M61.3,135.9c0,0.1,0,0.1-0.1,0.1c0,0-0.1,0.1-0.1,0.1c-0.1,0-0.1,0-0.1-0.1c0,0-0.1-0.1-0.1-0.1v-0.3
		c-0.4,0.3-0.7,0.5-1.2,0.5c-0.4,0-0.8-0.1-1.1-0.4c-0.3-0.3-0.4-0.7-0.4-1.1V133c0-0.1,0-0.1,0.1-0.1c0,0,0.1-0.1,0.1-0.1
		c0.1,0,0.1,0,0.1,0.1c0,0,0.1,0.1,0.1,0.1v1.6c0,0.3,0.1,0.6,0.3,0.8c0.2,0.2,0.5,0.3,0.8,0.3c0.3,0,0.6-0.1,0.8-0.3
		c0.2-0.2,0.3-0.5,0.3-0.8V133c0-0.1,0-0.1,0.1-0.1c0,0,0.1-0.1,0.1-0.1c0.1,0,0.1,0,0.1,0.1c0,0,0.1,0.1,0.1,0.1V135.9z"/>
	<path class="st3" d="M64.7,131.6c0-0.1,0-0.1,0.1-0.1c0,0,0.1-0.1,0.1-0.1c0.1,0,0.1,0,0.1,0.1c0,0,0.1,0.1,0.1,0.1v2.9
		c0,0.5-0.2,0.8-0.5,1.2c-0.3,0.3-0.7,0.5-1.2,0.5c-0.5,0-0.8-0.2-1.2-0.5s-0.5-0.7-0.5-1.2s0.2-0.8,0.5-1.2
		c0.3-0.3,0.7-0.5,1.2-0.5c0.5,0,0.8,0.2,1.2,0.5l0.1,0.1V131.6z M64.7,134.5c0-0.4-0.1-0.7-0.4-0.9c-0.3-0.3-0.6-0.4-0.9-0.4
		s-0.7,0.1-0.9,0.4c-0.3,0.3-0.4,0.6-0.4,0.9s0.1,0.7,0.4,0.9c0.3,0.3,0.6,0.4,0.9,0.4s0.7-0.1,0.9-0.4
		C64.6,135.1,64.7,134.8,64.7,134.5z"/>
	<path class="st3" d="M68.1,135.4c0.1,0,0.1,0,0.1,0.1c0,0,0.1,0.1,0.1,0.1c0,0.1,0,0.1,0,0.1c-0.3,0.3-0.7,0.4-1.1,0.4
		c-0.5,0-0.8-0.2-1.2-0.5s-0.5-0.7-0.5-1.2s0.2-0.8,0.5-1.2c0.3-0.3,0.7-0.5,1.2-0.5c0.5,0,0.8,0.2,1.2,0.5c0.3,0.3,0.5,0.7,0.5,1.2
		c0,0.1,0,0.1-0.1,0.1c0,0-0.1,0.1-0.1,0.1h-2.7c0.1,0.3,0.2,0.5,0.4,0.7c0.3,0.3,0.6,0.4,0.9,0.4c0.2,0,0.3,0,0.4-0.1
		c0.1-0.1,0.3-0.1,0.4-0.2C68,135.4,68.1,135.4,68.1,135.4z M68.5,134.3c-0.1-0.3-0.2-0.5-0.4-0.7c-0.3-0.3-0.6-0.4-0.9-0.4
		c-0.4,0-0.7,0.1-0.9,0.4c-0.2,0.2-0.3,0.4-0.4,0.7H68.5z"/>
	<path class="st3" d="M69.3,133c0-0.1,0-0.1,0.1-0.1c0,0,0.1-0.1,0.1-0.1c0.1,0,0.1,0,0.1,0.1c0,0,0.1,0.1,0.1,0.1v0.3
		c0.4-0.3,0.7-0.5,1.2-0.5c0.4,0,0.8,0.1,1.1,0.4c0.3,0.3,0.4,0.7,0.4,1.1v1.6c0,0.1,0,0.1-0.1,0.1c0,0-0.1,0.1-0.1,0.1
		c-0.1,0-0.1,0-0.1-0.1c0,0-0.1-0.1-0.1-0.1v-1.6c0-0.3-0.1-0.6-0.3-0.8c-0.2-0.2-0.5-0.3-0.8-0.3c-0.3,0-0.6,0.1-0.8,0.3
		c-0.2,0.2-0.3,0.5-0.3,0.8v1.6c0,0.1,0,0.1-0.1,0.1c0,0-0.1,0.1-0.1,0.1c-0.1,0-0.1,0-0.1-0.1c0,0-0.1-0.1-0.1-0.1V133z"/>
	<path class="st3" d="M74.5,135.7c0.1,0,0.1,0,0.1,0.1c0,0,0.1,0.1,0.1,0.1c0,0.1,0,0.1-0.1,0.1c0,0-0.1,0.1-0.1,0.1
		c-0.8,0-1.2-0.4-1.2-1.2v-1.8H73c-0.1,0-0.1,0-0.1-0.1c0,0-0.1-0.1-0.1-0.1c0-0.1,0-0.1,0.1-0.1c0,0,0.1-0.1,0.1-0.1h0.3v-1.2
		c0-0.1,0-0.1,0.1-0.1c0,0,0.1-0.1,0.1-0.1c0.1,0,0.1,0,0.1,0.1c0,0,0.1,0.1,0.1,0.1v1.2h0.5c0.1,0,0.1,0,0.1,0.1
		c0,0,0.1,0.1,0.1,0.1c0,0.1,0,0.1-0.1,0.1c0,0-0.1,0.1-0.1,0.1h-0.5v1.8C73.7,135.5,73.9,135.7,74.5,135.7z"/>
	<path class="st3" d="M83.5,133.8c0,0.6-0.2,1.2-0.7,1.7c-0.5,0.5-1,0.7-1.7,0.7c-0.3,0-0.6-0.1-0.9-0.2c-0.3-0.1-0.5-0.3-0.8-0.5
		c-0.2-0.2-0.4-0.5-0.5-0.8c-0.1-0.3-0.2-0.6-0.2-0.9c0-0.6,0.2-1.2,0.7-1.7c0.5-0.5,1-0.7,1.7-0.7c0.7,0,1.2,0.2,1.7,0.7
		C83.3,132.6,83.5,133.1,83.5,133.8z M81.2,131.8c-0.5,0-1,0.2-1.4,0.6c-0.4,0.4-0.6,0.9-0.6,1.4c0,0.5,0.2,1,0.6,1.4
		c0.4,0.4,0.9,0.6,1.4,0.6s1-0.2,1.4-0.6c0.4-0.4,0.6-0.9,0.6-1.4c0-0.5-0.2-1-0.6-1.4C82.2,132,81.7,131.8,81.2,131.8z"/>
	<path class="st3" d="M84,133c0-0.1,0-0.1,0.1-0.1c0,0,0.1-0.1,0.1-0.1c0.1,0,0.1,0,0.1,0.1c0,0,0.1,0.1,0.1,0.1v0.4
		c0.4-0.4,0.8-0.6,1.3-0.6c0.2,0,0.5,0,0.6,0.1c0,0,0.1,0,0.1,0.1c0,0,0,0.1,0,0.1c0,0.1,0,0.1-0.1,0.1c0,0-0.1,0.1-0.1,0.1
		c0,0-0.1,0-0.1,0c-0.1-0.1-0.3-0.1-0.5-0.1c-0.4,0-0.7,0.1-0.9,0.4c-0.3,0.2-0.4,0.5-0.4,0.9v1.5c0,0.1,0,0.1-0.1,0.1
		c0,0-0.1,0.1-0.1,0.1c-0.1,0-0.1,0-0.1-0.1c0,0-0.1-0.1-0.1-0.1V133z"/>
	<path class="st3" d="M89.7,135.5c-0.4,0.4-0.8,0.6-1.3,0.6c-0.5,0-0.8-0.2-1.2-0.5c-0.3-0.3-0.5-0.7-0.5-1.2c0-0.5,0.2-0.8,0.5-1.2
		c0.3-0.3,0.7-0.5,1.2-0.5c0.5,0,0.8,0.2,1.2,0.5c0.3,0.3,0.5,0.7,0.5,1.2v1.7c0,0.3-0.1,0.6-0.4,0.9c-0.3,0.3-0.8,0.5-1.2,0.5
		c-0.5,0-0.9-0.2-1.2-0.5c-0.1-0.1-0.2-0.3-0.3-0.4c0,0,0-0.1,0-0.1c0-0.1,0-0.1,0.1-0.1c0,0,0.1-0.1,0.1-0.1c0.1,0,0.1,0,0.1,0.1
		c0,0,0,0,0,0.1c0.1,0.1,0.1,0.2,0.2,0.3c0.1,0.1,0.3,0.2,0.5,0.3c0.2,0.1,0.3,0.1,0.5,0.1c0.4,0,0.7-0.1,1-0.4
		c0.2-0.2,0.3-0.4,0.3-0.6V135.5z M88.5,133.2c-0.4,0-0.7,0.1-0.9,0.4c-0.3,0.3-0.4,0.6-0.4,0.9c0,0.3,0.1,0.6,0.4,0.9
		c0.3,0.3,0.6,0.4,0.9,0.4c0.4,0,0.7-0.1,0.9-0.4c0.2-0.2,0.4-0.5,0.4-0.9c0-0.4-0.1-0.7-0.4-0.9C89.1,133.3,88.8,133.2,88.5,133.2z
		"/>
	<path class="st3" d="M93.5,135.5c-0.4,0.4-0.8,0.6-1.3,0.6c-0.5,0-0.8-0.2-1.2-0.5s-0.5-0.7-0.5-1.2s0.2-0.8,0.5-1.2
		c0.3-0.3,0.7-0.5,1.2-0.5c0.5,0,0.8,0.2,1.2,0.5c0.3,0.3,0.5,0.7,0.5,1.2v1.5c0,0.1,0,0.1-0.1,0.1c0,0-0.1,0.1-0.1,0.1
		c-0.1,0-0.1,0-0.1-0.1c0,0-0.1-0.1-0.1-0.1V135.5z M92.2,133.2c-0.4,0-0.7,0.1-0.9,0.4c-0.3,0.3-0.4,0.6-0.4,0.9s0.1,0.7,0.4,0.9
		c0.3,0.3,0.6,0.4,0.9,0.4c0.4,0,0.7-0.1,0.9-0.4c0.2-0.2,0.4-0.5,0.4-0.9s-0.1-0.7-0.4-0.9C92.9,133.3,92.6,133.2,92.2,133.2z"/>
	<path class="st3" d="M94.3,133c0-0.1,0-0.1,0.1-0.1c0,0,0.1-0.1,0.1-0.1c0.1,0,0.1,0,0.1,0.1c0,0,0.1,0.1,0.1,0.1v0.3
		c0.4-0.3,0.7-0.5,1.2-0.5c0.4,0,0.8,0.1,1.1,0.4c0.3,0.3,0.4,0.7,0.4,1.1v1.6c0,0.1,0,0.1-0.1,0.1c0,0-0.1,0.1-0.1,0.1
		c-0.1,0-0.1,0-0.1-0.1c0,0-0.1-0.1-0.1-0.1v-1.6c0-0.3-0.1-0.6-0.3-0.8c-0.2-0.2-0.5-0.3-0.8-0.3c-0.3,0-0.6,0.1-0.8,0.3
		c-0.2,0.2-0.3,0.5-0.3,0.8v1.6c0,0.1,0,0.1-0.1,0.1c0,0-0.1,0.1-0.1,0.1c-0.1,0-0.1,0-0.1-0.1c0,0-0.1-0.1-0.1-0.1V133z"/>
	<path class="st3" d="M98.5,132c0,0.1,0,0.1-0.1,0.2c0,0-0.1,0.1-0.2,0.1c-0.1,0-0.1,0-0.2-0.1c0,0-0.1-0.1-0.1-0.2
		c0-0.1,0-0.1,0.1-0.2c0,0,0.1-0.1,0.2-0.1c0.1,0,0.1,0,0.2,0.1C98.5,131.9,98.5,132,98.5,132z M98.1,133c0-0.1,0-0.1,0.1-0.1
		c0,0,0.1-0.1,0.1-0.1c0.1,0,0.1,0,0.1,0.1c0,0,0.1,0.1,0.1,0.1v2.9c0,0.1,0,0.1-0.1,0.1c0,0-0.1,0.1-0.1,0.1c-0.1,0-0.1,0-0.1-0.1
		c0,0-0.1-0.1-0.1-0.1V133z"/>
	<path class="st3" d="M101.9,135.7c0.1,0,0.1,0,0.1,0.1c0,0,0.1,0.1,0.1,0.1c0,0.1,0,0.1-0.1,0.1c0,0-0.1,0.1-0.1,0.1h-2.4
		c-0.1,0-0.1,0-0.1-0.1c0,0-0.1-0.1-0.1-0.1c0,0,0-0.1,0-0.1l2.2-2.6h-2c-0.1,0-0.1,0-0.1-0.1c0,0-0.1-0.1-0.1-0.1
		c0-0.1,0-0.1,0.1-0.1c0,0,0.1-0.1,0.1-0.1h2.4c0.1,0,0.1,0,0.1,0.1c0,0,0.1,0.1,0.1,0.1c0,0,0,0.1,0,0.1l-2.2,2.6H101.9z"/>
	<path class="st3" d="M104.9,135.4c0.1,0,0.1,0,0.1,0.1c0,0,0.1,0.1,0.1,0.1c0,0.1,0,0.1,0,0.1c-0.3,0.3-0.7,0.4-1.1,0.4
		c-0.5,0-0.8-0.2-1.2-0.5s-0.5-0.7-0.5-1.2s0.2-0.8,0.5-1.2c0.3-0.3,0.7-0.5,1.2-0.5c0.5,0,0.8,0.2,1.2,0.5c0.3,0.3,0.5,0.7,0.5,1.2
		c0,0.1,0,0.1-0.1,0.1c0,0-0.1,0.1-0.1,0.1h-2.7c0.1,0.3,0.2,0.5,0.4,0.7c0.3,0.3,0.6,0.4,0.9,0.4c0.2,0,0.3,0,0.4-0.1
		c0.1-0.1,0.3-0.1,0.4-0.2C104.8,135.4,104.9,135.4,104.9,135.4z M105.3,134.3c-0.1-0.3-0.2-0.5-0.4-0.7c-0.3-0.3-0.6-0.4-0.9-0.4
		s-0.7,0.1-0.9,0.4c-0.2,0.2-0.3,0.4-0.4,0.7H105.3z"/>
	<path class="st3" d="M109,131.6c0-0.1,0-0.1,0.1-0.1c0,0,0.1-0.1,0.1-0.1c0.1,0,0.1,0,0.1,0.1c0,0,0.1,0.1,0.1,0.1v2.9
		c0,0.5-0.2,0.8-0.5,1.2c-0.3,0.3-0.7,0.5-1.2,0.5c-0.5,0-0.8-0.2-1.2-0.5s-0.5-0.7-0.5-1.2s0.2-0.8,0.5-1.2
		c0.3-0.3,0.7-0.5,1.2-0.5c0.5,0,0.8,0.2,1.2,0.5l0.1,0.1V131.6z M109,134.5c0-0.4-0.1-0.7-0.4-0.9c-0.3-0.3-0.6-0.4-0.9-0.4
		s-0.7,0.1-0.9,0.4c-0.3,0.3-0.4,0.6-0.4,0.9s0.1,0.7,0.4,0.9c0.3,0.3,0.6,0.4,0.9,0.4s0.7-0.1,0.9-0.4
		C108.9,135.1,109,134.8,109,134.5z"/>
	<path class="st3" d="M114.1,131.5c0,0,0.1,0,0.1,0c0.1,0,0.1,0,0.1,0c0,0,0,0,0,0.1l1,3.7l1-3.7c0,0,0-0.1,0-0.1c0,0,0.1,0,0.1,0
		s0.1,0,0.1,0.1c0,0,0.1,0.1,0.1,0.1c0,0,0,0.1,0,0.1l-1.2,4.3c0,0,0,0.1-0.1,0.1c0,0-0.1,0.1-0.1,0.1c-0.1,0-0.1,0-0.1-0.1
		c0,0,0-0.1-0.1-0.1l-1-3.7l-1,3.7c0,0,0,0.1-0.1,0.1c0,0-0.1,0.1-0.1,0.1c0,0-0.1,0-0.1-0.1c0,0,0-0.1-0.1-0.1l-1.2-4.3
		c0,0,0-0.1,0-0.1c0-0.1,0-0.1,0.1-0.1c0,0,0.1-0.1,0.1-0.1c0.1,0,0.1,0,0.1,0c0,0,0,0,0,0.1l1,3.7L114.1,131.5
		C114.1,131.5,114.1,131.5,114.1,131.5z"/>
	<path class="st3" d="M120.4,134.5c0,0.5-0.2,0.8-0.5,1.2c-0.3,0.3-0.7,0.5-1.2,0.5c-0.5,0-0.8-0.2-1.2-0.5s-0.5-0.7-0.5-1.2
		s0.2-0.8,0.5-1.2c0.3-0.3,0.7-0.5,1.2-0.5c0.5,0,0.8,0.2,1.2,0.5C120.2,133.6,120.4,134,120.4,134.5z M118.7,133.2
		c-0.4,0-0.7,0.1-0.9,0.4c-0.3,0.3-0.4,0.6-0.4,0.9s0.1,0.7,0.4,0.9c0.3,0.3,0.6,0.4,0.9,0.4c0.4,0,0.7-0.1,0.9-0.4
		c0.2-0.2,0.4-0.5,0.4-0.9s-0.1-0.7-0.4-0.9C119.4,133.3,119.1,133.2,118.7,133.2z"/>
	<path class="st3" d="M120.8,133c0-0.1,0-0.1,0.1-0.1c0,0,0.1-0.1,0.1-0.1c0.1,0,0.1,0,0.1,0.1c0,0,0.1,0.1,0.1,0.1v0.4
		c0.4-0.4,0.8-0.6,1.3-0.6c0.2,0,0.5,0,0.6,0.1c0,0,0.1,0,0.1,0.1c0,0,0,0.1,0,0.1c0,0.1,0,0.1-0.1,0.1c0,0-0.1,0.1-0.1,0.1
		c0,0-0.1,0-0.1,0c-0.1-0.1-0.3-0.1-0.5-0.1c-0.4,0-0.7,0.1-0.9,0.4c-0.3,0.2-0.4,0.5-0.4,0.9v1.5c0,0.1,0,0.1-0.1,0.1
		c0,0-0.1,0.1-0.1,0.1c-0.1,0-0.1,0-0.1-0.1c0,0-0.1-0.1-0.1-0.1V133z"/>
	<path class="st3" d="M124,134.2l2.2-1.4c0,0,0.1,0,0.1,0c0.1,0,0.1,0,0.1,0.1c0,0,0.1,0.1,0.1,0.1c0,0.1,0,0.1-0.1,0.1l-1.5,1
		l1.5,1.7c0,0,0,0.1,0,0.1c0,0.1,0,0.1-0.1,0.1c0,0-0.1,0.1-0.1,0.1s-0.1,0-0.1-0.1l-1.5-1.7l-0.6,0.4v1.2c0,0.1,0,0.1-0.1,0.1
		c0,0-0.1,0.1-0.1,0.1c-0.1,0-0.1,0-0.1-0.1c0,0-0.1-0.1-0.1-0.1v-4.3c0-0.1,0-0.1,0.1-0.1c0,0,0.1-0.1,0.1-0.1c0.1,0,0.1,0,0.1,0.1
		c0,0,0.1,0.1,0.1,0.1V134.2z"/>
	<path class="st3" d="M127.5,134.4L127.5,134.4c-0.1,0-0.2-0.1-0.2-0.1c-0.1,0-0.1-0.1-0.1-0.1c-0.1-0.1-0.2-0.3-0.2-0.5
		c0-0.2,0.1-0.3,0.2-0.5c0.3-0.3,0.6-0.4,1.1-0.4c0.2,0,0.5,0.1,0.7,0.2c0.2,0.1,0.4,0.2,0.6,0.4c0,0,0,0.1,0,0.1
		c0,0.1,0,0.1-0.1,0.1c0,0-0.1,0.1-0.1,0.1c0,0-0.1,0-0.1,0l-0.1-0.1c-0.3-0.3-0.6-0.4-0.9-0.4c-0.4,0-0.6,0.1-0.9,0.3
		c-0.1,0.1-0.1,0.2-0.1,0.3c0,0.1,0,0.1,0.1,0.2c0,0,0.1,0.1,0.1,0.1l1.5,0.5h0c0.1,0,0.2,0.1,0.2,0.1c0.1,0,0.1,0.1,0.1,0.1
		c0.1,0.1,0.2,0.3,0.2,0.5c0,0.2-0.1,0.3-0.2,0.5c-0.3,0.3-0.6,0.4-1.1,0.4c-0.5,0-0.9-0.2-1.3-0.6c0,0,0-0.1,0-0.1
		c0-0.1,0-0.1,0.1-0.1c0,0,0.1-0.1,0.1-0.1c0,0,0.1,0,0.1,0l0.1,0.1c0.3,0.3,0.6,0.4,0.9,0.4c0.4,0,0.6-0.1,0.8-0.3
		c0.1-0.1,0.1-0.2,0.1-0.3c0-0.1-0.1-0.2-0.2-0.3L127.5,134.4z"/>
	<path class="st3" d="M130,131.6c0-0.1,0-0.1,0.1-0.1c0,0,0.1-0.1,0.1-0.1c0.1,0,0.1,0,0.1,0.1c0,0,0.1,0.1,0.1,0.1v1.8
		c0.4-0.3,0.7-0.5,1.2-0.5c0.4,0,0.8,0.1,1.1,0.4c0.3,0.3,0.4,0.7,0.4,1.1v1.6c0,0.1,0,0.1-0.1,0.1c0,0-0.1,0.1-0.1,0.1
		c-0.1,0-0.1,0-0.1-0.1c0,0-0.1-0.1-0.1-0.1v-1.6c0-0.3-0.1-0.6-0.3-0.8c-0.2-0.2-0.5-0.3-0.8-0.3c-0.3,0-0.6,0.1-0.8,0.3
		c-0.2,0.2-0.3,0.5-0.3,0.8v1.6c0,0.1,0,0.1-0.1,0.1c0,0-0.1,0.1-0.1,0.1c-0.1,0-0.1,0-0.1-0.1c0,0-0.1-0.1-0.1-0.1V131.6z"/>
	<path class="st3" d="M136.8,134.5c0,0.5-0.2,0.8-0.5,1.2c-0.3,0.3-0.7,0.5-1.2,0.5c-0.5,0-0.8-0.2-1.2-0.5s-0.5-0.7-0.5-1.2
		s0.2-0.8,0.5-1.2c0.3-0.3,0.7-0.5,1.2-0.5c0.5,0,0.8,0.2,1.2,0.5C136.7,133.6,136.8,134,136.8,134.5z M135.2,133.2
		c-0.4,0-0.7,0.1-0.9,0.4c-0.3,0.3-0.4,0.6-0.4,0.9s0.1,0.7,0.4,0.9c0.3,0.3,0.6,0.4,0.9,0.4s0.7-0.1,0.9-0.4
		c0.2-0.2,0.4-0.5,0.4-0.9s-0.1-0.7-0.4-0.9C135.9,133.3,135.6,133.2,135.2,133.2z"/>
	<path class="st3" d="M137.7,137.3c0,0.1,0,0.1-0.1,0.1c0,0-0.1,0.1-0.1,0.1c-0.1,0-0.1,0-0.1-0.1c0,0-0.1-0.1-0.1-0.1v-2.9
		c0-0.5,0.2-0.8,0.5-1.2c0.3-0.3,0.7-0.5,1.2-0.5c0.5,0,0.8,0.2,1.2,0.5c0.3,0.3,0.5,0.7,0.5,1.2s-0.2,0.8-0.5,1.2
		c-0.3,0.3-0.7,0.5-1.2,0.5c-0.5,0-0.8-0.2-1.2-0.5l-0.1-0.1V137.3z M137.7,134.5c0,0.4,0.1,0.7,0.4,0.9c0.3,0.3,0.6,0.4,0.9,0.4
		c0.4,0,0.7-0.1,0.9-0.4c0.2-0.2,0.4-0.5,0.4-0.9s-0.1-0.7-0.4-0.9c-0.3-0.3-0.6-0.4-0.9-0.4c-0.4,0-0.7,0.1-0.9,0.4
		C137.8,133.8,137.7,134.1,137.7,134.5z"/>
	<path class="st3" d="M45.6,141c0,0.6-0.2,1.2-0.7,1.7c-0.5,0.5-1,0.7-1.7,0.7c-0.3,0-0.6-0.1-0.9-0.2c-0.3-0.1-0.5-0.3-0.8-0.5
		c-0.2-0.2-0.4-0.5-0.5-0.8c-0.1-0.3-0.2-0.6-0.2-0.9c0-0.6,0.2-1.2,0.7-1.7c0.5-0.5,1-0.7,1.7-0.7c0.7,0,1.2,0.2,1.7,0.7
		C45.4,139.8,45.6,140.3,45.6,141z M43.3,139c-0.5,0-1,0.2-1.4,0.6c-0.4,0.4-0.6,0.9-0.6,1.4c0,0.5,0.2,1,0.6,1.4
		c0.4,0.4,0.9,0.6,1.4,0.6s1-0.2,1.4-0.6c0.4-0.4,0.6-0.9,0.6-1.4c0-0.5-0.2-1-0.6-1.4C44.3,139.2,43.8,139,43.3,139z"/>
	<path class="st3" d="M46.1,140.2c0-0.1,0-0.1,0.1-0.1c0,0,0.1-0.1,0.1-0.1c0.1,0,0.1,0,0.1,0.1c0,0,0.1,0.1,0.1,0.1v0.3
		c0.4-0.3,0.7-0.5,1.2-0.5c0.4,0,0.8,0.1,1.1,0.4c0.3,0.3,0.4,0.7,0.4,1.1v1.6c0,0.1,0,0.1-0.1,0.1c0,0-0.1,0.1-0.1,0.1
		c-0.1,0-0.1,0-0.1-0.1c0,0-0.1-0.1-0.1-0.1v-1.6c0-0.3-0.1-0.6-0.3-0.8c-0.2-0.2-0.5-0.3-0.8-0.3c-0.3,0-0.6,0.1-0.8,0.3
		c-0.2,0.2-0.3,0.5-0.3,0.8v1.6c0,0.1,0,0.1-0.1,0.1c0,0-0.1,0.1-0.1,0.1c-0.1,0-0.1,0-0.1-0.1c0,0-0.1-0.1-0.1-0.1V140.2z"/>
	<path class="st3" d="M54.3,138.8c0-0.1,0-0.1,0.1-0.1c0,0,0.1-0.1,0.1-0.1c0.1,0,0.1,0,0.1,0.1c0,0,0.1,0.1,0.1,0.1v2h2.5v-2
		c0-0.1,0-0.1,0.1-0.1c0,0,0.1-0.1,0.1-0.1c0,0,0.1,0,0.1,0.1c0,0,0.1,0.1,0.1,0.1v4.3c0,0.1,0,0.1-0.1,0.1c0,0-0.1,0.1-0.1,0.1
		c-0.1,0-0.1,0-0.1-0.1c0,0-0.1-0.1-0.1-0.1v-2h-2.5v2c0,0.1,0,0.1-0.1,0.1c0,0-0.1,0.1-0.1,0.1c-0.1,0-0.1,0-0.1-0.1
		c0,0-0.1-0.1-0.1-0.1V138.8z"/>
	<path class="st3" d="M61.1,143.1c0,0.1,0,0.1-0.1,0.1c0,0-0.1,0.1-0.1,0.1c-0.1,0-0.1,0-0.1-0.1c0,0-0.1-0.1-0.1-0.1v-0.3
		c-0.4,0.3-0.7,0.5-1.2,0.5c-0.4,0-0.8-0.1-1.1-0.4c-0.3-0.3-0.4-0.7-0.4-1.1v-1.6c0-0.1,0-0.1,0.1-0.1c0,0,0.1-0.1,0.1-0.1
		c0.1,0,0.1,0,0.1,0.1c0,0,0.1,0.1,0.1,0.1v1.6c0,0.3,0.1,0.6,0.3,0.8c0.2,0.2,0.5,0.3,0.8,0.3c0.3,0,0.6-0.1,0.8-0.3
		c0.2-0.2,0.3-0.5,0.3-0.8v-1.6c0-0.1,0-0.1,0.1-0.1c0,0,0.1-0.1,0.1-0.1c0.1,0,0.1,0,0.1,0.1c0,0,0.1,0.1,0.1,0.1V143.1z"/>
	<path class="st3" d="M62,143.1c0,0.1,0,0.1-0.1,0.1c0,0-0.1,0.1-0.1,0.1c-0.1,0-0.1,0-0.1-0.1c0,0-0.1-0.1-0.1-0.1v-2.9
		c0-0.1,0-0.1,0.1-0.1c0,0,0.1-0.1,0.1-0.1c0.1,0,0.1,0,0.1,0.1c0,0,0.1,0.1,0.1,0.1v0.2c0.3-0.3,0.6-0.4,0.9-0.4
		c0.4,0,0.7,0.1,0.9,0.4c0.1,0.1,0.1,0.1,0.2,0.2c0.1-0.1,0.1-0.2,0.2-0.2c0.3-0.3,0.6-0.4,0.9-0.4c0.4,0,0.7,0.1,0.9,0.4
		c0.2,0.2,0.4,0.5,0.4,0.9v1.8c0,0.1,0,0.1-0.1,0.1c0,0-0.1,0.1-0.1,0.1c-0.1,0-0.1,0-0.1-0.1c0,0-0.1-0.1-0.1-0.1v-1.8
		c0-0.3-0.1-0.5-0.3-0.6c-0.2-0.2-0.4-0.3-0.6-0.3c-0.3,0-0.5,0.1-0.6,0.3c-0.2,0.2-0.3,0.4-0.3,0.6v1.8c0,0.1,0,0.1-0.1,0.1
		c0,0-0.1,0.1-0.1,0.1c-0.1,0-0.1,0-0.1-0.1c0,0-0.1-0.1-0.1-0.1v-1.8c0-0.3-0.1-0.5-0.3-0.6c-0.2-0.2-0.4-0.3-0.6-0.3
		c-0.3,0-0.5,0.1-0.6,0.3c-0.2,0.2-0.3,0.4-0.3,0.6V143.1z"/>
	<path class="st3" d="M69.7,142.7c-0.4,0.4-0.8,0.6-1.3,0.6c-0.5,0-0.8-0.2-1.2-0.5s-0.5-0.7-0.5-1.2s0.2-0.8,0.5-1.2
		s0.7-0.5,1.2-0.5c0.5,0,0.8,0.2,1.2,0.5c0.3,0.3,0.5,0.7,0.5,1.2v1.5c0,0.1,0,0.1-0.1,0.1c0,0-0.1,0.1-0.1,0.1
		c-0.1,0-0.1,0-0.1-0.1c0,0-0.1-0.1-0.1-0.1V142.7z M68.4,140.4c-0.4,0-0.7,0.1-0.9,0.4c-0.3,0.3-0.4,0.6-0.4,0.9s0.1,0.7,0.4,0.9
		c0.3,0.3,0.6,0.4,0.9,0.4c0.4,0,0.7-0.1,0.9-0.4c0.2-0.2,0.4-0.5,0.4-0.9s-0.1-0.7-0.4-0.9C69.1,140.5,68.8,140.4,68.4,140.4z"/>
	<path class="st3" d="M70.5,140.2c0-0.1,0-0.1,0.1-0.1c0,0,0.1-0.1,0.1-0.1c0.1,0,0.1,0,0.1,0.1c0,0,0.1,0.1,0.1,0.1v0.3
		c0.4-0.3,0.7-0.5,1.2-0.5c0.4,0,0.8,0.1,1.1,0.4c0.3,0.3,0.4,0.7,0.4,1.1v1.6c0,0.1,0,0.1-0.1,0.1c0,0-0.1,0.1-0.1,0.1
		c-0.1,0-0.1,0-0.1-0.1c0,0-0.1-0.1-0.1-0.1v-1.6c0-0.3-0.1-0.6-0.3-0.8c-0.2-0.2-0.5-0.3-0.8-0.3c-0.3,0-0.6,0.1-0.8,0.3
		c-0.2,0.2-0.3,0.5-0.3,0.8v1.6c0,0.1,0,0.1-0.1,0.1c0,0-0.1,0.1-0.1,0.1c-0.1,0-0.1,0-0.1-0.1c0,0-0.1-0.1-0.1-0.1V140.2z"/>
	<path class="st3" d="M75.8,141.8c-0.1,0-0.1,0-0.1-0.1c0,0-0.1-0.1-0.1-0.1s0-0.1,0.1-0.1c0,0,0.1-0.1,0.1-0.1h1.5
		c0.1,0,0.1,0,0.1,0.1c0,0,0.1,0.1,0.1,0.1s0,0.1-0.1,0.1c0,0-0.1,0.1-0.1,0.1H75.8z"/>
	<path class="st3" d="M75.8,134.5c-0.1,0-0.1,0-0.1-0.1c0,0-0.1-0.1-0.1-0.1s0-0.1,0.1-0.1c0,0,0.1-0.1,0.1-0.1h1.5
		c0.1,0,0.1,0,0.1,0.1c0,0,0.1,0.1,0.1,0.1s0,0.1-0.1,0.1c0,0-0.1,0.1-0.1,0.1H75.8z"/>
	<path class="st3" d="M81.8,142.3c0.1,0,0.1,0,0.2,0.1c0,0,0.1,0.1,0.1,0.2c0,0.1,0,0.1-0.1,0.2c-0.2,0.2-0.4,0.3-0.7,0.4
		c-0.2,0.1-0.5,0.1-0.8,0.1c-0.6,0-1.1-0.2-1.6-0.6c-0.4-0.4-0.6-1-0.6-1.6s0.2-1.1,0.6-1.6c0.4-0.4,1-0.6,1.6-0.6
		c0.3,0,0.5,0,0.8,0.1c0.2,0.1,0.5,0.2,0.7,0.4c0,0,0,0.1,0.1,0.1c0,0,0,0.1,0,0.1c0,0.1,0,0.1-0.1,0.2c0,0-0.1,0.1-0.2,0.1
		c-0.1,0-0.1,0-0.2-0.1c-0.3-0.3-0.7-0.4-1.1-0.4c-0.5,0-0.9,0.2-1.2,0.5c-0.3,0.3-0.5,0.7-0.5,1.2s0.2,0.9,0.5,1.2
		c0.3,0.3,0.7,0.5,1.2,0.5c0.2,0,0.4,0,0.6-0.1c0.2-0.1,0.4-0.2,0.5-0.3C81.7,142.4,81.8,142.3,81.8,142.3z"/>
	<path class="st3" d="M85.8,141.7c0,0.5-0.2,0.8-0.5,1.2c-0.3,0.3-0.7,0.5-1.2,0.5c-0.5,0-0.8-0.2-1.2-0.5s-0.5-0.7-0.5-1.2
		s0.2-0.8,0.5-1.2s0.7-0.5,1.2-0.5c0.5,0,0.8,0.2,1.2,0.5C85.7,140.8,85.8,141.2,85.8,141.7z M84.2,140.4c-0.4,0-0.7,0.1-0.9,0.4
		c-0.3,0.3-0.4,0.6-0.4,0.9s0.1,0.7,0.4,0.9c0.3,0.3,0.6,0.4,0.9,0.4c0.4,0,0.7-0.1,0.9-0.4c0.2-0.2,0.4-0.5,0.4-0.9
		s-0.1-0.7-0.4-0.9C84.8,140.5,84.5,140.4,84.2,140.4z"/>
	<path class="st3" d="M86.6,143.1c0,0.1,0,0.1-0.1,0.1c0,0-0.1,0.1-0.1,0.1c-0.1,0-0.1,0-0.1-0.1c0,0-0.1-0.1-0.1-0.1v-2.9
		c0-0.1,0-0.1,0.1-0.1c0,0,0.1-0.1,0.1-0.1c0.1,0,0.1,0,0.1,0.1c0,0,0.1,0.1,0.1,0.1v0.2c0.3-0.3,0.6-0.4,0.9-0.4
		c0.4,0,0.7,0.1,0.9,0.4c0.1,0.1,0.1,0.1,0.2,0.2c0.1-0.1,0.1-0.2,0.2-0.2c0.3-0.3,0.6-0.4,0.9-0.4c0.4,0,0.7,0.1,0.9,0.4
		c0.2,0.2,0.4,0.5,0.4,0.9v1.8c0,0.1,0,0.1-0.1,0.1c0,0-0.1,0.1-0.1,0.1c-0.1,0-0.1,0-0.1-0.1c0,0-0.1-0.1-0.1-0.1v-1.8
		c0-0.3-0.1-0.5-0.3-0.6c-0.2-0.2-0.4-0.3-0.6-0.3c-0.3,0-0.5,0.1-0.6,0.3c-0.2,0.2-0.3,0.4-0.3,0.6v1.8c0,0.1,0,0.1-0.1,0.1
		c0,0-0.1,0.1-0.1,0.1c-0.1,0-0.1,0-0.1-0.1c0,0-0.1-0.1-0.1-0.1v-1.8c0-0.3-0.1-0.5-0.3-0.6c-0.2-0.2-0.4-0.3-0.6-0.3
		s-0.5,0.1-0.6,0.3c-0.2,0.2-0.3,0.4-0.3,0.6V143.1z"/>
	<path class="st3" d="M98.2,143.1c0,0.1,0,0.1-0.1,0.1c0,0-0.1,0.1-0.1,0.1c-0.1,0-0.1,0-0.1-0.1c0,0-0.1-0.1-0.1-0.1v-0.3
		c-0.4,0.3-0.7,0.5-1.2,0.5c-0.4,0-0.8-0.1-1.1-0.4c-0.3-0.3-0.4-0.7-0.4-1.1v-1.6c0-0.1,0-0.1,0.1-0.1c0,0,0.1-0.1,0.1-0.1
		c0.1,0,0.1,0,0.1,0.1c0,0,0.1,0.1,0.1,0.1v1.6c0,0.3,0.1,0.6,0.3,0.8c0.2,0.2,0.5,0.3,0.8,0.3c0.3,0,0.6-0.1,0.8-0.3
		c0.2-0.2,0.3-0.5,0.3-0.8v-1.6c0-0.1,0-0.1,0.1-0.1c0,0,0.1-0.1,0.1-0.1c0.1,0,0.1,0,0.1,0.1c0,0,0.1,0.1,0.1,0.1V143.1z"/>
	<path class="st3" d="M91.8,144.5c0,0.1,0,0.1-0.1,0.1c0,0-0.1,0.1-0.1,0.1c-0.1,0-0.1,0-0.1-0.1c0,0-0.1-0.1-0.1-0.1v-2.9
		c0-0.5,0.2-0.8,0.5-1.2s0.7-0.5,1.2-0.5c0.5,0,0.8,0.2,1.2,0.5c0.3,0.3,0.5,0.7,0.5,1.2s-0.2,0.8-0.5,1.2c-0.3,0.3-0.7,0.5-1.2,0.5
		c-0.5,0-0.8-0.2-1.2-0.5l-0.1-0.1V144.5z M91.8,141.7c0,0.4,0.1,0.7,0.4,0.9c0.3,0.3,0.6,0.4,0.9,0.4s0.7-0.1,0.9-0.4
		c0.2-0.2,0.4-0.5,0.4-0.9s-0.1-0.7-0.4-0.9c-0.3-0.3-0.6-0.4-0.9-0.4s-0.7,0.1-0.9,0.4C92,141,91.8,141.3,91.8,141.7z"/>
	<path class="st3" d="M100.4,142.9c0.1,0,0.1,0,0.1,0.1c0,0,0.1,0.1,0.1,0.1c0,0.1,0,0.1-0.1,0.1c0,0-0.1,0.1-0.1,0.1
		c-0.8,0-1.2-0.4-1.2-1.2v-1.8h-0.3c-0.1,0-0.1,0-0.1-0.1c0,0-0.1-0.1-0.1-0.1c0-0.1,0-0.1,0.1-0.1c0,0,0.1-0.1,0.1-0.1h0.3v-1.2
		c0-0.1,0-0.1,0.1-0.1c0,0,0.1-0.1,0.1-0.1c0.1,0,0.1,0,0.1,0.1c0,0,0.1,0.1,0.1,0.1v1.2h0.5c0.1,0,0.1,0,0.1,0.1
		c0,0,0.1,0.1,0.1,0.1c0,0.1,0,0.1-0.1,0.1c0,0-0.1,0.1-0.1,0.1h-0.5v1.8C99.6,142.7,99.8,142.9,100.4,142.9z"/>
	<path class="st3" d="M103.5,142.6c0.1,0,0.1,0,0.1,0.1c0,0,0.1,0.1,0.1,0.1c0,0.1,0,0.1,0,0.1c-0.3,0.3-0.7,0.4-1.1,0.4
		c-0.5,0-0.8-0.2-1.2-0.5c-0.3-0.3-0.5-0.7-0.5-1.2s0.2-0.8,0.5-1.2c0.3-0.3,0.7-0.5,1.2-0.5c0.5,0,0.8,0.2,1.2,0.5
		c0.3,0.3,0.5,0.7,0.5,1.2c0,0.1,0,0.1-0.1,0.1c0,0-0.1,0.1-0.1,0.1h-2.7c0.1,0.3,0.2,0.5,0.4,0.7c0.3,0.3,0.6,0.4,0.9,0.4
		c0.2,0,0.3,0,0.4-0.1c0.1-0.1,0.3-0.1,0.4-0.2C103.4,142.6,103.4,142.6,103.5,142.6z M103.8,141.5c-0.1-0.3-0.2-0.5-0.4-0.7
		c-0.3-0.3-0.6-0.4-0.9-0.4c-0.4,0-0.7,0.1-0.9,0.4c-0.2,0.2-0.3,0.4-0.4,0.7H103.8z"/>
	<path class="st3" d="M104.7,140.2c0-0.1,0-0.1,0.1-0.1c0,0,0.1-0.1,0.1-0.1c0.1,0,0.1,0,0.1,0.1c0,0,0.1,0.1,0.1,0.1v0.4
		c0.4-0.4,0.8-0.6,1.3-0.6c0.2,0,0.5,0,0.6,0.1c0,0,0.1,0,0.1,0.1c0,0,0,0.1,0,0.1c0,0.1,0,0.1-0.1,0.1c0,0-0.1,0.1-0.1,0.1
		c0,0-0.1,0-0.1,0c-0.1-0.1-0.3-0.1-0.5-0.1c-0.4,0-0.7,0.1-0.9,0.4c-0.3,0.2-0.4,0.5-0.4,0.9v1.5c0,0.1,0,0.1-0.1,0.1
		c0,0-0.1,0.1-0.1,0.1c-0.1,0-0.1,0-0.1-0.1c0,0-0.1-0.1-0.1-0.1V140.2z"/>
	<path class="st3" d="M109.6,138.8c0-0.1,0-0.1,0.1-0.1c0,0,0.1-0.1,0.1-0.1c0.1,0,0.1,0,0.1,0.1c0,0,0.1,0.1,0.1,0.1v4.3
		c0,0.1,0,0.1-0.1,0.1c0,0-0.1,0.1-0.1,0.1c-0.1,0-0.1,0-0.1-0.1c0,0-0.1-0.1-0.1-0.1V138.8z"/>
	<path class="st3" d="M110.8,140.2c0-0.1,0-0.1,0.1-0.1c0,0,0.1-0.1,0.1-0.1c0.1,0,0.1,0,0.1,0.1c0,0,0.1,0.1,0.1,0.1v0.3
		c0.4-0.3,0.7-0.5,1.2-0.5c0.4,0,0.8,0.1,1.1,0.4c0.3,0.3,0.4,0.7,0.4,1.1v1.6c0,0.1,0,0.1-0.1,0.1c0,0-0.1,0.1-0.1,0.1
		c-0.1,0-0.1,0-0.1-0.1c0,0-0.1-0.1-0.1-0.1v-1.6c0-0.3-0.1-0.6-0.3-0.8c-0.2-0.2-0.5-0.3-0.8-0.3c-0.3,0-0.6,0.1-0.8,0.3
		c-0.2,0.2-0.3,0.5-0.3,0.8v1.6c0,0.1,0,0.1-0.1,0.1c0,0-0.1,0.1-0.1,0.1c-0.1,0-0.1,0-0.1-0.1c0,0-0.1-0.1-0.1-0.1V140.2z"/>
	<path class="st3" d="M115.9,142.9c0.1,0,0.1,0,0.1,0.1c0,0,0.1,0.1,0.1,0.1c0,0.1,0,0.1-0.1,0.1c0,0-0.1,0.1-0.1,0.1
		c-0.8,0-1.2-0.4-1.2-1.2v-1.8h-0.3c-0.1,0-0.1,0-0.1-0.1c0,0-0.1-0.1-0.1-0.1c0-0.1,0-0.1,0.1-0.1c0,0,0.1-0.1,0.1-0.1h0.3v-1.2
		c0-0.1,0-0.1,0.1-0.1c0,0,0.1-0.1,0.1-0.1c0.1,0,0.1,0,0.1,0.1c0,0,0.1,0.1,0.1,0.1v1.2h0.5c0.1,0,0.1,0,0.1,0.1
		c0,0,0.1,0.1,0.1,0.1c0,0.1,0,0.1-0.1,0.1c0,0-0.1,0.1-0.1,0.1h-0.5v1.8C115.1,142.7,115.4,142.9,115.9,142.9z"/>
	<path class="st3" d="M119,142.6c0.1,0,0.1,0,0.1,0.1c0,0,0.1,0.1,0.1,0.1c0,0.1,0,0.1,0,0.1c-0.3,0.3-0.7,0.4-1.1,0.4
		c-0.5,0-0.8-0.2-1.2-0.5s-0.5-0.7-0.5-1.2s0.2-0.8,0.5-1.2s0.7-0.5,1.2-0.5c0.5,0,0.8,0.2,1.2,0.5c0.3,0.3,0.5,0.7,0.5,1.2
		c0,0.1,0,0.1-0.1,0.1c0,0-0.1,0.1-0.1,0.1h-2.7c0.1,0.3,0.2,0.5,0.4,0.7c0.3,0.3,0.6,0.4,0.9,0.4c0.2,0,0.3,0,0.4-0.1
		c0.1-0.1,0.3-0.1,0.4-0.2C118.9,142.6,119,142.6,119,142.6z M119.3,141.5c-0.1-0.3-0.2-0.5-0.4-0.7c-0.3-0.3-0.6-0.4-0.9-0.4
		s-0.7,0.1-0.9,0.4c-0.2,0.2-0.3,0.4-0.4,0.7H119.3z"/>
	<path class="st3" d="M120.2,140.2c0-0.1,0-0.1,0.1-0.1c0,0,0.1-0.1,0.1-0.1c0.1,0,0.1,0,0.1,0.1c0,0,0.1,0.1,0.1,0.1v0.4
		c0.4-0.4,0.8-0.6,1.3-0.6c0.2,0,0.5,0,0.6,0.1c0,0,0.1,0,0.1,0.1c0,0,0,0.1,0,0.1c0,0.1,0,0.1-0.1,0.1c0,0-0.1,0.1-0.1,0.1
		c0,0-0.1,0-0.1,0c-0.1-0.1-0.3-0.1-0.5-0.1c-0.4,0-0.7,0.1-0.9,0.4c-0.3,0.2-0.4,0.5-0.4,0.9v1.5c0,0.1,0,0.1-0.1,0.1
		c0,0-0.1,0.1-0.1,0.1c-0.1,0-0.1,0-0.1-0.1c0,0-0.1-0.1-0.1-0.1V140.2z"/>
	<path class="st3" d="M129.1,142.6c0.1,0,0.1,0,0.1,0.1c0,0,0.1,0.1,0.1,0.1c0,0.1,0,0.1-0.1,0.1c-0.1,0.1-0.3,0.2-0.5,0.3
		c-0.2,0.1-0.4,0.1-0.6,0.1c-0.5,0-0.8-0.2-1.2-0.5s-0.5-0.7-0.5-1.2s0.2-0.8,0.5-1.2s0.7-0.5,1.2-0.5c0.2,0,0.4,0,0.6,0.1
		c0.2,0.1,0.3,0.2,0.5,0.3c0,0,0,0,0,0.1c0,0,0,0.1,0,0.1c0,0.1,0,0.1-0.1,0.1c0,0-0.1,0.1-0.1,0.1c0,0-0.1,0-0.1,0
		c-0.2-0.2-0.5-0.3-0.8-0.3c-0.4,0-0.7,0.1-0.9,0.4c-0.2,0.2-0.4,0.5-0.4,0.9s0.1,0.7,0.4,0.9c0.3,0.3,0.6,0.4,0.9,0.4
		c0.2,0,0.3,0,0.4-0.1c0.1-0.1,0.3-0.1,0.4-0.2C129,142.6,129.1,142.6,129.1,142.6z"/>
	<path class="st3" d="M125.5,142.7c-0.4,0.4-0.8,0.6-1.3,0.6c-0.5,0-0.8-0.2-1.2-0.5s-0.5-0.7-0.5-1.2s0.2-0.8,0.5-1.2
		s0.7-0.5,1.2-0.5c0.5,0,0.8,0.2,1.2,0.5c0.3,0.3,0.5,0.7,0.5,1.2v1.5c0,0.1,0,0.1-0.1,0.1c0,0-0.1,0.1-0.1,0.1
		c-0.1,0-0.1,0-0.1-0.1c0,0-0.1-0.1-0.1-0.1V142.7z M124.2,140.4c-0.4,0-0.7,0.1-0.9,0.4c-0.3,0.3-0.4,0.6-0.4,0.9s0.1,0.7,0.4,0.9
		c0.3,0.3,0.6,0.4,0.9,0.4c0.4,0,0.7-0.1,0.9-0.4c0.2-0.2,0.4-0.5,0.4-0.9s-0.1-0.7-0.4-0.9C124.9,140.5,124.6,140.4,124.2,140.4z"
		/>
	<path class="st3" d="M131.7,142.9c0.1,0,0.1,0,0.1,0.1c0,0,0.1,0.1,0.1,0.1c0,0.1,0,0.1-0.1,0.1c0,0-0.1,0.1-0.1,0.1
		c-0.8,0-1.2-0.4-1.2-1.2v-1.8h-0.3c-0.1,0-0.1,0-0.1-0.1c0,0-0.1-0.1-0.1-0.1c0-0.1,0-0.1,0.1-0.1c0,0,0.1-0.1,0.1-0.1h0.3v-1.2
		c0-0.1,0-0.1,0.1-0.1c0,0,0.1-0.1,0.1-0.1c0.1,0,0.1,0,0.1,0.1c0,0,0.1,0.1,0.1,0.1v1.2h0.5c0.1,0,0.1,0,0.1,0.1
		c0,0,0.1,0.1,0.1,0.1c0,0.1,0,0.1-0.1,0.1c0,0-0.1,0.1-0.1,0.1h-0.5v1.8C130.9,142.7,131.2,142.9,131.7,142.9z"/>
	<path class="st3" d="M133.1,139.2c0,0.1,0,0.1-0.1,0.2c0,0-0.1,0.1-0.2,0.1c-0.1,0-0.1,0-0.2-0.1c0,0-0.1-0.1-0.1-0.2
		c0-0.1,0-0.1,0.1-0.2c0,0,0.1-0.1,0.2-0.1c0.1,0,0.1,0,0.2,0.1C133.1,139.1,133.1,139.2,133.1,139.2z M132.6,140.2
		c0-0.1,0-0.1,0.1-0.1c0,0,0.1-0.1,0.1-0.1c0.1,0,0.1,0,0.1,0.1c0,0,0.1,0.1,0.1,0.1v2.9c0,0.1,0,0.1-0.1,0.1c0,0-0.1,0.1-0.1,0.1
		c-0.1,0-0.1,0-0.1-0.1c0,0-0.1-0.1-0.1-0.1V140.2z"/>
	<path class="st3" d="M137.1,141.7c0,0.5-0.2,0.8-0.5,1.2c-0.3,0.3-0.7,0.5-1.2,0.5c-0.5,0-0.8-0.2-1.2-0.5s-0.5-0.7-0.5-1.2
		s0.2-0.8,0.5-1.2s0.7-0.5,1.2-0.5c0.5,0,0.8,0.2,1.2,0.5C136.9,140.8,137.1,141.2,137.1,141.7z M135.4,140.4
		c-0.4,0-0.7,0.1-0.9,0.4c-0.3,0.3-0.4,0.6-0.4,0.9s0.1,0.7,0.4,0.9c0.3,0.3,0.6,0.4,0.9,0.4s0.7-0.1,0.9-0.4
		c0.2-0.2,0.4-0.5,0.4-0.9s-0.1-0.7-0.4-0.9C136.1,140.5,135.8,140.4,135.4,140.4z"/>
	<path class="st3" d="M137.5,140.2c0-0.1,0-0.1,0.1-0.1c0,0,0.1-0.1,0.1-0.1c0.1,0,0.1,0,0.1,0.1c0,0,0.1,0.1,0.1,0.1v0.3
		c0.4-0.3,0.7-0.5,1.2-0.5c0.4,0,0.8,0.1,1.1,0.4c0.3,0.3,0.4,0.7,0.4,1.1v1.6c0,0.1,0,0.1-0.1,0.1c0,0-0.1,0.1-0.1,0.1
		c-0.1,0-0.1,0-0.1-0.1c0,0-0.1-0.1-0.1-0.1v-1.6c0-0.3-0.1-0.6-0.3-0.8c-0.2-0.2-0.5-0.3-0.8-0.3c-0.3,0-0.6,0.1-0.8,0.3
		c-0.2,0.2-0.3,0.5-0.3,0.8v1.6c0,0.1,0,0.1-0.1,0.1c0,0-0.1,0.1-0.1,0.1c-0.1,0-0.1,0-0.1-0.1c0,0-0.1-0.1-0.1-0.1V140.2z"/>
	<g>
		<text transform="matrix(1.1991 0 0 1 40.5752 105.3408)" class="st3 st7 st11">RE: _______</text>
	</g>
	<g>
		<g>
			<path class="st3" d="M103.1,70.7L103.1,70.7c-0.7,0-1.3-0.6-1.3-1.2V49.5c0-0.7,0.6-1.2,1.2-1.2h0c0.7,0,1.2,0.6,1.2,1.2v19.9
				C104.4,70.1,103.8,70.7,103.1,70.7z"/>
			<path class="st3" d="M92.7,85.5L92.7,85.5c-0.7,0-1.3-0.6-1.3-1.2V49.5c0-0.7,0.6-1.2,1.2-1.2h0c0.7,0,1.2,0.6,1.2,1.2v34.7
				C93.9,84.9,93.4,85.5,92.7,85.5z"/>
			<path class="st3" d="M129.7,45.4h2.1c0.1,0,0.1,0,0.2,0h4.8c0.7,0,1.3-0.6,1.3-1.3v-0.6c0-0.7-0.6-1.3-1.3-1.3h-7.5
				c-0.3-0.1-0.9-0.3-1.1-1.1l0,1.1h0v-3.5c0-0.7-0.6-1.3-1.3-1.3c-0.7,0-1.3,0.6-1.3,1.3v2.6c-0.3,0.7-0.9,0.9-1.1,0.9h-8v0h1.2
				c0,0-1,0-1.2-1.1l0,0.5v-3.1c0-0.7-0.6-1.3-1.3-1.3c-0.7,0-1.3,0.6-1.3,1.3v2.7c-0.2,0.9-1,1-1.2,1.1h-12.5c-0.2,0-1-0.1-1.2-1.1
				v-2.5c0-0.7-0.6-1.3-1.3-1.3c-0.7,0-1.3,0.6-1.3,1.3v3.6l0-1.1c-0.2,1-1,1.1-1.2,1.1h-4.1c-0.7,0-1.3,0.6-1.3,1.3v0.6
				c0,0.7,0.6,1.3,1.3,1.3h4.1c0.2,0,1,0.2,1.2,1.1v37.7c0,0.7,0.6,1.3,1.3,1.3c0.7,0,1.3-0.6,1.3-1.3V46.5c0.2-0.9,1-1,1.2-1.1h9.1
				c0,0,0.1,0,0.1,0h3.3c0.7,0,1.3,0.6,1.3,1.3v0.4c0,0.7-0.6,1.3-1.3,1.3h-1.2v0h-3.6c-0.7,0-1.3,0.6-1.3,1.3v0.6
				c0,0.7,0.6,1.3,1.3,1.3h3.6v0h1.2c0.7,0,1.3,0.6,1.3,1.3v0.4c0,0.7-0.6,1.3-1.3,1.3h-1.2v0h-3.6c-0.7,0-1.3,0.6-1.3,1.3v0.6
				c0,0.7,0.6,1.3,1.3,1.3h3.6v0h6.5c0.7,0,1.3,0.6,1.3,1.3v0.2c0,0.7-0.6,1.3-1.3,1.3h-6.5v0h-3.6c-0.7,0-1.3,0.6-1.3,1.3v0.6
				c0,0,0,0.1,0,0.1V73c-0.1,0.3-0.3,0.9-1.1,1.1h-1.8c-0.7,0-1.3,0.6-1.3,1.3v0.6c0,0.7,0.6,1.3,1.3,1.3h1.8c0.3,0,0.9,0.2,1.1,1.1
				v5.8c0,0.7,0.6,1.3,1.3,1.3s1.3-0.6,1.3-1.3v-5.8c0.2-1.1,1.2-1.1,1.2-1.1l-0.5,0h20.8c0.3,0,0.8,0.2,1,0.9v6
				c0,0.7,0.6,1.3,1.3,1.3s1.3-0.6,1.3-1.3v-5.9c0.2-1.1,1.2-1.1,1.2-1.1l-0.5,0h1.6c0.7,0,1.3-0.6,1.3-1.3v-0.6
				c0-0.7-0.6-1.3-1.3-1.3h-1.3c-1-0.2-1-1.2-1-1.2l0,0.2V62.1c0-0.3-0.1-0.5-0.2-0.7c-0.2-0.4-0.6-0.7-1.1-0.7h-3.6v0H123
				c-0.7,0-1.3-0.6-1.3-1.3v-0.2c0-0.7,0.6-1.3,1.3-1.3h6.3v0h3.7c0.7,0,1.3-0.6,1.3-1.3V56c0-0.7-0.6-1.3-1.3-1.3h-3.3v0h0
				c-0.7,0-1.3-0.6-1.3-1.3V53c0-0.7,0.6-1.3,1.3-1.3h0v0h3.3c0.7,0,1.3-0.6,1.3-1.3v-0.6c0-0.7-0.6-1.3-1.3-1.3h-2.7v0h-0.6
				c-0.7,0-1.3-0.6-1.3-1.3v-0.4C128.4,46,129,45.4,129.7,45.4z M106.8,77.6l0-0.4h0V77.6z M109.1,65.4c0-0.7,0.6-1.3,1.3-1.3h7.8
				c0.7,0,1.3,0.6,1.3,1.3v0.5c0,0.7-0.6,1.3-1.3,1.3h-7.8c-0.7,0-1.3-0.6-1.3-1.3V65.4z M109.3,77.3L109.3,77.3L109.3,77.3
				L109.3,77.3z M132,72.5c0,0.7-0.6,1.3-1.3,1.3h-20.3c-0.7,0-1.3-0.6-1.3-1.3V72c0-0.7,0.6-1.3,1.3-1.3h20.3
				c0.7,0,1.3,0.6,1.3,1.3V72.5z M123,64.1h7.8c0.7,0,1.3,0.6,1.3,1.3v0.5c0,0.7-0.6,1.3-1.3,1.3H123c-0.7,0-1.3-0.6-1.3-1.3v-0.5
				C121.7,64.7,122.3,64.1,123,64.1z M126.2,53.5c0,0.7-0.6,1.3-1.3,1.3h-7.1c-0.7,0-1.3-0.6-1.3-1.3v-0.5c0-0.7,0.6-1.3,1.3-1.3
				h7.1c0.7,0,1.3,0.6,1.3,1.3V53.5z M126.2,47.2c0,0.7-0.6,1.3-1.3,1.3h-7.1c-0.7,0-1.3-0.6-1.3-1.3v-0.5c0-0.7,0.6-1.3,1.3-1.3
				h7.1c0.7,0,1.3,0.6,1.3,1.3V47.2z"/>
		</g>
	</g>
	<path class="st3" d="M64.1,49.3h19.5c0.7,0,1.2-0.6,1.2-1.2v-0.6c0-0.7-0.6-1.2-1.2-1.2H64c-0.3-0.1-0.7-0.3-0.8-1l0,1h0v-3
		c0.1-0.3,0.3-0.8,1-1h16c0.7,0,1.2-0.6,1.2-1.2v-0.6c0-0.7-0.6-1.2-1.2-1.2h-37c-0.7,0-1.2,0.6-1.2,1.2V41c0,0.7,0.6,1.2,1.2,1.2
		h17.6v0h-1.1c0,0,0.8,0,1.1,0.8v2.5l0-0.3c-0.1,0.8-0.7,1-1,1h-19c-0.7,0-1.2,0.6-1.2,1.2V48c0,0.7,0.6,1.2,1.2,1.2h19
		c0.3,0,0.9,0.2,1,1v2.2l0-0.3c-0.1,0.7-0.6,0.9-0.9,1H43.2c-0.7,0-1.2,0.6-1.2,1.2V55c0,0.1,0,0.2,0,0.3v12.2c0,0.1,0,0.2,0,0.3
		v0.6c0,0.7,0.6,1.2,1.2,1.2h16.6c0.3,0.1,0.8,0.3,1,1v3l0-0.3c-0.1,0.7-0.6,1-0.9,1H43.2c-0.7,0-1.2,0.6-1.2,1.2v0.6
		c0,0.7,0.6,1.2,1.2,1.2H60c0.3,0.1,0.7,0.3,0.8,0.9v3.1l0-0.3c-0.1,0.7-0.6,0.9-0.9,1H40.8c-0.7,0-1.2,0.6-1.2,1.2v0.6
		c0,0.7,0.6,1.2,1.2,1.2h42.8c0.7,0,1.2-0.6,1.2-1.2v-0.6c0-0.7-0.6-1.2-1.2-1.2H64.2c-0.3,0-0.9-0.2-1-1l0,1h0v-3.8
		c0.1-0.3,0.2-0.8,0.9-0.9h16.1c0.7,0,1.2-0.6,1.2-1.2v-0.6c0-0.7-0.6-1.2-1.2-1.2H63.9c-0.3-0.1-0.7-0.4-0.8-1l0,1h0v-3.6
		c0.1-0.3,0.3-0.8,1-1l-0.1,0h16.1c0.7,0,1.2-0.6,1.2-1.2v-0.6c0-0.1,0-0.2,0-0.2V55.2c0-0.1,0-0.2,0-0.2v-0.6
		c0-0.7-0.6-1.2-1.2-1.2H64.1c-0.3-0.1-0.8-0.3-1-1l0,1h0v-3C63.2,49.9,63.4,49.4,64.1,49.3z M44.3,58.4c0-0.7,0.6-1.2,1.2-1.2h14
		c0.7,0,1.2,0.6,1.2,1.2v0.5c0,0.7-0.6,1.2-1.2,1.2h-14c-0.7,0-1.2-0.6-1.2-1.2V58.4z M79.1,65.3c0,0.7-0.6,1.2-1.2,1.2H45.5
		c-0.7,0-1.2-0.6-1.2-1.2v-0.5c0-0.7,0.6-1.2,1.2-1.2h32.4c0.7,0,1.2,0.6,1.2,1.2V65.3z M64.3,57.1h13.5c0.7,0,1.2,0.6,1.2,1.2v0.5
		c0,0.7-0.6,1.2-1.2,1.2H64.3c-0.7,0-1.2-0.6-1.2-1.2v-0.5C63.1,57.7,63.7,57.1,64.3,57.1z"/>
	<g>
		<text transform="matrix(1 2.309988e-03 -2.309988e-03 1 40.0557 125.0019)" class="st12 st7 st13">2017 OPEN HCI</text>
	</g>
</g>
</svg>
