<svg id="圖層_1" data-name="圖層 1" xmlns="http://www.w3.org/2000/svg" viewBox="0 0 254.6 263.59"><defs><style>.cls-1{font-size:35.51px;}.cls-1,.cls-2,.cls-4{fill:#ec675a;}.cls-1,.cls-3{font-family:Comfortaa, Comfortaa;}.cls-3{font-size:32.13px;fill:none;stroke:#fff;stroke-width:1.3px;}.cls-3,.cls-5{stroke-miterlimit:10;}.cls-4{font-size:13.04px;font-family:Comfortaa-Light, Comfortaa;}.cls-5{stroke:#ec675a;stroke-width:0.75px;}.cls-6{letter-spacing:0.17em;}.cls-7{letter-spacing:-0.03em;}.cls-8{letter-spacing:0.17em;}.cls-9{letter-spacing:-0.04em;}.cls-10{letter-spacing:0.5em;}.cls-11{letter-spacing:-0.03em;}</style></defs><title>準準字</title><text class="cls-1" transform="translate(20.24 164.66) scale(1.2 1)">RE: _______</text><rect class="cls-2" x="154.21" y="39.96" width="5.48" height="48.86" rx="1.36" ry="1.36"/><rect class="cls-2" x="131.36" y="39.96" width="5.48" height="81.28" rx="1.36" ry="1.36"/><path class="cls-2" d="M215.11,33.71h4.53a2.8,2.8,0,0,1,.43,0h10.44a2.85,2.85,0,0,0,2.85-2.85V29.62a2.85,2.85,0,0,0-2.85-2.85H214a2.78,2.78,0,0,1-2.32-2.38v2.38h0V19.14a2.74,2.74,0,1,0-5.48,0v5.71a2.8,2.8,0,0,1-2.42,1.92H189a2.81,2.81,0,0,1-2.68-2.42V18.64a2.74,2.74,0,1,0-5.48,0v5.8a2.8,2.8,0,0,1-2.54,2.33H150.95a2.8,2.8,0,0,1-2.56-2.37V19a2.74,2.74,0,1,0-5.48,0v5.35a2.8,2.8,0,0,1-2.57,2.41h-9a2.85,2.85,0,0,0-2.85,2.85v1.29a2.85,2.85,0,0,0,2.85,2.85h9a2.78,2.78,0,0,1,2.51,2.39V118.5a2.74,2.74,0,1,0,5.48,0V36.08a2.8,2.8,0,0,1,2.55-2.32h19.93l.23,0h7.15a2.86,2.86,0,0,1,2.85,2.85v1a2.86,2.86,0,0,1-2.85,2.85H167.77a2.85,2.85,0,0,0-2.85,2.85v1.29a2.86,2.86,0,0,0,2.85,2.85h7.93v0h2.55a2.85,2.85,0,0,1,2.85,2.85v1A2.85,2.85,0,0,1,178.25,54H167.77a2.86,2.86,0,0,0-2.85,2.85v1.29A2.86,2.86,0,0,0,167.77,61h22.16a2.85,2.85,0,0,1,2.85,2.85v.33a2.85,2.85,0,0,1-2.85,2.85H175.7v0h-7.93a2.86,2.86,0,0,0-2.85,2.85v1.29c0,.09,0,.17,0,.25V93.9a2.78,2.78,0,0,1-2.33,2.32h-3.89a2.86,2.86,0,0,0-2.85,2.85v1.29a2.86,2.86,0,0,0,2.85,2.85h3.86a2.78,2.78,0,0,1,2.36,2.32v12.68a2.74,2.74,0,1,0,5.48,0V105.55a2.82,2.82,0,0,1,2.68-2.33H217.4a2.77,2.77,0,0,1,2.28,2.06v13.12a2.74,2.74,0,1,0,5.48,0V105.55a2.82,2.82,0,0,1,2.68-2.32h2.5a2.85,2.85,0,0,0,2.85-2.85V99.07a2.85,2.85,0,0,0-2.85-2.85h-2.91a2.82,2.82,0,0,1-2.28-2.67V70.18a2.71,2.71,0,0,0-.52-1.58,2.84,2.84,0,0,0-2.49-1.49h-7.88v0H200.53a2.86,2.86,0,0,1-2.85-2.85v-.33A2.86,2.86,0,0,1,200.53,61H222.4a2.86,2.86,0,0,0,2.85-2.85V56.89A2.86,2.86,0,0,0,222.4,54h-7.29a2.85,2.85,0,0,1-2.85-2.85v-1a2.85,2.85,0,0,1,2.85-2.85h0v0h7.26a2.86,2.86,0,0,0,2.85-2.85V43.23a2.85,2.85,0,0,0-2.85-2.85h-6v0h-1.29a2.85,2.85,0,0,1-2.85-2.85v-1A2.85,2.85,0,0,1,215.11,33.71ZM164.95,104v-.77h0Zm5.12-26.62a2.85,2.85,0,0,1,2.85-2.85h17a2.85,2.85,0,0,1,2.85,2.85v1.16a2.85,2.85,0,0,1-2.85,2.85h-17a2.86,2.86,0,0,1-2.85-2.85Zm.36,25.93v-.08h0Zm49.63-10.38a2.85,2.85,0,0,1-2.85,2.85H172.92a2.85,2.85,0,0,1-2.85-2.85V91.75a2.86,2.86,0,0,1,2.85-2.85h44.29a2.86,2.86,0,0,1,2.85,2.85Zm-19.52-18.4h17a2.85,2.85,0,0,1,2.85,2.85v1.16a2.85,2.85,0,0,1-2.85,2.85h-17a2.86,2.86,0,0,1-2.85-2.85V77.36A2.85,2.85,0,0,1,200.53,74.51Zm6.86-23.24a2.88,2.88,0,0,1-2.85,2.9H188.93a2.88,2.88,0,0,1-2.85-2.9V50.09a2.88,2.88,0,0,1,2.85-2.9h15.63a2.88,2.88,0,0,1,2.85,2.9Zm0-13.76a2.85,2.85,0,0,1-2.85,2.85H188.93a2.85,2.85,0,0,1-2.85-2.85V36.36a2.86,2.86,0,0,1,2.85-2.85h15.63a2.85,2.85,0,0,1,2.85,2.85Z"/><path class="cls-2" d="M71.62,42.07h42.67a2.71,2.71,0,0,0,2.7-2.7V38.15a2.71,2.71,0,0,0-2.7-2.7H71.39a2.61,2.61,0,0,1-1.78-2.14v2.14h0V28.86a2.62,2.62,0,0,1,2.23-2.14h35a2.71,2.71,0,0,0,2.7-2.7V22.8a2.71,2.71,0,0,0-2.7-2.7H26a2.71,2.71,0,0,0-2.7,2.7V24a2.71,2.71,0,0,0,2.7,2.7H62a2.68,2.68,0,0,1,2.4,1.83v4.62a2.64,2.64,0,0,1-2.18,2.28H20.72a2.71,2.71,0,0,0-2.7,2.7v1.22a2.71,2.71,0,0,0,2.7,2.7H62.15a2.63,2.63,0,0,1,2.26,2.25V48.4a2.61,2.61,0,0,1-1.88,2.2H26a2.71,2.71,0,0,0-2.7,2.7v1.22a2.67,2.67,0,0,0,.06.57V81.76a2.67,2.67,0,0,0-.06.57v1.22a2.71,2.71,0,0,0,2.7,2.7H62.31a2.62,2.62,0,0,1,2.11,2.16v5.72a2.61,2.61,0,0,1-2,2.24H26a2.71,2.71,0,0,0-2.7,2.7v1.22A2.71,2.71,0,0,0,26,103H62.63a2.61,2.61,0,0,1,1.79,2.08v6a2.61,2.61,0,0,1-1.91,2.21H20.72A2.71,2.71,0,0,0,18,116v1.22a2.71,2.71,0,0,0,2.7,2.7h93.56a2.71,2.71,0,0,0,2.7-2.7V116a2.71,2.71,0,0,0-2.7-2.7H71.86A2.63,2.63,0,0,1,69.61,111v2.26h0V105a2.61,2.61,0,0,1,2-2.06h35.26a2.71,2.71,0,0,0,2.7-2.7V99.06a2.71,2.71,0,0,0-2.7-2.7H71.29a2.6,2.6,0,0,1-1.68-2.1v2.1h0v-8a2.62,2.62,0,0,1,2.24-2.14h35a2.71,2.71,0,0,0,2.7-2.7V82.33a2.67,2.67,0,0,0-.05-.5V55a2.67,2.67,0,0,0,.05-.5V53.3a2.71,2.71,0,0,0-2.7-2.7H71.69a2.61,2.61,0,0,1-2.08-2.22V50.6h0V44A2.6,2.6,0,0,1,71.62,42.07ZM28.32,62a2.71,2.71,0,0,1,2.7-2.7h30.7a2.71,2.71,0,0,1,2.7,2.7v1.11a2.71,2.71,0,0,1-2.7,2.7H31a2.71,2.71,0,0,1-2.7-2.7ZM104.45,77a2.71,2.71,0,0,1-2.7,2.7H31a2.71,2.71,0,0,1-2.7-2.7V75.92a2.71,2.71,0,0,1,2.7-2.7h70.74a2.71,2.71,0,0,1,2.7,2.7ZM72.17,59.26h29.58a2.71,2.71,0,0,1,2.7,2.7v1.11a2.71,2.71,0,0,1-2.7,2.7H72.17a2.71,2.71,0,0,1-2.7-2.7V62A2.71,2.71,0,0,1,72.17,59.26Z"/><text class="cls-3" transform="translate(18.65 207.19) rotate(0.13)">2017 OPEN HCI</text><text class="cls-4" transform="translate(18.24 229.09)"><tspan class="cls-5">8th</tspan><tspan class="cls-6" x="19.87" y="0"> </tspan><tspan x="25.86" y="0">Student</tspan><tspan class="cls-6" x="74.4" y="0"> </tspan><tspan x="80.38" y="0">Organi</tspan><tspan class="cls-7" x="124.71" y="0">z</tspan><tspan x="131.44" y="0">ed</tspan><tspan class="cls-8" x="147.75" y="0"> </tspan><tspan class="cls-9" x="153.73" y="0">W</tspan><tspan x="165.48" y="0">orkshop </tspan><tspan x="0" y="15.65">On</tspan><tspan class="cls-10" x="18.85" y="15.65"> </tspan><tspan x="29.16" y="15.65">Human-comup</tspan><tspan class="cls-11" x="119.36" y="15.65">t</tspan><tspan x="124.08" y="15.65">er</tspan><tspan class="cls-10" x="138.34" y="15.65"> </tspan><tspan x="148.65" y="15.65">In</tspan><tspan class="cls-11" x="159.35" y="15.65">t</tspan><tspan x="164.07" y="15.65">ercation</tspan></text></svg>