<?xml version="1.0" encoding="utf-8"?>
<!-- Generator: Adobe Illustrator 19.1.0, SVG Export Plug-In . SVG Version: 6.00 Build 0)  -->
<svg version="1.1" id="圖層_1" xmlns="http://www.w3.org/2000/svg" xmlns:xlink="http://www.w3.org/1999/xlink" x="0px" y="0px"
	 viewBox="0 0 113.4 226.8" style="enable-background:new 0 0 113.4 226.8;" xml:space="preserve">
<style type="text/css">
	.st0{fill:none;stroke:#FFFFFF;stroke-width:1.6862;stroke-miterlimit:10;}
	.st1{fill:none;stroke:#FFFFFF;stroke-width:0.4037;stroke-miterlimit:10;}
	.st2{fill:#EC675A;}
	.st3{fill:#D9DADB;}
	.st4{fill:none;stroke:#FFFFFF;stroke-width:0.7777;stroke-miterlimit:10;}
	.st5{fill:none;stroke:#FFFFFF;stroke-width:0.4684;stroke-miterlimit:10;}
	.st6{fill:none;stroke:#FFFFFF;stroke-width:0.6417;stroke-miterlimit:10;}
	.st7{fill:none;stroke:#FFFFFF;stroke-width:0.4156;stroke-miterlimit:10;}
	.st8{fill:none;stroke:#000000;stroke-width:0.4635;stroke-miterlimit:10;}
	.st9{fill:none;stroke:#FFFFFF;stroke-width:0.2282;stroke-miterlimit:10;}
	.st10{fill:none;stroke:#FFFFFF;stroke-width:0.1744;stroke-miterlimit:10;}
	.st11{fill:none;stroke:#FFFFFF;stroke-width:0.3177;stroke-miterlimit:10;}
	.st12{fill:none;stroke:#FFFFFF;stroke-width:0.2973;stroke-miterlimit:10;}
	.st13{fill:none;stroke:#FFFFFF;stroke-width:0.2927;stroke-miterlimit:10;}
	.st14{fill:none;stroke:#FFFFFF;stroke-width:0.2364;stroke-miterlimit:10;}
	.st15{fill:none;stroke:#FFFFFF;stroke-width:0.1726;stroke-miterlimit:10;}
	.st16{fill:#FFFFFF;}
	.st17{fill:none;stroke:#FFFFFF;stroke-width:0.3177;stroke-miterlimit:10;stroke-dasharray:1.9062;}
	.st18{fill:none;stroke:#FFFFFF;stroke-width:0.7447;stroke-miterlimit:10;}
	.st19{fill:none;stroke:#FFFFFF;stroke-width:0.2687;stroke-miterlimit:10;}
	.st20{fill:none;stroke:#FFFFFF;stroke-width:0.2137;stroke-miterlimit:10;}
	.st21{fill:none;stroke:#FFFFFF;stroke-width:0.2882;stroke-miterlimit:10;}
	.st22{fill:none;stroke:#FFFFFF;stroke-width:0.1394;stroke-miterlimit:10;}
	.st23{fill:url(#SVGID_1_);stroke:#FFFFFF;stroke-width:0.1394;stroke-miterlimit:10;}
	.st24{fill:url(#SVGID_2_);stroke:#FFFFFF;stroke-width:0.1394;stroke-miterlimit:10;}
	.st25{fill:none;stroke:#FFFFFF;stroke-width:0.1383;stroke-miterlimit:10;}
	.st26{fill:#FFFFFF;stroke:#000000;stroke-width:0.2882;stroke-miterlimit:10;}
	.st27{fill:none;stroke:#040000;stroke-width:0.7447;stroke-miterlimit:10;}
	.st28{fill:none;stroke:#FFFFFF;stroke-width:0.3889;stroke-miterlimit:10;}
	.st29{fill:#2A4399;}
	.st30{fill:none;stroke:#FFFFFF;stroke-width:0.5661;stroke-miterlimit:10;}
	.st31{fill:none;stroke:#EC675A;stroke-width:0.3889;stroke-miterlimit:10;}
	.st32{fill:none;stroke:#FFFFFF;stroke-width:0.7777;stroke-miterlimit:10;stroke-dasharray:2.3332;}
	.st33{clip-path:url(#SVGID_4_);fill:none;stroke:#FFFFFF;stroke-width:0.789;stroke-miterlimit:10;}
	.st34{fill:none;stroke:#EC675A;stroke-width:0.7777;stroke-miterlimit:10;}
	.st35{fill:none;stroke:#000000;stroke-width:0.7447;stroke-miterlimit:10;}
	.st36{fill:none;stroke:#FFFFFF;stroke-miterlimit:10;}
	.st37{fill:none;stroke:#FFFFFF;stroke-width:0.2742;stroke-miterlimit:10;}
	.st38{fill:none;stroke:#FFFFFF;stroke-width:0.4059;stroke-miterlimit:10;}
	.st39{fill:none;stroke:#FFFFFF;stroke-width:0.5355;stroke-miterlimit:10;}
	.st40{fill:#FFFFFF;stroke:#FFFFFF;stroke-width:0.7777;stroke-miterlimit:10;}
	.st41{fill:none;stroke:#E83518;stroke-width:0.789;stroke-miterlimit:10;}
	.st42{clip-path:url(#SVGID_6_);fill:none;stroke:#FFFFFF;stroke-width:0.7777;stroke-miterlimit:10;}
	.st43{fill:none;stroke:#FFFFFF;stroke-width:0.6061;stroke-miterlimit:10;}
	.st44{fill:none;stroke:#FFFFFF;stroke-width:0.3504;stroke-miterlimit:10;}
	.st45{clip-path:url(#SVGID_8_);fill:none;stroke:#FFFFFF;stroke-width:0.7684;stroke-miterlimit:10;}
	.st46{clip-path:url(#SVGID_12_);fill:#EC675A;}
	.st47{fill:none;stroke:#FFFFFF;stroke-width:0.6749;stroke-miterlimit:10;}
	.st48{fill:#D95F58;}
	.st49{clip-path:url(#XMLID_45_);}
	.st50{fill:#8CAAB2;}
	.st51{opacity:0.4;fill:#A5C7D0;}
	.st52{fill:#63426A;}
	.st53{opacity:0.4;fill:#E6C1DB;}
	.st54{opacity:0.88;fill:#BCE2EC;}
	.st55{opacity:0.76;fill:#DCECF2;}
	.st56{opacity:0.85;fill:#8CAAB2;}
	.st57{fill:#E6C1DB;}
	.st58{opacity:0.64;fill:#FFFFFF;}
	.st59{fill:#FFFFFF;stroke:#000000;stroke-width:0.6621;stroke-linejoin:round;stroke-miterlimit:10;}
	.st60{fill:#A5C7D0;}
	.st61{fill:#C99DC7;}
	.st62{opacity:0.47;fill:#FFFFFF;stroke:#FFFFFF;stroke-width:0.1944;stroke-miterlimit:10;}
	.st63{fill:none;stroke:#FFFFFF;stroke-width:0.2298;stroke-miterlimit:10;}
	.st64{fill:none;stroke:#FFFFFF;stroke-width:0.3996;stroke-miterlimit:10;}
	.st65{fill:none;stroke:#FFFFFF;stroke-width:0.3996;stroke-miterlimit:10;stroke-dasharray:1.2383,1.2383;}
	.st66{fill:none;stroke:#FFFFFF;stroke-width:0.3996;stroke-miterlimit:10;stroke-dasharray:1.2235,1.2235;}
	.st67{fill:none;stroke:#FFFFFF;stroke-width:0.7795;stroke-miterlimit:10;}
	.st68{fill:none;stroke:#FFFFFF;stroke-width:0.6043;stroke-miterlimit:10;}
	.st69{fill:#FFFFFF;stroke:#FFFFFF;stroke-width:0.6891;stroke-miterlimit:10;}
	.st70{fill:none;stroke:#FFFFFF;stroke-width:0.7734;stroke-miterlimit:10;}
	.st71{fill:none;stroke:#FFFFFF;stroke-width:0.4167;stroke-miterlimit:10;}
	.st72{fill:#FFFFFF;stroke:#000000;stroke-width:0.5507;stroke-miterlimit:10;}
	.st73{clip-path:url(#SVGID_16_);fill:none;stroke:#2A4399;stroke-width:0.7777;stroke-miterlimit:10;}
	.st74{fill:none;stroke:#FFFFFF;stroke-width:1.1929;stroke-miterlimit:10;}
	.st75{fill:none;stroke:#FFFFFF;stroke-width:1.5905;stroke-miterlimit:10;}
	.st76{fill:none;stroke:#FFFFFF;stroke-width:0.7952;stroke-miterlimit:10;}
	.st77{fill:#FFFFFF;stroke:#FFFFFF;stroke-width:1.1929;stroke-miterlimit:10;}
	.st78{fill:#D95F58;stroke:#FFFFFF;stroke-width:0.7777;stroke-miterlimit:10;}
	.st79{clip-path:url(#SVGID_18_);fill:#FFFFFF;stroke:#FFFFFF;stroke-width:0.7777;stroke-miterlimit:10;}
	.st80{clip-path:url(#SVGID_18_);fill:none;stroke:#FFFFFF;stroke-width:0.7777;stroke-miterlimit:10;}
	.st81{fill:none;stroke:#FFFFFF;stroke-width:0.4881;stroke-miterlimit:10;}
	.st82{fill:#FFFFFF;stroke:#000000;stroke-width:0.642;stroke-miterlimit:10;}
	.st83{fill:#FFFFFF;stroke:#000000;stroke-width:1.7326;stroke-linejoin:round;stroke-miterlimit:10;}
	.st84{fill:#D7D8D8;}
	.st85{fill-rule:evenodd;clip-rule:evenodd;fill:#EC675A;}
	.st86{fill-rule:evenodd;clip-rule:evenodd;fill:#FFFFFF;}
	.st87{fill-rule:evenodd;clip-rule:evenodd;fill:#C9CACA;}
	.st88{fill-rule:evenodd;clip-rule:evenodd;fill:#E0E1E1;}
	.st89{fill-rule:evenodd;clip-rule:evenodd;fill:#D9DADB;}
	.st90{fill:#835412;}
	.st91{fill:#B5B5B6;}
	.st92{fill:#FFFFFF;stroke:#EC675A;stroke-width:0.7777;stroke-miterlimit:10;}
	.st93{fill:none;stroke:#B5B5B6;stroke-width:0.7777;stroke-miterlimit:10;}
	.st94{fill:none;stroke:#FFFFFF;stroke-width:0.7008;stroke-miterlimit:10;}
	.st95{fill:none;stroke:#FFFFFF;stroke-width:0.7323;stroke-miterlimit:10;}
	.st96{fill:none;stroke:#FFFFFF;stroke-width:0.7134;stroke-miterlimit:10;}
	.st97{fill:none;stroke:#EC675A;stroke-width:0.8779;stroke-miterlimit:10;}
	.st98{fill:none;stroke:#EC675A;stroke-width:0.8408;stroke-miterlimit:10;}
	.st99{fill:none;stroke:#FFFFFF;stroke-width:0.5;stroke-miterlimit:10;}
	.st100{fill:none;stroke:#FFFFFF;stroke-width:1.0322;stroke-miterlimit:10;}
	.st101{fill:none;stroke:#FFFFFF;stroke-width:0.9143;stroke-miterlimit:10;}
	.st102{font-family:'PingFangTC-Regular-B5pc-H';}
	.st103{font-size:9.9252px;}
	.st104{fill:#2A4399;stroke:#2A4399;stroke-width:0.25;stroke-miterlimit:10;}
	.st105{fill:none;stroke:#FFFFFF;stroke-width:0.6142;stroke-miterlimit:10;}
	.st106{fill:none;stroke:#040000;stroke-width:0.6142;stroke-miterlimit:10;}
	.st107{fill:none;stroke:#FFFFFF;stroke-width:0.3207;stroke-miterlimit:10;}
	.st108{fill:none;stroke:#FFFFFF;stroke-width:0.4669;stroke-miterlimit:10;}
	.st109{fill:none;stroke:#FFFFFF;stroke-width:0.6414;stroke-miterlimit:10;}
	.st110{clip-path:url(#SVGID_20_);fill:none;stroke:#FFFFFF;stroke-width:0.6507;stroke-miterlimit:10;}
	.st111{fill:none;stroke:#2A4399;stroke-width:0.5121;stroke-miterlimit:10;}
	.st112{fill:none;stroke:#E83518;stroke-width:0.6507;stroke-miterlimit:10;}
	.st113{clip-path:url(#SVGID_22_);fill:none;stroke:#FFFFFF;stroke-width:0.6414;stroke-miterlimit:10;}
	.st114{fill:none;stroke:#FFFFFF;stroke-width:0.4999;stroke-miterlimit:10;}
	.st115{fill:none;stroke:#FFFFFF;stroke-width:0.2889;stroke-miterlimit:10;}
	.st116{clip-path:url(#SVGID_24_);fill:none;stroke:#FFFFFF;stroke-width:0.6337;stroke-miterlimit:10;}
	.st117{clip-path:url(#SVGID_28_);fill:#2A4399;}
	.st118{fill:none;stroke:#FFFFFF;stroke-width:0.5566;stroke-miterlimit:10;}
	.st119{fill:#FFFFFF;stroke:#000000;stroke-width:0.546;stroke-linejoin:round;stroke-miterlimit:10;}
	.st120{fill:none;stroke:#FFFFFF;stroke-width:0.3295;stroke-miterlimit:10;}
	.st121{fill:none;stroke:#FFFFFF;stroke-width:0.3295;stroke-miterlimit:10;stroke-dasharray:1.0212,1.0212;}
	.st122{fill:none;stroke:#FFFFFF;stroke-width:0.3295;stroke-miterlimit:10;stroke-dasharray:1.009,1.009;}
	.st123{fill:none;stroke:#FFFFFF;stroke-width:0.4984;stroke-miterlimit:10;}
	.st124{fill:#FFFFFF;stroke:#FFFFFF;stroke-width:0.5683;stroke-miterlimit:10;}
	.st125{fill:none;stroke:#2A4399;stroke-width:0.6414;stroke-miterlimit:10;}
	.st126{fill:none;stroke:#FFFFFF;stroke-width:0.6026;stroke-miterlimit:10;}
	.st127{fill:none;stroke:#040000;stroke-width:0.6026;stroke-miterlimit:10;}
	.st128{fill:none;stroke:#FFFFFF;stroke-width:0.6293;stroke-miterlimit:10;}
	.st129{fill:none;stroke:#FFFFFF;stroke-width:0.6258;stroke-miterlimit:10;}
	.st130{fill:none;stroke:#FFFFFF;stroke-width:0.3371;stroke-miterlimit:10;}
	.st131{fill:#FFFFFF;stroke:#000000;stroke-width:0.4456;stroke-miterlimit:10;}
	.st132{fill:none;stroke:#B5B5B6;stroke-width:0.6293;stroke-miterlimit:10;}
	.st133{fill:none;stroke:#FFFFFF;stroke-width:0.7085;stroke-miterlimit:10;stroke-dasharray:2.1255;}
	.st134{fill:none;stroke:#2A4399;stroke-width:0.911;stroke-miterlimit:10;}
	.st135{fill:none;stroke:#FFFFFF;stroke-width:0.911;stroke-miterlimit:10;}
	.st136{fill:none;stroke:#2A4399;stroke-width:0.6488;stroke-miterlimit:10;}
	.st137{fill:none;stroke:#FFFFFF;stroke-width:0.3905;stroke-miterlimit:10;}
	.st138{fill:none;stroke:#FFFFFF;stroke-width:0.4063;stroke-miterlimit:10;}
	.st139{fill:#EC675A;stroke:#EC675A;stroke-width:0.75;stroke-miterlimit:10;}
	.st140{fill:none;stroke:#EC675A;stroke-width:0.5;stroke-miterlimit:10;}
</style>
<g>
	<g>
		<g>
			<path class="st2" d="M36.4,32.4l0,0.4c0,1.2,0.2,2.1,0.4,2.6c0.2,0.5,0.7,0.7,1.4,0.7c0.7,0,1.1-0.3,1.4-0.8
				c0.1-0.3,0.2-0.9,0.2-1.6l-0.1-11.1l3.1,0l0.1,11c0,1.3-0.2,2.4-0.6,3.2c-0.7,1.3-2,2-3.9,2c-1.9,0-3.2-0.5-3.8-1.6
				c-0.7-1.1-1-2.5-1-4.4l0-0.4L36.4,32.4z"/>
			<path class="st2" d="M48.7,26.5l0.1,7.1c0,0.7,0.1,1.2,0.2,1.5c0.3,0.6,0.8,0.9,1.6,0.9c1,0,1.6-0.4,2-1.3
				c0.2-0.5,0.3-1.1,0.3-1.8l-0.1-6.4l2.9,0l0.1,11.7l-2.8,0l0-1.7c0,0-0.1,0.1-0.2,0.3c-0.1,0.2-0.2,0.3-0.4,0.5
				c-0.4,0.4-0.9,0.7-1.3,0.9s-0.9,0.2-1.5,0.3c-1.6,0-2.7-0.6-3.3-1.8c-0.3-0.7-0.5-1.7-0.5-3l-0.1-7.1L48.7,26.5z"/>
			<path class="st2" d="M67.4,27c0.7,0.6,1.1,1.7,1.1,3.1l0.1,7.9l-3,0l-0.1-7.1c0-0.6-0.1-1.1-0.2-1.4c-0.3-0.6-0.8-0.9-1.6-0.9
				c-1,0-1.6,0.5-2,1.3c-0.2,0.5-0.3,1.1-0.3,1.8l0.1,6.4l-2.9,0l-0.1-11.7l2.8,0l0,1.7c0.4-0.6,0.7-1,1-1.3
				c0.6-0.5,1.3-0.7,2.2-0.7C65.7,26,66.7,26.4,67.4,27z"/>
			<path class="st2" d="M78.3,26.4c0.8,0.4,1.4,0.9,1.9,1.7c0.5,0.7,0.8,1.5,0.9,2.4c0.1,0.5,0.1,1.3,0.1,2.3l-8,0.1
				c0.1,1.2,0.5,2,1.2,2.5c0.4,0.3,1,0.4,1.6,0.4c0.7,0,1.2-0.2,1.6-0.6c0.2-0.2,0.4-0.5,0.6-0.8l2.9,0c-0.1,0.7-0.4,1.4-1,2.1
				c-1,1.2-2.4,1.7-4.1,1.8c-1.5,0-2.8-0.4-3.9-1.4c-1.1-1-1.7-2.5-1.7-4.7c0-2,0.5-3.6,1.5-4.7c1-1.1,2.3-1.7,3.9-1.7
				C76.7,25.9,77.6,26.1,78.3,26.4z M74.1,29.1c-0.4,0.5-0.7,1.1-0.7,1.8l5-0.1c-0.1-0.8-0.3-1.4-0.8-1.8c-0.5-0.4-1-0.6-1.7-0.6
				C75,28.4,74.5,28.7,74.1,29.1z"/>
		</g>
	</g>
	<g>
		<g>
			<path class="st2" d="M36.4,147l0,0.4c0,1.5,0.2,2.5,0.5,3.1c0.3,0.6,0.8,0.9,1.7,0.9c0.8,0,1.4-0.3,1.7-1c0.2-0.4,0.2-1.1,0.2-2
				L40.2,135l3.8,0l0.2,13.4c0,1.6-0.2,2.9-0.7,3.9c-0.9,1.6-2.4,2.5-4.7,2.5c-2.3,0-3.9-0.6-4.7-1.9c-0.8-1.3-1.2-3.1-1.2-5.4
				l0-0.4L36.4,147z"/>
			<path class="st2" d="M51.3,139.9l0.1,8.6c0,0.8,0.1,1.4,0.3,1.8c0.3,0.7,1,1.1,1.9,1.1c1.2,0,2-0.5,2.4-1.6
				c0.2-0.6,0.3-1.3,0.3-2.2l-0.1-7.8l3.6,0L60,154l-3.4,0l0-2c0,0-0.1,0.2-0.2,0.4c-0.1,0.2-0.3,0.4-0.5,0.6
				c-0.5,0.5-1.1,0.9-1.6,1.1c-0.5,0.2-1.1,0.3-1.8,0.3c-2,0-3.3-0.7-4-2.2c-0.4-0.8-0.6-2.1-0.6-3.7l-0.1-8.6L51.3,139.9z"/>
			<path class="st2" d="M66.9,154l-3.5,0l-0.2-19.3l3.5,0L66.9,154z"/>
			<path class="st2" d="M70.9,156.6l0.4,0c0.3,0,0.7,0,1-0.1c0.3,0,0.6-0.2,0.8-0.3c0.2-0.1,0.4-0.5,0.6-0.9s0.2-0.8,0.2-0.9
				l-5.1-14.8l3.9,0l3,10.5l2.6-10.5l3.7,0l-4.4,14.1c-0.9,2.7-1.5,4.4-2,5c-0.5,0.7-1.5,1-3.1,1c-0.3,0-0.6,0-0.8,0
				c-0.2,0-0.5,0-0.8,0L70.9,156.6z"/>
		</g>
	</g>
	<g>
		<g>
			<path class="st100" d="M34.6,74.3c0.9-2.3,3-4.7,6.4-7.3c2.9-2.2,4.8-3.8,5.7-4.8c1.3-1.5,2-3.1,2-4.9c0-1.5-0.4-2.7-1.1-3.6
				c-0.8-1-1.8-1.4-3.2-1.4c-1.9,0-3.2,0.8-3.9,2.3c-0.4,0.9-0.6,2.3-0.7,4.2h-6.2c0.1-2.9,0.6-5.3,1.5-7.1c1.7-3.4,4.7-5.1,9-5.1
				c3.4,0,6.1,1,8.1,3c2,2,3,4.7,3,8c0,2.5-0.7,4.8-2.1,6.8c-0.9,1.3-2.5,2.8-4.6,4.4l-2.5,1.9c-1.6,1.2-2.7,2.1-3.3,2.6
				c-0.6,0.5-1.1,1.2-1.5,1.9h14.1v5.9H33.1C33.1,78.6,33.6,76.4,34.6,74.3z"/>
			<path class="st100" d="M81,52.5c-1,1-2.3,2.8-4,5.3c-1.7,2.5-3.1,5.2-4.3,7.9c-0.9,2.1-1.7,4.7-2.5,7.8c-0.7,3.1-1.1,5.6-1.1,7.6
				h-6.6c0.2-6.1,2.1-12.5,5.7-19.2c2.3-4.1,4.3-7,5.9-8.6H58.1l0.1-6.1H81V52.5z"/>
		</g>
	</g>
	<g>
		<g>
			<path class="st100" d="M51,172.9c1.7,3.1,2.5,7.6,2.5,13.4c0,5.8-0.8,10.2-2.5,13.3c-1.7,3.1-4.5,4.7-8.6,4.7
				c-4.1,0-7-1.6-8.6-4.7c-1.7-3.1-2.5-7.6-2.5-13.3c0-5.8,0.8-10.2,2.5-13.4c1.7-3.1,4.5-4.7,8.6-4.7
				C46.5,168.2,49.4,169.7,51,172.9z M38.6,195.5c0.6,2.1,1.9,3.2,3.7,3.2c1.9,0,3.1-1.1,3.7-3.2c0.6-2.1,0.9-5.2,0.9-9.2
				c0-4.2-0.3-7.3-0.9-9.4c-0.6-2-1.8-3-3.7-3c-1.9,0-3.1,1-3.7,3c-0.6,2-0.9,5.2-0.9,9.4C37.7,190.3,38,193.3,38.6,195.5z"/>
			<path class="st100" d="M58.1,196.5c0.9-2.3,3-4.8,6.4-7.4c2.9-2.3,4.8-3.9,5.7-4.9c1.3-1.5,2-3.2,2-5c0-1.5-0.4-2.7-1.1-3.7
				s-1.8-1.5-3.2-1.5c-1.9,0-3.2,0.8-3.9,2.3c-0.4,0.9-0.6,2.3-0.7,4.3h-6.2c0.1-3,0.6-5.4,1.5-7.2c1.7-3.5,4.7-5.2,9-5.2
				c3.4,0,6.1,1,8.1,3.1c2,2.1,3,4.8,3,8.1c0,2.6-0.7,4.9-2.1,6.9c-0.9,1.3-2.5,2.8-4.6,4.5l-2.5,2c-1.6,1.2-2.7,2.1-3.3,2.7
				c-0.6,0.5-1.1,1.2-1.5,1.9h14.1v6.1H56.6C56.7,200.9,57.1,198.6,58.1,196.5z"/>
		</g>
	</g>
	<line class="st101" x1="66.3" y1="100" x2="46.7" y2="125"/>
	<g>
		<text transform="matrix(0.9947 0 0 1 65.1478 121.0807)" class="st16 st102 st103">㊐</text>
	</g>
	<g>
		<text transform="matrix(0.9947 0 0 1 37.9998 105.9306)" class="st16 st102 st103">㊁</text>
	</g>
</g>
</svg>
