<svg id="圖層_1" data-name="圖層 1" xmlns="http://www.w3.org/2000/svg" viewBox="0 0 156 143.89"><defs><style>.cls-1{fill:#fff;}.cls-2{fill:#2a4399;}</style></defs><title>icon_</title><path class="cls-1" d="M84.65,23.51q20.71,0,41.41,0a11.54,11.54,0,0,1,10.62,5.87,12,12,0,0,1,1.54,6.3q0,29.09,0,58.18,0,9.54,0,19.08a11.47,11.47,0,0,1-8.93,11.66,11.92,11.92,0,0,1-3,.32q-41.69,0-83.38,0A11.76,11.76,0,0,1,31,113q0-38.86,0-77.72A11.52,11.52,0,0,1,42.22,23.53c.46,0,.93,0,1.39,0ZM33.75,53.09v1.18q0,29.18,0,58.36c0,.34,0,.68,0,1a8.75,8.75,0,0,0,9,8.5h83.84a8.09,8.09,0,0,0,1.29-.07,8.77,8.77,0,0,0,7.59-8.87q0-29.65,0-59.29c0-.27,0-.53-.05-.82Zm101.67-2.84c0-5.34.08-10.59-.06-15.83a8.67,8.67,0,0,0-1.26-3.9c-1.73-3-4.51-4.24-7.91-4.24H43l-.65,0a8.73,8.73,0,0,0-8.58,9.06c0,4.66,0,9.33,0,14v.89Z"/><path class="cls-1" d="M44.8,87.19q0-7.5,0-15c0-1.56.36-1.93,1.88-1.93H69c1.47,0,1.88.41,1.88,1.87q0,15,0,30.09c0,1.52-.47,2-2,2H46.75c-1.49,0-1.95-.46-1.95-1.92Q44.8,94.74,44.8,87.19Zm2.83-14.12V101.3H68.07V73.07Z"/><path class="cls-1" d="M125.59,100.7v2.62H78.51V100.7Z"/><path class="cls-2" d="M78.48,97.77V95.14h47.08v2.62Z"/><path class="cls-1" d="M78.49,92.22V89.58h47.08v2.65Z"/><path class="cls-2" d="M78.48,81.12V78.47h22.75v2.65Z"/><path class="cls-1" d="M92,72.92v2.64H78.5V72.92Z"/><path class="cls-1" d="M42.32,33.67H53.07V44.45H42.32Zm2.75,8h5.23V36.46H45.07Z"/><path class="cls-1" d="M66.13,44.47H55.42V33.7H66.13ZM63.32,41.7V36.47H58.19V41.7Z"/><path class="cls-1" d="M79.1,44.47H68.39V33.7H79.1ZM76.29,41.7V36.47H71.16V41.7Z"/></svg>