<svg id="圖層_1" data-name="圖層 1" xmlns="http://www.w3.org/2000/svg" viewBox="0 0 156 143.89"><defs><style>.cls-1{fill:#fff;}.cls-2{fill:#2a4399;}</style></defs><title>icon_</title><path class="cls-1" d="M39.9,39.9V30.74c0-2.83.32-3.15,3.12-3.15H101.2a6.16,6.16,0,0,1,1.19.07,1.69,1.69,0,0,1,1.44,1.58,7.47,7.47,0,0,1,0,.94q0,39.86,0,79.72c0,.17,0,.34,0,.51a1.86,1.86,0,0,1-2.11,2.09H91.56c0,.36,0,.67,0,1,0,3,0,6,0,9.06,0,1.65-.63,2.28-2.27,2.28H29.83c-1.58,0-2.24-.65-2.24-2.23q0-40.24,0-80.48c0-1.51.67-2.19,2.2-2.19,3,0,6,0,9.06,0Zm60.25,68.87V31.36H43.67v77.41ZM87.85,112.5H42.46c-2,0-2.56-.52-2.56-2.59q0-32.6,0-65.2V43.66H31.37v77.41H87.85Z"/><path class="cls-1" d="M132.18,74.74q0,19.3,0,38.61a5,5,0,0,1-.81,2.81c-1.47,2.3-2.9,4.63-4.35,6.94-1.57,2.51-4.13,2.5-5.72,0-1.45-2.31-2.88-4.64-4.36-6.94a5,5,0,0,1-.79-2.82q0-23.62,0-47.24,0-15.08,0-30.15a7.81,7.81,0,0,1,3.74-7.05,8,8,0,0,1,12.25,6.49c0,.34,0,.68,0,1Q132.18,55.56,132.18,74.74Zm-12.24-31.1v65.12h8.46V43.63Zm8.5-3.79c0-1.55.07-3.05,0-4.54a4.27,4.27,0,0,0-8.46-.47,41.64,41.64,0,0,0,0,5Zm.19,72.71h-9a13.11,13.11,0,0,0,.79,2.11c1.08,1.83,2.24,3.62,3.37,5.43.11.18.25.33.42.55,1.32-2.1,2.61-4.1,3.83-6.15A8.68,8.68,0,0,0,128.63,112.56Z"/><path class="cls-2" d="M81.77,52.19c3.39,0,6.77,0,10.16,0,1.65,0,2.63,1.44,1.88,2.74a2.09,2.09,0,0,1-2,1H75c-1.14,0-2.28,0-3.41,0a1.87,1.87,0,1,1,0-3.71Z"/><path class="cls-1" d="M81.78,81.74H91.85c1.33,0,2.2.74,2.19,1.85s-.86,1.84-2.21,1.85H71.61c-1.37,0-2.17-.71-2.17-1.86s.8-1.83,2.18-1.83Z"/><path class="cls-2" d="M81.71,75.59H71.38a1.79,1.79,0,0,1-1.84-1.24,1.64,1.64,0,0,1,.56-2,2.48,2.48,0,0,1,1.33-.45q10.28,0,20.57,0a1.86,1.86,0,1,1-.05,3.7Z"/><path class="cls-1" d="M81.68,46H71.36a1.79,1.79,0,0,1-1.86-1.33,1.72,1.72,0,0,1,.76-2,2.25,2.25,0,0,1,1.12-.31q10.37,0,20.74,0a1.83,1.83,0,1,1,0,3.65C88.62,46,85.15,46,81.68,46Z"/><path class="cls-1" d="M57.1,75.59H51.81a1.83,1.83,0,0,1-2-1.8,1.8,1.8,0,0,1,2-1.89q5.42,0,10.85,0a1.85,1.85,0,1,1-.09,3.69C60.69,75.6,58.9,75.59,57.1,75.59Z"/><path class="cls-2" d="M57.16,81.74h5.29a1.85,1.85,0,1,1,.06,3.69q-5.38,0-10.76,0a1.85,1.85,0,1,1,0-3.69Z"/><path class="cls-1" d="M57.13,55.91H51.92c-1.36,0-2.17-.71-2.17-1.87s.81-1.84,2.19-1.84H62.28c1.36,0,2.2.7,2.22,1.82s-.83,1.89-2.24,1.89Z"/><path class="cls-2" d="M57.16,46c-1.79,0-3.59,0-5.38,0a1.81,1.81,0,0,1-2-1.82,1.79,1.79,0,0,1,2-1.84q5.38,0,10.76,0a1.82,1.82,0,0,1,2,1.86A1.84,1.84,0,0,1,62.45,46Z"/></svg>