<svg id="圖層_1" data-name="圖層 1" xmlns="http://www.w3.org/2000/svg" viewBox="0 0 62 55"><defs><style>.cls-1{fill:none;stroke:#fff;stroke-miterlimit:10;stroke-width:0.41px;}</style></defs><title>案件＿圖</title><path class="cls-1" d="M19.45,21.91C19.15,22,30.18,18,30.18,18l-1.33,7.95L18.23,29.61Z"/><polyline class="cls-1" points="18.23 29.61 22.72 35.3 24.56 34.71 31.81 32.53"/><polygon class="cls-1" points="24.66 39.64 29.05 45.92 39.57 43.49 36.3 36.63 24.66 39.64"/><polyline class="cls-1" points="39.57 43.49 40.7 32.53 36.71 24.84 36.3 36.63"/><path class="cls-1" d="M24.66,39.64V32.37l1.53-.75.31.84a4,4,0,0,0,1.23,3.26c3.17,1,3.88-2.34,3.88-2.34l.31-7.19,4.8-1.34"/><line class="cls-1" x1="28.85" y1="25.93" x2="31.81" y2="29.69"/><polyline class="cls-1" points="30.18 17.98 33.75 24 33.24 25.51"/></svg>