<?xml version="1.0" encoding="utf-8"?>
<!-- Generator: Adobe Illustrator 21.0.0, SVG Export Plug-In . SVG Version: 6.00 Build 0)  -->
<svg version="1.1" id="Layer_1" xmlns="http://www.w3.org/2000/svg" xmlns:xlink="http://www.w3.org/1999/xlink" x="0px" y="0px"
	 viewBox="0 0 232 80" style="enable-background:new 0 0 232 80;" xml:space="preserve">
<style type="text/css">
	.st0{fill:#221714;}
	.st1{fill:#ADADAE;}
	.st2{fill:#EF8200;}
</style>
<g id="圖層_1">
</g>
<g>
	<g>
		<path class="st0" d="M142.4,57.6c2.1,1.9,3.1,3,4.6,5.3l3-2.5c-1.8-2.1-2.9-3.3-4.7-4.8L142.4,57.6z"/>
		<path class="st0" d="M141.7,37.8h-4.2c0.1,0.9,0.2,1.8,0.2,3.8V49c0,1.8,0,2.9-0.2,4h4.1c0.7,1,1.1,1.7,1.6,3
			c3.8-1.3,5.9-2.4,8.7-4.5c2.7,2.1,5.1,3.4,8.9,4.7c0.6-1.6,1.2-2.5,2.4-4.1c-3.4-0.7-5.7-1.6-8.4-3.4c1.2-1.4,1.5-1.8,2.3-3.2
			c0.9-1.6,1.2-2.3,1.9-4.5c2.4,0,2.4,0,3.4,0.2v-4.2c-1.1,0.2-2.3,0.2-3.8,0.2H150c0.4-0.7,0.4-0.9,0.6-1.4
			c0.3-0.6,0.3-0.6,0.6-1.3c0-0.1,0.1-0.2,0.2-0.4l-4.4-0.8c-0.2,1.2-0.6,2.4-1.5,4.2c-1,2.2-2.3,3.8-4,5.5v-1.6
			C141.5,39.6,141.6,38.9,141.7,37.8 M143.2,46.9c1-1.1,3.2-3.3,4.9-5.8h6.6c-0.7,2.2-1.5,3.7-3,5.4c-1.4-1.3-2.2-2.2-3.1-3.6
			c0,0-0.5,0.9-2.4,2.8c0.3,0.5,1.6,2.3,2.7,3.3c-2.2,1.6-4.4,2.5-7.3,3.3c0-0.7-0.1-1.6-0.1-2.9v-4.5
			C142.2,45.5,142.6,46.1,143.2,46.9"/>
		<path class="st0" d="M135.2,40.9c1-1.7,1.7-3,2.4-4.6c0.4-0.7,0.5-1.2,0.8-1.7l-4.4-1.2c-0.8,3.7-3.8,8.4-7.5,11.6
			c1,1.8,1.4,2.4,2,4.2c1.3-1.2,1.8-1.8,2.8-3.1c0,2,0,2,0,2.8v3.8c0,1.7,0,2.5-0.2,3.4h4.4c-0.2-1.1-0.2-2.3-0.2-4.2V40.9z"/>
		<path class="st0" d="M126.9,66l3.6,2.5c2.3-3.7,2.9-5.2,3.9-9.7l-3.7-1.5C129.9,61,129,63.1,126.9,66"/>
		<path class="st0" d="M153.7,58.6c2.4,3.4,3.5,5.3,5.1,9.6l3.9-2.2c-1.7-3.5-3.1-6-5.3-9.1L153.7,58.6z"/>
		<path class="st0" d="M149.4,65.1c-0.4,0.1-2.6,0.3-4.2,0.3c-4,0-4.5-0.2-4.5-1.4v-3.4c0-2,0-2.7,0.2-3.7h-4.5
			c0.2,1.2,0.2,1.7,0.2,3.7v4.8c0,3.3,1.2,3.8,8,3.8c5.5,0,7.5-0.3,8.5-1.1c1.1-0.9,1.5-2.3,1.8-6.2c-1.7-0.2-2.6-0.4-4.1-1.1
			C150.9,64.1,150.6,64.8,149.4,65.1"/>
	</g>
	<g>
		<path class="st0" d="M230.5,41.7c-0.9-2.3-1.7-3.9-3.1-5.9l-2.7,1.4c1.3,2.1,2.1,3.7,2.8,6.2L230.5,41.7z"/>
		<path class="st0" d="M205.3,60c0-1.9,0-2.2,0.1-3.1c-0.7,0.1-1.3,0.1-2.6,0.1h-4.5c-1.4,0-1.7,0-2.6-0.1c0.1,1,0.2,2,0.2,3.3v6
			c0,1.6,0,2.6-0.2,3.6h3.4v-2.1h3.1v1.4h3.2c-0.1-1.2-0.1-1.9-0.1-3.3V60z M202.2,64.4h-3.2v-4.1h3.2V64.4z"/>
		<path class="st0" d="M201.9,40.1l2.1-1.9c-1.6-2-2.8-3.3-4.4-4.6l-2.6,2.4c1.4,1.2,2.8,2.9,3.5,4h-2.7c-1.3,0-1.9,0-2.8-0.2v3.8
			c0.8-0.1,1.4-0.2,2.8-0.2h5.4c1.1,0,2,0,2.8,0.1V40c-1,0.1-1.4,0.2-3,0.2H201.9z"/>
		<path class="st0" d="M202.4,49.2c1.4,0,1.9,0,2.8,0.1v-3.6c-0.8,0.1-1.4,0.1-2.8,0.1h-3.5c-1.5,0-2,0-2.7-0.1v3.6
			c0.8-0.1,1.3-0.1,2.7-0.1H202.4z"/>
		<path class="st0" d="M196.2,54.8c0.8-0.1,1.3-0.1,2.7-0.1h3.5c1.4,0,1.9,0,2.8,0.1v-3.6c-0.8,0.1-1.4,0.1-2.8,0.1h-3.5
			c-1.5,0-2,0-2.7-0.1V54.8z"/>
		<path class="st0" d="M228.7,59.5c-0.1,3.6-0.2,4.8-0.6,4.8c-0.4,0-1.5-1.7-2.2-3.7c1.3-2,2-3.3,3.1-5.8c0.9-1.9,1.1-2.3,1.4-2.8
			l-3.3-1.8c-0.3,1.6-1.2,3.8-2.3,5.9c-0.3-2.3-0.5-4.6-0.6-7.3h2.2c1.6,0,2.9,0.1,4.3,0.2v-4c-1.3,0.2-2.3,0.2-4.3,0.2H224
			c-0.1-2.9-0.1-2.9-0.1-5.1c0-4,0-4.4,0.2-5.9H220c0.2,0.7,0.2,1.9,0.2,3.8c0,2.7,0,5.6,0.1,7.2h-3.4c0.6-1.9,0.8-2.8,1.1-4.5
			c0.8,0,0.8,0,1.4,0.1v-3.5c-0.7,0.1-1.4,0.2-2.8,0.2h-1.2c-0.3-1.2-0.8-2.3-1.5-3.7l-3.7,1.2c0.5,0.8,0.7,1.3,1.1,2.5h-2
			c-1.1,0-1.7,0-2.5-0.2v3.4l7.7,0c-0.3,2.2-0.3,2.6-1,4.5h-1.4c-0.2-1.8-0.3-2.4-0.4-3.1h-3.3c0.2,0.9,0.4,1.9,0.5,2.6l0.1,0.5
			c-1.7,0-1.9,0-3-0.2v3.9c1.2-0.2,2.1-0.2,3.9-0.2h10.4c0.2,4.9,0.7,8.6,1.5,11.5c-1.1,1.4-2,2.4-3.1,3.5v-0.2l0-1.4v-8.2
			c0-1.9,0-2.7,0.1-3.5c-0.9,0.1-1.4,0.1-2.5,0.1h-6.6c-1.4,0-1.7,0-2.5-0.1c0.1,1.1,0.2,1.7,0.2,3.5v10.4c0,1.4,0,2.4-0.2,3.5h3.7
			v-2.6h6c-0.8,0.5-1.1,0.7-2.1,1.4c1,0.7,1.8,1.6,2.7,3c2.4-1.9,4.3-3.6,5.9-5.6c1.4,3,3.3,4.9,5,4.9c1,0,1.8-0.8,2.4-2.2
			c0.4-1.1,0.7-2.6,0.9-5.2C230.5,61,229.8,60.5,228.7,59.5z M215.3,62h-4.4v-2.6h3.1v-3.1h-3.1v-2.5h4.4V62z"/>
	</g>
	<path class="st0" d="M143.8,19.5h1.8c0,1.6,1.5,2.6,3.3,2.6c2,0,3.2-0.9,3.2-2.5c-0.1-4.1-8-1.5-8-6.9c0-2.3,2.1-3.8,4.7-3.8
		c2.6,0,4.7,1.4,4.7,3.9h-1.8c0-1.5-1.3-2.3-2.9-2.3c-1.6,0-2.8,0.8-2.8,2.2c0,3.7,7.9,1.2,8,6.8c0,2.6-2.1,4.1-5.1,4.1
		C146.2,23.7,143.8,22.1,143.8,19.5"/>
	<path class="st0" d="M158.8,9.9c3.4-1.9,7.7-1.1,9.9,2.6c0.2,0.2,0.3,0.5,0.4,0.7l-11,6.3c1.5,2.4,4.6,3.2,7.2,1.7
		c1.6-0.9,2.6-2.4,2.8-4l1.9-1.1c0,2.7-1.5,5.3-3.9,6.7c-3.6,2.1-8,0.8-10-2.7C154.2,16.4,155.2,11.9,158.8,9.9 M166.7,12.8
		c-1.7-2.1-4.6-2.8-7-1.4c-2.5,1.4-3.3,4.3-2.3,6.8L166.7,12.8z"/>
	<path class="st0" d="M171.4,16c0-4.8,2.4-7,5.9-7c0.1,0,0.3,0,0.4,0v1.8c-0.1,0-0.3,0-0.4,0c-2.4,0-4.1,1.7-4.1,5.2v7.5h-1.8V16z"
		/>
	<path class="st0" d="M200.1,8.9c4.1,0,7.4,3.3,7.4,7.4c0,4.1-3.3,7.4-7.4,7.4c-2.4,0-4.4-1.3-5.6-3.1v8.6h-1.8V16.3
		C192.7,12.2,196,8.9,200.1,8.9 M205.7,16.3c0-3.2-2.4-5.7-5.6-5.7c-3.2,0-5.6,2.5-5.6,5.7s2.4,5.7,5.6,5.7
		C203.2,21.9,205.7,19.4,205.7,16.3"/>
	<path class="st0" d="M212.5,9.9c3.4-1.9,7.7-1.1,9.9,2.6c0.2,0.2,0.3,0.5,0.4,0.7l-11,6.3c1.5,2.4,4.6,3.2,7.2,1.7
		c1.6-0.9,2.6-2.4,2.8-4l1.9-1.1c0,2.7-1.5,5.3-3.9,6.7c-3.6,2.1-8,0.8-10-2.7C207.9,16.4,208.9,11.9,212.5,9.9 M220.4,12.8
		c-1.7-2.1-4.6-2.8-7-1.4c-2.5,1.4-3.3,4.3-2.3,6.8L220.4,12.8z"/>
	<path class="st0" d="M225.1,16c0-4.8,2.4-7,5.9-7c0.1,0,0.3,0,0.4,0v1.8c-0.1,0-0.3,0-0.4,0c-2.4,0-4.1,1.7-4.1,5.2v7.5h-1.8V16z"
		/>
	<path class="st0" d="M131.6,16.7V9.1h-1.8v7.6c0,4.4,2.2,6.6,5.4,7v-1.8C133,21.5,131.6,19.8,131.6,16.7"/>
	<path class="st0" d="M140.6,9.1v7.6c0,3.2-1.4,4.9-3.6,5.2v1.8c3.2-0.3,5.4-2.6,5.4-7V9.1H140.6z"/>
	<g>
		<polygon class="st0" points="189.3,9.1 191.4,9.1 187.4,14.4 186.4,13 		"/>
		<polygon class="st0" points="184.1,16 178.9,9.1 181,9.1 191.8,23.5 189.7,23.5 185.2,17.5 180.7,23.5 178.5,23.5 		"/>
	</g>
	<path class="st1" d="M27.9,60.7c-1,0-1.8,0-2,0c-0.4,0-0.8,0-1.1-0.1c-2.2-0.7-5.5-6.5-5.9-11.4l0-0.2c-0.9-5.1-3.6-7.8-6-9.8
		c2.4-1.9,5.1-4.7,6-9.8c0,0,0-0.1,0-0.1h0c0.4-4,2.4-11.6,7.4-11.6c0.2,0,1.3,0,2.5,0h1.2V8.8l-4.1,0c-0.7,0-1.4,0.1-2,0.2
		c-3.5,0.5-6.9,3.2-9.7,7.7c-2.1,3.4-3.5,7.9-3.9,12.2c-0.4,2.3-2.9,4.5-5.1,6.4c-0.4,0.3-0.8,0.7-1.1,1l-3.7,3.1l3.6,3
		c0.4,0.3,0.8,0.7,1.2,1c2.2,1.9,4.7,4.1,5.1,6.4c0.4,4.3,1.8,8.8,3.9,12.2c2.7,4.4,6.2,7.1,9.7,7.6c0.9,0.1,1.6,0.2,2.3,0.2
		c0.3,0,2.1,0,3.8,0v-8.9H27.9z"/>
	<path class="st1" d="M116.1,36.2c-0.4-0.3-0.7-0.7-1.1-1c-2.2-1.9-4.7-4.1-5-6.4c-0.4-4.3-1.8-8.8-3.9-12.2
		c-2.8-4.5-6.2-7.2-9.7-7.7c-0.6-0.1-1.2-0.2-2-0.2l-4.1,0v8.9h1.2c1.2,0,2.2,0,2.5,0c5,0,7,7.6,7.4,11.6h0c0,0.1,0,0.2,0,0.2
		c0.9,5.1,3.6,7.8,6,9.8c-2.4,1.9-5.1,4.7-6,9.8l0,0.1c-0.5,4.9-3.8,10.7-5.9,11.4c-0.3,0.1-0.7,0.1-1.1,0.1c-0.2,0-1,0-2,0h-2v8.9
		c1.7,0,3.5,0,3.8,0c0.7,0,1.4-0.1,2.3-0.2c3.5-0.5,6.9-3.2,9.7-7.6c2.1-3.4,3.5-7.9,3.9-12.2c0.4-2.3,2.9-4.5,5-6.4
		c0.4-0.4,0.8-0.7,1.1-1l3.7-3.1L116.1,36.2z"/>
	<path class="st2" d="M77.8,60.3c-0.9-0.3-1.8-0.8-2.4-1.5c-0.3-0.3-0.5-0.6-0.8-1.2l-21-41c-2-3.7-5.5-6.4-9.6-7.3
		c-1.6-0.4-3-0.6-4.5-0.6l-3,0v8.9h3.1c1.1,0,2,0,2.8,0.4c0.9,0.4,1.6,0.9,2.2,1.5c0.3,0.3,0.7,0.7,0.9,1.1l21,41
		c2.1,3.8,5.6,6.5,9.6,7.5c1.6,0.4,3.2,0.4,4.6,0.4l0,0c0.5,0,1.1,0,1.6,0l1.3,0v-8.9h-2.5C80,60.7,78.8,60.6,77.8,60.3z"/>
	<path class="st2" d="M80.7,8.8c-1.5,0-2.8,0.2-4.4,0.6c-4.1,1-7.6,3.6-9.7,7.3l-4,7.8l5.1,9.9l7-13.6c0.2-0.4,0.6-0.8,0.9-1.1
		c0.6-0.6,1.3-1.1,2.2-1.5c0.8-0.3,1.5-0.4,2.5-0.4c0.1,0,0.2,0,0.4,0l3.1,0V8.8H80.7z"/>
	<path class="st2" d="M45.6,57.7c-0.3,0.5-0.5,0.8-0.8,1.2c-0.6,0.6-1.5,1.2-2.4,1.5c-1,0.3-2.2,0.4-3.4,0.4h-2.5v8.9l1.3,0
		c0.5,0,1.1,0,1.6,0c1.4,0,3-0.1,4.6-0.4c4-0.9,7.5-3.7,9.7-7.5l4-7.7l-5.1-9.9L45.6,57.7z"/>
</g>
</svg>
