<svg id="圖層_1" data-name="圖層 1" xmlns="http://www.w3.org/2000/svg" viewBox="0 0 135.99 267.59"><defs><style>.cls-1{fill:#fefeff;}.cls-2{font-size:34.81px;}.cls-2,.cls-3,.cls-4{fill:#ec675a;}.cls-2,.cls-4{font-family:Comfortaa, Comfortaa;}.cls-4{font-size:20.11px;}.cls-5,.cls-6{fill:none;stroke:#fff;stroke-miterlimit:10;}.cls-5{stroke-width:1.36px;}.cls-6{font-size:4.78px;stroke-width:0.34px;font-family:PingFangTC-Regular-B5pc-H, PingFang TC;}</style></defs><title>最後底＿重構</title><path class="cls-1" d="M37.55,54.45a2.41,2.41,0,0,1,1.78-.74,2.47,2.47,0,0,1,1,.19,2.51,2.51,0,0,1,1.55,2.35,2.46,2.46,0,0,1-.74,1.8,2.51,2.51,0,0,1-3.56,0l-.28-.32-.29.39a3,3,0,0,1-.26.3,3,3,0,0,1-4.32,0,3,3,0,0,1-.89-2.17,3,3,0,0,1,.89-2.18,3,3,0,0,1,4.32,0,4.11,4.11,0,0,1,.55.71A3.59,3.59,0,0,1,37.55,54.45Zm-.74,1.8a2.23,2.23,0,0,0-.66-1.61A2.18,2.18,0,0,0,34.56,54a2.21,2.21,0,0,0-1.59.66,2.29,2.29,0,0,0-.66,1.61,2.19,2.19,0,0,0,.66,1.6,2.26,2.26,0,0,0,3.85-1.6Zm4.23,0A1.65,1.65,0,0,0,40.54,55a1.62,1.62,0,0,0-1.21-.51,1.73,1.73,0,0,0-1.72,1.73,1.68,1.68,0,0,0,.5,1.22,1.65,1.65,0,0,0,1.22.51,1.61,1.61,0,0,0,1.21-.51A1.68,1.68,0,0,0,41,56.25Z" transform="translate(-12.57 -13.74)"/><path class="cls-1" d="M32.32,64a.4.4,0,0,1-.12.29.4.4,0,0,1-.57,0,.4.4,0,0,1-.12-.29,2.24,2.24,0,0,1,2.54-2.54h3.88v-.66a.4.4,0,0,1,.12-.29.4.4,0,0,1,.57,0,.4.4,0,0,1,.12.29v.66h2.7a.4.4,0,0,1,.4.4.4.4,0,0,1-.12.29.38.38,0,0,1-.28.12h-2.7v1.2a.4.4,0,0,1-.12.29.4.4,0,0,1-.57,0,.4.4,0,0,1-.12-.29v-1.2H34.06A1.53,1.53,0,0,0,32.32,64Z" transform="translate(-12.57 -13.74)"/><path class="cls-1" d="M41.45,65.55a.39.39,0,0,1,.28.12.4.4,0,0,1,0,.57.39.39,0,0,1-.28.12H37.59a3.61,3.61,0,0,1,1.15,2.54,3.18,3.18,0,0,1-1,2.36,3.22,3.22,0,0,1-2.37,1H31.92a.38.38,0,0,1-.28-.12.4.4,0,0,1-.12-.29.4.4,0,0,1,.4-.4h3.48a2.57,2.57,0,0,0,2.55-2.54,2.55,2.55,0,0,0-2.55-2.54H31.92a.4.4,0,1,1,0-.8Z" transform="translate(-12.57 -13.74)"/><path class="cls-1" d="M33.15,80.71a.4.4,0,0,1,.28.11.37.37,0,0,1,.12.28.4.4,0,0,1-.18.34l-.26.19a2.46,2.46,0,0,0-.56.7,2.3,2.3,0,0,0-.24,1,2.16,2.16,0,0,0,.53,1.44,2.53,2.53,0,0,0,.71.57A2.28,2.28,0,0,0,36,85.06a2.59,2.59,0,0,0,.79-1.53,2.78,2.78,0,0,1,.88-1.71,2.74,2.74,0,0,1,.75-.44,2.39,2.39,0,0,1,.85-.15,2.46,2.46,0,0,1,1.94.88,2.43,2.43,0,0,1,.61,1.64,2.52,2.52,0,0,1-.9,1.91,2.49,2.49,0,0,1-.34.24.41.41,0,0,1-.22.06.4.4,0,0,1-.39-.39.31.31,0,0,1,.1-.26l.32-.25A1.63,1.63,0,0,0,41,83.88a1.73,1.73,0,0,0-.41-1.26,1.59,1.59,0,0,0-1.16-.6,1.82,1.82,0,0,0-.67.07,1.65,1.65,0,0,0-.59.33,2.44,2.44,0,0,0-.65,1.4,3,3,0,0,1-1,1.84,3.32,3.32,0,0,1-.91.53,2.83,2.83,0,0,1-1,.19,3.11,3.11,0,0,1-1.42-.3,3.2,3.2,0,0,1-.94-.77,2.94,2.94,0,0,1-.73-1.94,3.15,3.15,0,0,1,1.39-2.58A.4.4,0,0,1,33.15,80.71Z" transform="translate(-12.57 -13.74)"/><path class="cls-1" d="M32.32,91.17a.4.4,0,0,1-.12.29.4.4,0,0,1-.57,0,.4.4,0,0,1-.12-.29,2.24,2.24,0,0,1,2.54-2.54h3.88V88a.4.4,0,0,1,.12-.29.4.4,0,0,1,.57,0,.4.4,0,0,1,.12.29v.66h2.7a.4.4,0,0,1,.4.4.4.4,0,0,1-.12.29.38.38,0,0,1-.28.12h-2.7v1.2a.4.4,0,0,1-.12.29.4.4,0,0,1-.57,0,.4.4,0,0,1-.12-.29v-1.2H34.06A1.53,1.53,0,0,0,32.32,91.17Z" transform="translate(-12.57 -13.74)"/><path class="cls-1" d="M31.92,99.37a.38.38,0,0,1-.28-.12.4.4,0,0,1-.12-.29.4.4,0,0,1,.4-.4h.75A3.61,3.61,0,0,1,31.52,96a3.32,3.32,0,0,1,3.35-3.33h3.48a.4.4,0,1,1,0,.8H34.86a2.45,2.45,0,0,0-1.8.74,2.49,2.49,0,0,0-.75,1.8,2.55,2.55,0,0,0,2.55,2.54h3.48a.4.4,0,0,1,.4.4.4.4,0,0,1-.12.29.38.38,0,0,1-.28.12Z" transform="translate(-12.57 -13.74)"/><path class="cls-1" d="M41.44,106.82a.38.38,0,0,1,.28.12.39.39,0,0,1,.12.29.4.4,0,0,1-.4.4H35.13a3.61,3.61,0,1,1,2.55-1.06l-.25.25Zm-6.31,0a2.8,2.8,0,1,0-2-.82A2.71,2.71,0,0,0,35.13,106.82Z" transform="translate(-12.57 -13.74)"/><path class="cls-1" d="M33.07,114.31a.38.38,0,0,1-.12.28.42.42,0,0,1-.56,0,3.62,3.62,0,1,1,2.74,1.26.4.4,0,0,1-.4-.4v-6a3,3,0,0,0-1.59.81,2.7,2.7,0,0,0-.83,2,2.67,2.67,0,0,0,.66,1.8A.38.38,0,0,1,33.07,114.31Zm2.46.73a3,3,0,0,0,1.59-.8,2.79,2.79,0,0,0,0-4,3,3,0,0,0-1.59-.81Z" transform="translate(-12.57 -13.74)"/><path class="cls-1" d="M38.34,116.9a.4.4,0,1,1,0,.8h-.75a3.61,3.61,0,0,1,1.15,2.54,3.18,3.18,0,0,1-1,2.36,3.22,3.22,0,0,1-2.37,1H31.92a.38.38,0,0,1-.28-.12.4.4,0,0,1-.12-.29.4.4,0,0,1,.4-.4h3.48a2.57,2.57,0,0,0,2.55-2.54,2.55,2.55,0,0,0-2.55-2.54H31.92a.4.4,0,1,1,0-.8Z" transform="translate(-12.57 -13.74)"/><path class="cls-1" d="M32.32,128.25a.4.4,0,0,1-.12.29.4.4,0,0,1-.57,0,.4.4,0,0,1-.12-.29,2.24,2.24,0,0,1,2.54-2.54h3.88v-.66a.4.4,0,0,1,.12-.29.4.4,0,0,1,.57,0,.4.4,0,0,1,.12.29v.66h2.7a.4.4,0,0,1,.4.4.4.4,0,0,1-.12.29.38.38,0,0,1-.28.12h-2.7v1.2a.4.4,0,0,1-.12.29.4.4,0,0,1-.57,0,.4.4,0,0,1-.12-.29v-1.2H34.06A1.53,1.53,0,0,0,32.32,128.25Z" transform="translate(-12.57 -13.74)"/><path class="cls-1" d="M36.68,147.52a5.15,5.15,0,0,1-4.77-7.12,5.11,5.11,0,0,1,2.79-2.79,5.16,5.16,0,0,1,7.13,4.76,5.17,5.17,0,0,1-5.16,5.15ZM41,142.37a4.38,4.38,0,1,0-1.28,3.08A4.23,4.23,0,0,0,41,142.37Z" transform="translate(-12.57 -13.74)"/><path class="cls-1" d="M38.34,148.57a.4.4,0,1,1,0,.8h-.91a3.92,3.92,0,0,1,1.31,2.81,3.4,3.4,0,0,1-.25,1.38.51.51,0,0,1-.12.19.41.41,0,0,1-.65-.47,2.49,2.49,0,0,0,.22-1.1,2.82,2.82,0,0,0-2.81-2.81H31.92a.4.4,0,1,1,0-.8Z" transform="translate(-12.57 -13.74)"/><path class="cls-1" d="M32.84,161.14a3.65,3.65,0,0,1-1.3-2.8,3.6,3.6,0,1,1,3.6,3.61H31.48a2.67,2.67,0,0,1-1.93-.81,3.87,3.87,0,0,1,0-5.48,3.61,3.61,0,0,1,.87-.68.48.48,0,0,1,.24-.07.4.4,0,0,1,.4.4.39.39,0,0,1-.12.29.41.41,0,0,1-.12.09,3.22,3.22,0,0,0-.7.53,3,3,0,0,0-.67,1,3.06,3.06,0,0,0-.22,1.17,3,3,0,0,0,.9,2.18,2.15,2.15,0,0,0,1.36.57Zm5.1-2.8a2.79,2.79,0,1,0-.82,2A2.71,2.71,0,0,0,37.94,158.34Z" transform="translate(-12.57 -13.74)"/><path class="cls-1" d="M32.83,169.38a3.91,3.91,0,0,1-1.31-2.8,3.61,3.61,0,1,1,3.61,3.61H31.92a.4.4,0,0,1-.4-.4.39.39,0,0,1,.12-.29.38.38,0,0,1,.28-.12Zm5.12-2.8a2.81,2.81,0,1,0-.83,2A2.7,2.7,0,0,0,37.94,166.58Z" transform="translate(-12.57 -13.74)"/><path class="cls-1" d="M38.34,171.22a.4.4,0,1,1,0,.8h-.75a3.61,3.61,0,0,1,1.15,2.54,3.18,3.18,0,0,1-1,2.36,3.22,3.22,0,0,1-2.37,1H31.92a.38.38,0,0,1-.28-.12.4.4,0,0,1-.12-.29.4.4,0,0,1,.4-.4h3.48a2.57,2.57,0,0,0,2.55-2.54A2.55,2.55,0,0,0,35.39,172H31.92a.4.4,0,1,1,0-.8Z" transform="translate(-12.57 -13.74)"/><path class="cls-1" d="M38.34,179.52a.4.4,0,0,1,.4.4.39.39,0,0,1-.12.29.38.38,0,0,1-.28.12H31.92a.38.38,0,0,1-.28-.12.39.39,0,0,1-.12-.29.4.4,0,0,1,.4-.4Zm2.14.93a.53.53,0,0,1-.38-.91.53.53,0,0,1,.76,0,.53.53,0,0,1-.38.91Z" transform="translate(-12.57 -13.74)"/><path class="cls-1" d="M32.32,187.78a.4.4,0,1,1-.8,0v-5.34a.4.4,0,0,1,.12-.29.38.38,0,0,1,.28-.12.42.42,0,0,1,.25.08l5.78,4.8v-4.47a.4.4,0,0,1,.12-.29.4.4,0,0,1,.57,0,.4.4,0,0,1,.12.29v5.34a.4.4,0,0,1-.4.4.4.4,0,0,1-.26-.09l-5.76-4.8Z" transform="translate(-12.57 -13.74)"/><path class="cls-1" d="M33.07,194.49a.38.38,0,0,1-.12.28.42.42,0,0,1-.56,0A3.62,3.62,0,1,1,35.13,196a.4.4,0,0,1-.4-.4v-6a3,3,0,0,0-1.59.81,2.7,2.7,0,0,0-.83,2,2.67,2.67,0,0,0,.66,1.8A.38.38,0,0,1,33.07,194.49Zm2.46.73a3,3,0,0,0,1.59-.8,2.79,2.79,0,0,0,0-4,3,3,0,0,0-1.59-.81Z" transform="translate(-12.57 -13.74)"/><path class="cls-1" d="M41.44,203.48a.38.38,0,0,1,.28.12.39.39,0,0,1,.12.29.4.4,0,0,1-.4.4H35.13a3.61,3.61,0,1,1,2.55-1.06l-.25.25Zm-6.31,0a2.8,2.8,0,1,0-2-.82A2.71,2.71,0,0,0,35.13,203.48Z" transform="translate(-12.57 -13.74)"/><path class="cls-1" d="M41.73,218.14a.4.4,0,0,1,.11.28.39.39,0,0,1-.11.28.48.48,0,0,1-.15.1l-8.17,2.27,8.17,2.26a.44.44,0,0,1,.16.1.39.39,0,0,1,.1.28.37.37,0,0,1-.12.28.39.39,0,0,1-.28.11l-.19,0-9.38-2.59a.5.5,0,0,1-.23-.13.41.41,0,0,1-.12-.28.38.38,0,0,1,.12-.28.57.57,0,0,1,.23-.13l8.08-2.23-8.07-2.22a.63.63,0,0,1-.23-.14.4.4,0,0,1-.12-.28.38.38,0,0,1,.12-.28.53.53,0,0,1,.23-.14l9.39-2.59.19,0a.4.4,0,0,1,.4.4.4.4,0,0,1-.11.28.4.4,0,0,1-.15.09l-8.17,2.27L41.58,218A.36.36,0,0,1,41.73,218.14Z" transform="translate(-12.57 -13.74)"/><path class="cls-1" d="M35.13,231.84a3.61,3.61,0,1,1,2.55-1.06A3.48,3.48,0,0,1,35.13,231.84Zm2.81-3.61a2.81,2.81,0,1,0-.83,2A2.7,2.7,0,0,0,37.94,228.23Z" transform="translate(-12.57 -13.74)"/><path class="cls-1" d="M38.34,232.89a.4.4,0,1,1,0,.8h-.91a3.92,3.92,0,0,1,1.31,2.81,3.4,3.4,0,0,1-.25,1.38.51.51,0,0,1-.12.19.41.41,0,0,1-.65-.47,2.49,2.49,0,0,0,.22-1.1,2.82,2.82,0,0,0-2.81-2.81H31.92a.4.4,0,1,1,0-.8Z" transform="translate(-12.57 -13.74)"/><path class="cls-1" d="M35.61,239.86l3.08,4.73a.4.4,0,0,1-.34.61.35.35,0,0,1-.3-.13l-2.14-3.26-3.7,3.28a.4.4,0,0,1-.28.11.4.4,0,0,1-.27-.69l3.82-3.39-.82-1.26H31.92a.4.4,0,0,1-.4-.4.4.4,0,0,1,.12-.29.38.38,0,0,1,.28-.12h9.53a.39.39,0,0,1,.28.12.4.4,0,0,1,.12.29.38.38,0,0,1-.12.28.39.39,0,0,1-.28.12Z" transform="translate(-12.57 -13.74)"/><path class="cls-1" d="M35.26,247.5h0a4,4,0,0,1,.22-.5,1.2,1.2,0,0,1,.22-.31,1.44,1.44,0,0,1,1-.43,1.48,1.48,0,0,1,1.06.45,3.25,3.25,0,0,1,.94,2.42,3.39,3.39,0,0,1-.34,1.5,4.15,4.15,0,0,1-1,1.27.35.35,0,0,1-.23.07.41.41,0,0,1-.41-.41.31.31,0,0,1,.1-.25l.2-.2a2.7,2.7,0,0,0,.83-2,2.46,2.46,0,0,0-.75-1.87.82.82,0,0,0-.55-.19.59.59,0,0,0-.55.42L35,250.79h0a4.14,4.14,0,0,1-.22.5,1.1,1.1,0,0,1-.22.3,1.42,1.42,0,0,1-1,.44,1.46,1.46,0,0,1-1.06-.46,3.23,3.23,0,0,1-.94-2.41,3.59,3.59,0,0,1,1.29-2.77.39.39,0,0,1,.23-.07.4.4,0,0,1,.29.12.38.38,0,0,1,.12.28.35.35,0,0,1-.1.26l-.2.2a2.7,2.7,0,0,0-.83,2,2.44,2.44,0,0,0,.74,1.86.81.81,0,0,0,.56.2.6.6,0,0,0,.55-.42Z" transform="translate(-12.57 -13.74)"/><path class="cls-1" d="M41.45,253.09a.39.39,0,0,1,.28.12.4.4,0,0,1,0,.57.39.39,0,0,1-.28.12H37.59a3.61,3.61,0,0,1,1.15,2.54,3.18,3.18,0,0,1-1,2.36,3.22,3.22,0,0,1-2.37,1H31.92a.38.38,0,0,1-.28-.12.4.4,0,0,1-.12-.29.4.4,0,0,1,.4-.4h3.48a2.57,2.57,0,0,0,2.55-2.54,2.55,2.55,0,0,0-2.55-2.54H31.92a.4.4,0,1,1,0-.8Z" transform="translate(-12.57 -13.74)"/><path class="cls-1" d="M35.13,268A3.61,3.61,0,1,1,37.68,267,3.48,3.48,0,0,1,35.13,268Zm2.81-3.61a2.81,2.81,0,1,0-.83,2A2.7,2.7,0,0,0,37.94,264.42Z" transform="translate(-12.57 -13.74)"/><path class="cls-1" d="M28.82,269.85a.4.4,0,1,1,0-.8h6.31a3.61,3.61,0,1,1-2.55,1.06l.25-.26Zm6.31,0a2.82,2.82,0,1,0,2,.82A2.71,2.71,0,0,0,35.13,269.85Z" transform="translate(-12.57 -13.74)"/><path class="cls-1" d="M20.83,63.48a5.15,5.15,0,0,1-4.77-7.12,5.11,5.11,0,0,1,2.79-2.79,5.16,5.16,0,0,1,5.62,1.11,5.15,5.15,0,0,1-3.64,8.79Zm4.36-5.15A4.37,4.37,0,0,0,20.83,54a4.36,4.36,0,1,0,3.08,7.44A4.19,4.19,0,0,0,25.19,58.33Z" transform="translate(-12.57 -13.74)"/><path class="cls-1" d="M22.49,64.52a.4.4,0,1,1,0,.8h-.75a3.6,3.6,0,0,1,1.15,2.54,3.19,3.19,0,0,1-1,2.36,3.22,3.22,0,0,1-2.37,1H16.07a.38.38,0,0,1-.28-.12.4.4,0,0,1-.12-.29.4.4,0,0,1,.4-.4h3.48a2.57,2.57,0,0,0,2.55-2.54,2.55,2.55,0,0,0-2.55-2.54H16.07a.4.4,0,1,1,0-.8Z" transform="translate(-12.57 -13.74)"/><path class="cls-1" d="M25.59,84.75a.4.4,0,0,1,.4.4.38.38,0,0,1-.12.28.39.39,0,0,1-.28.11H21.22v5.55h4.36a.4.4,0,0,1,.4.4.38.38,0,0,1-.12.28.38.38,0,0,1-.28.12H16.07a.39.39,0,0,1-.28-.12.38.38,0,0,1-.12-.28.4.4,0,0,1,.4-.4h4.36V85.54H16.07a.39.39,0,0,1-.28-.11.38.38,0,0,1-.12-.28.4.4,0,0,1,.4-.4Z" transform="translate(-12.57 -13.74)"/><path class="cls-1" d="M16.07,99.67a.38.38,0,0,1-.28-.12.4.4,0,0,1-.12-.29.4.4,0,0,1,.4-.4h.75a3.61,3.61,0,0,1-1.15-2.54A3.32,3.32,0,0,1,19,93h3.48a.4.4,0,1,1,0,.8H19a2.45,2.45,0,0,0-1.8.74,2.49,2.49,0,0,0-.75,1.8A2.55,2.55,0,0,0,19,98.87h3.48a.4.4,0,0,1,.4.4.4.4,0,0,1-.12.29.38.38,0,0,1-.28.12Z" transform="translate(-12.57 -13.74)"/><path class="cls-1" d="M16.07,101.49a.4.4,0,0,1-.4-.4.4.4,0,0,1,.12-.29.38.38,0,0,1,.28-.12h6.42a.38.38,0,0,1,.28.12.4.4,0,0,1,.12.29.4.4,0,0,1-.4.4h-.43a3.08,3.08,0,0,1,.83,2,2.7,2.7,0,0,1-.82,2,5.37,5.37,0,0,1-.5.42,4.63,4.63,0,0,1,.5.42,2.8,2.8,0,0,1-2,4.78h-4a.4.4,0,1,1,0-.8h4a2,2,0,1,0,0-4h-4a.38.38,0,0,1-.28-.12.4.4,0,0,1-.12-.29.4.4,0,0,1,.4-.4h4a2,2,0,1,0,0-4Z" transform="translate(-12.57 -13.74)"/><path class="cls-1" d="M17,118.45a3.9,3.9,0,0,1-1.31-2.8A3.61,3.61,0,0,1,19.28,112a3.61,3.61,0,1,1,0,7.21H16.07a.4.4,0,0,1-.4-.4.39.39,0,0,1,.12-.29.38.38,0,0,1,.28-.12Zm5.11-2.8a2.81,2.81,0,0,0-4.8-2,2.81,2.81,0,0,0,4,4A2.7,2.7,0,0,0,22.09,115.65Z" transform="translate(-12.57 -13.74)"/><path class="cls-1" d="M22.49,120.3a.4.4,0,1,1,0,.8h-.75a3.6,3.6,0,0,1,1.15,2.54,3.19,3.19,0,0,1-1,2.36,3.22,3.22,0,0,1-2.37,1H16.07a.38.38,0,0,1-.28-.12.4.4,0,0,1-.12-.29.4.4,0,0,1,.4-.4h3.48a2.57,2.57,0,0,0,2.55-2.54,2.55,2.55,0,0,0-2.55-2.54H16.07a.4.4,0,1,1,0-.8Z" transform="translate(-12.57 -13.74)"/><path class="cls-1" d="M18.88,128.42a.4.4,0,0,1,.12-.29.4.4,0,0,1,.57,0,.4.4,0,0,1,.12.29v3.2a.39.39,0,0,1-.12.29.4.4,0,0,1-.57,0,.39.39,0,0,1-.12-.29Z" transform="translate(-12.57 -13.74)"/><path class="cls-1" d="M17.23,138.85a.38.38,0,0,1-.12.28.41.41,0,0,1-.58,0,3.62,3.62,0,0,1-.64-1.09,3.54,3.54,0,0,1-.23-1.26,3.61,3.61,0,0,1,3.61-3.61,3.61,3.61,0,0,1,3.61,3.61,3.6,3.6,0,0,1-.22,1.27,3.53,3.53,0,0,1-.65,1.09.54.54,0,0,1-.14.1.39.39,0,0,1-.17,0,.39.39,0,0,1-.28-.12.38.38,0,0,1-.12-.28.37.37,0,0,1,.1-.26,2.81,2.81,0,0,0-4.11-3.82,2.7,2.7,0,0,0-.83,2,2.64,2.64,0,0,0,.19,1,3.08,3.08,0,0,0,.5.85A.37.37,0,0,1,17.23,138.85Z" transform="translate(-12.57 -13.74)"/><path class="cls-1" d="M19.28,147.59a3.61,3.61,0,1,1,2.55-6.16,3.61,3.61,0,0,1-2.55,6.16ZM22.09,144a2.81,2.81,0,0,0-4.8-2,2.81,2.81,0,0,0,4,4A2.7,2.7,0,0,0,22.09,144Z" transform="translate(-12.57 -13.74)"/><path class="cls-1" d="M16.07,149.39a.4.4,0,0,1-.4-.4.4.4,0,0,1,.12-.29.38.38,0,0,1,.28-.12h6.42a.38.38,0,0,1,.28.12.4.4,0,0,1,.12.29.4.4,0,0,1-.4.4h-.43a3.08,3.08,0,0,1,.83,2,2.7,2.7,0,0,1-.82,2,5.37,5.37,0,0,1-.5.42,4.63,4.63,0,0,1,.5.42,2.8,2.8,0,0,1-2,4.78h-4a.4.4,0,1,1,0-.8h4a2,2,0,1,0,0-4h-4a.38.38,0,0,1-.28-.12.4.4,0,0,1-.12-.29.4.4,0,0,1,.4-.4h4a2,2,0,1,0,0-4Z" transform="translate(-12.57 -13.74)"/><path class="cls-1" d="M16.07,166.63a.38.38,0,0,1-.28-.12.4.4,0,0,1-.12-.29.4.4,0,0,1,.4-.4h.75a3.61,3.61,0,0,1-1.15-2.54A3.32,3.32,0,0,1,19,160h3.48a.4.4,0,1,1,0,.8H19a2.45,2.45,0,0,0-1.8.74,2.49,2.49,0,0,0-.75,1.8A2.55,2.55,0,0,0,19,165.83h3.48a.4.4,0,0,1,.4.4.4.4,0,0,1-.12.29.38.38,0,0,1-.28.12Z" transform="translate(-12.57 -13.74)"/><path class="cls-1" d="M13,168.48a.4.4,0,1,1,0-.8h6.31a3.61,3.61,0,1,1-2.55,6.16,3.6,3.6,0,0,1,0-5.1l.25-.26Zm6.31,0a2.82,2.82,0,1,0,2,.82A2.71,2.71,0,0,0,19.28,168.48Z" transform="translate(-12.57 -13.74)"/><path class="cls-1" d="M16.47,179.55a.4.4,0,0,1-.12.29.4.4,0,0,1-.57,0,.4.4,0,0,1-.12-.29A2.24,2.24,0,0,1,18.21,177h3.88v-.66a.4.4,0,0,1,.12-.29.4.4,0,0,1,.57,0,.4.4,0,0,1,.12.29V177h2.7a.39.39,0,0,1,.28.12.38.38,0,0,1,.12.28.4.4,0,0,1-.12.29.39.39,0,0,1-.28.12h-2.7V179a.4.4,0,0,1-.12.29.4.4,0,0,1-.57,0,.4.4,0,0,1-.12-.29v-1.2H18.21A1.53,1.53,0,0,0,16.47,179.55Z" transform="translate(-12.57 -13.74)"/><path class="cls-1" d="M17.22,186.35a.38.38,0,0,1-.12.28.4.4,0,0,1-.29.12.39.39,0,0,1-.28-.1,3.61,3.61,0,0,1,5.3-4.9,3.61,3.61,0,0,1-2.55,6.16.4.4,0,0,1-.4-.4v-6a3,3,0,0,0-1.59.81,2.7,2.7,0,0,0-.83,2,2.68,2.68,0,0,0,.66,1.8A.38.38,0,0,1,17.22,186.35Zm2.46.73a3,3,0,0,0,1.59-.8,2.79,2.79,0,0,0,0-4,3,3,0,0,0-1.59-.81Z" transform="translate(-12.57 -13.74)"/><path class="cls-1" d="M22.49,189a.4.4,0,1,1,0,.8h-.91a3.92,3.92,0,0,1,1.31,2.81,3.4,3.4,0,0,1-.25,1.38.51.51,0,0,1-.12.19.4.4,0,0,1-.68-.29.37.37,0,0,1,0-.18,2.49,2.49,0,0,0,.22-1.1,2.82,2.82,0,0,0-2.81-2.81H16.07a.4.4,0,1,1,0-.8Z" transform="translate(-12.57 -13.74)"/><path class="cls-1" d="M25.59,208.26a.39.39,0,0,1,.28.11.38.38,0,0,1,.12.28.4.4,0,0,1-.4.4H16.07a.4.4,0,0,1-.4-.4.38.38,0,0,1,.12-.28.39.39,0,0,1,.28-.11Z" transform="translate(-12.57 -13.74)"/><path class="cls-1" d="M22.49,210.72a.4.4,0,1,1,0,.8h-.75a3.6,3.6,0,0,1,1.15,2.54,3.19,3.19,0,0,1-1,2.36,3.22,3.22,0,0,1-2.37,1H16.07a.38.38,0,0,1-.28-.12.4.4,0,0,1-.12-.29.4.4,0,0,1,.4-.4h3.48a2.57,2.57,0,0,0,2.55-2.54,2.55,2.55,0,0,0-2.55-2.54H16.07a.4.4,0,1,1,0-.8Z" transform="translate(-12.57 -13.74)"/><path class="cls-1" d="M16.47,222.07a.4.4,0,0,1-.12.29.4.4,0,0,1-.57,0,.4.4,0,0,1-.12-.29,2.24,2.24,0,0,1,2.54-2.54h3.88v-.66a.4.4,0,0,1,.12-.29.4.4,0,0,1,.57,0,.4.4,0,0,1,.12.29v.66h2.7a.39.39,0,0,1,.28.12.38.38,0,0,1,.12.28.4.4,0,0,1-.12.29.39.39,0,0,1-.28.12h-2.7v1.2a.4.4,0,0,1-.12.29.4.4,0,0,1-.57,0,.4.4,0,0,1-.12-.29v-1.2H18.21A1.53,1.53,0,0,0,16.47,222.07Z" transform="translate(-12.57 -13.74)"/><path class="cls-1" d="M17.22,228.87a.38.38,0,0,1-.12.28.4.4,0,0,1-.29.12.39.39,0,0,1-.28-.1,3.61,3.61,0,0,1,5.3-4.9,3.61,3.61,0,0,1-2.55,6.16.4.4,0,0,1-.4-.4v-6a3,3,0,0,0-1.59.81,2.7,2.7,0,0,0-.83,2,2.68,2.68,0,0,0,.66,1.8A.38.38,0,0,1,17.22,228.87Zm2.46.73a3,3,0,0,0,1.59-.8,2.79,2.79,0,0,0,0-4,3,3,0,0,0-1.59-.81Z" transform="translate(-12.57 -13.74)"/><path class="cls-1" d="M22.49,231.47a.4.4,0,1,1,0,.8h-.91a3.92,3.92,0,0,1,1.31,2.81,3.4,3.4,0,0,1-.25,1.38.51.51,0,0,1-.12.19.4.4,0,0,1-.68-.29.37.37,0,0,1,0-.18,2.49,2.49,0,0,0,.22-1.1,2.82,2.82,0,0,0-2.81-2.81H16.07a.4.4,0,1,1,0-.8Z" transform="translate(-12.57 -13.74)"/><path class="cls-1" d="M17.23,243.31a.38.38,0,0,1-.12.28.41.41,0,0,1-.58,0,3.62,3.62,0,0,1-.64-1.09,3.54,3.54,0,0,1-.23-1.26,3.61,3.61,0,0,1,3.61-3.61,3.61,3.61,0,0,1,3.61,3.61,3.6,3.6,0,0,1-.22,1.27,3.53,3.53,0,0,1-.65,1.09.54.54,0,0,1-.14.1.39.39,0,0,1-.17,0,.39.39,0,0,1-.28-.12.38.38,0,0,1-.12-.28.37.37,0,0,1,.1-.26,2.81,2.81,0,0,0-4.11-3.82,2.7,2.7,0,0,0-.83,2,2.64,2.64,0,0,0,.19,1,3.08,3.08,0,0,0,.5.85A.37.37,0,0,1,17.23,243.31Z" transform="translate(-12.57 -13.74)"/><path class="cls-1" d="M17,251.25a3.9,3.9,0,0,1-1.31-2.8,3.61,3.61,0,0,1,3.61-3.61,3.61,3.61,0,1,1,0,7.21H16.07a.4.4,0,0,1-.4-.4.39.39,0,0,1,.12-.29.38.38,0,0,1,.28-.12Zm5.11-2.8a2.81,2.81,0,0,0-4.8-2,2.81,2.81,0,0,0,4,4A2.7,2.7,0,0,0,22.09,248.45Z" transform="translate(-12.57 -13.74)"/><path class="cls-1" d="M16.47,256.72a.4.4,0,0,1-.12.29.4.4,0,0,1-.57,0,.4.4,0,0,1-.12-.29,2.24,2.24,0,0,1,2.54-2.54h3.88v-.66a.4.4,0,0,1,.12-.29.4.4,0,0,1,.57,0,.4.4,0,0,1,.12.29v.66h2.7a.39.39,0,0,1,.28.12.38.38,0,0,1,.12.28.4.4,0,0,1-.12.29.39.39,0,0,1-.28.12h-2.7v1.2a.4.4,0,0,1-.12.29.4.4,0,0,1-.57,0,.4.4,0,0,1-.12-.29V255H18.21A1.53,1.53,0,0,0,16.47,256.72Z" transform="translate(-12.57 -13.74)"/><path class="cls-1" d="M22.49,258.82a.4.4,0,0,1,.4.4.39.39,0,0,1-.12.29.38.38,0,0,1-.28.12H16.07a.38.38,0,0,1-.28-.12.39.39,0,0,1-.12-.29.4.4,0,0,1,.4-.4Zm2.14.93a.53.53,0,0,1-.38-.91.51.51,0,0,1,.38-.16.54.54,0,0,1,.38.91A.52.52,0,0,1,24.63,259.75Z" transform="translate(-12.57 -13.74)"/><path class="cls-1" d="M19.28,268.54a3.61,3.61,0,1,1,2.55-6.16,3.61,3.61,0,0,1-2.55,6.16Zm2.81-3.61a2.81,2.81,0,0,0-4.8-2,2.81,2.81,0,0,0,4,4A2.7,2.7,0,0,0,22.09,264.93Z" transform="translate(-12.57 -13.74)"/><path class="cls-1" d="M22.49,269.58a.4.4,0,1,1,0,.8h-.75a3.6,3.6,0,0,1,1.15,2.54,3.19,3.19,0,0,1-1,2.36,3.22,3.22,0,0,1-2.37,1H16.07a.38.38,0,0,1-.28-.12.4.4,0,0,1-.12-.29.4.4,0,0,1,.4-.4h3.48a2.57,2.57,0,0,0,2.55-2.54,2.55,2.55,0,0,0-2.55-2.54H16.07a.4.4,0,1,1,0-.8Z" transform="translate(-12.57 -13.74)"/><text class="cls-2" transform="translate(43.39 231.81) scale(1.2 1)">RE: _</text><rect class="cls-3" x="67.65" y="120.14" width="4.72" height="42.09" rx="1.03" ry="1.03"/><rect class="cls-3" x="47.97" y="120.14" width="4.72" height="70.02" rx="1.03" ry="1.03"/><path class="cls-3" d="M132.67,128.49h3.9a2.42,2.42,0,0,1,.37,0h9a2.46,2.46,0,0,0,2.45-2.45V125a2.46,2.46,0,0,0-2.45-2.45H131.73a2.4,2.4,0,0,1-2-2v2h0v-6.57a2.36,2.36,0,0,0-4.72,0v4.92a2.41,2.41,0,0,1-2.08,1.66H110.17a2.42,2.42,0,0,1-2.31-2.08v-4.92a2.36,2.36,0,0,0-4.72,0v5a2.41,2.41,0,0,1-2.19,2H77.41a2.41,2.41,0,0,1-2.2-2v-4.64a2.36,2.36,0,0,0-4.72,0v4.61a2.41,2.41,0,0,1-2.21,2.08H60.54A2.46,2.46,0,0,0,58.09,125v1.11a2.46,2.46,0,0,0,2.45,2.45h7.78a2.4,2.4,0,0,1,2.17,2.06v70.94a2.36,2.36,0,0,0,4.72,0v-71a2.41,2.41,0,0,1,2.19-2H94.57l.2,0h6.16a2.46,2.46,0,0,1,2.45,2.45v.82a2.46,2.46,0,0,1-2.45,2.45h-9a2.46,2.46,0,0,0-2.45,2.45v1.11a2.46,2.46,0,0,0,2.45,2.45h6.83v0h2.2a2.46,2.46,0,0,1,2.45,2.45v.82a2.46,2.46,0,0,1-2.45,2.45h-9a2.46,2.46,0,0,0-2.45,2.45v1.11A2.46,2.46,0,0,0,91.9,152H111a2.46,2.46,0,0,1,2.45,2.45v.29a2.46,2.46,0,0,1-2.45,2.45H98.73v0H91.9a2.46,2.46,0,0,0-2.45,2.45v1.11c0,.07,0,.14,0,.22v19.31a2.4,2.4,0,0,1-2,2H84.11a2.46,2.46,0,0,0-2.45,2.45v1.11a2.46,2.46,0,0,0,2.45,2.45h3.32a2.39,2.39,0,0,1,2,2v10.92a2.36,2.36,0,0,0,4.72,0v-10.9a2.43,2.43,0,0,1,2.31-2h38.15a2.39,2.39,0,0,1,2,1.77v11.3a2.36,2.36,0,0,0,4.72,0V190.37a2.43,2.43,0,0,1,2.31-2h2.16a2.46,2.46,0,0,0,2.45-2.45V184.8a2.46,2.46,0,0,0-2.45-2.45h-2.5a2.43,2.43,0,0,1-2-2.3V159.91a2.34,2.34,0,0,0-.44-1.37,2.45,2.45,0,0,0-2.14-1.28H132v0H120.12a2.46,2.46,0,0,1-2.45-2.45v-.29a2.46,2.46,0,0,1,2.45-2.45H139a2.46,2.46,0,0,0,2.45-2.45v-1.11A2.46,2.46,0,0,0,139,146h-6.28a2.46,2.46,0,0,1-2.45-2.45v-.82a2.46,2.46,0,0,1,2.45-2.45h0v0H139a2.46,2.46,0,0,0,2.45-2.45V136.7a2.46,2.46,0,0,0-2.45-2.45h-5.17v0h-1.11a2.46,2.46,0,0,1-2.45-2.45v-.82A2.46,2.46,0,0,1,132.67,128.49ZM89.47,189v-.66h0Zm4.41-22.93a2.46,2.46,0,0,1,2.45-2.45H111a2.46,2.46,0,0,1,2.45,2.45v1a2.46,2.46,0,0,1-2.45,2.45H96.33a2.46,2.46,0,0,1-2.45-2.45Zm.31,22.34v-.07h0Zm42.75-8.94a2.46,2.46,0,0,1-2.45,2.45H96.33a2.46,2.46,0,0,1-2.45-2.45v-1A2.46,2.46,0,0,1,96.33,176h38.15a2.46,2.46,0,0,1,2.45,2.45Zm-16.82-15.85h14.65a2.46,2.46,0,0,1,2.45,2.45v1a2.46,2.46,0,0,1-2.45,2.45H120.12a2.46,2.46,0,0,1-2.45-2.45v-1A2.46,2.46,0,0,1,120.12,163.64Zm5.91-20a2.48,2.48,0,0,1-2.45,2.5H110.12a2.48,2.48,0,0,1-2.45-2.5v-1a2.48,2.48,0,0,1,2.45-2.5h13.46a2.48,2.48,0,0,1,2.45,2.5Zm0-11.85a2.46,2.46,0,0,1-2.45,2.45H110.12a2.46,2.46,0,0,1-2.45-2.45v-1a2.46,2.46,0,0,1,2.45-2.45h13.46a2.46,2.46,0,0,1,2.45,2.45Z" transform="translate(-12.57 -13.74)"/><path class="cls-3" d="M106.64,35.83h38.78a2.46,2.46,0,0,0,2.45-2.45V32.27a2.46,2.46,0,0,0-2.45-2.45h-39a2.37,2.37,0,0,1-1.62-1.95v1.95h0v-6a2.38,2.38,0,0,1,2-1.95h31.82a2.46,2.46,0,0,0,2.45-2.45V18.32a2.46,2.46,0,0,0-2.45-2.45H65.13a2.46,2.46,0,0,0-2.45,2.45v1.11a2.46,2.46,0,0,0,2.45,2.45H97.91a2.44,2.44,0,0,1,2.18,1.66v4.2a2.4,2.4,0,0,1-2,2.07H60.37a2.46,2.46,0,0,0-2.45,2.45v1.11a2.46,2.46,0,0,0,2.45,2.45H98a2.39,2.39,0,0,1,2.06,2v3.71a2.38,2.38,0,0,1-1.71,2H65.13A2.46,2.46,0,0,0,62.68,46v1.11a2.43,2.43,0,0,0,.06.52V71.91a2.43,2.43,0,0,0-.06.52v1.11A2.46,2.46,0,0,0,65.13,76h33a2.38,2.38,0,0,1,1.91,2v5.2a2.37,2.37,0,0,1-1.84,2H65.13a2.46,2.46,0,0,0-2.45,2.45v1.11a2.46,2.46,0,0,0,2.45,2.45H98.47a2.37,2.37,0,0,1,1.63,1.89v5.47a2.37,2.37,0,0,1-1.74,2h-38A2.46,2.46,0,0,0,57.92,103v1.11a2.46,2.46,0,0,0,2.45,2.45h85a2.46,2.46,0,0,0,2.45-2.45V103a2.46,2.46,0,0,0-2.45-2.45H106.86a2.39,2.39,0,0,1-2-2.05v2.05h0V93.08a2.38,2.38,0,0,1,1.79-1.87h32a2.46,2.46,0,0,0,2.45-2.45V87.64a2.46,2.46,0,0,0-2.45-2.45H106.35a2.37,2.37,0,0,1-1.53-1.91v1.91h0V77.94a2.38,2.38,0,0,1,2-1.95h31.81a2.46,2.46,0,0,0,2.45-2.45V72.43a2.43,2.43,0,0,0,0-.46V47.61a2.43,2.43,0,0,0,0-.46V46a2.46,2.46,0,0,0-2.45-2.45H106.71a2.37,2.37,0,0,1-1.89-2v2h0v-6A2.36,2.36,0,0,1,106.64,35.83ZM67.28,53.92a2.46,2.46,0,0,1,2.45-2.45H97.64a2.46,2.46,0,0,1,2.45,2.45v1a2.46,2.46,0,0,1-2.45,2.45H69.73a2.46,2.46,0,0,1-2.45-2.45Zm69.2,13.69A2.46,2.46,0,0,1,134,70.06H69.73a2.46,2.46,0,0,1-2.45-2.45v-1a2.46,2.46,0,0,1,2.45-2.45H134a2.46,2.46,0,0,1,2.45,2.45ZM107.15,51.46H134a2.46,2.46,0,0,1,2.45,2.45v1A2.46,2.46,0,0,1,134,57.37H107.15a2.46,2.46,0,0,1-2.45-2.45v-1A2.46,2.46,0,0,1,107.15,51.46Z" transform="translate(-12.57 -13.74)"/><text class="cls-4" transform="translate(43.65 262.67) rotate(0.13)">OPEN HCI</text><polygon class="cls-5" points="7.41 0.68 25.04 0.68 29.85 23.2 2.28 23.52 7.41 0.68"/><polygon class="cls-5" points="12.1 7.76 19.91 7.76 19.91 17.17 11.74 17.17 12.1 7.76"/><line class="cls-5" x1="12.1" y1="7.76" x2="7.41" y2="0.68"/><line class="cls-5" x1="19.91" y1="7.76" x2="25.04" y2="0.68"/><line class="cls-5" x1="11.74" y1="17.17" x2="2.28" y2="23.52"/><line class="cls-5" x1="19.91" y1="17.17" x2="29.65" y2="22.96"/><text class="cls-6" transform="translate(3.82 31.24)">OpenHCI 17</text></svg>