<svg id="圖層_1" data-name="圖層 1" xmlns="http://www.w3.org/2000/svg" xmlns:xlink="http://www.w3.org/1999/xlink" viewBox="0 0 421.48 391.48"><defs><style>.cls-1,.cls-11,.cls-12,.cls-13,.cls-14,.cls-15,.cls-18,.cls-2,.cls-20,.cls-22,.cls-23,.cls-24,.cls-25,.cls-26,.cls-27,.cls-30,.cls-5,.cls-6,.cls-8,.cls-9{fill:none;stroke-miterlimit:10;}.cls-1,.cls-11,.cls-12,.cls-13,.cls-14,.cls-18,.cls-2,.cls-20,.cls-22,.cls-23,.cls-25,.cls-26,.cls-5,.cls-8,.cls-9{stroke:#fff;}.cls-1,.cls-6{stroke-width:0.55px;}.cls-2{stroke-width:0.44px;}.cls-3{fill:#ec675a;}.cls-4{fill:#d9dadb;}.cls-5{stroke-width:0.52px;}.cls-24,.cls-27,.cls-6{stroke:#ec675a;}.cls-7{clip-path:url(#clip-path);}.cls-8{stroke-width:0.43px;}.cls-9{stroke-width:0.25px;}.cls-10{fill:#2a4399;}.cls-11,.cls-12,.cls-13{stroke-width:0.28px;}.cls-12{stroke-dasharray:0.87 0.87;}.cls-13{stroke-dasharray:0.86 0.86;}.cls-14,.cls-15{stroke-width:0.42px;}.cls-15{stroke:#040000;}.cls-16{fill:#fff;}.cls-17{clip-path:url(#clip-path-2);}.cls-18{stroke-width:0.44px;}.cls-19{clip-path:url(#clip-path-3);}.cls-20{stroke-width:0.43px;}.cls-21{clip-path:url(#clip-path-4);}.cls-22{stroke-width:0.51px;}.cls-23{stroke-width:0.53px;}.cls-24{stroke-width:0.64px;}.cls-25{stroke-width:0.54px;}.cls-26{stroke-width:0.28px;}.cls-27{stroke-width:0.56px;}.cls-28{fill:#d7d8d8;}.cls-29{fill:#b5b5b6;}.cls-30{stroke:#b5b5b6;}</style><clipPath id="clip-path"><path class="cls-1" d="M80.52,11.27,147.19,73.2l-.37,10.59s-28.28,3.09-51.11,13.13l-.73,19,16.71,8.95,35.5,61.9L79.38,145.45Z"/></clipPath><clipPath id="clip-path-2"><polygon class="cls-2" points="352.06 86.76 352.35 41.65 262.13 86.76 263.79 118.31 270.09 115.95 286.89 124.79 287.78 194.67 367.98 169.02 367.52 124.49 317.85 141.6 304.58 129.22 303.93 108.54 352.06 86.76"/></clipPath><clipPath id="clip-path-3"><polygon class="cls-2" points="325.09 214 325.67 233.48 370.43 261.67 369.59 246.9 325.09 214"/></clipPath><clipPath id="clip-path-4"><polygon class="cls-3" points="374.2 78.21 372.89 104.3 411.61 154.27 410.39 127.84 374.2 78.21"/></clipPath></defs><title>最後底＿圖</title><polygon class="cls-3" points="80.5 11.13 57.73 25.52 57.15 157.86 76.18 147.4 79.38 145.64 80.5 11.13"/><polygon class="cls-4" points="147.19 186.77 124.93 195.59 57.15 157.86 79.38 145.64 147.19 186.77"/><path class="cls-5" d="M53.62,130.07c3-1.89-1.2-.1,3-1.64l.29-22.71a13.57,13.57,0,0,1-3,1.83"/><path class="cls-5" d="M159.06,210.87S72.17,217,34.38,167"/><path class="cls-5" d="M263.06,107.87l-13.6,8.87-1.11-13.34S183.84,62.81,95.72,97.1l-.73,19"/><path class="cls-5" d="M270.31,148.15c-22.52-30.23-59.73-43.21-96.14-45.81-26.63-1.9-55.37.86-79.18,13.76"/><path class="cls-6" d="M17.41,61.76a2.91,2.91,0,0,1,.58-.38c.48-.2,1.2.4,1.61,1.35s.35,1.94-.12,2.15l-.34.15"/><polygon class="cls-6" points="23.38 61.34 22.45 61.05 19.49 62.26 19.83 63.19 22.75 61.91 23.38 61.34"/><ellipse class="cls-6" cx="18.29" cy="63.39" rx="0.94" ry="1.87" transform="translate(-23.45 12.3) rotate(-23.16)"/><path class="cls-6" d="M21.19,155.65a2.91,2.91,0,0,1,.58-.38c.48-.2,1.2.4,1.61,1.35s.35,1.94-.12,2.15l-.34.15"/><polygon class="cls-6" points="27.16 155.23 26.23 154.94 23.27 156.15 23.61 157.08 26.53 155.8 27.16 155.23"/><ellipse class="cls-6" cx="22.08" cy="157.28" rx="0.94" ry="1.87" transform="translate(-60.07 21.35) rotate(-23.16)"/><g class="cls-7"><line class="cls-1" x1="83.11" y1="-5.17" x2="0.93" y2="69.34"/><line class="cls-1" x1="85.49" y1="-2.79" x2="3.31" y2="71.72"/><line class="cls-1" x1="87.86" y1="-0.42" x2="5.68" y2="74.09"/><line class="cls-1" x1="90.24" y1="1.96" x2="8.06" y2="76.47"/><line class="cls-1" x1="92.61" y1="4.33" x2="10.43" y2="78.84"/><line class="cls-1" x1="94.98" y1="6.7" x2="12.8" y2="81.22"/><line class="cls-1" x1="97.36" y1="9.08" x2="15.18" y2="83.59"/><line class="cls-1" x1="99.73" y1="11.45" x2="17.55" y2="85.96"/><line class="cls-1" x1="102.11" y1="13.83" x2="19.93" y2="88.34"/><line class="cls-1" x1="104.48" y1="16.2" x2="22.3" y2="90.71"/><line class="cls-1" x1="106.86" y1="18.58" x2="24.67" y2="93.09"/><line class="cls-1" x1="109.23" y1="20.95" x2="27.05" y2="95.46"/><line class="cls-1" x1="111.6" y1="23.32" x2="29.42" y2="97.83"/><line class="cls-1" x1="113.98" y1="25.7" x2="31.8" y2="100.21"/><line class="cls-1" x1="116.35" y1="28.07" x2="34.17" y2="102.58"/><line class="cls-1" x1="118.73" y1="30.45" x2="36.54" y2="104.96"/><line class="cls-1" x1="121.1" y1="32.82" x2="38.92" y2="107.33"/><line class="cls-1" x1="123.47" y1="35.19" x2="41.29" y2="109.71"/><line class="cls-1" x1="125.85" y1="37.57" x2="43.67" y2="112.08"/><line class="cls-1" x1="128.22" y1="39.94" x2="46.04" y2="114.45"/><line class="cls-1" x1="130.6" y1="42.32" x2="48.42" y2="116.83"/><line class="cls-1" x1="132.97" y1="44.69" x2="50.79" y2="119.2"/><line class="cls-1" x1="135.35" y1="47.06" x2="53.16" y2="121.58"/><line class="cls-1" x1="137.72" y1="49.44" x2="55.54" y2="123.95"/><line class="cls-1" x1="140.09" y1="51.81" x2="57.91" y2="126.32"/><line class="cls-1" x1="142.47" y1="54.19" x2="60.29" y2="128.7"/><line class="cls-1" x1="144.84" y1="56.56" x2="62.66" y2="131.07"/><line class="cls-1" x1="147.22" y1="58.94" x2="65.03" y2="133.45"/><line class="cls-1" x1="149.59" y1="61.31" x2="67.41" y2="135.82"/><line class="cls-1" x1="151.96" y1="63.68" x2="69.78" y2="138.19"/><line class="cls-1" x1="154.34" y1="66.06" x2="72.16" y2="140.57"/><line class="cls-1" x1="156.71" y1="68.43" x2="74.53" y2="142.94"/><line class="cls-1" x1="159.09" y1="70.81" x2="76.91" y2="145.32"/><line class="cls-1" x1="161.46" y1="73.18" x2="79.28" y2="147.69"/><line class="cls-1" x1="163.83" y1="75.55" x2="81.65" y2="150.07"/><line class="cls-1" x1="166.21" y1="77.93" x2="84.03" y2="152.44"/><line class="cls-1" x1="168.58" y1="80.3" x2="86.4" y2="154.81"/><line class="cls-1" x1="170.96" y1="82.68" x2="88.78" y2="157.19"/><line class="cls-1" x1="173.33" y1="85.05" x2="91.15" y2="159.56"/><line class="cls-1" x1="175.71" y1="87.42" x2="93.52" y2="161.94"/><line class="cls-1" x1="178.08" y1="89.8" x2="95.9" y2="164.31"/><line class="cls-1" x1="180.45" y1="92.17" x2="98.27" y2="166.68"/><line class="cls-1" x1="182.83" y1="94.55" x2="100.65" y2="169.06"/><line class="cls-1" x1="184.84" y1="96.56" x2="102.66" y2="171.07"/><line class="cls-1" x1="186.94" y1="98.66" x2="104.76" y2="173.17"/><line class="cls-1" x1="189.04" y1="100.76" x2="106.86" y2="175.27"/><line class="cls-1" x1="191.14" y1="102.86" x2="108.96" y2="177.37"/><line class="cls-1" x1="192.78" y1="105.05" x2="110.6" y2="179.56"/><line class="cls-1" x1="195.52" y1="106.14" x2="113.34" y2="180.66"/><line class="cls-1" x1="197.44" y1="109.16" x2="115.26" y2="183.67"/><line class="cls-1" x1="199.63" y1="111.07" x2="117.45" y2="185.59"/><line class="cls-1" x1="201.55" y1="113.81" x2="119.37" y2="188.33"/><line class="cls-1" x1="204.29" y1="114.91" x2="122.1" y2="189.42"/><line class="cls-1" x1="206.2" y1="117.92" x2="124.02" y2="192.43"/><line class="cls-1" x1="208.67" y1="120.39" x2="126.49" y2="194.9"/><line class="cls-1" x1="210.31" y1="122.58" x2="128.13" y2="197.09"/><line class="cls-1" x1="213.05" y1="123.68" x2="130.87" y2="198.19"/><line class="cls-1" x1="214.97" y1="126.69" x2="132.79" y2="201.2"/></g><path class="cls-1" d="M80.52,11.27,147.19,73.2l-.37,10.59s-28.28,3.09-51.11,13.13l-.73,19,16.71,8.95,35.5,61.9L79.38,145.45Z"/><polyline class="cls-8" points="32.39 162.14 32.36 168.15 48.42 158.61 51.13 157 52.06 34.43 32.85 47.53 32.39 162.14"/><polyline class="cls-8" points="53.9 151.01 54.84 28.44 35.99 41.3 35.63 41.54 32.85 47.53"/><line class="cls-8" x1="54.84" y1="28.44" x2="52.06" y2="34.43"/><line class="cls-8" x1="53.9" y1="151.01" x2="51.13" y2="157"/><ellipse class="cls-9" cx="42.87" cy="48.89" rx="1.94" ry="2.37"/><ellipse class="cls-10" cx="69.23" cy="33" rx="1.94" ry="2.37"/><ellipse class="cls-10" cx="68.41" cy="129.98" rx="1.94" ry="2.37"/><ellipse class="cls-9" cx="42.87" cy="144.4" rx="1.94" ry="2.37"/><line class="cls-11" x1="26.5" y1="71.24" x2="26.86" y2="71.02"/><line class="cls-12" x1="27.6" y1="70.56" x2="43.58" y2="60.73"/><line class="cls-11" x1="43.95" y1="60.5" x2="44.31" y2="60.28"/><line class="cls-11" x1="28.87" y1="153.54" x2="29.22" y2="153.3"/><line class="cls-13" x1="29.94" y1="152.82" x2="43.87" y2="143.42"/><line class="cls-11" x1="44.23" y1="143.18" x2="44.58" y2="142.94"/><polyline class="cls-14" points="312.24 61.68 352.34 41.66 352.35 86.76 366.65 80.75 373.57 77.78 372.69 102.68 304.58 129.22"/><path class="cls-14" d="M352.35,86.76l-48.41,21.78.65,20.67,13.27,12.38,49.53-19.46.88,46.88-80.49,25.65-.88-69.88-16.81-8.85,2.67,112.31-11.32,3.87s-43.81-15.69-90.24,2.62l1,47.27-12.38-3.54-.26-124.19,24.48,18.09"/><polyline class="cls-14" points="367.38 122.14 404.53 164.6 406.3 206.17 339.62 223.59 406.3 206.17 368.27 169.02"/><polyline class="cls-14" points="352.34 41.66 390.38 90.29 390.39 102.68"/><line class="cls-15" x1="287.78" y1="194.67" x2="316.95" y2="216.11"/><rect class="cls-16" x="384.7" y="208.66" width="1.66" height="55.27" rx="0.83" ry="0.83" transform="translate(-6.2 10.42) rotate(-1.54)"/><rect class="cls-16" x="376.56" y="216.76" width="8.83" height="1.1" rx="0.55" ry="0.55" transform="translate(-56.42 184.88) rotate(-25.46)"/><rect class="cls-16" x="376.66" y="220.39" width="8.83" height="1.1" rx="0.55" ry="0.55" transform="translate(-57.97 185.28) rotate(-25.46)"/><rect class="cls-16" x="376.75" y="224.03" width="8.83" height="1.1" rx="0.55" ry="0.55" transform="translate(-59.53 185.67) rotate(-25.46)"/><rect class="cls-16" x="376.85" y="227.66" width="8.83" height="1.1" rx="0.55" ry="0.55" transform="translate(-61.08 186.07) rotate(-25.46)"/><rect class="cls-16" x="376.95" y="231.3" width="8.83" height="1.1" rx="0.55" ry="0.55" transform="translate(-62.63 186.46) rotate(-25.46)"/><rect class="cls-16" x="377.05" y="234.93" width="8.83" height="1.1" rx="0.55" ry="0.55" transform="translate(-64.19 186.86) rotate(-25.46)"/><rect class="cls-16" x="377.14" y="238.57" width="8.83" height="1.1" rx="0.55" ry="0.55" transform="translate(-65.74 187.25) rotate(-25.46)"/><rect class="cls-16" x="377.24" y="242.2" width="8.83" height="1.1" rx="0.55" ry="0.55" transform="translate(-67.29 187.65) rotate(-25.46)"/><rect class="cls-16" x="377.34" y="245.84" width="8.83" height="1.1" rx="0.55" ry="0.55" transform="translate(-68.85 188.04) rotate(-25.46)"/><rect class="cls-16" x="377.43" y="249.47" width="8.83" height="1.1" rx="0.55" ry="0.55" transform="translate(-70.4 188.44) rotate(-25.46)"/><rect class="cls-16" x="377.53" y="253.11" width="8.83" height="1.1" rx="0.55" ry="0.55" transform="translate(-71.95 188.83) rotate(-25.46)"/><rect class="cls-16" x="377.63" y="256.74" width="8.83" height="1.1" rx="0.55" ry="0.55" transform="translate(-73.51 189.23) rotate(-25.46)"/><rect class="cls-16" x="376.49" y="212.62" width="1.66" height="55.27" rx="0.83" ry="0.83" transform="translate(-6.31 10.2) rotate(-1.54)"/><polygon class="cls-4" points="304.36 129.74 318.31 141.07 368.88 123.64 400.07 159.51 411.61 154.27 372.69 102.97 304.36 129.74"/><g class="cls-17"><line class="cls-18" x1="299.22" y1="26.11" x2="197.21" y2="209.21"/><line class="cls-18" x1="303.58" y1="26.11" x2="201.57" y2="209.21"/><line class="cls-18" x1="307.94" y1="26.11" x2="205.93" y2="209.21"/><line class="cls-18" x1="312.3" y1="26.11" x2="210.29" y2="209.21"/><line class="cls-18" x1="316.66" y1="26.11" x2="214.65" y2="209.21"/><line class="cls-18" x1="321.02" y1="26.11" x2="219.01" y2="209.21"/><line class="cls-18" x1="325.38" y1="26.11" x2="223.37" y2="209.21"/><line class="cls-18" x1="329.74" y1="26.11" x2="227.73" y2="209.21"/><line class="cls-18" x1="334.1" y1="26.11" x2="232.09" y2="209.21"/><line class="cls-18" x1="338.46" y1="26.11" x2="236.45" y2="209.21"/><line class="cls-18" x1="342.82" y1="26.11" x2="240.81" y2="209.21"/><line class="cls-18" x1="347.18" y1="26.11" x2="245.17" y2="209.21"/><line class="cls-18" x1="351.54" y1="26.11" x2="249.53" y2="209.21"/><line class="cls-18" x1="355.9" y1="26.11" x2="253.88" y2="209.21"/><line class="cls-18" x1="360.25" y1="26.11" x2="258.24" y2="209.21"/><line class="cls-18" x1="364.61" y1="26.11" x2="262.6" y2="209.21"/><line class="cls-18" x1="368.97" y1="26.11" x2="266.96" y2="209.21"/><line class="cls-18" x1="373.33" y1="26.11" x2="271.32" y2="209.21"/><line class="cls-18" x1="377.69" y1="26.11" x2="275.68" y2="209.21"/><line class="cls-18" x1="382.05" y1="26.11" x2="280.04" y2="209.21"/><line class="cls-18" x1="386.41" y1="26.11" x2="284.4" y2="209.21"/><line class="cls-18" x1="390.77" y1="26.11" x2="288.76" y2="209.21"/><line class="cls-18" x1="395.13" y1="26.11" x2="293.12" y2="209.21"/><line class="cls-18" x1="399.93" y1="25.46" x2="297.92" y2="208.56"/><line class="cls-18" x1="403.85" y1="26.11" x2="301.84" y2="209.21"/><line class="cls-18" x1="408.21" y1="26.11" x2="306.2" y2="209.21"/><line class="cls-18" x1="412.57" y1="26.11" x2="310.56" y2="209.21"/><line class="cls-18" x1="416.93" y1="26.11" x2="314.92" y2="209.21"/><line class="cls-18" x1="421.29" y1="26.11" x2="319.28" y2="209.21"/><line class="cls-18" x1="425.65" y1="26.11" x2="323.64" y2="209.21"/><line class="cls-18" x1="430.01" y1="26.11" x2="328" y2="209.21"/><line class="cls-18" x1="435.02" y1="25.02" x2="333.01" y2="208.12"/><line class="cls-18" x1="438.72" y1="26.11" x2="336.71" y2="209.21"/><line class="cls-18" x1="443.08" y1="26.11" x2="341.07" y2="209.21"/><line class="cls-18" x1="447.44" y1="26.11" x2="345.43" y2="209.21"/><line class="cls-18" x1="451.8" y1="26.11" x2="349.79" y2="209.21"/><line class="cls-18" x1="456.16" y1="26.11" x2="354.15" y2="209.21"/><line class="cls-18" x1="460.52" y1="26.11" x2="358.51" y2="209.21"/><line class="cls-18" x1="464.88" y1="26.11" x2="362.87" y2="209.21"/><line class="cls-18" x1="469.24" y1="26.11" x2="367.23" y2="209.21"/></g><polygon class="cls-2" points="352.06 86.76 352.35 41.65 262.13 86.76 263.79 118.31 270.09 115.95 286.89 124.79 287.78 194.67 367.98 169.02 367.52 124.49 317.85 141.6 304.58 129.22 303.93 108.54 352.06 86.76"/><polygon class="cls-4" points="406.3 206.17 368.27 169.02 288.91 195.11 317.39 215.89 325.09 214 338.6 224.03 406.3 206.17"/><polygon class="cls-14" points="236.48 238.9 325.09 214 325.67 233.48 236.48 256.58 236.48 238.9"/><polyline class="cls-15" points="325.67 233.48 370.43 261.67 369.56 246.84 325.09 214"/><g class="cls-19"><line class="cls-20" x1="372.67" y1="175.84" x2="311.05" y2="237.26"/><line class="cls-20" x1="374.31" y1="177.65" x2="312.7" y2="239.07"/><line class="cls-20" x1="369.59" y1="172.45" x2="307.97" y2="233.87"/><line class="cls-20" x1="371.23" y1="174.26" x2="309.62" y2="235.68"/><line class="cls-20" x1="375.96" y1="179.45" x2="314.34" y2="240.87"/><line class="cls-20" x1="377.6" y1="181.26" x2="315.98" y2="242.68"/><line class="cls-20" x1="379.24" y1="183.07" x2="317.63" y2="244.49"/><line class="cls-20" x1="380.88" y1="184.87" x2="319.27" y2="246.29"/><line class="cls-20" x1="382.53" y1="186.68" x2="320.91" y2="248.1"/><line class="cls-20" x1="384.17" y1="188.49" x2="322.55" y2="249.91"/><line class="cls-20" x1="385.81" y1="190.29" x2="324.2" y2="251.71"/><line class="cls-20" x1="387.46" y1="192.1" x2="325.84" y2="253.52"/><line class="cls-20" x1="389.1" y1="193.91" x2="327.48" y2="255.33"/><line class="cls-20" x1="390.74" y1="195.71" x2="329.13" y2="257.13"/><line class="cls-20" x1="392.39" y1="197.52" x2="330.77" y2="258.94"/><line class="cls-20" x1="394.03" y1="199.32" x2="332.41" y2="260.75"/><line class="cls-20" x1="395.67" y1="201.13" x2="334.06" y2="262.55"/><line class="cls-20" x1="397.32" y1="202.94" x2="335.7" y2="264.36"/><line class="cls-20" x1="398.96" y1="204.74" x2="337.34" y2="266.16"/><line class="cls-20" x1="400.6" y1="206.55" x2="338.99" y2="267.97"/><line class="cls-20" x1="402.24" y1="208.36" x2="340.63" y2="269.78"/><line class="cls-20" x1="403.89" y1="210.16" x2="342.27" y2="271.58"/><line class="cls-20" x1="405.53" y1="211.97" x2="343.92" y2="273.39"/><line class="cls-20" x1="407.17" y1="213.78" x2="345.56" y2="275.2"/><line class="cls-20" x1="408.82" y1="215.58" x2="347.2" y2="277"/><line class="cls-20" x1="410.46" y1="217.39" x2="348.84" y2="278.81"/><line class="cls-20" x1="412.1" y1="219.2" x2="350.49" y2="280.62"/></g><polygon class="cls-2" points="325.09 214 325.67 233.48 370.43 261.67 369.59 246.9 325.09 214"/><polygon class="cls-16" points="276.55 221.06 308.17 211.76 308.38 218.7 276.84 227.81 276.55 221.06"/><polygon class="cls-3" points="374.2 78.21 372.89 104.3 411.61 154.27 410.39 127.84 374.2 78.21"/><g class="cls-21"><line class="cls-3" x1="421.79" y1="40.04" x2="360.17" y2="101.46"/><line class="cls-3" x1="423.43" y1="41.85" x2="361.81" y2="103.27"/><line class="cls-3" x1="418.7" y1="36.66" x2="357.09" y2="98.08"/><line class="cls-3" x1="420.35" y1="38.46" x2="358.73" y2="99.88"/><line class="cls-3" x1="425.07" y1="43.66" x2="363.46" y2="105.08"/><line class="cls-3" x1="426.71" y1="45.46" x2="365.1" y2="106.88"/><line class="cls-3" x1="428.36" y1="47.27" x2="366.74" y2="108.69"/><line class="cls-3" x1="430" y1="49.08" x2="368.38" y2="110.5"/><line class="cls-3" x1="431.64" y1="50.88" x2="370.03" y2="112.3"/><line class="cls-3" x1="433.29" y1="52.69" x2="371.67" y2="114.11"/><line class="cls-3" x1="434.93" y1="54.5" x2="373.31" y2="115.92"/><line class="cls-3" x1="436.57" y1="56.3" x2="374.96" y2="117.72"/><line class="cls-3" x1="438.22" y1="58.11" x2="376.6" y2="119.53"/><line class="cls-3" x1="439.86" y1="59.92" x2="378.24" y2="121.34"/><line class="cls-3" x1="441.5" y1="61.72" x2="379.89" y2="123.14"/><line class="cls-3" x1="443.15" y1="63.53" x2="381.53" y2="124.95"/><line class="cls-3" x1="444.79" y1="65.34" x2="383.17" y2="126.76"/><line class="cls-3" x1="446.43" y1="67.14" x2="384.82" y2="128.56"/><line class="cls-3" x1="448.07" y1="68.95" x2="386.46" y2="130.37"/><line class="cls-3" x1="449.72" y1="70.75" x2="388.1" y2="132.17"/><line class="cls-3" x1="451.36" y1="72.56" x2="389.75" y2="133.98"/><line class="cls-3" x1="453" y1="74.37" x2="391.39" y2="135.79"/><line class="cls-3" x1="454.65" y1="76.17" x2="393.03" y2="137.59"/><line class="cls-3" x1="456.29" y1="77.98" x2="394.67" y2="139.4"/><line class="cls-3" x1="457.93" y1="79.79" x2="396.32" y2="141.21"/><line class="cls-3" x1="459.58" y1="81.59" x2="397.96" y2="143.01"/><line class="cls-3" x1="461.22" y1="83.4" x2="399.6" y2="144.82"/><line class="cls-3" x1="462.83" y1="84.52" x2="401.21" y2="145.94"/><line class="cls-3" x1="464.47" y1="86.33" x2="402.86" y2="147.75"/><line class="cls-3" x1="466.12" y1="88.13" x2="404.5" y2="149.55"/><line class="cls-3" x1="467.76" y1="89.94" x2="406.14" y2="151.36"/><line class="cls-3" x1="469.5" y1="91.68" x2="407.89" y2="153.1"/></g><polygon class="cls-14" points="371.59 131.76 373.02 167.43 401.52 195.27 400.2 164.12 371.59 131.76"/><line class="cls-14" x1="377.4" y1="171.86" x2="400.2" y2="164.12"/><polygon class="cls-10" points="308.2 211.68 308.45 218.88 315.06 217.02 308.2 211.68"/><line class="cls-2" x1="312.24" y1="61.68" x2="275.68" y2="80.25"/><polygon class="cls-22" points="66.05 228.67 93.64 211.09 93.18 342.43 67.65 310.54 66.05 228.67"/><line class="cls-23" x1="93.64" y1="211.09" x2="114.75" y2="216.26"/><line class="cls-22" x1="93.18" y1="342.43" x2="130.82" y2="334.44"/><polyline class="cls-22" points="41.67 296.72 60.76 352.73 60.76 380.6 41.67 308.28 41.67 299.24 41.67 296.72 67.19 295.47"/><path class="cls-22" d="M60.76,352.72S75.7,336.9,88.58,337.66"/><path class="cls-22" d="M60.76,380.6S66,353.23,94.33,351.72l.46-9"/><line class="cls-22" x1="60.53" y1="247.76" x2="44.44" y2="247.76"/><line class="cls-22" x1="60.53" y1="288.69" x2="66.73" y2="288.69"/><line class="cls-24" x1="64.9" y1="252.13" x2="48.82" y2="252.13"/><line class="cls-22" x1="60.53" y1="239.59" x2="44.44" y2="239.59"/><line class="cls-24" x1="64.9" y1="243.97" x2="48.82" y2="243.97"/><line class="cls-22" x1="60.53" y1="231.43" x2="44.44" y2="231.43"/><line class="cls-24" x1="64.9" y1="235.81" x2="48.82" y2="235.81"/><line class="cls-22" x1="60.53" y1="255.79" x2="44.44" y2="255.79"/><line class="cls-24" x1="64.9" y1="260.17" x2="48.82" y2="260.17"/><line class="cls-22" x1="60.53" y1="263.82" x2="44.44" y2="263.82"/><line class="cls-24" x1="64.9" y1="268.2" x2="48.82" y2="268.2"/><line class="cls-22" x1="60.53" y1="271.86" x2="44.44" y2="271.86"/><line class="cls-24" x1="64.9" y1="276.24" x2="48.82" y2="276.24"/><line class="cls-22" x1="60.53" y1="279.89" x2="44.44" y2="279.89"/><line class="cls-24" x1="64.9" y1="284.27" x2="48.82" y2="284.27"/><polyline class="cls-22" points="72.25 317.34 72.25 239.59 86.25 231.29 86.25 332.88"/><path class="cls-25" d="M184.91,152.25l1.92,64Z"/><line class="cls-25" x1="234.05" y1="128.25" x2="184.91" y2="152.25"/><path class="cls-26" d="M203.94,154.76l2.58.61-.15,0c.19,0,.3.16.31.42l1.94,36.79c.06,1.08-1.46,3.9-3.36,6.27l-4.62,5.73c-1.43,1.77-2.69,2.8-3.25,2.76h0l-2.72-.65"/><path class="cls-26" d="M204.05,155.12,206,191.92c.06,1.08-1.46,3.9-3.36,6.27L198,203.91c-1.91,2.36-3.51,3.41-3.57,2.33l-1.94-36.79c-.06-1.08,1.46-3.9,3.36-6.27l4.62-5.73C202.39,155.09,204,154,204.05,155.12Z"/><line class="cls-26" x1="205.9" y1="192.61" x2="208.57" y2="193.24"/><path class="cls-26" d="M202.29,159.38l1.39,26.38c0,.78-1,2.8-2.41,4.49L198,194.36c-1.37,1.7-2.52,2.45-2.56,1.67L194,169.65c0-.78,1-2.8,2.41-4.49l3.32-4.11C201.1,159.35,202.25,158.6,202.29,159.38Z"/><ellipse class="cls-26" cx="199.92" cy="196.18" rx="2.45" ry="1.43" transform="translate(-33.34 351.24) rotate(-78.07)"/><ellipse class="cls-26" cx="199.92" cy="196.14" rx="1.79" ry="1.04" transform="translate(-33.31 351.21) rotate(-78.07)"/><circle class="cls-3" cx="219.21" cy="170.4" r="1.19" transform="translate(-56.29 204.92) rotate(-45)"/><circle class="cls-3" cx="216.79" cy="184.15" r="1.19" transform="translate(-66.72 207.23) rotate(-45)"/><circle class="cls-3" cx="224.96" cy="190.65" r="1.19" transform="translate(-68.92 214.91) rotate(-45)"/><circle class="cls-3" cx="223.84" cy="149.59" r="1.19" transform="translate(-40.21 202.09) rotate(-45)"/><circle class="cls-3" cx="214.38" cy="207.86" r="1.19" transform="translate(-84.19 212.47) rotate(-45)"/><circle class="cls-3" cx="213.2" cy="160.54" r="1.19" transform="translate(-51.08 197.78) rotate(-45)"/><path class="cls-27" d="M215.46,137.73c.38,1.13,2.63,89.47,2.63,89.47l8.26,7.89V291.8"/><path class="cls-27" d="M212.45,139.33c.38,1.13,2.63,87.88,2.63,87.88l8.26,7.89V291.8"/><polyline class="cls-27" points="218.08 136.42 220.71 226.08 228.97 234.71 228.97 286.92"/><polyline class="cls-27" points="220.9 135.29 223.34 224.95 231.23 233.96 231.6 291.42"/><polyline class="cls-27" points="223.72 133.6 225.97 223.45 234.61 232.84 234.23 292.55"/><line class="cls-5" x1="370.43" y1="261.67" x2="282.72" y2="281.87"/><path class="cls-28" d="M292.39,218.06l-.11,0a.87.87,0,0,1-1.08-.57L275,165.81a.87.87,0,0,1,.56-1.09l.11,0a.87.87,0,0,1,1.08.57L293,217A.87.87,0,0,1,292.39,218.06Z"/><path class="cls-28" d="M284.56,220l-.11,0a.87.87,0,0,1-1.08-.57l-16.2-51.72a.87.87,0,0,1,.56-1.09l.11,0a.87.87,0,0,1,1.08.57l16.2,51.72A.87.87,0,0,1,284.56,220Z"/><path class="cls-28" d="M281.86,185.81v0a.37.37,0,0,1-.42.31l-7.33-1.06a.37.37,0,0,1-.31-.42v0a.37.37,0,0,1,.42-.31l7.33,1.06A.37.37,0,0,1,281.86,185.81Z"/><path class="cls-28" d="M281.07,182.79l0,0a.37.37,0,0,1-.07.52l-5.92,4.46a.37.37,0,0,1-.52-.07l0,0a.37.37,0,0,1,.07-.52l5.92-4.46A.37.37,0,0,1,281.07,182.79Z"/><path class="cls-28" d="M283.3,190.18v0a.37.37,0,0,1-.42.31l-7.33-1.06a.37.37,0,0,1-.31-.42v0a.37.37,0,0,1,.42-.31l7.33,1.06A.37.37,0,0,1,283.3,190.18Z"/><path class="cls-28" d="M282.51,187.16l0,0a.37.37,0,0,1-.07.52l-5.92,4.46a.37.37,0,0,1-.52-.07l0,0a.37.37,0,0,1,.07-.52l5.92-4.46A.37.37,0,0,1,282.51,187.16Z"/><path class="cls-28" d="M284.58,194.58v0a.37.37,0,0,1-.42.31l-7.33-1.06a.37.37,0,0,1-.31-.42v0a.37.37,0,0,1,.42-.31l7.33,1.06A.37.37,0,0,1,284.58,194.58Z"/><path class="cls-28" d="M283.79,191.55l0,0a.37.37,0,0,1-.07.52l-5.92,4.46a.37.37,0,0,1-.52-.07l0,0a.37.37,0,0,1,.07-.52l5.92-4.46A.37.37,0,0,1,283.79,191.55Z"/><path class="cls-28" d="M286.08,199.28v0a.37.37,0,0,1-.42.31l-7.33-1.06a.37.37,0,0,1-.31-.42v0a.37.37,0,0,1,.42-.31l7.33,1.06A.37.37,0,0,1,286.08,199.28Z"/><path class="cls-28" d="M285.28,196.26l0,0a.37.37,0,0,1-.07.52l-5.92,4.46a.37.37,0,0,1-.52-.07l0,0a.37.37,0,0,1,.07-.52l5.92-4.46A.37.37,0,0,1,285.28,196.26Z"/><path class="cls-28" d="M287.57,204v0a.37.37,0,0,1-.42.31l-7.33-1.06a.37.37,0,0,1-.31-.42v0a.37.37,0,0,1,.42-.31l7.33,1.06A.37.37,0,0,1,287.57,204Z"/><path class="cls-28" d="M286.77,201l0,0a.37.37,0,0,1-.07.52L280.81,206a.37.37,0,0,1-.52-.07l0,0a.37.37,0,0,1,.07-.52l5.92-4.46A.37.37,0,0,1,286.77,201Z"/><path class="cls-28" d="M288.87,208.55v0a.37.37,0,0,1-.42.31l-7.33-1.06a.37.37,0,0,1-.31-.42v0a.37.37,0,0,1,.42-.31l7.33,1.06A.37.37,0,0,1,288.87,208.55Z"/><path class="cls-28" d="M288.08,205.52l0,0a.37.37,0,0,1-.07.52l-5.92,4.46a.37.37,0,0,1-.52-.07l0,0a.37.37,0,0,1,.07-.52l5.92-4.46A.37.37,0,0,1,288.08,205.52Z"/><path class="cls-28" d="M290,213v0a.37.37,0,0,1-.42.31l-7.33-1.06a.37.37,0,0,1-.31-.42v0a.37.37,0,0,1,.42-.31l7.33,1.06A.37.37,0,0,1,290,213Z"/><path class="cls-28" d="M289.19,209.94l0,0a.37.37,0,0,1-.07.52L283.23,215a.37.37,0,0,1-.52-.07l0,0a.37.37,0,0,1,.07-.52l5.92-4.46A.37.37,0,0,1,289.19,209.94Z"/><path class="cls-29" d="M262.2,248.81a2.11,2.11,0,0,1-.56,2l-.23.35a6.86,6.86,0,0,0-1,4.16.88.88,0,0,0,1,.91h.76v.94a3.33,3.33,0,0,0-2.6,2.81,3.23,3.23,0,0,0,2,3.4,1.06,1.06,0,0,1-.07.13q-2,2.5-4,5a.59.59,0,0,1-.4.17c-.6,0-1.2,0-1.8,0s-1,.32-1,1q0,3.2,0,6.4a.87.87,0,0,0,1,.95H270.9a.87.87,0,0,0,1-.92q0-3.23,0-6.47c0-.59-.35-.91-1-.92s-1.15,0-1.73,0a.65.65,0,0,1-.6-.29c-1.54-2-3.09-3.9-4.64-5.84a1.21,1.21,0,0,0-.93-.53,1.7,1.7,0,0,1-1.68-1.68,1.72,1.72,0,0,1,1.7-1.63c.62,0,.93-.35.94-.93s0-1,0-1.56c.33,0,.61,0,.89,0a.85.85,0,0,0,.87-.78,6.7,6.7,0,0,0-1.6-5.17.49.49,0,0,1-.15-.26c0-.41,0-.82,0-1.23"/><polygon class="cls-29" points="282.37 264.99 275.56 263.78 275.57 258.33 282.38 259.54 282.37 264.99"/><polygon class="cls-29" points="287.01 260.36 282.38 264.99 282.38 259.55 287.01 254.93 287.01 260.36"/><polygon class="cls-16" points="280.15 253.71 287.01 254.92 282.4 259.54 275.54 258.32 280.15 253.71"/><line class="cls-30" x1="263.06" y1="250.2" x2="267.18" y2="167.73"/><line class="cls-30" x1="275.68" y1="164.69" x2="281.56" y2="256.62"/></svg>