<?xml version="1.0" encoding="utf-8"?>
<!-- Generator: Adobe Illustrator 19.1.0, SVG Export Plug-In . SVG Version: 6.00 Build 0)  -->
<svg version="1.1" id="圖層_1" xmlns="http://www.w3.org/2000/svg" xmlns:xlink="http://www.w3.org/1999/xlink" x="0px" y="0px"
	 viewBox="0 0 255.1 226.8" style="enable-background:new 0 0 255.1 226.8;" xml:space="preserve">
<style type="text/css">
	.st0{fill:none;stroke:#FFFFFF;stroke-width:1.6862;stroke-miterlimit:10;}
	.st1{fill:none;stroke:#FFFFFF;stroke-width:0.4037;stroke-miterlimit:10;}
	.st2{fill:#EC675A;}
	.st3{fill:#D9DADB;}
	.st4{fill:none;stroke:#FFFFFF;stroke-width:0.7777;stroke-miterlimit:10;}
	.st5{fill:none;stroke:#FFFFFF;stroke-width:0.4684;stroke-miterlimit:10;}
	.st6{fill:none;stroke:#FFFFFF;stroke-width:0.6417;stroke-miterlimit:10;}
	.st7{fill:none;stroke:#FFFFFF;stroke-width:0.4156;stroke-miterlimit:10;}
	.st8{fill:none;stroke:#000000;stroke-width:0.4635;stroke-miterlimit:10;}
	.st9{fill:none;stroke:#FFFFFF;stroke-width:0.2282;stroke-miterlimit:10;}
	.st10{fill:none;stroke:#FFFFFF;stroke-width:0.1744;stroke-miterlimit:10;}
	.st11{fill:none;stroke:#FFFFFF;stroke-width:0.3177;stroke-miterlimit:10;}
	.st12{fill:none;stroke:#FFFFFF;stroke-width:0.2973;stroke-miterlimit:10;}
	.st13{fill:none;stroke:#FFFFFF;stroke-width:0.2927;stroke-miterlimit:10;}
	.st14{fill:none;stroke:#FFFFFF;stroke-width:0.2364;stroke-miterlimit:10;}
	.st15{fill:none;stroke:#FFFFFF;stroke-width:0.1726;stroke-miterlimit:10;}
	.st16{fill:#FFFFFF;}
	.st17{fill:none;stroke:#FFFFFF;stroke-width:0.3177;stroke-miterlimit:10;stroke-dasharray:1.9062;}
	.st18{fill:none;stroke:#FFFFFF;stroke-width:0.7447;stroke-miterlimit:10;}
	.st19{fill:none;stroke:#FFFFFF;stroke-width:0.2687;stroke-miterlimit:10;}
	.st20{fill:none;stroke:#FFFFFF;stroke-width:0.2137;stroke-miterlimit:10;}
	.st21{fill:none;stroke:#FFFFFF;stroke-width:0.2882;stroke-miterlimit:10;}
	.st22{fill:none;stroke:#FFFFFF;stroke-width:0.1394;stroke-miterlimit:10;}
	.st23{fill:url(#SVGID_1_);stroke:#FFFFFF;stroke-width:0.1394;stroke-miterlimit:10;}
	.st24{fill:url(#SVGID_2_);stroke:#FFFFFF;stroke-width:0.1394;stroke-miterlimit:10;}
	.st25{fill:none;stroke:#FFFFFF;stroke-width:0.1383;stroke-miterlimit:10;}
	.st26{fill:#FFFFFF;stroke:#000000;stroke-width:0.2882;stroke-miterlimit:10;}
	.st27{fill:none;stroke:#040000;stroke-width:0.7447;stroke-miterlimit:10;}
	.st28{fill:none;stroke:#FFFFFF;stroke-width:0.3889;stroke-miterlimit:10;}
	.st29{fill:#2A4399;}
	.st30{fill:none;stroke:#FFFFFF;stroke-width:0.5661;stroke-miterlimit:10;}
	.st31{fill:none;stroke:#EC675A;stroke-width:0.3889;stroke-miterlimit:10;}
	.st32{fill:none;stroke:#FFFFFF;stroke-width:0.7777;stroke-miterlimit:10;stroke-dasharray:2.3332;}
	.st33{clip-path:url(#SVGID_4_);fill:none;stroke:#FFFFFF;stroke-width:0.789;stroke-miterlimit:10;}
	.st34{fill:none;stroke:#EC675A;stroke-width:0.7777;stroke-miterlimit:10;}
	.st35{fill:none;stroke:#000000;stroke-width:0.7447;stroke-miterlimit:10;}
	.st36{fill:none;stroke:#FFFFFF;stroke-miterlimit:10;}
	.st37{fill:none;stroke:#FFFFFF;stroke-width:0.2742;stroke-miterlimit:10;}
	.st38{fill:none;stroke:#FFFFFF;stroke-width:0.4059;stroke-miterlimit:10;}
	.st39{fill:none;stroke:#FFFFFF;stroke-width:0.5355;stroke-miterlimit:10;}
	.st40{fill:#FFFFFF;stroke:#FFFFFF;stroke-width:0.7777;stroke-miterlimit:10;}
	.st41{fill:none;stroke:#E83518;stroke-width:0.789;stroke-miterlimit:10;}
	.st42{clip-path:url(#SVGID_6_);fill:none;stroke:#FFFFFF;stroke-width:0.7777;stroke-miterlimit:10;}
	.st43{fill:none;stroke:#FFFFFF;stroke-width:0.6061;stroke-miterlimit:10;}
	.st44{fill:none;stroke:#FFFFFF;stroke-width:0.3504;stroke-miterlimit:10;}
	.st45{clip-path:url(#SVGID_8_);fill:none;stroke:#FFFFFF;stroke-width:0.7684;stroke-miterlimit:10;}
	.st46{clip-path:url(#SVGID_12_);fill:#EC675A;}
	.st47{fill:none;stroke:#FFFFFF;stroke-width:0.6749;stroke-miterlimit:10;}
	.st48{fill:#D95F58;}
	.st49{clip-path:url(#XMLID_45_);}
	.st50{fill:#8CAAB2;}
	.st51{opacity:0.4;fill:#A5C7D0;}
	.st52{fill:#63426A;}
	.st53{opacity:0.4;fill:#E6C1DB;}
	.st54{opacity:0.88;fill:#BCE2EC;}
	.st55{opacity:0.76;fill:#DCECF2;}
	.st56{opacity:0.85;fill:#8CAAB2;}
	.st57{fill:#E6C1DB;}
	.st58{opacity:0.64;fill:#FFFFFF;}
	.st59{fill:#FFFFFF;stroke:#000000;stroke-width:0.6621;stroke-linejoin:round;stroke-miterlimit:10;}
	.st60{fill:#A5C7D0;}
	.st61{fill:#C99DC7;}
	.st62{opacity:0.47;fill:#FFFFFF;stroke:#FFFFFF;stroke-width:0.1944;stroke-miterlimit:10;}
	.st63{fill:none;stroke:#FFFFFF;stroke-width:0.2298;stroke-miterlimit:10;}
	.st64{fill:none;stroke:#FFFFFF;stroke-width:0.3996;stroke-miterlimit:10;}
	.st65{fill:none;stroke:#FFFFFF;stroke-width:0.3996;stroke-miterlimit:10;stroke-dasharray:1.2383,1.2383;}
	.st66{fill:none;stroke:#FFFFFF;stroke-width:0.3996;stroke-miterlimit:10;stroke-dasharray:1.2235,1.2235;}
	.st67{fill:none;stroke:#FFFFFF;stroke-width:0.7795;stroke-miterlimit:10;}
	.st68{fill:none;stroke:#FFFFFF;stroke-width:0.6043;stroke-miterlimit:10;}
	.st69{fill:#FFFFFF;stroke:#FFFFFF;stroke-width:0.6891;stroke-miterlimit:10;}
	.st70{fill:none;stroke:#FFFFFF;stroke-width:0.7734;stroke-miterlimit:10;}
	.st71{fill:none;stroke:#FFFFFF;stroke-width:0.4167;stroke-miterlimit:10;}
	.st72{fill:#FFFFFF;stroke:#000000;stroke-width:0.5507;stroke-miterlimit:10;}
	.st73{clip-path:url(#SVGID_16_);fill:none;stroke:#2A4399;stroke-width:0.7777;stroke-miterlimit:10;}
	.st74{fill:none;stroke:#FFFFFF;stroke-width:1.1929;stroke-miterlimit:10;}
	.st75{fill:none;stroke:#FFFFFF;stroke-width:1.5905;stroke-miterlimit:10;}
	.st76{fill:none;stroke:#FFFFFF;stroke-width:0.7952;stroke-miterlimit:10;}
	.st77{fill:#FFFFFF;stroke:#FFFFFF;stroke-width:1.1929;stroke-miterlimit:10;}
	.st78{fill:#D95F58;stroke:#FFFFFF;stroke-width:0.7777;stroke-miterlimit:10;}
	.st79{clip-path:url(#SVGID_18_);fill:#FFFFFF;stroke:#FFFFFF;stroke-width:0.7777;stroke-miterlimit:10;}
	.st80{clip-path:url(#SVGID_18_);fill:none;stroke:#FFFFFF;stroke-width:0.7777;stroke-miterlimit:10;}
	.st81{fill:none;stroke:#FFFFFF;stroke-width:0.4881;stroke-miterlimit:10;}
	.st82{fill:#FFFFFF;stroke:#000000;stroke-width:0.642;stroke-miterlimit:10;}
	.st83{fill:#FFFFFF;stroke:#000000;stroke-width:1.7326;stroke-linejoin:round;stroke-miterlimit:10;}
	.st84{fill:#D7D8D8;}
	.st85{fill-rule:evenodd;clip-rule:evenodd;fill:#EC675A;}
	.st86{fill-rule:evenodd;clip-rule:evenodd;fill:#FFFFFF;}
	.st87{fill-rule:evenodd;clip-rule:evenodd;fill:#C9CACA;}
	.st88{fill-rule:evenodd;clip-rule:evenodd;fill:#E0E1E1;}
	.st89{fill-rule:evenodd;clip-rule:evenodd;fill:#D9DADB;}
	.st90{fill:#835412;}
	.st91{fill:#B5B5B6;}
	.st92{fill:#FFFFFF;stroke:#EC675A;stroke-width:0.7777;stroke-miterlimit:10;}
	.st93{fill:none;stroke:#B5B5B6;stroke-width:0.7777;stroke-miterlimit:10;}
	.st94{fill:none;stroke:#FFFFFF;stroke-width:0.7008;stroke-miterlimit:10;}
	.st95{fill:none;stroke:#FFFFFF;stroke-width:0.7323;stroke-miterlimit:10;}
	.st96{fill:none;stroke:#FFFFFF;stroke-width:0.7134;stroke-miterlimit:10;}
	.st97{fill:none;stroke:#EC675A;stroke-width:0.8779;stroke-miterlimit:10;}
	.st98{fill:none;stroke:#EC675A;stroke-width:0.8408;stroke-miterlimit:10;}
	.st99{font-family:'Comfortaa';}
	.st100{font-size:35.5087px;}
	.st101{fill:none;stroke:#FFFFFF;stroke-width:0.5;stroke-miterlimit:10;}
	.st102{fill:none;stroke:#FFFFFF;stroke-width:1.0322;stroke-miterlimit:10;}
	.st103{fill:none;stroke:#FFFFFF;stroke-width:0.9143;stroke-miterlimit:10;}
	.st104{fill:#2A4399;stroke:#2A4399;stroke-width:0.25;stroke-miterlimit:10;}
	.st105{fill:none;stroke:#FFFFFF;stroke-width:0.6142;stroke-miterlimit:10;}
	.st106{fill:none;stroke:#040000;stroke-width:0.6142;stroke-miterlimit:10;}
	.st107{fill:none;stroke:#FFFFFF;stroke-width:0.3207;stroke-miterlimit:10;}
	.st108{fill:none;stroke:#FFFFFF;stroke-width:0.4669;stroke-miterlimit:10;}
	.st109{fill:none;stroke:#FFFFFF;stroke-width:0.6414;stroke-miterlimit:10;}
	.st110{clip-path:url(#SVGID_20_);fill:none;stroke:#FFFFFF;stroke-width:0.6507;stroke-miterlimit:10;}
	.st111{fill:none;stroke:#2A4399;stroke-width:0.5121;stroke-miterlimit:10;}
	.st112{fill:none;stroke:#E83518;stroke-width:0.6507;stroke-miterlimit:10;}
	.st113{clip-path:url(#SVGID_22_);fill:none;stroke:#FFFFFF;stroke-width:0.6414;stroke-miterlimit:10;}
	.st114{fill:none;stroke:#FFFFFF;stroke-width:0.4999;stroke-miterlimit:10;}
	.st115{fill:none;stroke:#FFFFFF;stroke-width:0.2889;stroke-miterlimit:10;}
	.st116{clip-path:url(#SVGID_24_);fill:none;stroke:#FFFFFF;stroke-width:0.6337;stroke-miterlimit:10;}
	.st117{clip-path:url(#SVGID_28_);fill:#2A4399;}
	.st118{fill:none;stroke:#FFFFFF;stroke-width:0.5566;stroke-miterlimit:10;}
	.st119{fill:#FFFFFF;stroke:#000000;stroke-width:0.546;stroke-linejoin:round;stroke-miterlimit:10;}
	.st120{fill:none;stroke:#FFFFFF;stroke-width:0.3295;stroke-miterlimit:10;}
	.st121{fill:none;stroke:#FFFFFF;stroke-width:0.3295;stroke-miterlimit:10;stroke-dasharray:1.0212,1.0212;}
	.st122{fill:none;stroke:#FFFFFF;stroke-width:0.3295;stroke-miterlimit:10;stroke-dasharray:1.009,1.009;}
	.st123{fill:none;stroke:#FFFFFF;stroke-width:0.4984;stroke-miterlimit:10;}
	.st124{fill:#FFFFFF;stroke:#FFFFFF;stroke-width:0.5683;stroke-miterlimit:10;}
	.st125{fill:none;stroke:#2A4399;stroke-width:0.6414;stroke-miterlimit:10;}
	.st126{fill:none;stroke:#FFFFFF;stroke-width:0.6026;stroke-miterlimit:10;}
	.st127{fill:none;stroke:#040000;stroke-width:0.6026;stroke-miterlimit:10;}
	.st128{fill:none;stroke:#FFFFFF;stroke-width:0.6293;stroke-miterlimit:10;}
	.st129{fill:none;stroke:#FFFFFF;stroke-width:0.6258;stroke-miterlimit:10;}
	.st130{fill:none;stroke:#FFFFFF;stroke-width:0.3371;stroke-miterlimit:10;}
	.st131{fill:#FFFFFF;stroke:#000000;stroke-width:0.4456;stroke-miterlimit:10;}
	.st132{fill:none;stroke:#B5B5B6;stroke-width:0.6293;stroke-miterlimit:10;}
	.st133{fill:none;stroke:#FFFFFF;stroke-width:0.7085;stroke-miterlimit:10;stroke-dasharray:2.1255;}
	.st134{fill:none;stroke:#2A4399;stroke-width:0.911;stroke-miterlimit:10;}
	.st135{fill:none;stroke:#FFFFFF;stroke-width:0.911;stroke-miterlimit:10;}
	.st136{fill:none;stroke:#2A4399;stroke-width:0.6488;stroke-miterlimit:10;}
	.st137{fill:none;stroke:#FFFFFF;stroke-width:0.3905;stroke-miterlimit:10;}
	.st138{fill:none;stroke:#FFFFFF;stroke-width:0.4063;stroke-miterlimit:10;}
	.st139{fill:#EC675A;stroke:#EC675A;stroke-width:0.75;stroke-miterlimit:10;}
	.st140{fill:none;stroke:#EC675A;stroke-width:0.5;stroke-miterlimit:10;}
</style>
<g>
	<g id="XMLID_4810_">
		<defs>
			<path id="XMLID_4811_" d="M-288.7,354.8l65.3,10.3c0,0,13.1-128.7,13.1-131.6s-60.1-30.5-60.1-30.5l-83.5-1.6v38.3L-288.7,354.8z
				"/>
		</defs>
		<clipPath id="XMLID_45_">
			<use xlink:href="#XMLID_4811_"  style="overflow:visible;"/>
		</clipPath>
		<g id="XMLID_4812_" class="st49">
			<g id="XMLID_4847_">
			</g>
		</g>
	</g>
</g>
<g>
	<g>
		<text transform="matrix(1.1991 0 0 1 21.4854 168.001)" class="st2 st99 st100">RE: _______</text>
	</g>
	<g>
		<g>
			<path class="st2" d="M159.6,92.2h-2.8c-0.8,0-1.4-0.6-1.4-1.4V44.7c0-0.8,0.6-1.4,1.4-1.4h2.8c0.8,0,1.4,0.6,1.4,1.4v46.1
				C160.9,91.5,160.3,92.2,159.6,92.2z"/>
			<path class="st2" d="M136.7,124.6H134c-0.8,0-1.4-0.6-1.4-1.4V44.7c0-0.8,0.6-1.4,1.4-1.4h2.8c0.8,0,1.4,0.6,1.4,1.4v78.6
				C138.1,124,137.5,124.6,136.7,124.6z"/>
			<path class="st2" d="M216.4,37.1h4.5c0.1,0,0.3,0,0.4,0h10.4c1.6,0,2.8-1.3,2.8-2.8V33c0-1.6-1.3-2.8-2.8-2.8h-16.5
				c-0.6-0.1-2-0.6-2.3-2.4l0,2.4h0v-7.6c0-1.5-1.2-2.7-2.7-2.7c-1.5,0-2.7,1.2-2.7,2.7v5.7c-0.6,1.6-2,1.9-2.4,1.9h-17.5v0h2.7
				c0,0-2.2,0-2.7-2.4l0,1.1V22c0-1.5-1.2-2.7-2.7-2.7c-1.5,0-2.7,1.2-2.7,2.7v5.8c-0.4,2-2.1,2.3-2.5,2.3h-27.3
				c-0.4,0-2.1-0.3-2.6-2.4v-5.4c0-1.5-1.2-2.7-2.7-2.7c-1.5,0-2.7,1.2-2.7,2.7v7.8l0-2.4c-0.4,2.1-2.1,2.4-2.6,2.4h-9
				c-1.6,0-2.8,1.3-2.8,2.8v1.3c0,1.6,1.3,2.8,2.8,2.8h9c0.5,0.1,2.1,0.4,2.5,2.4v82.4c0,1.5,1.2,2.7,2.7,2.7c1.5,0,2.7-1.2,2.7-2.7
				V39.4c0.4-2,2.1-2.3,2.5-2.3h19.9c0.1,0,0.2,0,0.2,0h7.2c1.6,0,2.8,1.3,2.8,2.8v1c0,1.6-1.3,2.8-2.8,2.8h-2.5v0H169
				c-1.6,0-2.8,1.3-2.8,2.8v1.3c0,1.6,1.3,2.8,2.8,2.8h7.9v0h2.5c1.6,0,2.8,1.3,2.8,2.8v1c0,1.6-1.3,2.8-2.8,2.8h-2.5v0H169
				c-1.6,0-2.8,1.3-2.8,2.8v1.3c0,1.6,1.3,2.8,2.8,2.8h7.9v0h14.2c1.6,0,2.8,1.3,2.8,2.8v0.3c0,1.6-1.3,2.8-2.8,2.8h-14.2v0H169
				c-1.6,0-2.8,1.3-2.8,2.8v1.3c0,0.1,0,0.2,0,0.3v22.4c-0.1,0.6-0.6,2-2.3,2.3H160c-1.6,0-2.8,1.3-2.8,2.8v1.3
				c0,1.6,1.3,2.8,2.8,2.8h3.9c0.6,0.1,2,0.5,2.4,2.3v12.7c0,1.5,1.2,2.7,2.7,2.7c1.5,0,2.7-1.2,2.7-2.7v-12.7
				c0.5-2.3,2.7-2.3,2.7-2.3l-1.1,0h45.4c0.6,0.1,1.8,0.5,2.3,2.1v13.1c0,1.5,1.2,2.7,2.7,2.7s2.7-1.2,2.7-2.7v-12.8
				c0.5-2.3,2.7-2.3,2.7-2.3l-1.1,0h3.6c1.6,0,2.8-1.3,2.8-2.8v-1.3c0-1.6-1.3-2.8-2.8-2.8h-2.9c-2.3-0.5-2.3-2.7-2.3-2.7l0,0.5
				V73.5c0-0.6-0.2-1.1-0.5-1.6c-0.5-0.9-1.4-1.5-2.5-1.5h-7.9v0h-13.7c-1.6,0-2.8-1.3-2.8-2.8v-0.3c0-1.6,1.3-2.8,2.8-2.8h13.7v0
				h8.1c1.6,0,2.8-1.3,2.8-2.8v-1.3c0-1.6-1.3-2.8-2.8-2.8h-7.3v0h0c-1.6,0-2.8-1.3-2.8-2.8v-1c0-1.6,1.3-2.8,2.8-2.8h0v0h7.3
				c1.6,0,2.8-1.3,2.8-2.8v-1.3c0-1.6-1.3-2.8-2.8-2.8h-6v0h-1.3c-1.6,0-2.8-1.3-2.8-2.8v-1C213.5,38.3,214.8,37.1,216.4,37.1z
				 M166.2,107.3l0-0.8h0V107.3z M171.3,80.7c0-1.6,1.3-2.8,2.8-2.8h17c1.6,0,2.8,1.3,2.8,2.8v1.2c0,1.6-1.3,2.8-2.8,2.8h-17
				c-1.6,0-2.8-1.3-2.8-2.8V80.7z M171.7,106.6L171.7,106.6L171.7,106.6L171.7,106.6z M221.3,96.2c0,1.6-1.3,2.8-2.8,2.8h-44.3
				c-1.6,0-2.8-1.3-2.8-2.8v-1.2c0-1.6,1.3-2.8,2.8-2.8h44.3c1.6,0,2.8,1.3,2.8,2.8V96.2z M201.8,77.9h17c1.6,0,2.8,1.3,2.8,2.8v1.2
				c0,1.6-1.3,2.8-2.8,2.8h-17c-1.6,0-2.8-1.3-2.8-2.8v-1.2C198.9,79.1,200.2,77.9,201.8,77.9z M208.6,54.6c0,1.6-1.3,2.9-2.8,2.9
				h-15.6c-1.6,0-2.8-1.3-2.8-2.9v-1.2c0-1.6,1.3-2.9,2.8-2.9h15.6c1.6,0,2.8,1.3,2.8,2.9V54.6z M208.6,40.9c0,1.6-1.3,2.8-2.8,2.8
				h-15.6c-1.6,0-2.8-1.3-2.8-2.8v-1.2c0-1.6,1.3-2.8,2.8-2.8h15.6c1.6,0,2.8,1.3,2.8,2.8V40.9z"/>
		</g>
	</g>
	<path class="st2" d="M72.9,45.4h42.7c1.5,0,2.7-1.2,2.7-2.7v-1.2c0-1.5-1.2-2.7-2.7-2.7H72.6c-0.6-0.2-1.5-0.8-1.8-2.1l0,2.1h0
		v-6.6c0.1-0.6,0.6-1.8,2.2-2.1h35c1.5,0,2.7-1.2,2.7-2.7v-1.2c0-1.5-1.2-2.7-2.7-2.7H27.2c-1.5,0-2.7,1.2-2.7,2.7v1.2
		c0,1.5,1.2,2.7,2.7,2.7h38.5v0h-2.4c0,0,1.8,0,2.4,1.8v5.4l0-0.8c-0.3,1.7-1.6,2.2-2.2,2.3H22c-1.5,0-2.7,1.2-2.7,2.7v1.2
		c0,1.5,1.2,2.7,2.7,2.7h41.4c0.6,0.1,1.9,0.5,2.3,2.2v4.8l0-0.8c-0.3,1.5-1.2,2-1.9,2.2H27.2c-1.5,0-2.7,1.2-2.7,2.7v1.2
		c0,0.2,0,0.4,0.1,0.6v26.7c0,0.2-0.1,0.4-0.1,0.6v1.2c0,1.5,1.2,2.7,2.7,2.7h36.4c0.6,0.1,1.8,0.6,2.1,2.2v6.5l0-0.8
		c-0.3,1.6-1.4,2.1-2,2.2H27.2c-1.5,0-2.7,1.2-2.7,2.7v1.2c0,1.5,1.2,2.7,2.7,2.7h36.7c0.6,0.2,1.5,0.7,1.8,2.1v6.8l0-0.8
		c-0.3,1.5-1.3,2-1.9,2.2H22c-1.5,0-2.7,1.2-2.7,2.7v1.2c0,1.5,1.2,2.7,2.7,2.7h93.6c1.5,0,2.7-1.2,2.7-2.7v-1.2
		c0-1.5-1.2-2.7-2.7-2.7H73.1c-0.6-0.1-1.9-0.5-2.3-2.3l0,2.3h0v-8.2c0.1-0.6,0.5-1.7,2-2.1h35.3c1.5,0,2.7-1.2,2.7-2.7v-1.2
		c0-1.5-1.2-2.7-2.7-2.7H72.5c-0.6-0.2-1.4-0.8-1.7-2.1l0,2.1h0v-8c0.1-0.6,0.6-1.8,2.2-2.1l-0.2,0h35.2c1.5,0,2.7-1.2,2.7-2.7v-1.2
		c0-0.2,0-0.3-0.1-0.5V58.4c0-0.2,0.1-0.3,0.1-0.5v-1.2c0-1.5-1.2-2.7-2.7-2.7H72.9c-0.6-0.1-1.8-0.6-2.1-2.2l0,2.2h0v-6.6
		C71,46.7,71.5,45.8,72.9,45.4z M29.6,65.3c0-1.5,1.2-2.7,2.7-2.7H63c1.5,0,2.7,1.2,2.7,2.7v1.1c0,1.5-1.2,2.7-2.7,2.7H32.3
		c-1.5,0-2.7-1.2-2.7-2.7V65.3z M105.7,80.4c0,1.5-1.2,2.7-2.7,2.7H32.3c-1.5,0-2.7-1.2-2.7-2.7v-1.1c0-1.5,1.2-2.7,2.7-2.7H103
		c1.5,0,2.7,1.2,2.7,2.7V80.4z M73.4,62.6H103c1.5,0,2.7,1.2,2.7,2.7v1.1c0,1.5-1.2,2.7-2.7,2.7H73.4c-1.5,0-2.7-1.2-2.7-2.7v-1.1
		C70.7,63.8,71.9,62.6,73.4,62.6z"/>
	<g>
		<g>
			<path class="st101" d="M35,208.1c0.3,0,0.6,0.1,0.9,0.4c0.2,0.2,0.4,0.5,0.4,0.9c0,0.3-0.1,0.6-0.4,0.9c-0.2,0.2-0.5,0.4-0.9,0.4
				l-12.6,0c-0.3,0-0.6-0.1-0.9-0.4c-0.2-0.2-0.4-0.5-0.4-0.9c0-0.3,0.1-0.6,0.4-0.9l10.7-11.8c1-1,1.5-2.2,1.5-3.6
				c0-1.4-0.5-2.6-1.5-3.6c-1-1-2.2-1.5-3.6-1.5c-1.4,0-2.6,0.5-3.6,1.5c-1,1-1.5,2.2-1.5,3.5c0,0.3-0.1,0.6-0.4,0.9
				s-0.5,0.4-0.9,0.4c-0.3,0-0.6-0.1-0.9-0.4c-0.2-0.2-0.4-0.5-0.4-0.9c0-2.1,0.7-3.9,2.2-5.3c1.5-1.5,3.2-2.2,5.3-2.2
				c2.1,0,3.9,0.7,5.3,2.2c1.5,1.5,2.2,3.2,2.2,5.3s-0.7,3.9-2.2,5.3l-8.8,9.7L35,208.1z"/>
			<path class="st101" d="M38.7,198c0-5,1.1-8.6,3.1-10.7c1.2-1.2,2.7-1.8,4.4-1.8c1.7,0,3.2,0.6,4.4,1.8c2.1,2.1,3.1,5.7,3.1,10.7
				c0,5-1,8.6-3.1,10.7c-1.2,1.2-2.7,1.8-4.4,1.8c-1.7,0-3.2-0.6-4.4-1.8C39.8,206.6,38.7,203,38.7,198z M46.3,188
				c-1,0-1.9,0.4-2.7,1.1c-1.6,1.8-2.4,4.7-2.4,8.9c0,4.2,0.8,7.2,2.3,8.9c0.7,0.7,1.6,1.1,2.7,1.1c1,0,1.9-0.4,2.7-1.1
				c1.6-1.8,2.4-4.7,2.4-8.9c0-4.2-0.8-7.2-2.3-8.9C48.2,188.4,47.3,188,46.3,188z"/>
			<path class="st101" d="M62.6,209.4c0,0.3-0.1,0.6-0.4,0.9c-0.2,0.2-0.5,0.4-0.9,0.4c-0.3,0-0.6-0.1-0.9-0.4
				c-0.2-0.2-0.4-0.5-0.4-0.9l0-20.9l-2,0.7c-0.2,0.1-0.3,0.1-0.5,0.1c-0.3,0-0.6-0.1-0.9-0.4c-0.2-0.2-0.4-0.5-0.4-0.9
				c0-0.3,0.1-0.6,0.4-0.9c0.1-0.1,0.3-0.2,0.4-0.3l3.8-1.2c0.1-0.1,0.3-0.1,0.5-0.1c0.3,0,0.6,0.1,0.9,0.4c0.2,0.2,0.4,0.5,0.4,0.9
				L62.6,209.4z"/>
			<path class="st101" d="M67.2,210.3c-0.3,0.3-0.6,0.4-0.9,0.4c-0.3,0-0.6-0.1-0.9-0.4c-0.2-0.2-0.4-0.5-0.4-0.9
				c0-0.3,0.1-0.5,0.3-0.8l11.5-20.6l-10.4,0c-0.3,0-0.6-0.1-0.9-0.4c-0.2-0.2-0.4-0.5-0.4-0.9s0.1-0.6,0.4-0.9
				c0.2-0.2,0.5-0.4,0.9-0.4l12.6,0c0.3,0,0.6,0.1,0.9,0.4c0.2,0.2,0.4,0.5,0.4,0.9c0,0.3-0.1,0.5-0.2,0.7l-12.5,22.4
				C67.4,210.1,67.3,210.2,67.2,210.3z"/>
			<path class="st101" d="M117.2,198.2c0,3.5-1.2,6.4-3.7,8.9c-2.5,2.4-5.4,3.7-8.9,3.7c-3.5,0-6.4-1.2-8.9-3.7
				c-2.4-2.5-3.7-5.4-3.7-8.9c0-3.5,1.2-6.4,3.7-8.9c2.5-2.4,5.4-3.7,8.9-3.7c3.5,0,6.4,1.2,8.9,3.7
				C116,191.8,117.2,194.7,117.2,198.2z M104.7,188.1c-2.8,0-5.1,1-7.1,2.9c-2,2-3,4.3-3,7.1c0,2.8,1,5.1,2.9,7.1c2,2,4.3,3,7.1,3
				c2.8,0,5.1-1,7.1-2.9s3-4.3,3-7.1c0-2.8-1-5.1-2.9-7.1C109.8,189.1,107.4,188.1,104.7,188.1z"/>
			<path class="st101" d="M121,185.7l5,0c2.2,0,4.2,0.8,5.8,2.4c1.6,1.6,2.4,3.5,2.4,5.8s-0.8,4.2-2.4,5.8c-1.6,1.6-3.5,2.4-5.8,2.4
				l-3.8,0l0,7.5c0,0.3-0.1,0.6-0.4,0.9c-0.2,0.2-0.5,0.4-0.9,0.4c-0.3,0-0.6-0.1-0.9-0.4c-0.2-0.2-0.4-0.5-0.4-0.9l0.1-22.6
				c0-0.3,0.1-0.6,0.4-0.9C120.4,185.8,120.7,185.7,121,185.7z M122.2,188.2l0,11.3l3.8,0c1.6,0,2.9-0.5,4-1.6
				c1.1-1.1,1.7-2.4,1.7-4s-0.5-2.9-1.6-4c-1.1-1.1-2.4-1.7-4-1.7L122.2,188.2z"/>
			<path class="st101" d="M137.9,185.7l15.1,0c0.3,0,0.6,0.1,0.9,0.4c0.2,0.2,0.4,0.5,0.4,0.9s-0.1,0.6-0.4,0.9s-0.5,0.4-0.9,0.4
				l-13.8,0l0,8.8l10,0c0.3,0,0.6,0.1,0.9,0.4c0.2,0.2,0.4,0.5,0.4,0.9c0,0.3-0.1,0.6-0.4,0.9c-0.2,0.2-0.5,0.4-0.9,0.4l-10,0l0,8.8
				l13.8,0c0.3,0,0.6,0.1,0.9,0.4c0.2,0.2,0.4,0.5,0.4,0.9c0,0.3-0.1,0.6-0.4,0.9c-0.2,0.2-0.5,0.4-0.9,0.4l-15.1,0
				c-0.3,0-0.6-0.1-0.9-0.4c-0.2-0.2-0.4-0.5-0.4-0.9l0.1-22.6c0-0.3,0.1-0.6,0.4-0.9C137.3,185.8,137.6,185.7,137.9,185.7z"/>
			<path class="st101" d="M159.2,209.6c0,0.3-0.1,0.6-0.4,0.9c-0.2,0.2-0.5,0.4-0.9,0.4c-0.3,0-0.6-0.1-0.9-0.4
				c-0.2-0.2-0.4-0.5-0.4-0.9l0.1-22.6c0-0.3,0.1-0.6,0.4-0.9s0.5-0.4,0.9-0.4c0.4,0,0.7,0.2,1,0.5l15.3,19.8l0-18.9
				c0-0.3,0.1-0.6,0.4-0.9c0.2-0.2,0.5-0.4,0.9-0.4c0.3,0,0.6,0.1,0.9,0.4c0.2,0.2,0.4,0.5,0.4,0.9l-0.1,22.6c0,0.3-0.1,0.6-0.4,0.9
				c-0.2,0.2-0.5,0.4-0.9,0.4c-0.4,0-0.7-0.1-0.9-0.4l-15.3-19.8L159.2,209.6z"/>
			<path class="st101" d="M188.8,187.1c0-0.3,0.1-0.6,0.4-0.9c0.2-0.2,0.5-0.4,0.9-0.4c0.3,0,0.6,0.1,0.9,0.4s0.4,0.5,0.4,0.9l0,10
				l12.6,0l0-10c0-0.3,0.1-0.6,0.4-0.9c0.2-0.2,0.5-0.4,0.9-0.4c0.3,0,0.6,0.1,0.9,0.4c0.2,0.2,0.4,0.5,0.4,0.9l-0.1,22.6
				c0,0.3-0.1,0.6-0.4,0.9c-0.2,0.2-0.5,0.4-0.9,0.4c-0.3,0-0.6-0.1-0.9-0.4c-0.2-0.2-0.4-0.5-0.4-0.9l0-10l-12.6,0l0,10
				c0,0.3-0.1,0.6-0.4,0.9c-0.2,0.2-0.5,0.4-0.9,0.4c-0.3,0-0.6-0.1-0.9-0.4c-0.2-0.2-0.4-0.5-0.4-0.9L188.8,187.1z"/>
			<path class="st101" d="M228.4,206.1c0.3,0,0.6,0.1,0.9,0.4c0.2,0.2,0.4,0.5,0.4,0.9c0,0.3-0.1,0.6-0.4,0.9
				c-2.3,1.9-5,2.8-7.9,2.8c-3.5,0-6.4-1.2-8.9-3.7c-2.4-2.5-3.7-5.4-3.7-8.9c0-3.5,1.2-6.4,3.7-8.9c2.5-2.4,5.4-3.7,8.9-3.7
				c3,0,5.7,1,8,2.9c0.2,0.3,0.4,0.5,0.4,0.9c0,0.3-0.1,0.6-0.4,0.9c-0.2,0.2-0.5,0.4-0.9,0.4c-0.3,0-0.6-0.1-0.9-0.4
				c-1.8-1.4-3.8-2.1-6.2-2.1c-2.8,0-5.1,1-7.1,2.9s-3,4.3-3,7.1c0,2.8,1,5.1,2.9,7.1c2,2,4.3,3,7.1,3c2.4,0,4.5-0.7,6.3-2.2
				C227.9,206.2,228.1,206.1,228.4,206.1z"/>
			<path class="st101" d="M233.3,187.2c0-0.3,0.1-0.6,0.4-0.9c0.2-0.2,0.5-0.4,0.9-0.4c0.3,0,0.6,0.1,0.9,0.4
				c0.2,0.2,0.4,0.5,0.4,0.9l-0.1,22.6c0,0.3-0.1,0.6-0.4,0.9c-0.2,0.2-0.5,0.4-0.9,0.4c-0.3,0-0.6-0.1-0.9-0.4s-0.4-0.5-0.4-0.9
				L233.3,187.2z"/>
		</g>
	</g>
</g>
</svg>
