<?xml version="1.0" encoding="utf-8"?>
<!-- Generator: Adobe Illustrator 19.1.0, SVG Export Plug-In . SVG Version: 6.00 Build 0)  -->
<svg version="1.1" id="圖層_1" xmlns="http://www.w3.org/2000/svg" xmlns:xlink="http://www.w3.org/1999/xlink" x="0px" y="0px"
	 viewBox="0 0 70.9 141.7" style="enable-background:new 0 0 70.9 141.7;" xml:space="preserve">
<style type="text/css">
	.st0{fill:none;stroke:#FFFFFF;stroke-width:1.6862;stroke-miterlimit:10;}
	.st1{fill:none;stroke:#FFFFFF;stroke-width:0.4037;stroke-miterlimit:10;}
	.st2{fill:#EC675A;}
	.st3{fill:#D9DADB;}
	.st4{fill:none;stroke:#FFFFFF;stroke-width:0.7777;stroke-miterlimit:10;}
	.st5{fill:none;stroke:#FFFFFF;stroke-width:0.4684;stroke-miterlimit:10;}
	.st6{fill:none;stroke:#FFFFFF;stroke-width:0.6417;stroke-miterlimit:10;}
	.st7{fill:none;stroke:#FFFFFF;stroke-width:0.4156;stroke-miterlimit:10;}
	.st8{fill:none;stroke:#000000;stroke-width:0.4635;stroke-miterlimit:10;}
	.st9{fill:none;stroke:#FFFFFF;stroke-width:0.2282;stroke-miterlimit:10;}
	.st10{fill:none;stroke:#FFFFFF;stroke-width:0.1744;stroke-miterlimit:10;}
	.st11{fill:none;stroke:#FFFFFF;stroke-width:0.3177;stroke-miterlimit:10;}
	.st12{fill:none;stroke:#FFFFFF;stroke-width:0.2973;stroke-miterlimit:10;}
	.st13{fill:none;stroke:#FFFFFF;stroke-width:0.2927;stroke-miterlimit:10;}
	.st14{fill:none;stroke:#FFFFFF;stroke-width:0.2364;stroke-miterlimit:10;}
	.st15{fill:none;stroke:#FFFFFF;stroke-width:0.1726;stroke-miterlimit:10;}
	.st16{fill:#FFFFFF;}
	.st17{fill:none;stroke:#FFFFFF;stroke-width:0.3177;stroke-miterlimit:10;stroke-dasharray:1.9062;}
	.st18{fill:none;stroke:#FFFFFF;stroke-width:0.7447;stroke-miterlimit:10;}
	.st19{fill:none;stroke:#FFFFFF;stroke-width:0.2687;stroke-miterlimit:10;}
	.st20{fill:none;stroke:#FFFFFF;stroke-width:0.2137;stroke-miterlimit:10;}
	.st21{fill:none;stroke:#FFFFFF;stroke-width:0.2882;stroke-miterlimit:10;}
	.st22{fill:none;stroke:#FFFFFF;stroke-width:0.1394;stroke-miterlimit:10;}
	.st23{fill:url(#SVGID_1_);stroke:#FFFFFF;stroke-width:0.1394;stroke-miterlimit:10;}
	.st24{fill:url(#SVGID_2_);stroke:#FFFFFF;stroke-width:0.1394;stroke-miterlimit:10;}
	.st25{fill:none;stroke:#FFFFFF;stroke-width:0.1383;stroke-miterlimit:10;}
	.st26{fill:#FFFFFF;stroke:#000000;stroke-width:0.2882;stroke-miterlimit:10;}
	.st27{fill:none;stroke:#040000;stroke-width:0.7447;stroke-miterlimit:10;}
	.st28{fill:none;stroke:#FFFFFF;stroke-width:0.3889;stroke-miterlimit:10;}
	.st29{fill:#2A4399;}
	.st30{fill:none;stroke:#FFFFFF;stroke-width:0.5661;stroke-miterlimit:10;}
	.st31{fill:none;stroke:#EC675A;stroke-width:0.3889;stroke-miterlimit:10;}
	.st32{fill:none;stroke:#FFFFFF;stroke-width:0.7777;stroke-miterlimit:10;stroke-dasharray:2.3332;}
	.st33{clip-path:url(#SVGID_4_);fill:none;stroke:#FFFFFF;stroke-width:0.789;stroke-miterlimit:10;}
	.st34{fill:none;stroke:#EC675A;stroke-width:0.7777;stroke-miterlimit:10;}
	.st35{fill:none;stroke:#000000;stroke-width:0.7447;stroke-miterlimit:10;}
	.st36{fill:none;stroke:#FFFFFF;stroke-miterlimit:10;}
	.st37{fill:none;stroke:#FFFFFF;stroke-width:0.2742;stroke-miterlimit:10;}
	.st38{fill:none;stroke:#FFFFFF;stroke-width:0.4059;stroke-miterlimit:10;}
	.st39{fill:none;stroke:#FFFFFF;stroke-width:0.5355;stroke-miterlimit:10;}
	.st40{fill:#FFFFFF;stroke:#FFFFFF;stroke-width:0.7777;stroke-miterlimit:10;}
	.st41{fill:none;stroke:#E83518;stroke-width:0.789;stroke-miterlimit:10;}
	.st42{clip-path:url(#SVGID_6_);fill:none;stroke:#FFFFFF;stroke-width:0.7777;stroke-miterlimit:10;}
	.st43{fill:none;stroke:#FFFFFF;stroke-width:0.6061;stroke-miterlimit:10;}
	.st44{fill:none;stroke:#FFFFFF;stroke-width:0.3504;stroke-miterlimit:10;}
	.st45{clip-path:url(#SVGID_8_);fill:none;stroke:#FFFFFF;stroke-width:0.7684;stroke-miterlimit:10;}
	.st46{clip-path:url(#SVGID_12_);fill:#EC675A;}
	.st47{fill:none;stroke:#FFFFFF;stroke-width:0.6749;stroke-miterlimit:10;}
	.st48{fill:#D95F58;}
	.st49{clip-path:url(#XMLID_45_);}
	.st50{fill:#8CAAB2;}
	.st51{opacity:0.4;fill:#A5C7D0;}
	.st52{fill:#63426A;}
	.st53{opacity:0.4;fill:#E6C1DB;}
	.st54{opacity:0.88;fill:#BCE2EC;}
	.st55{opacity:0.76;fill:#DCECF2;}
	.st56{opacity:0.85;fill:#8CAAB2;}
	.st57{fill:#E6C1DB;}
	.st58{opacity:0.64;fill:#FFFFFF;}
	.st59{fill:#FFFFFF;stroke:#000000;stroke-width:0.6621;stroke-linejoin:round;stroke-miterlimit:10;}
	.st60{fill:#A5C7D0;}
	.st61{fill:#C99DC7;}
	.st62{opacity:0.47;fill:#FFFFFF;stroke:#FFFFFF;stroke-width:0.1944;stroke-miterlimit:10;}
	.st63{fill:none;stroke:#FFFFFF;stroke-width:0.2298;stroke-miterlimit:10;}
	.st64{fill:none;stroke:#FFFFFF;stroke-width:0.3996;stroke-miterlimit:10;}
	.st65{fill:none;stroke:#FFFFFF;stroke-width:0.3996;stroke-miterlimit:10;stroke-dasharray:1.2383,1.2383;}
	.st66{fill:none;stroke:#FFFFFF;stroke-width:0.3996;stroke-miterlimit:10;stroke-dasharray:1.2235,1.2235;}
	.st67{fill:none;stroke:#FFFFFF;stroke-width:0.7795;stroke-miterlimit:10;}
	.st68{fill:none;stroke:#FFFFFF;stroke-width:0.6043;stroke-miterlimit:10;}
	.st69{fill:#FFFFFF;stroke:#FFFFFF;stroke-width:0.6891;stroke-miterlimit:10;}
	.st70{fill:none;stroke:#FFFFFF;stroke-width:0.7734;stroke-miterlimit:10;}
	.st71{fill:none;stroke:#FFFFFF;stroke-width:0.4167;stroke-miterlimit:10;}
	.st72{fill:#FFFFFF;stroke:#000000;stroke-width:0.5507;stroke-miterlimit:10;}
	.st73{clip-path:url(#SVGID_16_);fill:none;stroke:#2A4399;stroke-width:0.7777;stroke-miterlimit:10;}
	.st74{fill:none;stroke:#FFFFFF;stroke-width:1.1929;stroke-miterlimit:10;}
	.st75{fill:none;stroke:#FFFFFF;stroke-width:1.5905;stroke-miterlimit:10;}
	.st76{fill:none;stroke:#FFFFFF;stroke-width:0.7952;stroke-miterlimit:10;}
	.st77{fill:#FFFFFF;stroke:#FFFFFF;stroke-width:1.1929;stroke-miterlimit:10;}
	.st78{fill:#D95F58;stroke:#FFFFFF;stroke-width:0.7777;stroke-miterlimit:10;}
	.st79{clip-path:url(#SVGID_18_);fill:#FFFFFF;stroke:#FFFFFF;stroke-width:0.7777;stroke-miterlimit:10;}
	.st80{clip-path:url(#SVGID_18_);fill:none;stroke:#FFFFFF;stroke-width:0.7777;stroke-miterlimit:10;}
	.st81{fill:none;stroke:#FFFFFF;stroke-width:0.4881;stroke-miterlimit:10;}
	.st82{fill:#FFFFFF;stroke:#000000;stroke-width:0.642;stroke-miterlimit:10;}
	.st83{fill:#FFFFFF;stroke:#000000;stroke-width:1.7326;stroke-linejoin:round;stroke-miterlimit:10;}
	.st84{fill:#D7D8D8;}
	.st85{fill-rule:evenodd;clip-rule:evenodd;fill:#EC675A;}
	.st86{fill-rule:evenodd;clip-rule:evenodd;fill:#FFFFFF;}
	.st87{fill-rule:evenodd;clip-rule:evenodd;fill:#C9CACA;}
	.st88{fill-rule:evenodd;clip-rule:evenodd;fill:#E0E1E1;}
	.st89{fill-rule:evenodd;clip-rule:evenodd;fill:#D9DADB;}
	.st90{fill:#835412;}
	.st91{fill:#B5B5B6;}
	.st92{fill:#FFFFFF;stroke:#EC675A;stroke-width:0.7777;stroke-miterlimit:10;}
	.st93{fill:none;stroke:#B5B5B6;stroke-width:0.7777;stroke-miterlimit:10;}
	.st94{fill:none;stroke:#FFFFFF;stroke-width:0.7008;stroke-miterlimit:10;}
	.st95{fill:none;stroke:#FFFFFF;stroke-width:0.7323;stroke-miterlimit:10;}
	.st96{fill:none;stroke:#FFFFFF;stroke-width:0.7134;stroke-miterlimit:10;}
	.st97{fill:none;stroke:#EC675A;stroke-width:0.8779;stroke-miterlimit:10;}
	.st98{fill:none;stroke:#EC675A;stroke-width:0.8408;stroke-miterlimit:10;}
	.st99{fill:none;stroke:#FFFFFF;stroke-width:0.5;stroke-miterlimit:10;}
	.st100{fill:none;stroke:#FFFFFF;stroke-width:1.0322;stroke-miterlimit:10;}
	.st101{fill:none;stroke:#FFFFFF;stroke-width:0.9143;stroke-miterlimit:10;}
	.st102{fill:#2A4399;stroke:#2A4399;stroke-width:0.25;stroke-miterlimit:10;}
	.st103{fill:none;stroke:#FFFFFF;stroke-width:0.6142;stroke-miterlimit:10;}
	.st104{fill:none;stroke:#040000;stroke-width:0.6142;stroke-miterlimit:10;}
	.st105{fill:none;stroke:#FFFFFF;stroke-width:0.3207;stroke-miterlimit:10;}
	.st106{fill:none;stroke:#FFFFFF;stroke-width:0.4669;stroke-miterlimit:10;}
	.st107{fill:none;stroke:#FFFFFF;stroke-width:0.6414;stroke-miterlimit:10;}
	.st108{clip-path:url(#SVGID_20_);fill:none;stroke:#FFFFFF;stroke-width:0.6507;stroke-miterlimit:10;}
	.st109{fill:none;stroke:#2A4399;stroke-width:0.5121;stroke-miterlimit:10;}
	.st110{fill:none;stroke:#E83518;stroke-width:0.6507;stroke-miterlimit:10;}
	.st111{clip-path:url(#SVGID_22_);fill:none;stroke:#FFFFFF;stroke-width:0.6414;stroke-miterlimit:10;}
	.st112{fill:none;stroke:#FFFFFF;stroke-width:0.4999;stroke-miterlimit:10;}
	.st113{fill:none;stroke:#FFFFFF;stroke-width:0.2889;stroke-miterlimit:10;}
	.st114{clip-path:url(#SVGID_24_);fill:none;stroke:#FFFFFF;stroke-width:0.6337;stroke-miterlimit:10;}
	.st115{clip-path:url(#SVGID_28_);fill:#2A4399;}
	.st116{fill:none;stroke:#FFFFFF;stroke-width:0.5566;stroke-miterlimit:10;}
	.st117{fill:#FFFFFF;stroke:#000000;stroke-width:0.546;stroke-linejoin:round;stroke-miterlimit:10;}
	.st118{fill:none;stroke:#FFFFFF;stroke-width:0.3295;stroke-miterlimit:10;}
	.st119{fill:none;stroke:#FFFFFF;stroke-width:0.3295;stroke-miterlimit:10;stroke-dasharray:1.0212,1.0212;}
	.st120{fill:none;stroke:#FFFFFF;stroke-width:0.3295;stroke-miterlimit:10;stroke-dasharray:1.009,1.009;}
	.st121{fill:none;stroke:#FFFFFF;stroke-width:0.4984;stroke-miterlimit:10;}
	.st122{fill:#FFFFFF;stroke:#FFFFFF;stroke-width:0.5683;stroke-miterlimit:10;}
	.st123{fill:none;stroke:#2A4399;stroke-width:0.6414;stroke-miterlimit:10;}
	.st124{fill:none;stroke:#FFFFFF;stroke-width:0.6026;stroke-miterlimit:10;}
	.st125{fill:none;stroke:#040000;stroke-width:0.6026;stroke-miterlimit:10;}
	.st126{fill:none;stroke:#FFFFFF;stroke-width:0.6293;stroke-miterlimit:10;}
	.st127{fill:none;stroke:#FFFFFF;stroke-width:0.6258;stroke-miterlimit:10;}
	.st128{fill:none;stroke:#FFFFFF;stroke-width:0.3371;stroke-miterlimit:10;}
	.st129{fill:#FFFFFF;stroke:#000000;stroke-width:0.4456;stroke-miterlimit:10;}
	.st130{fill:none;stroke:#B5B5B6;stroke-width:0.6293;stroke-miterlimit:10;}
	.st131{fill:none;stroke:#FFFFFF;stroke-width:0.7085;stroke-miterlimit:10;stroke-dasharray:2.1255;}
	.st132{fill:none;stroke:#2A4399;stroke-width:0.911;stroke-miterlimit:10;}
	.st133{fill:none;stroke:#FFFFFF;stroke-width:0.911;stroke-miterlimit:10;}
	.st134{fill:none;stroke:#2A4399;stroke-width:0.6488;stroke-miterlimit:10;}
	.st135{fill:none;stroke:#FFFFFF;stroke-width:0.3905;stroke-miterlimit:10;}
	.st136{fill:none;stroke:#FFFFFF;stroke-width:0.4063;stroke-miterlimit:10;}
	.st137{fill:#EC675A;stroke:#EC675A;stroke-width:0.75;stroke-miterlimit:10;}
	.st138{fill:none;stroke:#EC675A;stroke-width:0.5;stroke-miterlimit:10;}
</style>
<g>
	<g>
		<g>
			<g>
				<path class="st16" d="M16.5,102.4H20c1.2,0,2.2,0.3,3,1s1.3,1.5,1.3,2.5s-0.4,1.8-1.2,2.5c-0.4,0.3-0.8,0.6-1.3,0.7l3.1,4.1
					c0.1,0.1,0.1,0.2,0.1,0.3c0,0.2-0.1,0.3-0.2,0.4c-0.1,0.1-0.3,0.2-0.5,0.2c-0.3,0-0.5-0.1-0.6-0.3l-3.3-4.5c-0.1,0-0.2,0-0.3,0
					h-2.8v4.2c0,0.2-0.1,0.3-0.2,0.4c-0.1,0.1-0.3,0.2-0.5,0.2s-0.4-0.1-0.5-0.2c-0.1-0.1-0.2-0.3-0.2-0.4V103
					c0-0.2,0.1-0.3,0.2-0.4C16.1,102.5,16.3,102.4,16.5,102.4z M17.2,103.6v4.8H20c0.8,0,1.5-0.2,2-0.7c0.6-0.5,0.8-1,0.8-1.7
					s-0.3-1.2-0.8-1.7c-0.6-0.5-1.2-0.7-2-0.7H17.2z"/>
				<path class="st16" d="M27.1,102.4h8.5c0.2,0,0.4,0.1,0.5,0.2c0.1,0.1,0.2,0.3,0.2,0.4s-0.1,0.3-0.2,0.4
					c-0.1,0.1-0.3,0.2-0.5,0.2h-7.8v4.2h5.7c0.2,0,0.4,0.1,0.5,0.2c0.1,0.1,0.2,0.3,0.2,0.4s-0.1,0.3-0.2,0.4
					c-0.1,0.1-0.3,0.2-0.5,0.2h-5.7v4.2h7.8c0.2,0,0.4,0.1,0.5,0.2c0.1,0.1,0.2,0.3,0.2,0.4s-0.1,0.3-0.2,0.4
					c-0.1,0.1-0.3,0.2-0.5,0.2h-8.5c-0.2,0-0.4-0.1-0.5-0.2c-0.1-0.1-0.2-0.3-0.2-0.4V103c0-0.2,0.1-0.3,0.2-0.4
					C26.8,102.5,27,102.4,27.1,102.4z"/>
				<path class="st16" d="M40,106.8c0,0.2-0.1,0.5-0.3,0.6c-0.2,0.2-0.5,0.3-0.8,0.3c-0.3,0-0.5-0.1-0.8-0.3
					c-0.2-0.2-0.3-0.4-0.3-0.6c0-0.2,0.1-0.5,0.3-0.6c0.2-0.2,0.5-0.3,0.8-0.3c0.3,0,0.5,0.1,0.8,0.3C39.9,106.4,40,106.6,40,106.8z
					 M40,113.4c0,0.2-0.1,0.5-0.3,0.6c-0.2,0.2-0.5,0.3-0.8,0.3c-0.3,0-0.5-0.1-0.8-0.3s-0.3-0.4-0.3-0.6s0.1-0.5,0.3-0.6
					s0.5-0.3,0.8-0.3c0.3,0,0.5,0.1,0.8,0.3C39.9,112.9,40,113.1,40,113.4z"/>
				<path class="st16" d="M46,115.5c-0.2,0-0.4-0.1-0.5-0.2c-0.1-0.1-0.2-0.3-0.2-0.4s0.1-0.3,0.2-0.4c0.1-0.1,0.3-0.2,0.5-0.2h8.5
					c0.2,0,0.4,0.1,0.5,0.2c0.1,0.1,0.2,0.3,0.2,0.4s-0.1,0.3-0.2,0.4c-0.1,0.1-0.3,0.2-0.5,0.2H46z"/>
			</g>
			<g>
				<g>
					<path class="st29" d="M26.7,83.9L26.7,83.9c-0.6,0-1-0.5-1-1V66.5c0-0.6,0.5-1,1-1h0c0.6,0,1,0.5,1,1v16.3
						C27.7,83.4,27.2,83.9,26.7,83.9z"/>
					<path class="st29" d="M18.1,96.1L18.1,96.1c-0.6,0-1-0.5-1-1V66.5c0-0.6,0.5-1,1-1h0c0.6,0,1,0.5,1,1V95
						C19.1,95.6,18.6,96.1,18.1,96.1z"/>
					<path class="st29" d="M48.5,63.2h1.7c0.1,0,0.1,0,0.2,0h3.9c0.6,0,1.1-0.5,1.1-1.1v-0.5c0-0.6-0.5-1.1-1.1-1.1h-6.2
						c-0.2,0-0.7-0.2-0.9-0.9l0,0.9h0v-2.9c0-0.6-0.5-1-1-1c-0.6,0-1,0.5-1,1v2.1c-0.2,0.6-0.8,0.7-0.9,0.7h-6.6v0h1
						c0,0-0.8,0-1-0.9l0,0.4v-2.6c0-0.6-0.5-1-1-1c-0.6,0-1,0.5-1,1v2.2c-0.2,0.8-0.8,0.9-1,0.9H24.4c-0.2,0-0.8-0.1-1-0.9v-2
						c0-0.6-0.5-1-1-1c-0.6,0-1,0.5-1,1v2.9l0-0.9c-0.1,0.8-0.8,0.9-1,0.9H17c-0.6,0-1.1,0.5-1.1,1.1v0.5c0,0.6,0.5,1.1,1.1,1.1h3.4
						c0.2,0,0.8,0.1,0.9,0.9v31c0,0.6,0.5,1,1,1c0.6,0,1-0.5,1-1V64c0.2-0.8,0.8-0.9,1-0.9h7.5c0,0,0.1,0,0.1,0h2.7
						c0.6,0,1.1,0.5,1.1,1.1v0.4c0,0.6-0.5,1.1-1.1,1.1h-1v0h-3c-0.6,0-1.1,0.5-1.1,1.1v0.5c0,0.6,0.5,1.1,1.1,1.1h3v0h1
						c0.6,0,1.1,0.5,1.1,1.1v0.4c0,0.6-0.5,1.1-1.1,1.1h-1v0h-3c-0.6,0-1.1,0.5-1.1,1.1v0.5c0,0.6,0.5,1.1,1.1,1.1h3v0h5.4
						c0.6,0,1.1,0.5,1.1,1.1v0.1c0,0.6-0.5,1.1-1.1,1.1h-5.4v0h-3c-0.6,0-1.1,0.5-1.1,1.1v0.5c0,0,0,0.1,0,0.1v8.4
						c0,0.2-0.2,0.7-0.9,0.9h-1.5c-0.6,0-1.1,0.5-1.1,1.1v0.5c0,0.6,0.5,1.1,1.1,1.1h1.5c0.2,0,0.7,0.2,0.9,0.9v4.8c0,0.6,0.5,1,1,1
						c0.6,0,1-0.5,1-1v-4.8c0.2-0.9,1-0.9,1-0.9l-0.4,0h17.1c0.2,0,0.7,0.2,0.9,0.8V95c0,0.6,0.5,1,1,1s1-0.5,1-1v-4.8
						c0.2-0.9,1-0.9,1-0.9l-0.4,0h1.4c0.6,0,1.1-0.5,1.1-1.1v-0.5c0-0.6-0.5-1.1-1.1-1.1h-1.1c-0.9-0.2-0.9-1-0.9-1l0,0.2v-9
						c0-0.2-0.1-0.4-0.2-0.6c-0.2-0.3-0.5-0.6-0.9-0.6h-3v0h-5.2c-0.6,0-1.1-0.5-1.1-1.1v-0.1c0-0.6,0.5-1.1,1.1-1.1h5.2v0h3.1
						c0.6,0,1.1-0.5,1.1-1.1v-0.5c0-0.6-0.5-1.1-1.1-1.1h-2.7v0h0c-0.6,0-1.1-0.5-1.1-1.1v-0.4c0-0.6,0.5-1.1,1.1-1.1h0v0h2.7
						c0.6,0,1.1-0.5,1.1-1.1v-0.5c0-0.6-0.5-1.1-1.1-1.1H49v0h-0.5c-0.6,0-1.1-0.5-1.1-1.1v-0.4C47.5,63.6,48,63.2,48.5,63.2z
						 M29.7,89.6l0-0.3h0V89.6z M31.6,79.6c0-0.6,0.5-1.1,1.1-1.1h6.4c0.6,0,1.1,0.5,1.1,1.1V80c0,0.6-0.5,1.1-1.1,1.1h-6.4
						c-0.6,0-1.1-0.5-1.1-1.1V79.6z M31.7,89.3L31.7,89.3L31.7,89.3L31.7,89.3z M50.4,85.4c0,0.6-0.5,1.1-1.1,1.1H32.7
						c-0.6,0-1.1-0.5-1.1-1.1V85c0-0.6,0.5-1.1,1.1-1.1h16.7c0.6,0,1.1,0.5,1.1,1.1V85.4z M43.1,78.5h6.4c0.6,0,1.1,0.5,1.1,1.1V80
						c0,0.6-0.5,1.1-1.1,1.1h-6.4c-0.6,0-1.1-0.5-1.1-1.1v-0.4C42,79,42.5,78.5,43.1,78.5z M45.6,69.8c0,0.6-0.5,1.1-1.1,1.1h-5.9
						c-0.6,0-1.1-0.5-1.1-1.1v-0.4c0-0.6,0.5-1.1,1.1-1.1h5.9c0.6,0,1.1,0.5,1.1,1.1V69.8z M45.6,64.6c0,0.6-0.5,1.1-1.1,1.1h-5.9
						c-0.6,0-1.1-0.5-1.1-1.1v-0.4c0-0.6,0.5-1.1,1.1-1.1h5.9c0.6,0,1.1,0.5,1.1,1.1V64.6z"/>
				</g>
			</g>
			<g>
				<g>
					<path class="st29" d="M37.2,22.7h16.9c0.6,0,1.1-0.5,1.1-1.1v-0.5c0-0.6-0.5-1.1-1.1-1.1h-17c-0.3-0.1-0.6-0.3-0.7-0.8l0,0.8h0
						v-2.6c0-0.2,0.2-0.7,0.9-0.8h13.9c0.6,0,1.1-0.5,1.1-1.1V15c0-0.6-0.5-1.1-1.1-1.1H19C18.5,14,18,14.5,18,15v0.5
						c0,0.6,0.5,1.1,1.1,1.1h15.3v0h-1c0,0,0.7,0,1,0.7v2.1l0-0.3c-0.1,0.7-0.6,0.9-0.9,0.9H17c-0.6,0-1.1,0.5-1.1,1.1v0.5
						c0,0.6,0.5,1.1,1.1,1.1h16.4c0.2,0,0.8,0.2,0.9,0.9v1.9l0-0.3c-0.1,0.6-0.5,0.8-0.7,0.9H19c-0.6,0-1.1,0.5-1.1,1.1v0.5
						c0,0.1,0,0.2,0,0.2v10.6c0,0.1,0,0.1,0,0.2v0.5c0,0.6,0.5,1.1,1.1,1.1h14.4c0.2,0,0.7,0.2,0.8,0.9v2.6l0-0.3
						c-0.1,0.6-0.5,0.8-0.8,0.9H19c-0.6,0-1.1,0.5-1.1,1.1v0.5c0,0.6,0.5,1.1,1.1,1.1h14.6c0.3,0.1,0.6,0.3,0.7,0.8v2.7l0-0.3
						c-0.1,0.6-0.5,0.8-0.8,0.9H17c-0.6,0-1.1,0.5-1.1,1.1v0.5c0,0.6,0.5,1.1,1.1,1.1h37.1c0.6,0,1.1-0.5,1.1-1.1V52
						c0-0.6-0.5-1.1-1.1-1.1H37.3c-0.2,0-0.8-0.2-0.9-0.9l0,0.9h0v-3.3c0-0.2,0.2-0.7,0.8-0.8h14c0.6,0,1.1-0.5,1.1-1.1v-0.5
						c0-0.6-0.5-1.1-1.1-1.1H37c-0.3-0.1-0.6-0.3-0.7-0.8l0,0.8h0v-3.2c0-0.3,0.2-0.7,0.9-0.9l-0.1,0h14c0.6,0,1.1-0.5,1.1-1.1v-0.5
						c0-0.1,0-0.1,0-0.2V27.8c0-0.1,0-0.1,0-0.2v-0.5c0-0.6-0.5-1.1-1.1-1.1h-14c-0.3-0.1-0.7-0.2-0.8-0.9l0,0.9h0v-2.6
						C36.4,23.2,36.6,22.8,37.2,22.7z M20,30.6c0-0.6,0.5-1.1,1.1-1.1h12.2c0.6,0,1.1,0.5,1.1,1.1V31c0,0.6-0.5,1.1-1.1,1.1H21.1
						c-0.6,0-1.1-0.5-1.1-1.1V30.6z M50.2,36.6c0,0.6-0.5,1.1-1.1,1.1H21.1c-0.6,0-1.1-0.5-1.1-1.1v-0.4c0-0.6,0.5-1.1,1.1-1.1h28.1
						c0.6,0,1.1,0.5,1.1,1.1V36.6z M37.4,29.5h11.7c0.6,0,1.1,0.5,1.1,1.1V31c0,0.6-0.5,1.1-1.1,1.1H37.4c-0.6,0-1.1-0.5-1.1-1.1
						v-0.4C36.3,30,36.8,29.5,37.4,29.5z"/>
				</g>
			</g>
			<g>
				<g>
					<path class="st102" d="M22.3,124.3c0,0.9-0.3,1.8-1,2.4c-0.7,0.7-1.5,1-2.4,1c-0.9,0-1.8-0.3-2.4-1c-0.7-0.7-1-1.5-1-2.4
						c0-0.9,0.3-1.8,1-2.4c0.7-0.7,1.5-1,2.4-1c0.9,0,1.8,0.3,2.4,1C22,122.5,22.3,123.3,22.3,124.3z M18.9,121.5
						c-0.8,0-1.4,0.3-1.9,0.8c-0.5,0.5-0.8,1.2-0.8,1.9c0,0.8,0.3,1.4,0.8,1.9c0.5,0.5,1.2,0.8,1.9,0.8s1.4-0.3,1.9-0.8
						c0.5-0.5,0.8-1.2,0.8-1.9c0-0.8-0.3-1.4-0.8-1.9S19.7,121.5,18.9,121.5z"/>
					<path class="st102" d="M23.4,120.8l1.4,0c0.6,0,1.1,0.2,1.6,0.7c0.4,0.4,0.7,1,0.7,1.6c0,0.6-0.2,1.1-0.7,1.6
						c-0.4,0.4-1,0.7-1.6,0.6l-1,0l0,2.1c0,0.1,0,0.2-0.1,0.2c-0.1,0.1-0.1,0.1-0.2,0.1s-0.2,0-0.2-0.1s-0.1-0.1-0.1-0.2l0-6.2
						c0-0.1,0-0.2,0.1-0.2C23.2,120.9,23.3,120.8,23.4,120.8z M23.7,121.5l0,3.1l1,0c0.4,0,0.8-0.1,1.1-0.4c0.3-0.3,0.5-0.7,0.5-1.1
						s-0.1-0.8-0.4-1.1c-0.3-0.3-0.7-0.5-1.1-0.5L23.7,121.5z"/>
					<path class="st102" d="M28,120.8l4.1,0c0.1,0,0.2,0,0.2,0.1c0.1,0.1,0.1,0.1,0.1,0.2c0,0.1,0,0.2-0.1,0.2
						c-0.1,0.1-0.1,0.1-0.2,0.1l-3.8,0l0,2.4l2.7,0c0.1,0,0.2,0,0.2,0.1c0.1,0.1,0.1,0.1,0.1,0.2c0,0.1,0,0.2-0.1,0.2
						c-0.1,0.1-0.1,0.1-0.2,0.1l-2.7,0l0,2.4l3.8,0c0.1,0,0.2,0,0.2,0.1c0.1,0.1,0.1,0.1,0.1,0.2c0,0.1,0,0.2-0.1,0.2
						s-0.1,0.1-0.2,0.1l-4.1,0c-0.1,0-0.2,0-0.2-0.1s-0.1-0.1-0.1-0.2l0-6.2c0-0.1,0-0.2,0.1-0.2C27.8,120.9,27.9,120.8,28,120.8z"
						/>
					<path class="st102" d="M33.8,127.4c0,0.1,0,0.2-0.1,0.2c-0.1,0.1-0.1,0.1-0.2,0.1c-0.1,0-0.2,0-0.2-0.1s-0.1-0.1-0.1-0.2l0-6.2
						c0-0.1,0-0.2,0.1-0.2c0.1-0.1,0.1-0.1,0.2-0.1c0.1,0,0.2,0,0.3,0.1l4.2,5.4l0-5.2c0-0.1,0-0.2,0.1-0.2c0.1-0.1,0.1-0.1,0.2-0.1
						c0.1,0,0.2,0,0.2,0.1c0.1,0.1,0.1,0.1,0.1,0.2l0,6.2c0,0.1,0,0.2-0.1,0.2c-0.1,0.1-0.1,0.1-0.2,0.1c-0.1,0-0.2,0-0.3-0.1
						l-4.2-5.4L33.8,127.4z"/>
					<path class="st102" d="M41.9,121.2c0-0.1,0-0.2,0.1-0.2c0.1-0.1,0.1-0.1,0.2-0.1c0.1,0,0.2,0,0.2,0.1c0.1,0.1,0.1,0.1,0.1,0.2
						l0,2.7l3.4,0l0-2.7c0-0.1,0-0.2,0.1-0.2c0.1-0.1,0.1-0.1,0.2-0.1c0.1,0,0.2,0,0.2,0.1c0.1,0.1,0.1,0.1,0.1,0.2l0,6.2
						c0,0.1,0,0.2-0.1,0.2s-0.1,0.1-0.2,0.1c-0.1,0-0.2,0-0.2-0.1c-0.1-0.1-0.1-0.1-0.1-0.2l0-2.7l-3.4,0l0,2.7c0,0.1,0,0.2-0.1,0.2
						c-0.1,0.1-0.1,0.1-0.2,0.1c-0.1,0-0.2,0-0.2-0.1s-0.1-0.1-0.1-0.2L41.9,121.2z"/>
					<path class="st102" d="M52.7,126.4c0.1,0,0.2,0,0.2,0.1c0.1,0.1,0.1,0.1,0.1,0.2c0,0.1,0,0.2-0.1,0.2c-0.6,0.5-1.4,0.8-2.2,0.8
						c-0.9,0-1.8-0.3-2.4-1c-0.7-0.7-1-1.5-1-2.4c0-0.9,0.3-1.8,1-2.4c0.7-0.7,1.5-1,2.4-1c0.8,0,1.5,0.3,2.2,0.8
						c0.1,0.1,0.1,0.1,0.1,0.2c0,0.1,0,0.2-0.1,0.2c-0.1,0.1-0.1,0.1-0.2,0.1s-0.2,0-0.2-0.1c-0.5-0.4-1-0.6-1.7-0.6
						c-0.8,0-1.4,0.3-1.9,0.8s-0.8,1.2-0.8,1.9c0,0.8,0.3,1.4,0.8,1.9c0.5,0.5,1.2,0.8,1.9,0.8c0.7,0,1.2-0.2,1.7-0.6
						C52.6,126.4,52.6,126.4,52.7,126.4z"/>
					<path class="st102" d="M54.1,121.2c0-0.1,0-0.2,0.1-0.2c0.1-0.1,0.1-0.1,0.2-0.1c0.1,0,0.2,0,0.2,0.1c0.1,0.1,0.1,0.1,0.1,0.2
						l0,6.2c0,0.1,0,0.2-0.1,0.2s-0.1,0.1-0.2,0.1c-0.1,0-0.2,0-0.2-0.1c-0.1-0.1-0.1-0.1-0.1-0.2L54.1,121.2z"/>
				</g>
			</g>
		</g>
	</g>
</g>
</svg>
