<?xml version="1.0" encoding="utf-8"?>
<!-- Generator: Adobe Illustrator 19.1.0, SVG Export Plug-In . SVG Version: 6.00 Build 0)  -->
<svg version="1.1" id="圖層_1" xmlns="http://www.w3.org/2000/svg" xmlns:xlink="http://www.w3.org/1999/xlink" x="0px" y="0px"
	 viewBox="0 0 566.9 652" style="enable-background:new 0 0 566.9 652;" xml:space="preserve">
<style type="text/css">
	.st0{fill:none;stroke:#FFFFFF;stroke-width:1.6862;stroke-miterlimit:10;}
	.st1{fill:none;stroke:#FFFFFF;stroke-width:0.4037;stroke-miterlimit:10;}
	.st2{fill:#EC675A;}
	.st3{fill:#D9DADB;}
	.st4{fill:none;stroke:#FFFFFF;stroke-width:0.7777;stroke-miterlimit:10;}
	.st5{fill:none;stroke:#FFFFFF;stroke-width:0.4684;stroke-miterlimit:10;}
	.st6{fill:none;stroke:#FFFFFF;stroke-width:0.6417;stroke-miterlimit:10;}
	.st7{fill:none;stroke:#FFFFFF;stroke-width:0.4156;stroke-miterlimit:10;}
	.st8{fill:none;stroke:#000000;stroke-width:0.4635;stroke-miterlimit:10;}
	.st9{fill:none;stroke:#FFFFFF;stroke-width:0.2282;stroke-miterlimit:10;}
	.st10{fill:none;stroke:#FFFFFF;stroke-width:0.1744;stroke-miterlimit:10;}
	.st11{fill:none;stroke:#FFFFFF;stroke-width:0.3177;stroke-miterlimit:10;}
	.st12{fill:none;stroke:#FFFFFF;stroke-width:0.2973;stroke-miterlimit:10;}
	.st13{fill:none;stroke:#FFFFFF;stroke-width:0.2927;stroke-miterlimit:10;}
	.st14{fill:none;stroke:#FFFFFF;stroke-width:0.2364;stroke-miterlimit:10;}
	.st15{fill:none;stroke:#FFFFFF;stroke-width:0.1726;stroke-miterlimit:10;}
	.st16{fill:#FFFFFF;}
	.st17{fill:none;stroke:#FFFFFF;stroke-width:0.3177;stroke-miterlimit:10;stroke-dasharray:1.9062;}
	.st18{fill:none;stroke:#FFFFFF;stroke-width:0.7447;stroke-miterlimit:10;}
	.st19{fill:none;stroke:#FFFFFF;stroke-width:0.2687;stroke-miterlimit:10;}
	.st20{fill:none;stroke:#FFFFFF;stroke-width:0.2137;stroke-miterlimit:10;}
	.st21{fill:none;stroke:#FFFFFF;stroke-width:0.2882;stroke-miterlimit:10;}
	.st22{fill:none;stroke:#FFFFFF;stroke-width:0.1394;stroke-miterlimit:10;}
	.st23{fill:url(#SVGID_1_);stroke:#FFFFFF;stroke-width:0.1394;stroke-miterlimit:10;}
	.st24{fill:url(#SVGID_2_);stroke:#FFFFFF;stroke-width:0.1394;stroke-miterlimit:10;}
	.st25{fill:none;stroke:#FFFFFF;stroke-width:0.1383;stroke-miterlimit:10;}
	.st26{fill:#FFFFFF;stroke:#000000;stroke-width:0.2882;stroke-miterlimit:10;}
	.st27{fill:none;stroke:#040000;stroke-width:0.7447;stroke-miterlimit:10;}
	.st28{fill:none;stroke:#FFFFFF;stroke-width:0.3889;stroke-miterlimit:10;}
	.st29{fill:#2A4399;}
	.st30{fill:none;stroke:#FFFFFF;stroke-width:0.5661;stroke-miterlimit:10;}
	.st31{fill:none;stroke:#EC675A;stroke-width:0.3889;stroke-miterlimit:10;}
	.st32{fill:none;stroke:#FFFFFF;stroke-width:0.7777;stroke-miterlimit:10;stroke-dasharray:2.3332;}
	.st33{clip-path:url(#SVGID_4_);fill:none;stroke:#FFFFFF;stroke-width:0.789;stroke-miterlimit:10;}
	.st34{fill:none;stroke:#EC675A;stroke-width:0.7777;stroke-miterlimit:10;}
	.st35{fill:none;stroke:#000000;stroke-width:0.7447;stroke-miterlimit:10;}
	.st36{fill:none;stroke:#FFFFFF;stroke-miterlimit:10;}
	.st37{fill:none;stroke:#FFFFFF;stroke-width:0.2742;stroke-miterlimit:10;}
	.st38{fill:none;stroke:#FFFFFF;stroke-width:0.4059;stroke-miterlimit:10;}
	.st39{fill:none;stroke:#FFFFFF;stroke-width:0.5355;stroke-miterlimit:10;}
	.st40{fill:#FFFFFF;stroke:#FFFFFF;stroke-width:0.7777;stroke-miterlimit:10;}
	.st41{fill:none;stroke:#E83518;stroke-width:0.789;stroke-miterlimit:10;}
	.st42{clip-path:url(#SVGID_6_);fill:none;stroke:#FFFFFF;stroke-width:0.7777;stroke-miterlimit:10;}
	.st43{fill:none;stroke:#FFFFFF;stroke-width:0.6061;stroke-miterlimit:10;}
	.st44{fill:none;stroke:#FFFFFF;stroke-width:0.3504;stroke-miterlimit:10;}
	.st45{clip-path:url(#SVGID_8_);fill:none;stroke:#FFFFFF;stroke-width:0.7684;stroke-miterlimit:10;}
	.st46{clip-path:url(#SVGID_12_);fill:#EC675A;}
	.st47{fill:none;stroke:#FFFFFF;stroke-width:0.6749;stroke-miterlimit:10;}
	.st48{fill:#D95F58;}
	.st49{clip-path:url(#XMLID_45_);}
	.st50{fill:#8CAAB2;}
	.st51{opacity:0.4;fill:#A5C7D0;}
	.st52{fill:#63426A;}
	.st53{opacity:0.4;fill:#E6C1DB;}
	.st54{opacity:0.88;fill:#BCE2EC;}
	.st55{opacity:0.76;fill:#DCECF2;}
	.st56{opacity:0.85;fill:#8CAAB2;}
	.st57{fill:#E6C1DB;}
	.st58{opacity:0.64;fill:#FFFFFF;}
	.st59{fill:#FFFFFF;stroke:#000000;stroke-width:0.6621;stroke-linejoin:round;stroke-miterlimit:10;}
	.st60{fill:#A5C7D0;}
	.st61{fill:#C99DC7;}
	.st62{opacity:0.47;fill:#FFFFFF;stroke:#FFFFFF;stroke-width:0.1944;stroke-miterlimit:10;}
	.st63{fill:none;stroke:#FFFFFF;stroke-width:0.2298;stroke-miterlimit:10;}
	.st64{fill:none;stroke:#FFFFFF;stroke-width:0.3996;stroke-miterlimit:10;}
	.st65{fill:none;stroke:#FFFFFF;stroke-width:0.3996;stroke-miterlimit:10;stroke-dasharray:1.2383,1.2383;}
	.st66{fill:none;stroke:#FFFFFF;stroke-width:0.3996;stroke-miterlimit:10;stroke-dasharray:1.2235,1.2235;}
	.st67{fill:none;stroke:#FFFFFF;stroke-width:0.7795;stroke-miterlimit:10;}
	.st68{fill:none;stroke:#FFFFFF;stroke-width:0.6043;stroke-miterlimit:10;}
	.st69{fill:#FFFFFF;stroke:#FFFFFF;stroke-width:0.6891;stroke-miterlimit:10;}
	.st70{fill:none;stroke:#FFFFFF;stroke-width:0.7734;stroke-miterlimit:10;}
	.st71{fill:none;stroke:#FFFFFF;stroke-width:0.4167;stroke-miterlimit:10;}
	.st72{fill:#FFFFFF;stroke:#000000;stroke-width:0.5507;stroke-miterlimit:10;}
	.st73{clip-path:url(#SVGID_16_);fill:none;stroke:#2A4399;stroke-width:0.7777;stroke-miterlimit:10;}
	.st74{fill:none;stroke:#FFFFFF;stroke-width:1.1929;stroke-miterlimit:10;}
	.st75{fill:none;stroke:#FFFFFF;stroke-width:1.5905;stroke-miterlimit:10;}
	.st76{fill:none;stroke:#FFFFFF;stroke-width:0.7952;stroke-miterlimit:10;}
	.st77{fill:#FFFFFF;stroke:#FFFFFF;stroke-width:1.1929;stroke-miterlimit:10;}
	.st78{fill:#D95F58;stroke:#FFFFFF;stroke-width:0.7777;stroke-miterlimit:10;}
	.st79{clip-path:url(#SVGID_18_);fill:#FFFFFF;stroke:#FFFFFF;stroke-width:0.7777;stroke-miterlimit:10;}
	.st80{clip-path:url(#SVGID_18_);fill:none;stroke:#FFFFFF;stroke-width:0.7777;stroke-miterlimit:10;}
	.st81{fill:none;stroke:#FFFFFF;stroke-width:0.4881;stroke-miterlimit:10;}
	.st82{fill:#FFFFFF;stroke:#000000;stroke-width:0.642;stroke-miterlimit:10;}
	.st83{fill:#FFFFFF;stroke:#000000;stroke-width:1.7326;stroke-linejoin:round;stroke-miterlimit:10;}
	.st84{fill:#D7D8D8;}
	.st85{fill-rule:evenodd;clip-rule:evenodd;fill:#EC675A;}
	.st86{fill-rule:evenodd;clip-rule:evenodd;fill:#FFFFFF;}
	.st87{fill-rule:evenodd;clip-rule:evenodd;fill:#C9CACA;}
	.st88{fill-rule:evenodd;clip-rule:evenodd;fill:#E0E1E1;}
	.st89{fill-rule:evenodd;clip-rule:evenodd;fill:#D9DADB;}
	.st90{fill:#835412;}
	.st91{fill:#B5B5B6;}
	.st92{fill:#FFFFFF;stroke:#EC675A;stroke-width:0.7777;stroke-miterlimit:10;}
	.st93{fill:none;stroke:#B5B5B6;stroke-width:0.7777;stroke-miterlimit:10;}
	.st94{fill:none;stroke:#FFFFFF;stroke-width:0.7008;stroke-miterlimit:10;}
	.st95{fill:none;stroke:#FFFFFF;stroke-width:0.7323;stroke-miterlimit:10;}
	.st96{fill:none;stroke:#FFFFFF;stroke-width:0.7134;stroke-miterlimit:10;}
	.st97{fill:none;stroke:#EC675A;stroke-width:0.8779;stroke-miterlimit:10;}
	.st98{fill:none;stroke:#EC675A;stroke-width:0.8408;stroke-miterlimit:10;}
	.st99{fill:none;stroke:#FFFFFF;stroke-width:0.5;stroke-miterlimit:10;}
	.st100{fill:none;stroke:#FFFFFF;stroke-width:1.0322;stroke-miterlimit:10;}
	.st101{fill:none;stroke:#FFFFFF;stroke-width:0.9143;stroke-miterlimit:10;}
	.st102{fill:#2A4399;stroke:#2A4399;stroke-width:0.25;stroke-miterlimit:10;}
	.st103{fill:none;stroke:#FFFFFF;stroke-width:0.6142;stroke-miterlimit:10;}
	.st104{fill:none;stroke:#040000;stroke-width:0.6142;stroke-miterlimit:10;}
	.st105{fill:none;stroke:#FFFFFF;stroke-width:0.3207;stroke-miterlimit:10;}
	.st106{fill:none;stroke:#FFFFFF;stroke-width:0.4669;stroke-miterlimit:10;}
	.st107{fill:none;stroke:#FFFFFF;stroke-width:0.6414;stroke-miterlimit:10;}
	.st108{clip-path:url(#SVGID_20_);fill:none;stroke:#FFFFFF;stroke-width:0.6507;stroke-miterlimit:10;}
	.st109{fill:none;stroke:#2A4399;stroke-width:0.5121;stroke-miterlimit:10;}
	.st110{fill:none;stroke:#E83518;stroke-width:0.6507;stroke-miterlimit:10;}
	.st111{clip-path:url(#SVGID_22_);fill:none;stroke:#FFFFFF;stroke-width:0.6414;stroke-miterlimit:10;}
	.st112{fill:none;stroke:#FFFFFF;stroke-width:0.4999;stroke-miterlimit:10;}
	.st113{fill:none;stroke:#FFFFFF;stroke-width:0.2889;stroke-miterlimit:10;}
	.st114{clip-path:url(#SVGID_24_);fill:none;stroke:#FFFFFF;stroke-width:0.6337;stroke-miterlimit:10;}
	.st115{clip-path:url(#SVGID_28_);fill:#2A4399;}
	.st116{fill:none;stroke:#FFFFFF;stroke-width:0.5566;stroke-miterlimit:10;}
	.st117{fill:#FFFFFF;stroke:#000000;stroke-width:0.546;stroke-linejoin:round;stroke-miterlimit:10;}
	.st118{fill:none;stroke:#FFFFFF;stroke-width:0.3295;stroke-miterlimit:10;}
	.st119{fill:none;stroke:#FFFFFF;stroke-width:0.3295;stroke-miterlimit:10;stroke-dasharray:1.0212,1.0212;}
	.st120{fill:none;stroke:#FFFFFF;stroke-width:0.3295;stroke-miterlimit:10;stroke-dasharray:1.009,1.009;}
	.st121{fill:none;stroke:#FFFFFF;stroke-width:0.4984;stroke-miterlimit:10;}
	.st122{fill:#FFFFFF;stroke:#FFFFFF;stroke-width:0.5683;stroke-miterlimit:10;}
	.st123{fill:none;stroke:#2A4399;stroke-width:0.6414;stroke-miterlimit:10;}
	.st124{fill:none;stroke:#FFFFFF;stroke-width:0.6026;stroke-miterlimit:10;}
	.st125{fill:none;stroke:#040000;stroke-width:0.6026;stroke-miterlimit:10;}
	.st126{fill:none;stroke:#FFFFFF;stroke-width:0.6293;stroke-miterlimit:10;}
	.st127{fill:none;stroke:#FFFFFF;stroke-width:0.6258;stroke-miterlimit:10;}
	.st128{fill:none;stroke:#FFFFFF;stroke-width:0.3371;stroke-miterlimit:10;}
	.st129{fill:#FFFFFF;stroke:#000000;stroke-width:0.4456;stroke-miterlimit:10;}
	.st130{fill:none;stroke:#B5B5B6;stroke-width:0.6293;stroke-miterlimit:10;}
	.st131{fill:none;stroke:#FFFFFF;stroke-width:0.7085;stroke-miterlimit:10;stroke-dasharray:2.1255;}
	.st132{fill:none;stroke:#2A4399;stroke-width:0.911;stroke-miterlimit:10;}
	.st133{fill:none;stroke:#FFFFFF;stroke-width:0.911;stroke-miterlimit:10;}
	.st134{fill:none;stroke:#2A4399;stroke-width:0.6488;stroke-miterlimit:10;}
	.st135{fill:none;stroke:#FFFFFF;stroke-width:0.3905;stroke-miterlimit:10;}
	.st136{fill:none;stroke:#FFFFFF;stroke-width:0.4063;stroke-miterlimit:10;}
	.st137{fill:#EC675A;stroke:#EC675A;stroke-width:0.75;stroke-miterlimit:10;}
	.st138{fill:none;stroke:#EC675A;stroke-width:0.5;stroke-miterlimit:10;}
</style>
<g>
	<polygon class="st29" points="105.2,85.5 78.5,102.4 77.8,257.3 100.1,245.1 103.9,243 	"/>
	<polygon class="st3" points="183.3,291.1 157.2,301.5 77.8,257.3 103.9,243 	"/>
	<polyline class="st103" points="236.3,172.1 360.2,103.8 358.9,180.5 389.7,215.2 448.7,185.8 448.7,252.1 469.8,243.3 
		479.9,238.9 478.6,275.5 378.4,314.6 	"/>
	<path class="st103" d="M448.7,252.1l-71.2,32l1,30.4l19.5,18.2l72.9-28.6l1.3,69l-118.4,37.7l-1.3-102.8l-24.7-13l3.9,165.2
		L315,466c0,0-64.5-23.1-132.8,3.8l1.5,69.5l-18.2-5.2l-0.4-182.7l56.8,34"/>
	<path class="st103" d="M219.7,244.3l2.2,72.9L219.7,244.3z"/>
	<polyline class="st103" points="327.7,295.1 318.4,298.5 275.6,314.6 275.6,217 316,252.1 318.4,298.5 	"/>
	<path class="st103" d="M73.7,224.8c3.5-2.2-1.4-0.1,3.5-1.9l0.3-26.6c0,0-0.3,0.4-3.5,2.1"/>
	<path class="st103" d="M222.3,317.2c0,0-126.9,9.4-171.1-49.2"/>
	<path class="st103" d="M358.9,180.5l-56,28.6l-1.3-15.6c0,0-75.5-47.5-178.7-7.4l-0.9,22.2l19.6,10.3"/>
	<path class="st103" d="M327.4,245.9c-26.4-35.4-69.9-50.6-112.5-53.6c-31.2-2.2-64.8,1-92.7,16.1"/>
	<polyline class="st103" points="470.8,304.2 525.5,366.6 528.1,427.8 430,453.4 528.1,427.8 472.1,373.1 	"/>
	<polyline class="st103" points="448.7,185.8 504.7,257.3 504.7,275.5 	"/>
	<line class="st104" x1="353.7" y1="410.9" x2="396.6" y2="442.4"/>
	<line class="st103" x1="360.2" y1="103.8" x2="434.3" y2="194.9"/>
	<line class="st103" x1="275.6" y1="217" x2="219.7" y2="244.3"/>
	<path class="st103" d="M303,209.2c0,0,26.3,20.7,32.7,31"/>
	<g>
		<path class="st105" d="M241.4,247.2l2.9,0.7l-0.2-0.1c0.2,0,0.3,0.2,0.4,0.5l2.2,41.9c0.1,1.2-1.7,4.4-3.8,7.1l-5.3,6.5
			c-1.6,2-3.1,3.2-3.7,3.1l0,0l-3.1-0.7"/>
		<path class="st105" d="M241.5,247.6l2.2,41.9c0.1,1.2-1.7,4.4-3.8,7.1l-5.3,6.5c-2.2,2.7-4,3.9-4.1,2.7l-2.2-41.9
			c-0.1-1.2,1.7-4.4,3.8-7.1l5.3-6.5C239.6,247.5,241.4,246.3,241.5,247.6z"/>
		<line class="st105" x1="243.6" y1="290.3" x2="246.6" y2="291"/>
		<path class="st105" d="M239.5,252.4l1.6,30c0,0.9-1.2,3.2-2.7,5.1l-3.8,4.7c-1.6,1.9-2.9,2.8-2.9,1.9l-1.6-30
			c0-0.9,1.2-3.2,2.7-5.1l3.8-4.7C238.1,252.4,239.4,251.5,239.5,252.4z"/>
		<g>
			
				<ellipse transform="matrix(0.2067 -0.9784 0.9784 0.2067 -100.1261 465.158)" class="st105" cx="236.8" cy="294.3" rx="2.8" ry="1.6"/>
			
				<ellipse transform="matrix(0.2067 -0.9784 0.9784 0.2067 -100.0869 465.1257)" class="st105" cx="236.8" cy="294.3" rx="2" ry="1.2"/>
		</g>
	</g>
	<path class="st107" d="M377.5,78c-0.5,0.1,16.8-6.2,16.8-6.2l-2.1,12.5l-16.7,5.8L377.5,78z"/>
	<polyline class="st107" points="375.5,90.1 382.6,99 385.5,98.1 396.9,94.7 	"/>
	<polygon class="st107" points="385.6,105.8 392.5,115.7 409,111.9 403.9,101.1 	"/>
	<polyline class="st107" points="409,111.9 410.8,94.7 404.5,82.6 403.9,101.1 	"/>
	<path class="st107" d="M385.6,105.8V94.4l2.4-1.2l0.5,1.3c-0.5,2.9,1.9,5.1,1.9,5.1c5,1.6,6.1-3.7,6.1-3.7l0.5-11.3l7.5-2.1"/>
	<line class="st107" x1="392.2" y1="84.3" x2="396.9" y2="90.2"/>
	<polyline class="st107" points="394.3,71.8 399.9,81.3 399.1,83.6 	"/>
	<polygon class="st3" points="252.8,108.4 267.2,91.8 280.1,101.5 268.6,117.5 	"/>
	<polyline class="st103" points="252.8,108.4 252.2,90.9 267.2,72.7 267.2,91.8 	"/>
	<path class="st103" d="M267.2,72.7l6.4,4.5l-0.3,6.4c0,0,8.5,4.8,7.6,4.8s-0.9,13-0.9,13"/>
	<polygon class="st29" points="332.1,63.9 342.4,56.5 351.7,60.8 343.5,67.9 	"/>
	<polyline class="st106" points="332.1,63.9 331.7,56.1 342.4,48 342.4,56.5 	"/>
	<path class="st106" d="M342.4,48l4.6,1.9l-0.2,2.6c0,0,6.1,2,5.5,2c-0.6,0-0.6,5.4-0.6,5.4"/>
	<g>
		<polygon class="st29" points="221,69.8 238.5,73.8 239.1,112.8 222.2,110.4 		"/>
		<polyline class="st103" points="221,69.8 203.4,93.1 204.6,112.5 		"/>
		<polyline class="st103" points="239.1,112.8 221.3,129.8 211,128.3 		"/>
		<polygon class="st103" points="213.1,101.6 213.1,118.9 217.6,120.4 218.3,102.8 		"/>
		<polyline class="st103" points="213.1,101.6 200.1,120.7 200.7,133.7 213.1,118.9 		"/>
		<polyline class="st103" points="200.7,133.7 206.1,134.3 217.6,120.4 		"/>
	</g>
	<g>
		<path class="st16" d="M154.9,357.1l1,0c0.4,0,0.7-0.3,0.7-0.8l-2.1-79.8c0-0.4-0.3-0.7-0.8-0.7l-1,0c-0.4,0-0.7,0.3-0.7,0.8
			l2.1,79.8C154.2,356.8,154.5,357.2,154.9,357.1z"/>
		<path class="st16" d="M152.7,285.2l-10.9,5.2c-0.2,0.1-0.3,0.4-0.2,0.6l0.3,0.6c0.1,0.2,0.4,0.3,0.6,0.2l10.9-5.2
			c0.2-0.1,0.3-0.4,0.2-0.6l-0.3-0.6C153.2,285.2,152.9,285.1,152.7,285.2z"/>
		<path class="st16" d="M152.8,290.6l-10.9,5.2c-0.2,0.1-0.3,0.4-0.2,0.6l0.3,0.6c0.1,0.2,0.4,0.3,0.6,0.2l10.9-5.2
			c0.2-0.1,0.3-0.4,0.2-0.6l-0.3-0.6C153.4,290.6,153.1,290.5,152.8,290.6z"/>
		<path class="st16" d="M153,295.9l-10.9,5.2c-0.2,0.1-0.3,0.4-0.2,0.6l0.3,0.6c0.1,0.2,0.4,0.3,0.6,0.2l10.9-5.2
			c0.2-0.1,0.3-0.4,0.2-0.6l-0.3-0.6C153.5,295.9,153.2,295.8,153,295.9z"/>
		<path class="st16" d="M153.1,301.3l-10.9,5.2c-0.2,0.1-0.3,0.4-0.2,0.6l0.3,0.6c0.1,0.2,0.4,0.3,0.6,0.2l10.9-5.2
			c0.2-0.1,0.3-0.4,0.2-0.6l-0.3-0.6C153.6,301.3,153.3,301.2,153.1,301.3z"/>
		<path class="st16" d="M153.2,306.6l-10.9,5.2c-0.2,0.1-0.3,0.4-0.2,0.6l0.3,0.6c0.1,0.2,0.4,0.3,0.6,0.2l10.9-5.2
			c0.2-0.1,0.3-0.4,0.2-0.6l-0.3-0.6C153.8,306.6,153.5,306.5,153.2,306.6z"/>
		<path class="st16" d="M153.4,312l-10.9,5.2c-0.2,0.1-0.3,0.4-0.2,0.6l0.3,0.6c0.1,0.2,0.4,0.3,0.6,0.2l10.9-5.2
			c0.2-0.1,0.3-0.4,0.2-0.6l-0.3-0.6C153.9,312,153.6,311.9,153.4,312z"/>
		<path class="st16" d="M153.5,317.3l-10.9,5.2c-0.2,0.1-0.3,0.4-0.2,0.6l0.3,0.6c0.1,0.2,0.4,0.3,0.6,0.2l10.9-5.2
			c0.2-0.1,0.3-0.4,0.2-0.6l-0.3-0.6C154.1,317.3,153.8,317.2,153.5,317.3z"/>
		<path class="st16" d="M153.7,322.7l-10.9,5.2c-0.2,0.1-0.3,0.4-0.2,0.6l0.3,0.6c0.1,0.2,0.4,0.3,0.6,0.2l10.9-5.2
			c0.2-0.1,0.3-0.4,0.2-0.6l-0.3-0.6C154.2,322.7,153.9,322.6,153.7,322.7z"/>
		<path class="st16" d="M153.8,328l-10.9,5.2c-0.2,0.1-0.3,0.4-0.2,0.6l0.3,0.6c0.1,0.2,0.4,0.3,0.6,0.2l10.9-5.2
			c0.2-0.1,0.3-0.4,0.2-0.6l-0.3-0.6C154.4,328,154.1,327.9,153.8,328z"/>
		<path class="st16" d="M154,333.4l-10.9,5.2c-0.2,0.1-0.3,0.4-0.2,0.6l0.3,0.6c0.1,0.2,0.4,0.3,0.6,0.2l10.9-5.2
			c0.2-0.1,0.3-0.4,0.2-0.6l-0.3-0.6C154.5,333.4,154.2,333.3,154,333.4z"/>
		<path class="st16" d="M154.1,338.7l-10.9,5.2c-0.2,0.1-0.3,0.4-0.2,0.6l0.3,0.6c0.1,0.2,0.4,0.3,0.6,0.2l10.9-5.2
			c0.2-0.1,0.3-0.4,0.2-0.6l-0.3-0.6C154.6,338.7,154.3,338.6,154.1,338.7z"/>
		<path class="st16" d="M154.3,344.1l-10.9,5.2c-0.2,0.1-0.3,0.4-0.2,0.6l0.3,0.6c0.1,0.2,0.4,0.3,0.6,0.2l10.9-5.2
			c0.2-0.1,0.3-0.4,0.2-0.6l-0.3-0.6C154.8,344.1,154.5,344,154.3,344.1z"/>
		<path class="st16" d="M142.8,363l1,0c0.4,0,0.7-0.3,0.7-0.8l-2.1-79.8c0-0.4-0.3-0.7-0.8-0.7l-1,0c-0.4,0-0.7,0.3-0.7,0.8
			l2.1,79.8C142.1,362.7,142.4,363,142.8,363z"/>
	</g>
	<g>
		<path class="st16" d="M348.7,235l1,0c0.4,0,0.7-0.3,0.7-0.8l-2.1-79.8c0-0.4-0.3-0.7-0.8-0.7l-1,0c-0.4,0-0.7,0.3-0.7,0.8
			l2.1,79.8C348,234.6,348.3,235,348.7,235z"/>
		<path class="st16" d="M346.5,163l-10.9,5.2c-0.2,0.1-0.3,0.4-0.2,0.6l0.3,0.6c0.1,0.2,0.4,0.3,0.6,0.2l10.9-5.2
			c0.2-0.1,0.3-0.4,0.2-0.6l-0.3-0.6C347,163,346.7,162.9,346.5,163z"/>
		<path class="st16" d="M346.6,168.4l-10.9,5.2c-0.2,0.1-0.3,0.4-0.2,0.6l0.3,0.6c0.1,0.2,0.4,0.3,0.6,0.2l10.9-5.2
			c0.2-0.1,0.3-0.4,0.2-0.6l-0.3-0.6C347.2,168.4,346.9,168.3,346.6,168.4z"/>
		<path class="st16" d="M346.8,173.7l-10.9,5.2c-0.2,0.1-0.3,0.4-0.2,0.6l0.3,0.6c0.1,0.2,0.4,0.3,0.6,0.2l10.9-5.2
			c0.2-0.1,0.3-0.4,0.2-0.6l-0.3-0.6C347.3,173.7,347,173.6,346.8,173.7z"/>
		<path class="st16" d="M346.9,179.1l-10.9,5.2c-0.2,0.1-0.3,0.4-0.2,0.6l0.3,0.6c0.1,0.2,0.4,0.3,0.6,0.2l10.9-5.2
			c0.2-0.1,0.3-0.4,0.2-0.6l-0.3-0.6C347.4,179.1,347.2,179,346.9,179.1z"/>
		<path class="st16" d="M347.1,184.4l-10.9,5.2c-0.2,0.1-0.3,0.4-0.2,0.6l0.3,0.6c0.1,0.2,0.4,0.3,0.6,0.2l10.9-5.2
			c0.2-0.1,0.3-0.4,0.2-0.6l-0.3-0.6C347.6,184.4,347.3,184.3,347.1,184.4z"/>
		<path class="st16" d="M347.2,189.8l-10.9,5.2c-0.2,0.1-0.3,0.4-0.2,0.6l0.3,0.6c0.1,0.2,0.4,0.3,0.6,0.2l10.9-5.2
			c0.2-0.1,0.3-0.4,0.2-0.6l-0.3-0.6C347.7,189.8,347.4,189.7,347.2,189.8z"/>
		<path class="st16" d="M347.3,195.1l-10.9,5.2c-0.2,0.1-0.3,0.4-0.2,0.6l0.3,0.6c0.1,0.2,0.4,0.3,0.6,0.2l10.9-5.2
			c0.2-0.1,0.3-0.4,0.2-0.6l-0.3-0.6C347.9,195.1,347.6,195,347.3,195.1z"/>
		<path class="st16" d="M347.5,200.5l-10.9,5.2c-0.2,0.1-0.3,0.4-0.2,0.6l0.3,0.6c0.1,0.2,0.4,0.3,0.6,0.2l10.9-5.2
			c0.2-0.1,0.3-0.4,0.2-0.6l-0.3-0.6C348,200.5,347.7,200.4,347.5,200.5z"/>
		<path class="st16" d="M347.6,205.8l-10.9,5.2c-0.2,0.1-0.3,0.4-0.2,0.6l0.3,0.6c0.1,0.2,0.4,0.3,0.6,0.2l10.9-5.2
			c0.2-0.1,0.3-0.4,0.2-0.6l-0.3-0.6C348.2,205.8,347.9,205.7,347.6,205.8z"/>
		<path class="st16" d="M347.8,211.2l-10.9,5.2c-0.2,0.1-0.3,0.4-0.2,0.6l0.3,0.6c0.1,0.2,0.4,0.3,0.6,0.2l10.9-5.2
			c0.2-0.1,0.3-0.4,0.2-0.6l-0.3-0.6C348.3,211.2,348,211.1,347.8,211.2z"/>
		<path class="st16" d="M347.9,216.5l-10.9,5.2c-0.2,0.1-0.3,0.4-0.2,0.6l0.3,0.6c0.1,0.2,0.4,0.3,0.6,0.2l10.9-5.2
			c0.2-0.1,0.3-0.4,0.2-0.6l-0.3-0.6C348.4,216.5,348.2,216.4,347.9,216.5z"/>
		<path class="st16" d="M348.1,221.9l-10.9,5.2c-0.2,0.1-0.3,0.4-0.2,0.6l0.3,0.6c0.1,0.2,0.4,0.3,0.6,0.2l10.9-5.2
			c0.2-0.1,0.3-0.4,0.2-0.6l-0.3-0.6C348.6,221.9,348.3,221.8,348.1,221.9z"/>
		<path class="st16" d="M336.6,240.8l1,0c0.4,0,0.7-0.3,0.7-0.8l-2.1-79.8c0-0.4-0.3-0.7-0.8-0.7l-1,0c-0.4,0-0.7,0.3-0.7,0.8
			l2.1,79.8C335.9,240.5,336.2,240.8,336.6,240.8z"/>
	</g>
	<polygon class="st3" points="378.1,315.3 398.6,332 473,306.4 518.9,359.1 535.9,351.4 478.6,276 	"/>
	<g>
		<defs>
			<polygon id="SVGID_19_" points="448.3,252.1 448.7,185.7 316,252.1 318.4,298.5 327.7,295.1 352.4,308.1 353.7,410.9 
				471.7,373.1 471,307.6 398,332.8 378.4,314.6 377.5,284.2 			"/>
		</defs>
		<clipPath id="SVGID_1_">
			<use xlink:href="#SVGID_19_"  style="overflow:visible;"/>
		</clipPath>
		
			<line style="clip-path:url(#SVGID_1_);fill:none;stroke:#FFFFFF;stroke-width:0.6507;stroke-miterlimit:10;" x1="370.6" y1="162.9" x2="220.5" y2="432.3"/>
		
			<line style="clip-path:url(#SVGID_1_);fill:none;stroke:#FFFFFF;stroke-width:0.6507;stroke-miterlimit:10;" x1="377" y1="162.9" x2="226.9" y2="432.3"/>
		
			<line style="clip-path:url(#SVGID_1_);fill:none;stroke:#FFFFFF;stroke-width:0.6507;stroke-miterlimit:10;" x1="383.4" y1="162.9" x2="233.3" y2="432.3"/>
		
			<line style="clip-path:url(#SVGID_1_);fill:none;stroke:#FFFFFF;stroke-width:0.6507;stroke-miterlimit:10;" x1="389.8" y1="162.9" x2="239.7" y2="432.3"/>
		
			<line style="clip-path:url(#SVGID_1_);fill:none;stroke:#FFFFFF;stroke-width:0.6507;stroke-miterlimit:10;" x1="396.2" y1="162.9" x2="246.1" y2="432.3"/>
		
			<line style="clip-path:url(#SVGID_1_);fill:none;stroke:#FFFFFF;stroke-width:0.6507;stroke-miterlimit:10;" x1="402.6" y1="162.9" x2="252.5" y2="432.3"/>
		
			<line style="clip-path:url(#SVGID_1_);fill:none;stroke:#FFFFFF;stroke-width:0.6507;stroke-miterlimit:10;" x1="409" y1="162.9" x2="259" y2="432.3"/>
		
			<line style="clip-path:url(#SVGID_1_);fill:none;stroke:#FFFFFF;stroke-width:0.6507;stroke-miterlimit:10;" x1="415.5" y1="162.9" x2="265.4" y2="432.3"/>
		
			<line style="clip-path:url(#SVGID_1_);fill:none;stroke:#FFFFFF;stroke-width:0.6507;stroke-miterlimit:10;" x1="421.9" y1="162.9" x2="271.8" y2="432.3"/>
		
			<line style="clip-path:url(#SVGID_1_);fill:none;stroke:#FFFFFF;stroke-width:0.6507;stroke-miterlimit:10;" x1="428.3" y1="162.9" x2="278.2" y2="432.3"/>
		
			<line style="clip-path:url(#SVGID_1_);fill:none;stroke:#FFFFFF;stroke-width:0.6507;stroke-miterlimit:10;" x1="434.7" y1="162.9" x2="284.6" y2="432.3"/>
		
			<line style="clip-path:url(#SVGID_1_);fill:none;stroke:#FFFFFF;stroke-width:0.6507;stroke-miterlimit:10;" x1="441.1" y1="162.9" x2="291" y2="432.3"/>
		
			<line style="clip-path:url(#SVGID_1_);fill:none;stroke:#FFFFFF;stroke-width:0.6507;stroke-miterlimit:10;" x1="447.5" y1="162.9" x2="297.4" y2="432.3"/>
		
			<line style="clip-path:url(#SVGID_1_);fill:none;stroke:#FFFFFF;stroke-width:0.6507;stroke-miterlimit:10;" x1="453.9" y1="162.9" x2="303.9" y2="432.3"/>
		
			<line style="clip-path:url(#SVGID_1_);fill:none;stroke:#FFFFFF;stroke-width:0.6507;stroke-miterlimit:10;" x1="460.4" y1="162.9" x2="310.3" y2="432.3"/>
		
			<line style="clip-path:url(#SVGID_1_);fill:none;stroke:#FFFFFF;stroke-width:0.6507;stroke-miterlimit:10;" x1="466.8" y1="162.9" x2="316.7" y2="432.3"/>
		
			<line style="clip-path:url(#SVGID_1_);fill:none;stroke:#FFFFFF;stroke-width:0.6507;stroke-miterlimit:10;" x1="473.2" y1="162.9" x2="323.1" y2="432.3"/>
		
			<line style="clip-path:url(#SVGID_1_);fill:none;stroke:#FFFFFF;stroke-width:0.6507;stroke-miterlimit:10;" x1="479.6" y1="162.9" x2="329.5" y2="432.3"/>
		
			<line style="clip-path:url(#SVGID_1_);fill:none;stroke:#FFFFFF;stroke-width:0.6507;stroke-miterlimit:10;" x1="486" y1="162.9" x2="335.9" y2="432.3"/>
		
			<line style="clip-path:url(#SVGID_1_);fill:none;stroke:#FFFFFF;stroke-width:0.6507;stroke-miterlimit:10;" x1="492.4" y1="162.9" x2="342.3" y2="432.3"/>
		
			<line style="clip-path:url(#SVGID_1_);fill:none;stroke:#FFFFFF;stroke-width:0.6507;stroke-miterlimit:10;" x1="498.8" y1="162.9" x2="348.8" y2="432.3"/>
		
			<line style="clip-path:url(#SVGID_1_);fill:none;stroke:#FFFFFF;stroke-width:0.6507;stroke-miterlimit:10;" x1="505.2" y1="162.9" x2="355.2" y2="432.3"/>
		
			<line style="clip-path:url(#SVGID_1_);fill:none;stroke:#FFFFFF;stroke-width:0.6507;stroke-miterlimit:10;" x1="511.7" y1="162.9" x2="361.6" y2="432.3"/>
		
			<line style="clip-path:url(#SVGID_1_);fill:none;stroke:#FFFFFF;stroke-width:0.6507;stroke-miterlimit:10;" x1="518.7" y1="161.9" x2="368.6" y2="431.3"/>
		
			<line style="clip-path:url(#SVGID_1_);fill:none;stroke:#FFFFFF;stroke-width:0.6507;stroke-miterlimit:10;" x1="524.5" y1="162.9" x2="374.4" y2="432.3"/>
		
			<line style="clip-path:url(#SVGID_1_);fill:none;stroke:#FFFFFF;stroke-width:0.6507;stroke-miterlimit:10;" x1="530.9" y1="162.9" x2="380.8" y2="432.3"/>
		
			<line style="clip-path:url(#SVGID_1_);fill:none;stroke:#FFFFFF;stroke-width:0.6507;stroke-miterlimit:10;" x1="537.3" y1="162.9" x2="387.2" y2="432.3"/>
		
			<line style="clip-path:url(#SVGID_1_);fill:none;stroke:#FFFFFF;stroke-width:0.6507;stroke-miterlimit:10;" x1="543.7" y1="162.9" x2="393.6" y2="432.3"/>
		
			<line style="clip-path:url(#SVGID_1_);fill:none;stroke:#FFFFFF;stroke-width:0.6507;stroke-miterlimit:10;" x1="550.1" y1="162.9" x2="400.1" y2="432.3"/>
		
			<line style="clip-path:url(#SVGID_1_);fill:none;stroke:#FFFFFF;stroke-width:0.6507;stroke-miterlimit:10;" x1="556.6" y1="162.9" x2="406.5" y2="432.3"/>
		
			<line style="clip-path:url(#SVGID_1_);fill:none;stroke:#FFFFFF;stroke-width:0.6507;stroke-miterlimit:10;" x1="563" y1="162.9" x2="412.9" y2="432.3"/>
		
			<line style="clip-path:url(#SVGID_1_);fill:none;stroke:#FFFFFF;stroke-width:0.6507;stroke-miterlimit:10;" x1="570.3" y1="161.3" x2="420.3" y2="430.7"/>
		
			<line style="clip-path:url(#SVGID_1_);fill:none;stroke:#FFFFFF;stroke-width:0.6507;stroke-miterlimit:10;" x1="575.8" y1="162.9" x2="425.7" y2="432.3"/>
		
			<line style="clip-path:url(#SVGID_1_);fill:none;stroke:#FFFFFF;stroke-width:0.6507;stroke-miterlimit:10;" x1="582.2" y1="162.9" x2="432.1" y2="432.3"/>
		
			<line style="clip-path:url(#SVGID_1_);fill:none;stroke:#FFFFFF;stroke-width:0.6507;stroke-miterlimit:10;" x1="588.6" y1="162.9" x2="438.5" y2="432.3"/>
		
			<line style="clip-path:url(#SVGID_1_);fill:none;stroke:#FFFFFF;stroke-width:0.6507;stroke-miterlimit:10;" x1="595" y1="162.9" x2="445" y2="432.3"/>
		
			<line style="clip-path:url(#SVGID_1_);fill:none;stroke:#FFFFFF;stroke-width:0.6507;stroke-miterlimit:10;" x1="601.5" y1="162.9" x2="451.4" y2="432.3"/>
		
			<line style="clip-path:url(#SVGID_1_);fill:none;stroke:#FFFFFF;stroke-width:0.6507;stroke-miterlimit:10;" x1="607.9" y1="162.9" x2="457.8" y2="432.3"/>
		
			<line style="clip-path:url(#SVGID_1_);fill:none;stroke:#FFFFFF;stroke-width:0.6507;stroke-miterlimit:10;" x1="614.3" y1="162.9" x2="464.2" y2="432.3"/>
		
			<line style="clip-path:url(#SVGID_1_);fill:none;stroke:#FFFFFF;stroke-width:0.6507;stroke-miterlimit:10;" x1="620.7" y1="162.9" x2="470.6" y2="432.3"/>
		<use xlink:href="#SVGID_19_"  style="overflow:visible;fill:none;stroke:#FFFFFF;stroke-width:0.6414;stroke-miterlimit:10;"/>
	</g>
	<polygon class="st3" points="528.1,427.8 472.1,373.1 355.4,411.5 397.3,442.1 408.6,439.3 428.5,454.1 	"/>
	<polygon class="st103" points="278.2,475.9 408.6,439.3 409.5,468 278.2,502 	"/>
	<polyline class="st104" points="409.5,468 475.3,509.4 474,487.6 408.6,439.3 	"/>
	<polygon class="st107" points="377.5,284.2 479.9,238.9 478.4,275.7 378.2,314.8 	"/>
	<g>
		<path class="st109" d="M31.3,144.8c0.3-0.2,0.5-0.4,0.7-0.4c0.6-0.2,1.4,0.5,1.9,1.6c0.5,1.1,0.4,2.3-0.1,2.5
			c-0.1,0-0.4,0.2-0.4,0.2"/>
		<polygon class="st109" points="38.3,144.3 37.2,144 33.8,145.4 34.1,146.5 37.6,145 		"/>
		<path class="st109" d="M33.4,146.3c0.5,1.1,0.4,2.2-0.1,2.4c-0.6,0.2-1.4-0.5-1.9-1.6c-0.5-1.1-0.4-2.2,0.1-2.4
			C32,144.5,32.9,145.2,33.4,146.3z"/>
	</g>
	<g>
		<path class="st109" d="M35.7,254.7c0.3-0.2,0.5-0.4,0.7-0.4c0.6-0.2,1.4,0.5,1.9,1.6c0.5,1.1,0.4,2.3-0.1,2.5
			c-0.1,0-0.4,0.2-0.4,0.2"/>
		<polygon class="st109" points="42.7,254.2 41.7,253.9 38.2,255.3 38.6,256.4 42,254.9 		"/>
		<path class="st109" d="M37.8,256.2c0.5,1.1,0.4,2.2-0.1,2.4c-0.6,0.2-1.4-0.5-1.9-1.6c-0.5-1.1-0.4-2.2,0.1-2.4
			S37.3,255.1,37.8,256.2z"/>
	</g>
	<ellipse class="st103" cx="309.6" cy="337.3" rx="1.4" ry="1.7"/>
	<ellipse class="st103" cx="309.6" cy="435.3" rx="1.4" ry="1.7"/>
	<g>
		<polygon class="st103" points="302.2,327.1 303.6,441.6 317.2,445.3 315.7,331.9 		"/>
		<polyline class="st103" points="317.2,330.4 315.7,331.9 302.2,327.1 303.8,325.5 317.2,330.4 318.8,443.8 317.2,445.3 		"/>
	</g>
	<polygon class="st103" points="132.4,378.6 142.7,541.1 160.2,530 160.2,361.5 	"/>
	<g>
		<defs>
			<path id="SVGID_21_" d="M105.2,85.7l78.1,72.5l-0.4,12.4c0,0-33.1,3.6-59.8,15.4l-0.9,22.2l19.6,10.5l41.6,72.5l-79.4-48.4
				L105.2,85.7z"/>
		</defs>
		<clipPath id="SVGID_2_">
			<use xlink:href="#SVGID_21_"  style="overflow:visible;"/>
		</clipPath>
		
			<line style="clip-path:url(#SVGID_2_);fill:none;stroke:#FFFFFF;stroke-width:0.6414;stroke-miterlimit:10;" x1="108.2" y1="66.5" x2="12" y2="153.7"/>
		
			<line style="clip-path:url(#SVGID_2_);fill:none;stroke:#FFFFFF;stroke-width:0.6414;stroke-miterlimit:10;" x1="111" y1="69.2" x2="14.8" y2="156.5"/>
		
			<line style="clip-path:url(#SVGID_2_);fill:none;stroke:#FFFFFF;stroke-width:0.6414;stroke-miterlimit:10;" x1="113.8" y1="72" x2="17.6" y2="159.2"/>
		
			<line style="clip-path:url(#SVGID_2_);fill:none;stroke:#FFFFFF;stroke-width:0.6414;stroke-miterlimit:10;" x1="116.6" y1="74.8" x2="20.4" y2="162"/>
		
			<line style="clip-path:url(#SVGID_2_);fill:none;stroke:#FFFFFF;stroke-width:0.6414;stroke-miterlimit:10;" x1="119.4" y1="77.6" x2="23.1" y2="164.8"/>
		
			<line style="clip-path:url(#SVGID_2_);fill:none;stroke:#FFFFFF;stroke-width:0.6414;stroke-miterlimit:10;" x1="122.1" y1="80.4" x2="25.9" y2="167.6"/>
		
			<line style="clip-path:url(#SVGID_2_);fill:none;stroke:#FFFFFF;stroke-width:0.6414;stroke-miterlimit:10;" x1="124.9" y1="83.1" x2="28.7" y2="170.4"/>
		
			<line style="clip-path:url(#SVGID_2_);fill:none;stroke:#FFFFFF;stroke-width:0.6414;stroke-miterlimit:10;" x1="127.7" y1="85.9" x2="31.5" y2="173.1"/>
		
			<line style="clip-path:url(#SVGID_2_);fill:none;stroke:#FFFFFF;stroke-width:0.6414;stroke-miterlimit:10;" x1="130.5" y1="88.7" x2="34.3" y2="175.9"/>
		
			<line style="clip-path:url(#SVGID_2_);fill:none;stroke:#FFFFFF;stroke-width:0.6414;stroke-miterlimit:10;" x1="133.3" y1="91.5" x2="37" y2="178.7"/>
		
			<line style="clip-path:url(#SVGID_2_);fill:none;stroke:#FFFFFF;stroke-width:0.6414;stroke-miterlimit:10;" x1="136" y1="94.3" x2="39.8" y2="181.5"/>
		
			<line style="clip-path:url(#SVGID_2_);fill:none;stroke:#FFFFFF;stroke-width:0.6414;stroke-miterlimit:10;" x1="138.8" y1="97" x2="42.6" y2="184.3"/>
		
			<line style="clip-path:url(#SVGID_2_);fill:none;stroke:#FFFFFF;stroke-width:0.6414;stroke-miterlimit:10;" x1="141.6" y1="99.8" x2="45.4" y2="187"/>
		
			<line style="clip-path:url(#SVGID_2_);fill:none;stroke:#FFFFFF;stroke-width:0.6414;stroke-miterlimit:10;" x1="144.4" y1="102.6" x2="48.2" y2="189.8"/>
		
			<line style="clip-path:url(#SVGID_2_);fill:none;stroke:#FFFFFF;stroke-width:0.6414;stroke-miterlimit:10;" x1="147.1" y1="105.4" x2="50.9" y2="192.6"/>
		
			<line style="clip-path:url(#SVGID_2_);fill:none;stroke:#FFFFFF;stroke-width:0.6414;stroke-miterlimit:10;" x1="149.9" y1="108.2" x2="53.7" y2="195.4"/>
		
			<line style="clip-path:url(#SVGID_2_);fill:none;stroke:#FFFFFF;stroke-width:0.6414;stroke-miterlimit:10;" x1="152.7" y1="110.9" x2="56.5" y2="198.2"/>
		
			<line style="clip-path:url(#SVGID_2_);fill:none;stroke:#FFFFFF;stroke-width:0.6414;stroke-miterlimit:10;" x1="155.5" y1="113.7" x2="59.3" y2="200.9"/>
		
			<line style="clip-path:url(#SVGID_2_);fill:none;stroke:#FFFFFF;stroke-width:0.6414;stroke-miterlimit:10;" x1="158.3" y1="116.5" x2="62.1" y2="203.7"/>
		
			<line style="clip-path:url(#SVGID_2_);fill:none;stroke:#FFFFFF;stroke-width:0.6414;stroke-miterlimit:10;" x1="161" y1="119.3" x2="64.8" y2="206.5"/>
		
			<line style="clip-path:url(#SVGID_2_);fill:none;stroke:#FFFFFF;stroke-width:0.6414;stroke-miterlimit:10;" x1="163.8" y1="122" x2="67.6" y2="209.3"/>
		
			<line style="clip-path:url(#SVGID_2_);fill:none;stroke:#FFFFFF;stroke-width:0.6414;stroke-miterlimit:10;" x1="166.6" y1="124.8" x2="70.4" y2="212.1"/>
		
			<line style="clip-path:url(#SVGID_2_);fill:none;stroke:#FFFFFF;stroke-width:0.6414;stroke-miterlimit:10;" x1="169.4" y1="127.6" x2="73.2" y2="214.8"/>
		
			<line style="clip-path:url(#SVGID_2_);fill:none;stroke:#FFFFFF;stroke-width:0.6414;stroke-miterlimit:10;" x1="172.2" y1="130.4" x2="76" y2="217.6"/>
		
			<line style="clip-path:url(#SVGID_2_);fill:none;stroke:#FFFFFF;stroke-width:0.6414;stroke-miterlimit:10;" x1="174.9" y1="133.2" x2="78.7" y2="220.4"/>
		
			<line style="clip-path:url(#SVGID_2_);fill:none;stroke:#FFFFFF;stroke-width:0.6414;stroke-miterlimit:10;" x1="177.7" y1="135.9" x2="81.5" y2="223.2"/>
		
			<line style="clip-path:url(#SVGID_2_);fill:none;stroke:#FFFFFF;stroke-width:0.6414;stroke-miterlimit:10;" x1="180.5" y1="138.7" x2="84.3" y2="226"/>
		
			<line style="clip-path:url(#SVGID_2_);fill:none;stroke:#FFFFFF;stroke-width:0.6414;stroke-miterlimit:10;" x1="183.3" y1="141.5" x2="87.1" y2="228.7"/>
		
			<line style="clip-path:url(#SVGID_2_);fill:none;stroke:#FFFFFF;stroke-width:0.6414;stroke-miterlimit:10;" x1="186.1" y1="144.3" x2="89.9" y2="231.5"/>
		
			<line style="clip-path:url(#SVGID_2_);fill:none;stroke:#FFFFFF;stroke-width:0.6414;stroke-miterlimit:10;" x1="188.8" y1="147.1" x2="92.6" y2="234.3"/>
		
			<line style="clip-path:url(#SVGID_2_);fill:none;stroke:#FFFFFF;stroke-width:0.6414;stroke-miterlimit:10;" x1="191.6" y1="149.8" x2="95.4" y2="237.1"/>
		
			<line style="clip-path:url(#SVGID_2_);fill:none;stroke:#FFFFFF;stroke-width:0.6414;stroke-miterlimit:10;" x1="194.4" y1="152.6" x2="98.2" y2="239.8"/>
		
			<line style="clip-path:url(#SVGID_2_);fill:none;stroke:#FFFFFF;stroke-width:0.6414;stroke-miterlimit:10;" x1="197.2" y1="155.4" x2="101" y2="242.6"/>
		
			<line style="clip-path:url(#SVGID_2_);fill:none;stroke:#FFFFFF;stroke-width:0.6414;stroke-miterlimit:10;" x1="200" y1="158.2" x2="103.7" y2="245.4"/>
		
			<line style="clip-path:url(#SVGID_2_);fill:none;stroke:#FFFFFF;stroke-width:0.6414;stroke-miterlimit:10;" x1="202.7" y1="161" x2="106.5" y2="248.2"/>
		
			<line style="clip-path:url(#SVGID_2_);fill:none;stroke:#FFFFFF;stroke-width:0.6414;stroke-miterlimit:10;" x1="205.5" y1="163.7" x2="109.3" y2="251"/>
		
			<line style="clip-path:url(#SVGID_2_);fill:none;stroke:#FFFFFF;stroke-width:0.6414;stroke-miterlimit:10;" x1="208.3" y1="166.5" x2="112.1" y2="253.7"/>
		
			<line style="clip-path:url(#SVGID_2_);fill:none;stroke:#FFFFFF;stroke-width:0.6414;stroke-miterlimit:10;" x1="211.1" y1="169.3" x2="114.9" y2="256.5"/>
		
			<line style="clip-path:url(#SVGID_2_);fill:none;stroke:#FFFFFF;stroke-width:0.6414;stroke-miterlimit:10;" x1="213.9" y1="172.1" x2="117.6" y2="259.3"/>
		
			<line style="clip-path:url(#SVGID_2_);fill:none;stroke:#FFFFFF;stroke-width:0.6414;stroke-miterlimit:10;" x1="216.6" y1="174.9" x2="120.4" y2="262.1"/>
		
			<line style="clip-path:url(#SVGID_2_);fill:none;stroke:#FFFFFF;stroke-width:0.6414;stroke-miterlimit:10;" x1="219.4" y1="177.6" x2="123.2" y2="264.9"/>
		
			<line style="clip-path:url(#SVGID_2_);fill:none;stroke:#FFFFFF;stroke-width:0.6414;stroke-miterlimit:10;" x1="222.2" y1="180.4" x2="126" y2="267.6"/>
		
			<line style="clip-path:url(#SVGID_2_);fill:none;stroke:#FFFFFF;stroke-width:0.6414;stroke-miterlimit:10;" x1="225" y1="183.2" x2="128.8" y2="270.4"/>
		
			<line style="clip-path:url(#SVGID_2_);fill:none;stroke:#FFFFFF;stroke-width:0.6414;stroke-miterlimit:10;" x1="227.3" y1="185.5" x2="131.1" y2="272.8"/>
		
			<line style="clip-path:url(#SVGID_2_);fill:none;stroke:#FFFFFF;stroke-width:0.6414;stroke-miterlimit:10;" x1="229.8" y1="188" x2="133.6" y2="275.2"/>
		
			<line style="clip-path:url(#SVGID_2_);fill:none;stroke:#FFFFFF;stroke-width:0.6414;stroke-miterlimit:10;" x1="232.2" y1="190.5" x2="136" y2="277.7"/>
		
			<line style="clip-path:url(#SVGID_2_);fill:none;stroke:#FFFFFF;stroke-width:0.6414;stroke-miterlimit:10;" x1="234.7" y1="192.9" x2="138.5" y2="280.1"/>
		
			<line style="clip-path:url(#SVGID_2_);fill:none;stroke:#FFFFFF;stroke-width:0.6414;stroke-miterlimit:10;" x1="236.6" y1="195.5" x2="140.4" y2="282.7"/>
		
			<line style="clip-path:url(#SVGID_2_);fill:none;stroke:#FFFFFF;stroke-width:0.6414;stroke-miterlimit:10;" x1="239.8" y1="196.8" x2="143.6" y2="284"/>
		
			<line style="clip-path:url(#SVGID_2_);fill:none;stroke:#FFFFFF;stroke-width:0.6414;stroke-miterlimit:10;" x1="242.1" y1="200.3" x2="145.9" y2="287.5"/>
		
			<line style="clip-path:url(#SVGID_2_);fill:none;stroke:#FFFFFF;stroke-width:0.6414;stroke-miterlimit:10;" x1="244.6" y1="202.5" x2="148.4" y2="289.8"/>
		
			<line style="clip-path:url(#SVGID_2_);fill:none;stroke:#FFFFFF;stroke-width:0.6414;stroke-miterlimit:10;" x1="246.9" y1="205.7" x2="150.7" y2="293"/>
		
			<line style="clip-path:url(#SVGID_2_);fill:none;stroke:#FFFFFF;stroke-width:0.6414;stroke-miterlimit:10;" x1="250.1" y1="207" x2="153.9" y2="294.3"/>
		
			<line style="clip-path:url(#SVGID_2_);fill:none;stroke:#FFFFFF;stroke-width:0.6414;stroke-miterlimit:10;" x1="252.3" y1="210.6" x2="156.1" y2="297.8"/>
		
			<line style="clip-path:url(#SVGID_2_);fill:none;stroke:#FFFFFF;stroke-width:0.6414;stroke-miterlimit:10;" x1="255.2" y1="213.4" x2="159" y2="300.7"/>
		
			<line style="clip-path:url(#SVGID_2_);fill:none;stroke:#FFFFFF;stroke-width:0.6414;stroke-miterlimit:10;" x1="257.1" y1="216" x2="160.9" y2="303.2"/>
		
			<line style="clip-path:url(#SVGID_2_);fill:none;stroke:#FFFFFF;stroke-width:0.6414;stroke-miterlimit:10;" x1="260.4" y1="217.3" x2="164.1" y2="304.5"/>
		
			<line style="clip-path:url(#SVGID_2_);fill:none;stroke:#FFFFFF;stroke-width:0.6414;stroke-miterlimit:10;" x1="262.6" y1="220.8" x2="166.4" y2="308"/>
		<use xlink:href="#SVGID_21_"  style="overflow:visible;fill:none;stroke:#FFFFFF;stroke-width:0.6414;stroke-miterlimit:10;"/>
	</g>
	<g>
		<polyline class="st112" points="48.9,262.3 48.8,269.4 67.6,258.2 70.8,256.3 71.9,112.8 49.4,128.2 48.9,262.3 		"/>
		<polyline class="st112" points="74,249.3 75.1,105.8 53.1,120.9 52.6,121.1 49.4,128.2 		"/>
		<line class="st112" x1="75.1" y1="105.8" x2="71.9" y2="112.8"/>
		<line class="st112" x1="74" y1="249.3" x2="70.8" y2="256.3"/>
	</g>
	<ellipse class="st113" cx="61.1" cy="129.7" rx="2.3" ry="2.8"/>
	<ellipse class="st48" cx="92" cy="111.1" rx="2.3" ry="2.8"/>
	<ellipse class="st48" cx="91" cy="224.7" rx="2.3" ry="2.8"/>
	<ellipse class="st113" cx="61.1" cy="241.6" rx="2.3" ry="2.8"/>
	<g>
		<defs>
			<polygon id="SVGID_23_" points="408.6,439.3 409.5,468 475.3,509.4 474.1,487.7 			"/>
		</defs>
		<clipPath id="SVGID_4_">
			<use xlink:href="#SVGID_23_"  style="overflow:visible;"/>
		</clipPath>
		
			<line style="clip-path:url(#SVGID_4_);fill:none;stroke:#FFFFFF;stroke-width:0.6337;stroke-miterlimit:10;" x1="478.6" y1="383.2" x2="388" y2="473.5"/>
		
			<line style="clip-path:url(#SVGID_4_);fill:none;stroke:#FFFFFF;stroke-width:0.6337;stroke-miterlimit:10;" x1="481" y1="385.8" x2="390.4" y2="476.2"/>
		
			<line style="clip-path:url(#SVGID_4_);fill:none;stroke:#FFFFFF;stroke-width:0.6337;stroke-miterlimit:10;" x1="474.1" y1="378.2" x2="383.4" y2="468.5"/>
		
			<line style="clip-path:url(#SVGID_4_);fill:none;stroke:#FFFFFF;stroke-width:0.6337;stroke-miterlimit:10;" x1="476.5" y1="380.8" x2="385.9" y2="471.2"/>
		
			<line style="clip-path:url(#SVGID_4_);fill:none;stroke:#FFFFFF;stroke-width:0.6337;stroke-miterlimit:10;" x1="483.5" y1="388.5" x2="392.8" y2="478.8"/>
		
			<line style="clip-path:url(#SVGID_4_);fill:none;stroke:#FFFFFF;stroke-width:0.6337;stroke-miterlimit:10;" x1="485.9" y1="391.1" x2="395.2" y2="481.5"/>
		
			<line style="clip-path:url(#SVGID_4_);fill:none;stroke:#FFFFFF;stroke-width:0.6337;stroke-miterlimit:10;" x1="488.3" y1="393.8" x2="397.6" y2="484.2"/>
		
			<line style="clip-path:url(#SVGID_4_);fill:none;stroke:#FFFFFF;stroke-width:0.6337;stroke-miterlimit:10;" x1="490.7" y1="396.5" x2="400.1" y2="486.8"/>
		
			<line style="clip-path:url(#SVGID_4_);fill:none;stroke:#FFFFFF;stroke-width:0.6337;stroke-miterlimit:10;" x1="493.1" y1="399.1" x2="402.5" y2="489.5"/>
		
			<line style="clip-path:url(#SVGID_4_);fill:none;stroke:#FFFFFF;stroke-width:0.6337;stroke-miterlimit:10;" x1="495.5" y1="401.8" x2="404.9" y2="492.1"/>
		
			<line style="clip-path:url(#SVGID_4_);fill:none;stroke:#FFFFFF;stroke-width:0.6337;stroke-miterlimit:10;" x1="498" y1="404.4" x2="407.3" y2="494.8"/>
		
			<line style="clip-path:url(#SVGID_4_);fill:none;stroke:#FFFFFF;stroke-width:0.6337;stroke-miterlimit:10;" x1="500.4" y1="407.1" x2="409.7" y2="497.5"/>
		
			<line style="clip-path:url(#SVGID_4_);fill:none;stroke:#FFFFFF;stroke-width:0.6337;stroke-miterlimit:10;" x1="502.8" y1="409.7" x2="412.1" y2="500.1"/>
		
			<line style="clip-path:url(#SVGID_4_);fill:none;stroke:#FFFFFF;stroke-width:0.6337;stroke-miterlimit:10;" x1="505.2" y1="412.4" x2="414.6" y2="502.8"/>
		
			<line style="clip-path:url(#SVGID_4_);fill:none;stroke:#FFFFFF;stroke-width:0.6337;stroke-miterlimit:10;" x1="507.6" y1="415.1" x2="417" y2="505.4"/>
		
			<line style="clip-path:url(#SVGID_4_);fill:none;stroke:#FFFFFF;stroke-width:0.6337;stroke-miterlimit:10;" x1="510" y1="417.7" x2="419.4" y2="508.1"/>
		
			<line style="clip-path:url(#SVGID_4_);fill:none;stroke:#FFFFFF;stroke-width:0.6337;stroke-miterlimit:10;" x1="512.5" y1="420.4" x2="421.8" y2="510.7"/>
		
			<line style="clip-path:url(#SVGID_4_);fill:none;stroke:#FFFFFF;stroke-width:0.6337;stroke-miterlimit:10;" x1="514.9" y1="423" x2="424.2" y2="513.4"/>
		
			<line style="clip-path:url(#SVGID_4_);fill:none;stroke:#FFFFFF;stroke-width:0.6337;stroke-miterlimit:10;" x1="517.3" y1="425.7" x2="426.6" y2="516.1"/>
		
			<line style="clip-path:url(#SVGID_4_);fill:none;stroke:#FFFFFF;stroke-width:0.6337;stroke-miterlimit:10;" x1="519.7" y1="428.3" x2="429.1" y2="518.7"/>
		
			<line style="clip-path:url(#SVGID_4_);fill:none;stroke:#FFFFFF;stroke-width:0.6337;stroke-miterlimit:10;" x1="522.1" y1="431" x2="431.5" y2="521.4"/>
		
			<line style="clip-path:url(#SVGID_4_);fill:none;stroke:#FFFFFF;stroke-width:0.6337;stroke-miterlimit:10;" x1="524.5" y1="433.7" x2="433.9" y2="524"/>
		
			<line style="clip-path:url(#SVGID_4_);fill:none;stroke:#FFFFFF;stroke-width:0.6337;stroke-miterlimit:10;" x1="527" y1="436.3" x2="436.3" y2="526.7"/>
		
			<line style="clip-path:url(#SVGID_4_);fill:none;stroke:#FFFFFF;stroke-width:0.6337;stroke-miterlimit:10;" x1="529.4" y1="439" x2="438.7" y2="529.3"/>
		
			<line style="clip-path:url(#SVGID_4_);fill:none;stroke:#FFFFFF;stroke-width:0.6337;stroke-miterlimit:10;" x1="531.8" y1="441.6" x2="441.1" y2="532"/>
		
			<line style="clip-path:url(#SVGID_4_);fill:none;stroke:#FFFFFF;stroke-width:0.6337;stroke-miterlimit:10;" x1="534.2" y1="444.3" x2="443.6" y2="534.7"/>
		
			<line style="clip-path:url(#SVGID_4_);fill:none;stroke:#FFFFFF;stroke-width:0.6337;stroke-miterlimit:10;" x1="536.6" y1="447" x2="446" y2="537.3"/>
		<use xlink:href="#SVGID_23_"  style="overflow:visible;fill:none;stroke:#FFFFFF;stroke-width:0.6414;stroke-miterlimit:10;"/>
	</g>
	<polygon class="st16" points="337.2,449.7 383.7,436 384,446.2 337.6,459.6 	"/>
	<g>
		<g>
			<defs>
				<polygon id="SVGID_25_" points="480.9,239.5 479,277.9 535.9,351.4 534.1,312.5 				"/>
			</defs>
			<clipPath id="SVGID_6_">
				<use xlink:href="#SVGID_25_"  style="overflow:visible;"/>
			</clipPath>
		</g>
		<g>
			<defs>
				<polygon id="SVGID_27_" points="480.9,239.5 479,277.9 535.9,351.4 534.1,312.5 				"/>
			</defs>
			<use xlink:href="#SVGID_27_"  style="overflow:visible;fill:#2A4399;"/>
			<clipPath id="SVGID_8_">
				<use xlink:href="#SVGID_27_"  style="overflow:visible;"/>
			</clipPath>
			<line style="clip-path:url(#SVGID_8_);fill:#2A4399;" x1="550.9" y1="183.4" x2="460.2" y2="273.7"/>
			<line style="clip-path:url(#SVGID_8_);fill:#2A4399;" x1="553.3" y1="186" x2="462.6" y2="276.4"/>
			<line style="clip-path:url(#SVGID_8_);fill:#2A4399;" x1="546.3" y1="178.4" x2="455.7" y2="268.8"/>
			<line style="clip-path:url(#SVGID_8_);fill:#2A4399;" x1="548.8" y1="181.1" x2="458.1" y2="271.4"/>
			<line style="clip-path:url(#SVGID_8_);fill:#2A4399;" x1="555.7" y1="188.7" x2="465.1" y2="279.1"/>
			<line style="clip-path:url(#SVGID_8_);fill:#2A4399;" x1="558.1" y1="191.4" x2="467.5" y2="281.7"/>
			<line style="clip-path:url(#SVGID_8_);fill:#2A4399;" x1="560.5" y1="194" x2="469.9" y2="284.4"/>
			<line style="clip-path:url(#SVGID_8_);fill:#2A4399;" x1="563" y1="196.7" x2="472.3" y2="287"/>
			<line style="clip-path:url(#SVGID_8_);fill:#2A4399;" x1="565.4" y1="199.3" x2="474.7" y2="289.7"/>
			<line style="clip-path:url(#SVGID_8_);fill:#2A4399;" x1="567.8" y1="202" x2="477.1" y2="292.3"/>
			<line style="clip-path:url(#SVGID_8_);fill:#2A4399;" x1="570.2" y1="204.6" x2="479.6" y2="295"/>
			<line style="clip-path:url(#SVGID_8_);fill:#2A4399;" x1="572.6" y1="207.3" x2="482" y2="297.7"/>
			<line style="clip-path:url(#SVGID_8_);fill:#2A4399;" x1="575.1" y1="210" x2="484.4" y2="300.3"/>
			<line style="clip-path:url(#SVGID_8_);fill:#2A4399;" x1="577.5" y1="212.6" x2="486.8" y2="303"/>
			<line style="clip-path:url(#SVGID_8_);fill:#2A4399;" x1="579.9" y1="215.3" x2="489.2" y2="305.6"/>
			<line style="clip-path:url(#SVGID_8_);fill:#2A4399;" x1="582.3" y1="217.9" x2="491.7" y2="308.3"/>
			<line style="clip-path:url(#SVGID_8_);fill:#2A4399;" x1="584.7" y1="220.6" x2="494.1" y2="311"/>
			<line style="clip-path:url(#SVGID_8_);fill:#2A4399;" x1="587.1" y1="223.2" x2="496.5" y2="313.6"/>
			<line style="clip-path:url(#SVGID_8_);fill:#2A4399;" x1="589.6" y1="225.9" x2="498.9" y2="316.3"/>
			<line style="clip-path:url(#SVGID_8_);fill:#2A4399;" x1="592" y1="228.6" x2="501.3" y2="318.9"/>
			<line style="clip-path:url(#SVGID_8_);fill:#2A4399;" x1="594.4" y1="231.2" x2="503.7" y2="321.6"/>
			<line style="clip-path:url(#SVGID_8_);fill:#2A4399;" x1="596.8" y1="233.9" x2="506.2" y2="324.2"/>
			<line style="clip-path:url(#SVGID_8_);fill:#2A4399;" x1="599.2" y1="236.5" x2="508.6" y2="326.9"/>
			<line style="clip-path:url(#SVGID_8_);fill:#2A4399;" x1="601.6" y1="239.2" x2="511" y2="329.6"/>
			<line style="clip-path:url(#SVGID_8_);fill:#2A4399;" x1="604.1" y1="241.8" x2="513.4" y2="332.2"/>
			<line style="clip-path:url(#SVGID_8_);fill:#2A4399;" x1="606.5" y1="244.5" x2="515.8" y2="334.9"/>
			<line style="clip-path:url(#SVGID_8_);fill:#2A4399;" x1="608.9" y1="247.2" x2="518.2" y2="337.5"/>
			<line style="clip-path:url(#SVGID_8_);fill:#2A4399;" x1="611.3" y1="248.8" x2="520.6" y2="339.2"/>
			<line style="clip-path:url(#SVGID_8_);fill:#2A4399;" x1="613.7" y1="251.5" x2="523" y2="341.8"/>
			<line style="clip-path:url(#SVGID_8_);fill:#2A4399;" x1="616.1" y1="254.1" x2="525.4" y2="344.5"/>
			<line style="clip-path:url(#SVGID_8_);fill:#2A4399;" x1="618.5" y1="256.8" x2="527.9" y2="347.1"/>
			<line style="clip-path:url(#SVGID_8_);fill:#2A4399;" x1="621.1" y1="259.4" x2="530.4" y2="349.7"/>
		</g>
		<g>
			<defs>
				<polygon id="SVGID_29_" points="480.9,239.5 479,277.9 535.9,351.4 534.1,312.5 				"/>
			</defs>
			<clipPath id="SVGID_10_">
				<use xlink:href="#SVGID_29_"  style="overflow:visible;"/>
			</clipPath>
		</g>
	</g>
	<g id="XMLID_1003_">
		<polygon id="XMLID_1060_" class="st116" points="153.8,471.2 153.8,516.1 149.9,515.4 149.9,515.1 149.9,470.6 		"/>
		<polygon id="XMLID_1059_" class="st116" points="141.1,524.4 149.9,515.4 153.8,516.1 145,525.1 		"/>
		<polygon id="XMLID_1058_" class="st116" points="141,520.2 141,524.4 149.9,515.4 149.8,470.6 146.9,473.5 146.9,514.3 		"/>
		<polygon id="XMLID_1057_" class="st116" points="146.9,481.6 146.9,436.6 150.9,437.3 150.9,437.7 150.9,482.2 		"/>
		<polyline id="XMLID_1056_" class="st116" points="150.9,437.3 150.9,482.2 153.9,479.2 153.9,438.5 153.9,434.3 		"/>
		<polygon id="XMLID_1055_" class="st16" points="137.5,446.2 137.5,401.2 141.5,401.9 141.5,402.3 141.5,446.8 		"/>
		<polygon id="XMLID_1053_" class="st29" points="150.4,397.1 150.4,393 141.5,401.9 141.6,446.8 144.5,443.8 144.5,403.1 		"/>
		<polyline id="XMLID_1052_" class="st116" points="150.8,386.8 150.9,431.6 153.8,428.7 153.8,387.9 153.8,383.7 		"/>
		<polygon id="XMLID_1051_" class="st16" points="137.5,476.9 137.5,432 141.5,432.7 141.5,433.1 141.5,477.6 		"/>
		<polygon id="XMLID_1033_" class="st16" points="137.6,520 137.6,475 141.5,475.7 141.5,476.1 141.6,520.6 		"/>
		<polygon id="XMLID_1032_" class="st116" points="153.8,434.2 150.8,437.3 146.9,436.6 149.9,433.6 		"/>
		<polygon id="XMLID_1031_" class="st116" points="153.8,383.7 150.8,386.8 146.8,386.1 149.8,383 		"/>
		<polygon id="XMLID_1030_" class="st116" points="146.8,431 146.8,386.1 150.8,386.8 150.8,387.1 150.8,431.6 		"/>
		<polygon id="XMLID_1028_" class="st29" points="150.4,427.9 150.4,423.7 141.5,432.7 141.6,477.6 144.5,474.6 144.5,433.8 		"/>
		<polygon id="XMLID_1027_" class="st116" points="140.5,398.4 140.5,386.1 144.4,386.8 144.4,387.1 144.4,399 		"/>
		<polyline id="XMLID_1010_" class="st116" points="144.4,386.8 144.5,399 147.4,396 147.4,387.9 147.4,383.7 		"/>
		<polygon id="XMLID_1009_" class="st116" points="147.4,383.7 144.4,386.8 140.5,386.1 143.5,383 		"/>
		<polygon id="XMLID_1008_" class="st48" points="150.3,423.7 141.5,432.7 137.5,432 146.4,423.1 		"/>
		<polygon id="XMLID_1007_" class="st48" points="150.4,466.8 141.5,475.7 137.6,475 146.5,466.1 		"/>
		<polygon id="XMLID_1005_" class="st29" points="150.4,470.9 150.4,466.8 141.6,475.7 141.6,520.6 144.6,517.6 144.6,476.8 		"/>
		<polygon id="XMLID_1004_" class="st48" points="150.3,393 141.5,401.9 137.5,401.2 146.4,392.3 		"/>
	</g>
	<path class="st103" d="M182.2,469.8l7.9-21.7c0.4,3.1,36.8-19.4,106-5.6l0.9,18.4"/>
	<path class="st103" d="M296.2,442.5l-17.5-27.8c-56.4-10.9-77.9,7.8-78.2,6l-13,35.1c0,0,48.5-23.9,109.1-6.7L296.2,442.5z"/>
	<g id="XMLID_953_">
		<polyline id="XMLID_1001_" class="st60" points="193.1,343.9 193.2,344.3 193.1,344.4 193,344.3 		"/>
		<polygon id="XMLID_999_" class="st29" points="181.7,360.5 181.2,361.5 181.2,338.4 181.7,337.5 		"/>
		<polyline id="XMLID_998_" class="st61" points="169,339.7 169.5,340.2 169.5,339.9 		"/>
		<polygon id="XMLID_996_" class="st29" points="181.2,361.5 180.7,361.3 180.7,338.3 181.2,338.4 		"/>
		<g id="XMLID_955_">
			<g>
				<g id="XMLID_252_">
					<path id="XMLID_254_" class="st29" d="M181.7,337.9c0,0,1.6-2.3,1.2-6.2c-0.3-3.6-0.5-5.5-0.5-5.7c0,0,0,0,0,0c0,0,0,0,0,0
						c-0.1-0.2-0.2-0.4-0.4-0.4c-0.1,0-0.2,0-0.3,0.1c0,0,0,0,0,0c0,0,0,0,0,0.1c-0.1,0.3-0.5,1.9-1.3,4.9c-0.9,3.3,0.2,6.8,0.2,6.8
						L181.7,337.9z"/>
					<path id="XMLID_253_" class="st29" d="M181.9,325.5c0,0,0.3,0.1,0.3,0.1v0.1l-0.1-0.1"/>
				</g>
				<path id="XMLID_251_" class="st29" d="M181.3,338.9c0,0-2.2,1.8-6,1.6c-3.5-0.1-5.4-0.2-5.6-0.2c0,0,0,0,0,0c0,0,0,0,0,0
					c-0.2-0.1-0.4-0.2-0.4-0.4c0-0.1,0-0.2,0.1-0.3c0,0,0,0,0,0c0,0,0,0,0.1,0c0.2-0.1,1.8-0.6,4.7-1.7c3.2-1.1,6.7-0.2,6.7-0.2
					L181.3,338.9z"/>
				<path id="XMLID_250_" class="st29" d="M181,338.9c0,0,2.2,2.5,6,3.8c3.6,1.2,5.5,1.8,5.7,1.9c0,0,0,0,0,0c0,0,0,0,0,0
					c0.2,0,0.4-0.1,0.4-0.2c0-0.1,0-0.2-0.1-0.3c0,0,0,0,0,0c0,0,0,0-0.1,0c-0.2-0.2-1.8-1.3-4.7-3.4c-3.2-2.3-6.7-2.7-6.7-2.7
					L181,338.9z"/>
				<g id="XMLID_246_">
					<path id="XMLID_249_" class="st29" d="M181.5,337.8c0,0,1.6-2.3,1.2-6.2c-0.3-3.6-0.5-5.5-0.5-5.7c0,0,0,0,0,0c0,0,0,0,0,0
						c-0.1-0.2-0.2-0.4-0.4-0.4c-0.1,0-0.2,0-0.3,0.1c0,0,0,0,0,0c0,0,0,0,0,0.1c-0.1,0.3-0.5,1.9-1.3,4.9c-0.9,3.3,0.2,6.8,0.2,6.8
						L181.5,337.8z"/>
					<path id="XMLID_248_" class="st29" d="M181,338.6c0,0,2.2,2.5,6,3.8c3.6,1.2,5.5,1.8,5.7,1.9c0,0,0,0,0,0c0,0,0,0,0,0
						c0.2,0,0.4-0.1,0.4-0.2c0-0.1,0-0.2-0.1-0.3c0,0,0,0,0,0c0,0,0,0-0.1,0c-0.2-0.2-1.8-1.3-4.7-3.4c-3.2-2.3-6.7-2.7-6.7-2.7
						L181,338.6z"/>
					<path id="XMLID_247_" class="st29" d="M180.9,338.5c0,0-2.2,1.8-6,1.6c-3.5-0.1-5.4-0.2-5.6-0.2c0,0,0,0,0,0c0,0,0,0,0,0
						c-0.2-0.1-0.4-0.2-0.4-0.4c0-0.1,0-0.2,0.1-0.3c0,0,0,0,0,0c0,0,0,0,0.1,0c0.2-0.1,1.8-0.6,4.7-1.7c3.2-1.1,6.7-0.2,6.7-0.2
						L180.9,338.5z"/>
				</g>
				<g id="XMLID_237_">
					<g>
						<path id="XMLID_245_" class="st2" d="M181.7,339c-0.4,0.4-1,0.4-1.4-0.1c-0.4-0.5-0.3-1.2,0.1-1.6c0.4-0.4,1-0.4,1.4,0.1
							C182.1,337.8,182.1,338.6,181.7,339z"/>
						<polyline id="XMLID_244_" class="st2" points="181.1,337 181.6,337.3 181.9,338.1 						"/>
						<polyline id="XMLID_243_" class="st2" points="180.3,339 180.6,339.2 181.1,339.2 						"/>
						<g id="XMLID_240_">
							<path id="XMLID_242_" class="st2" d="M181.4,338.9c-0.4,0.4-1,0.4-1.4-0.1s-0.3-1.2,0.1-1.6c0.4-0.4,1-0.4,1.4,0.1
								C181.9,337.7,181.8,338.5,181.4,338.9z"/>
							<path id="XMLID_241_" class="st2" d="M180.5,338.1c-0.1,0.1-0.3,0.1-0.4,0s-0.1-0.3,0-0.4s0.3-0.1,0.4,0
								S180.6,337.9,180.5,338.1z"/>
						</g>
					</g>
				</g>
			</g>
		</g>
	</g>
	<g id="XMLID_163_">
		<polyline id="XMLID_951_" class="st60" points="309,288.2 309.1,288.6 309,288.7 308.9,288.6 		"/>
		<polygon id="XMLID_949_" class="st29" points="297.6,304.8 297.1,305.8 297.1,282.7 297.6,281.7 		"/>
		<polyline id="XMLID_948_" class="st61" points="284.9,284 285.4,284.5 285.4,284.2 		"/>
		<polygon id="XMLID_890_" class="st29" points="297.1,305.8 296.5,305.6 296.5,282.6 297.1,282.7 		"/>
		<g id="XMLID_731_">
			<g>
				<g id="XMLID_234_">
					<path id="XMLID_236_" class="st29" d="M297.6,282.2c0,0,1.6-2.3,1.2-6.2c-0.3-3.6-0.5-5.5-0.5-5.7c0,0,0,0,0,0c0,0,0,0,0,0
						c-0.1-0.2-0.2-0.4-0.4-0.4c-0.1,0-0.2,0-0.3,0.1c0,0,0,0,0,0c0,0,0,0,0,0.1c-0.1,0.3-0.5,1.9-1.3,4.9c-0.9,3.3,0.2,6.8,0.2,6.8
						L297.6,282.2z"/>
					<path id="XMLID_235_" class="st29" d="M297.8,269.8c0,0,0.3,0.1,0.3,0.1v0.1l-0.1-0.1"/>
				</g>
				<path id="XMLID_233_" class="st29" d="M297.2,283.1c0,0-2.2,1.8-6,1.6c-3.5-0.1-5.4-0.2-5.6-0.2c0,0,0,0,0,0c0,0,0,0,0,0
					c-0.2-0.1-0.4-0.2-0.4-0.4c0-0.1,0-0.2,0.1-0.3c0,0,0,0,0,0c0,0,0,0,0.1,0c0.2-0.1,1.8-0.6,4.7-1.7c3.2-1.1,6.7-0.2,6.7-0.2
					L297.2,283.1z"/>
				<path id="XMLID_232_" class="st29" d="M296.9,283.2c0,0,2.2,2.5,6,3.8c3.6,1.2,5.5,1.8,5.7,1.9c0,0,0,0,0,0c0,0,0,0,0,0
					c0.2,0,0.4-0.1,0.4-0.2c0-0.1,0-0.2-0.1-0.3c0,0,0,0,0,0c0,0,0,0-0.1,0c-0.2-0.2-1.8-1.3-4.7-3.4c-3.2-2.3-6.7-2.7-6.7-2.7
					L296.9,283.2z"/>
				<g id="XMLID_228_">
					<path id="XMLID_231_" class="st29" d="M297.3,282.1c0,0,1.6-2.3,1.2-6.2c-0.3-3.6-0.5-5.5-0.5-5.7c0,0,0,0,0,0c0,0,0,0,0,0
						c-0.1-0.2-0.2-0.4-0.4-0.4c-0.1,0-0.2,0-0.3,0.1c0,0,0,0,0,0c0,0,0,0,0,0.1c-0.1,0.3-0.5,1.9-1.3,4.9c-0.9,3.3,0.2,6.8,0.2,6.8
						L297.3,282.1z"/>
					<path id="XMLID_230_" class="st29" d="M296.9,282.8c0,0,2.2,2.5,6,3.8c3.6,1.2,5.5,1.8,5.7,1.9c0,0,0,0,0,0c0,0,0,0,0,0
						c0.2,0,0.4-0.1,0.4-0.2c0-0.1,0-0.2-0.1-0.3c0,0,0,0,0,0c0,0,0,0-0.1,0c-0.2-0.2-1.8-1.3-4.7-3.4c-3.2-2.3-6.7-2.7-6.7-2.7
						L296.9,282.8z"/>
					<path id="XMLID_229_" class="st29" d="M296.8,282.8c0,0-2.2,1.8-6,1.6c-3.5-0.1-5.4-0.2-5.6-0.2c0,0,0,0,0,0c0,0,0,0,0,0
						c-0.2-0.1-0.4-0.2-0.4-0.4c0-0.1,0-0.2,0.1-0.3c0,0,0,0,0,0c0,0,0,0,0.1,0c0.2-0.1,1.8-0.6,4.7-1.7c3.2-1.1,6.7-0.2,6.7-0.2
						L296.8,282.8z"/>
				</g>
				<g id="XMLID_221_">
					<g>
						<path id="XMLID_227_" class="st2" d="M297.6,283.3c-0.4,0.4-1,0.4-1.4-0.1s-0.3-1.2,0.1-1.6c0.4-0.4,1-0.4,1.4,0.1
							C298,282.1,298,282.8,297.6,283.3z"/>
						<polyline id="XMLID_226_" class="st2" points="297,281.3 297.4,281.6 297.7,282.3 						"/>
						<polyline id="XMLID_225_" class="st2" points="296.2,283.3 296.5,283.5 296.9,283.5 						"/>
						<g id="XMLID_222_">
							<path id="XMLID_224_" class="st2" d="M297.3,283.2c-0.4,0.4-1,0.4-1.4-0.1s-0.3-1.2,0.1-1.6c0.4-0.4,1-0.4,1.4,0.1
								S297.7,282.7,297.3,283.2z"/>
							<path id="XMLID_223_" class="st2" d="M296.4,282.3c-0.1,0.1-0.3,0.1-0.4,0s-0.1-0.3,0-0.4c0.1-0.1,0.3-0.1,0.4,0
								S296.5,282.2,296.4,282.3z"/>
						</g>
					</g>
				</g>
			</g>
		</g>
	</g>
	<path class="st29" d="M278.6,414.7c15,5.2-17.3-33.4-39.2-33.4c-21.9,0-39.6,17.7-39.6,39.6C199.9,420.9,238,400.6,278.6,414.7z"/>
	<g>
		<g>
			<line class="st118" x1="42" y1="141.1" x2="42.4" y2="140.8"/>
			<line class="st119" x1="43.3" y1="140.3" x2="62" y2="128.8"/>
			<line class="st118" x1="62.4" y1="128.5" x2="62.8" y2="128.2"/>
		</g>
	</g>
	<g>
		<g>
			<line class="st118" x1="44.7" y1="252.2" x2="45.2" y2="252"/>
			<line class="st120" x1="46" y1="251.4" x2="62.3" y2="240.4"/>
			<line class="st118" x1="62.7" y1="240.1" x2="63.1" y2="239.8"/>
		</g>
	</g>
	<polygon class="st103" points="477,318.3 479.1,370.8 521.1,411.8 519.1,365.9 	"/>
	<line class="st103" x1="485.6" y1="377.3" x2="519.1" y2="365.9"/>
	<path class="st2" d="M252,390c7.2,5.5,10.9,12.6,8.3,15.9c-2.5,3.3-10.4,1.6-17.6-3.9c-7.2-5.5-10.2-10.3-7.9-13.4
		C237.3,385.6,244.8,384.6,252,390z"/>
	<g>
		<path class="st121" d="M236.9,396.1c0.6-0.1-1.3-26-1.2-28.6c0.1-2.5,0-5.2-0.6-7.6c-0.5-1.8-1-2.3-2.6-2.9
			c-4.1-1.5-7.7-5.4-10.2-8.9c-0.4-0.6-0.9-1.1-1.5-1.4c-2.1-1.1-4.7-3-5.4-5.4c0,0-1.1-1.2-0.7-2.7"/>
		<path class="st121" d="M215.4,341.4c0,0-2.7-1.6-3.7-3.4c0,0-1,0.8-1,2.2c0,0-0.2,2.1-0.4,4c0,0-0.6,1.5-0.3,2.6
			c0,0,0.6,5,0.6,5.7c0,0-1.4,3-2,2c0,0-1.7-0.9-2-1.5c0,0,1.1-3.1-0.9-6.1c0,0-0.6-5,0.5-9.2c0,0-1.7-3.6,1.9-4.5
			c0.8-0.2,1.7-0.2,2.6-0.4c2.8-0.8,4.4-0.8,7,0.7c0,0,2.6,0.7,3.6-0.3c0,0-0.1-2.5-0.6-4.3c0,0-3.3,2.8-3.1,4.6"/>
		<path class="st121" d="M213.5,332c0.3-1.3,0.8-2.5,1.5-3.7c1.2-2.2,3.3-3.6,4.4-5.8c0.1-0.3,0.3-0.6,0.4-0.8
			c1-1.3,3.9-1.7,5.1-0.6c0,0,1.2,2.1,0.7,4.3c0,0,0.4,4.5,1.3,5.7c0,0,3.1,3.3,3.1,4.5"/>
		<path class="st121" d="M225.6,325.4c0,0,1.8-4.3,3.8-3.3c1.1,0.6,2.6,0.9,3.3,2c0.7,1,1.2,3.5,0.9,4.6c0,0-0.2,4.1,0.9,5.6
			c0,0,1.9,1.6,1.9,3.6"/>
		<path class="st121" d="M233.5,327.7c0.8,1,2,1.3,2.8,2.2c0.1,0.1,0.2,0.3,0.3,0.5c1,2.1,2,4.2,3,6.3c0,0,0.8,2.1,1.5,2.8"/>
		<path class="st121" d="M238.9,339.3C239.5,339.7,238.3,339,238.9,339.3c1,0.4,3.1,0,3.7,0.9c0.6,0.8,1.2,1.6,1.9,2.2
			c1.4,1.2,2.9,1.6,3.6,3.5c0.6,1.7,0.8,3.4,0.8,5.2c1,7.7,2.4,15.3,4,22.9c0.9,4.2,1.9,8.5,3.1,12.6c1.1,3.7,2.7,7.2,3.2,11.1
			c0.5,3.8,0.4,5.8-0.4,9.6"/>
	</g>
	<path class="st103" d="M188.9,452.4c0,0,42.3-22.3,107.3-6.4"/>
	<line class="st103" x1="219.7" y1="347.4" x2="221.9" y2="384.5"/>
	<circle class="st29" cx="266.7" cy="366.8" r="1.4"/>
	<circle class="st29" cx="272.4" cy="353.3" r="1.4"/>
	<circle class="st29" cx="256.6" cy="314.3" r="1.4"/>
	<circle class="st29" cx="262.4" cy="288.1" r="1.4"/>
	<circle class="st29" cx="258.7" cy="265" r="1.4"/>
	<circle class="st29" cx="251.9" cy="253.7" r="1.4"/>
	<g>
		<path class="st84" d="M340.4,446.4l0.1,0c0.4,0,0.8-0.4,0.8-0.8l0.4-50c0-0.4-0.4-0.8-0.8-0.8l-0.1,0c-0.4,0-0.8,0.4-0.8,0.8
			l-0.4,50C339.6,446.1,340,446.4,340.4,446.4z"/>
		<path class="st84" d="M347.8,446l0.1,0c0.4,0,0.8-0.4,0.8-0.8l0.4-50c0-0.4-0.4-0.8-0.8-0.8l-0.1,0c-0.4,0-0.8,0.4-0.8,0.8
			l-0.4,50C347,445.7,347.4,446,347.8,446z"/>
		<path class="st84" d="M340.9,419.4L340.9,419.4c0.1,0.2,0.3,0.3,0.5,0.2l6.2-2.9c0.2-0.1,0.2-0.3,0.2-0.5l0,0
			c-0.1-0.2-0.3-0.2-0.5-0.2l-6.2,2.9C340.9,419,340.8,419.2,340.9,419.4z"/>
		<path class="st84" d="M340.8,416.5L340.8,416.5c-0.1,0.2,0,0.4,0.2,0.5l6.4,2.3c0.2,0.1,0.4,0,0.4-0.2l0,0c0.1-0.2,0-0.4-0.2-0.4
			l-6.4-2.3C341.1,416.2,340.9,416.3,340.8,416.5z"/>
		<path class="st84" d="M341,423.6L341,423.6c0.1,0.2,0.3,0.3,0.5,0.2l6.2-2.9c0.2-0.1,0.2-0.3,0.2-0.5l0,0
			c-0.1-0.2-0.3-0.2-0.5-0.2l-6.2,2.9C341,423.2,340.9,423.4,341,423.6z"/>
		<path class="st84" d="M340.9,420.7L340.9,420.7c-0.1,0.2,0,0.4,0.2,0.5l6.4,2.3c0.2,0.1,0.4,0,0.4-0.2l0,0c0.1-0.2,0-0.4-0.2-0.4
			l-6.4-2.3C341.1,420.5,340.9,420.6,340.9,420.7z"/>
		<path class="st84" d="M340.9,428.2L340.9,428.2c0.1,0.2,0.3,0.3,0.5,0.2l6.2-2.9c0.2-0.1,0.2-0.3,0.2-0.5l0,0
			c-0.1-0.2-0.3-0.2-0.5-0.2l-6.2,2.9C340.9,427.8,340.8,428,340.9,428.2z"/>
		<path class="st84" d="M340.8,425.3L340.8,425.3c-0.1,0.2,0,0.4,0.2,0.5l6.4,2.3c0.2,0.1,0.4,0,0.4-0.2l0,0c0.1-0.2,0-0.4-0.2-0.4
			l-6.4-2.3C341.1,425,340.9,425.1,340.8,425.3z"/>
		<path class="st84" d="M340.9,432.7L340.9,432.7c0.1,0.2,0.3,0.3,0.5,0.2l6.2-2.9c0.2-0.1,0.2-0.3,0.2-0.5l0,0
			c-0.1-0.2-0.3-0.2-0.5-0.2l-6.2,2.9C340.9,432.3,340.8,432.5,340.9,432.7z"/>
		<path class="st84" d="M340.8,429.8L340.8,429.8c-0.1,0.2,0,0.4,0.2,0.5l6.4,2.3c0.2,0.1,0.4,0,0.4-0.2l0,0c0.1-0.2,0-0.4-0.2-0.4
			l-6.4-2.3C341,429.6,340.8,429.7,340.8,429.8z"/>
		<path class="st84" d="M340.9,437.1L340.9,437.1c0.1,0.2,0.3,0.3,0.5,0.2l6.2-2.9c0.2-0.1,0.2-0.3,0.2-0.5l0,0
			c-0.1-0.2-0.3-0.2-0.5-0.2l-6.2,2.9C340.9,436.7,340.9,436.9,340.9,437.1z"/>
		<path class="st84" d="M340.8,434.2L340.8,434.2c-0.1,0.2,0,0.4,0.2,0.5l6.4,2.3c0.2,0.1,0.4,0,0.4-0.2l0,0c0.1-0.2,0-0.4-0.2-0.4
			l-6.4-2.3C341.1,433.9,340.9,434,340.8,434.2z"/>
		<path class="st84" d="M341.2,441.3L341.2,441.3c0.1,0.2,0.3,0.3,0.5,0.2l6.2-2.9c0.2-0.1,0.2-0.3,0.2-0.5l0,0
			c-0.1-0.2-0.3-0.2-0.5-0.2l-6.2,2.9C341.1,440.9,341.1,441.1,341.2,441.3z"/>
		<path class="st84" d="M341,438.4L341,438.4c-0.1,0.2,0,0.4,0.2,0.5l6.4,2.3c0.2,0.1,0.4,0,0.4-0.2l0,0c0.1-0.2,0-0.4-0.2-0.4
			l-6.4-2.3C341.3,438.1,341.1,438.2,341,438.4z"/>
	</g>
	<g>
		<path class="st84" d="M363.1,441.8L363.1,441.8c-0.5,0.2-1-0.1-1.1-0.5l-14.9-47.7c-0.1-0.4,0.1-0.9,0.5-1l0.1,0
			c0.4-0.1,0.9,0.1,1,0.5l14.9,47.7C363.8,441.2,363.5,441.7,363.1,441.8z"/>
		<path class="st84" d="M355.9,443.6L355.9,443.6c-0.5,0.2-1-0.1-1.1-0.5l-14.9-47.7c-0.1-0.4,0.1-0.9,0.5-1l0.1,0
			c0.4-0.1,0.9,0.1,1,0.5l14.9,47.7C356.5,443,356.3,443.4,355.9,443.6z"/>
		<path class="st84" d="M353.4,412L353.4,412c0,0.2-0.2,0.4-0.4,0.3l-6.8-1c-0.2,0-0.3-0.2-0.3-0.4l0,0c0-0.2,0.2-0.3,0.4-0.3l6.8,1
			C353.3,411.7,353.4,411.8,353.4,412z"/>
		<path class="st84" d="M352.6,409.2L352.6,409.2c0.1,0.2,0.1,0.4,0,0.5l-5.5,4.1c-0.2,0.1-0.4,0.1-0.5-0.1l0,0
			c-0.1-0.2-0.1-0.4,0.1-0.5l5.5-4.1C352.3,409.1,352.5,409.1,352.6,409.2z"/>
		<path class="st84" d="M354.7,416.1L354.7,416.1c0,0.2-0.2,0.4-0.4,0.3l-6.8-1c-0.2,0-0.3-0.2-0.3-0.4l0,0c0-0.2,0.2-0.3,0.4-0.3
			l6.8,1C354.6,415.7,354.7,415.9,354.7,416.1z"/>
		<path class="st84" d="M354,413.3L354,413.3c0.1,0.2,0.1,0.4,0,0.5l-5.5,4.1c-0.2,0.1-0.4,0.1-0.5-0.1l0,0
			c-0.1-0.2-0.1-0.4,0.1-0.5l5.5-4.1C353.7,413.1,353.9,413.1,354,413.3z"/>
		<path class="st84" d="M355.9,420.1L355.9,420.1c0,0.2-0.2,0.4-0.4,0.3l-6.8-1c-0.2,0-0.3-0.2-0.3-0.4l0,0c0-0.2,0.2-0.3,0.4-0.3
			l6.8,1C355.8,419.8,355.9,419.9,355.9,420.1z"/>
		<path class="st84" d="M355.2,417.3L355.2,417.3c0.1,0.2,0.1,0.4,0,0.5l-5.5,4.1c-0.2,0.1-0.4,0.1-0.5-0.1l0,0
			c-0.1-0.2-0.1-0.4,0.1-0.5l5.5-4.1C354.8,417.2,355.1,417.2,355.2,417.3z"/>
		<path class="st84" d="M357.3,424.5L357.3,424.5c0,0.2-0.2,0.4-0.4,0.3l-6.8-1c-0.2,0-0.3-0.2-0.3-0.4l0,0c0-0.2,0.2-0.3,0.4-0.3
			l6.8,1C357.2,424.1,357.3,424.3,357.3,424.5z"/>
		<path class="st84" d="M356.5,421.7L356.5,421.7c0.1,0.2,0.1,0.4,0,0.5l-5.5,4.1c-0.2,0.1-0.4,0.1-0.5-0.1l0,0
			c-0.1-0.2-0.1-0.4,0.1-0.5l5.5-4.1C356.2,421.5,356.4,421.5,356.5,421.7z"/>
		<path class="st84" d="M358.6,428.8L358.6,428.8c0,0.2-0.2,0.4-0.4,0.3l-6.8-1c-0.2,0-0.3-0.2-0.3-0.4l0,0c0-0.2,0.2-0.3,0.4-0.3
			l6.8,1C358.5,428.4,358.7,428.6,358.6,428.8z"/>
		<path class="st84" d="M357.9,426L357.9,426c0.1,0.2,0.1,0.4,0,0.5l-5.5,4.1c-0.2,0.1-0.4,0.1-0.5-0.1l0,0
			c-0.1-0.2-0.1-0.4,0.1-0.5l5.5-4.1C357.6,425.8,357.8,425.9,357.9,426z"/>
		<path class="st84" d="M359.8,433L359.8,433c0,0.2-0.2,0.4-0.4,0.3l-6.8-1c-0.2,0-0.3-0.2-0.3-0.4l0,0c0-0.2,0.2-0.3,0.4-0.3l6.8,1
			C359.7,432.7,359.9,432.8,359.8,433z"/>
		<path class="st84" d="M359.1,430.2L359.1,430.2c0.1,0.2,0.1,0.4,0,0.5l-5.5,4.1c-0.2,0.1-0.4,0.1-0.5-0.1l0,0
			c-0.1-0.2-0.1-0.4,0.1-0.5l5.5-4.1C358.8,430,359,430.1,359.1,430.2z"/>
		<path class="st84" d="M360.9,437.1L360.9,437.1c0,0.2-0.2,0.4-0.4,0.3l-6.8-1c-0.2,0-0.3-0.2-0.3-0.4l0,0c0-0.2,0.2-0.3,0.4-0.3
			l6.8,1C360.8,436.7,360.9,436.9,360.9,437.1z"/>
		<path class="st84" d="M360.1,434.3L360.1,434.3c0.1,0.2,0.1,0.4,0,0.5l-5.5,4.1c-0.2,0.1-0.4,0.1-0.5-0.1l0,0
			c-0.1-0.2-0.1-0.4,0.1-0.5l5.5-4.1C359.8,434.1,360,434.1,360.1,434.3z"/>
	</g>
	<polygon class="st29" points="383.8,435.9 384.1,446.5 393.9,443.8 	"/>
	<path class="st123" d="M254.5,227.8c0.4,1.3,3,101.9,3,101.9l9.4,9v64.6"/>
	<path class="st123" d="M251,229.6c0.4,1.3,3,100.1,3,100.1l9.4,9v64.6"/>
	<polyline class="st123" points="257.5,226.3 260.5,328.4 269.9,338.2 269.9,397.6 	"/>
	<polyline class="st123" points="260.7,225 263.4,327.1 272.4,337.3 272.9,402.8 	"/>
	<polyline class="st123" points="263.9,223.1 266.4,325.4 276.3,336.1 275.8,404 	"/>
	<polygon class="st107" points="335.9,242.5 303,209.2 358.9,180.5 389.7,215.2 	"/>
	<polyline class="st103" points="248.1,174.9 352.8,115.9 352,176.1 303.9,200.9 	"/>
	<path class="st107" d="M216,386.5l-46.5-27.9l-1.4,171.5l12.8,3.5l-2.1-64.6l19.2-49.8C198,419.2,196.7,394.9,216,386.5z"/>
	<polygon class="st107" points="82.5,343.1 105.2,353.7 106.4,318 119.5,325.8 119.2,369.4 119.8,434.5 82.5,423 82.5,419.9 	"/>
	<line class="st107" x1="109.5" y1="395.1" x2="98" y2="410.9"/>
	<polyline class="st107" points="120,418.4 116.4,417.2 98,410.9 97.1,384.9 109.5,370.6 	"/>
	<polyline class="st107" points="119.8,434.5 107.4,447.5 73.5,437.5 82.5,423 73.5,437.5 71.3,391.5 77.1,382.4 76.5,350 
		82.5,343.1 	"/>
	<path class="st107" d="M97.1,384.9l0.6-13.3c0,0-0.3-7.3,6.1-7c0,0,5.8,0.6,5.8,6.1v24.4"/>
	<polygon class="st3" points="475.3,509.4 345.6,540.6 278.2,502 409.5,468 	"/>
	<polyline class="st103" points="165.1,351.4 128.1,374.7 137.5,552.2 165.5,534.2 137.5,552.2 159.7,557.1 186.1,539.5 	"/>
	<g>
		<polygon class="st124" points="279.5,476.9 407.4,441 408.2,469.1 279.5,502.4 		"/>
		<polygon class="st16" points="337.3,451.1 383,437.7 383.3,447.8 337.8,460.9 		"/>
		<circle class="st125" cx="166.7" cy="581.6" r="1.2"/>
		<circle class="st125" cx="175.1" cy="579.4" r="1.2"/>
		<circle class="st125" cx="183.5" cy="577.2" r="1.2"/>
		<circle class="st125" cx="191.9" cy="575" r="1.2"/>
		<circle class="st125" cx="198.6" cy="573.7" r="1.2"/>
		<circle class="st125" cx="206.3" cy="572.4" r="1.2"/>
		<circle class="st125" cx="214.2" cy="571.2" r="1.2"/>
		<circle class="st125" cx="222.4" cy="570" r="1.2"/>
		<circle class="st125" cx="231.2" cy="569.2" r="1.2"/>
		<circle class="st125" cx="240.1" cy="568.9" r="1.2"/>
		<circle class="st125" cx="248.9" cy="568.9" r="1.2"/>
		<circle class="st125" cx="257.7" cy="568.7" r="1.2"/>
		<circle class="st125" cx="267.2" cy="568.9" r="1.2"/>
		<circle class="st125" cx="277" cy="568.9" r="1.2"/>
		<circle class="st125" cx="285.4" cy="569.8" r="1.2"/>
		<circle class="st125" cx="293.7" cy="570.1" r="1.2"/>
		<circle class="st125" cx="302" cy="571" r="1.2"/>
		<circle class="st125" cx="308.9" cy="572.3" r="1.2"/>
		<circle class="st125" cx="316.6" cy="573" r="1.2"/>
		<circle class="st125" cx="325.1" cy="575" r="1.2"/>
		<circle class="st125" cx="332.5" cy="577.2" r="1.2"/>
		<circle class="st48" cx="213.2" cy="550.8" r="1.3"/>
		<circle class="st48" cx="235.8" cy="476.1" r="1.3"/>
		<circle class="st48" cx="226.7" cy="486.4" r="1.3"/>
		<circle class="st48" cx="225.6" cy="522.9" r="1.3"/>
		<circle class="st48" cx="218.8" cy="514.9" r="1.3"/>
		<circle class="st48" cx="218.3" cy="473.4" r="1.3"/>
		<g>
			<path class="st16" d="M384,568.8l0.9,0c0.4,0,0.7-0.3,0.7-0.8l-2.1-78.3c0-0.4-0.3-0.7-0.8-0.7l-0.9,0c-0.4,0-0.7,0.3-0.7,0.8
				l2.1,78.3C383.3,568.4,383.6,568.8,384,568.8z"/>
			<path class="st16" d="M381.8,498.2l-10.6,5.1c-0.2,0.1-0.3,0.4-0.2,0.6l0.3,0.6c0.1,0.2,0.4,0.3,0.6,0.2l10.6-5.1
				c0.2-0.1,0.3-0.4,0.2-0.6l-0.3-0.6C382.4,498.2,382.1,498.1,381.8,498.2z"/>
			<path class="st16" d="M382,503.5l-10.6,5.1c-0.2,0.1-0.3,0.4-0.2,0.6l0.3,0.6c0.1,0.2,0.4,0.3,0.6,0.2l10.6-5.1
				c0.2-0.1,0.3-0.4,0.2-0.6l-0.3-0.6C382.5,503.4,382.2,503.3,382,503.5z"/>
			<path class="st16" d="M382.1,508.7l-10.6,5.1c-0.2,0.1-0.3,0.4-0.2,0.6l0.3,0.6c0.1,0.2,0.4,0.3,0.6,0.2l10.6-5.1
				c0.2-0.1,0.3-0.4,0.2-0.6l-0.3-0.6C382.6,508.7,382.4,508.6,382.1,508.7z"/>
			<path class="st16" d="M382.3,513.9l-10.6,5.1c-0.2,0.1-0.3,0.4-0.2,0.6l0.3,0.6c0.1,0.2,0.4,0.3,0.6,0.2l10.6-5.1
				c0.2-0.1,0.3-0.4,0.2-0.6l-0.3-0.6C382.8,513.9,382.5,513.8,382.3,513.9z"/>
			<path class="st16" d="M382.4,519.2l-10.6,5.1c-0.2,0.1-0.3,0.4-0.2,0.6l0.3,0.6c0.1,0.2,0.4,0.3,0.6,0.2l10.6-5.1
				c0.2-0.1,0.3-0.4,0.2-0.6l-0.3-0.6C382.9,519.2,382.6,519.1,382.4,519.2z"/>
			<path class="st16" d="M382.5,524.4l-10.6,5.1c-0.2,0.1-0.3,0.4-0.2,0.6l0.3,0.6c0.1,0.2,0.4,0.3,0.6,0.2l10.6-5.1
				c0.2-0.1,0.3-0.4,0.2-0.6l-0.3-0.6C383.1,524.4,382.8,524.3,382.5,524.4z"/>
			<path class="st16" d="M382.7,529.7l-10.6,5.1c-0.2,0.1-0.3,0.4-0.2,0.6l0.3,0.6c0.1,0.2,0.4,0.3,0.6,0.2l10.6-5.1
				c0.2-0.1,0.3-0.4,0.2-0.6l-0.3-0.6C383.2,529.7,382.9,529.6,382.7,529.7z"/>
			<path class="st16" d="M382.8,534.9l-10.6,5.1c-0.2,0.1-0.3,0.4-0.2,0.6l0.3,0.6c0.1,0.2,0.4,0.3,0.6,0.2l10.6-5.1
				c0.2-0.1,0.3-0.4,0.2-0.6l-0.3-0.6C383.4,534.9,383.1,534.8,382.8,534.9z"/>
			<path class="st16" d="M383,540.2l-10.6,5.1c-0.2,0.1-0.3,0.4-0.2,0.6l0.3,0.6c0.1,0.2,0.4,0.3,0.6,0.2l10.6-5.1
				c0.2-0.1,0.3-0.4,0.2-0.6l-0.3-0.6C383.5,540.2,383.2,540.1,383,540.2z"/>
			<path class="st16" d="M383.1,545.4l-10.6,5.1c-0.2,0.1-0.3,0.4-0.2,0.6l0.3,0.6c0.1,0.2,0.4,0.3,0.6,0.2l10.6-5.1
				c0.2-0.1,0.3-0.4,0.2-0.6l-0.3-0.6C383.6,545.4,383.3,545.3,383.1,545.4z"/>
			<path class="st16" d="M383.2,550.7l-10.6,5.1c-0.2,0.1-0.3,0.4-0.2,0.6l0.3,0.6c0.1,0.2,0.4,0.3,0.6,0.2l10.6-5.1
				c0.2-0.1,0.3-0.4,0.2-0.6l-0.3-0.6C383.8,550.7,383.5,550.6,383.2,550.7z"/>
			<path class="st16" d="M383.4,555.9l-10.6,5.1c-0.2,0.1-0.3,0.4-0.2,0.6l0.3,0.6c0.1,0.2,0.4,0.3,0.6,0.2l10.6-5.1
				c0.2-0.1,0.3-0.4,0.2-0.6l-0.3-0.6C383.9,555.9,383.6,555.8,383.4,555.9z"/>
			<path class="st16" d="M372.2,574.5l0.9,0c0.4,0,0.7-0.3,0.7-0.8l-2.1-78.3c0-0.4-0.3-0.7-0.8-0.7l-0.9,0c-0.4,0-0.7,0.3-0.7,0.8
				l2.1,78.3C371.5,574.2,371.8,574.5,372.2,574.5z"/>
		</g>
		<path class="st29" d="M159.7,557.1l26.4-17.6l-1.3-67.6c0,0,56.2-26.6,130-4.4l-36,9.8v25.5c0,0,41.5-1.1,61.6,10.7
			c29.9,15.7,21.1,25.8,21.7,60.7l-12.1,3.7c0,0-101.3-30.2-190.7,0.6L159.7,557.1z"/>
		<polyline class="st126" points="214.5,462.6 214.4,510.2 196.2,541.7 196.2,569 		"/>
		<polyline class="st126" points="218,461.5 218.2,509.6 199.9,541 199.9,568.5 		"/>
		<polyline class="st126" points="222.4,460.5 222.6,508.6 204.3,540.1 204.3,567.9 		"/>
		<polyline class="st126" points="226.8,460 227,507.7 208.8,539.1 208.8,567.5 		"/>
		<polyline class="st126" points="231.1,459.5 231.4,506.7 213.2,538.2 213.2,566.7 		"/>
		<polyline class="st126" points="235.5,459.2 235.8,505.8 217.6,537.3 217.6,566 		"/>
		<polyline class="st126" points="239.9,459 240.2,504.8 222,536.3 222,565.6 		"/>
		<polyline class="st127" points="244.3,458.3 244.6,505.1 226.4,536.4 226.4,565.3 		"/>
		<g>
			<path class="st128" d="M303.3,534.5c0,0-6.5-2.1-0.4-8.8c4.6-5,12.1-3.1,17.1,0.2c0,0,3.4,2.3,8,2.6c0,0,2.3,0.2,0.4,2.6
				c0,0-2.5,1.1-2.2,1.8C326.3,532.9,309.1,532.7,303.3,534.5z"/>
			<path class="st128" d="M303.6,531.1c0,0-1-0.4-1.6-1.2c-0.6-0.9-0.5-2.2,2.3-4.1c0,0,5.2-3.6,10.3-0.6c0,0,4.6,2.7,5.9,2.9
				c0,0-1.5,2.1-4.4,3c-0.9,0.3-2,0.4-3.2,0.3C312.9,531.4,305,532.4,303.6,531.1z"/>
			<path class="st128" d="M302,529.9c1.4-2.4,4.5-4.5,7.4-4.7c3.3-0.3,8.7,1.8,6.7,5.9"/>
			<line class="st128" x1="329.3" y1="530.4" x2="332.7" y2="531.1"/>
			<path class="st128" d="M331,535.9l9.1-1.3l16.8-2.2c0.3-1-1.9-0.9-1.9-0.9l-19.6-0.3c-3.2-0.1-3.3,0.5-3.3,0.5l-3.3,1.8"/>
			
				<ellipse transform="matrix(0.9299 0.3679 -0.3679 0.9299 219.8123 -86.7035)" class="st128" cx="337.3" cy="533.2" rx="1.1" ry="0.4"/>
			<path class="st128" d="M303.3,534.5c0,0-4.6,4.2-1,7.7c0,0,6.3,4.8,11,3.9c0,0,3.7,0.1,5.6-1.8c0,0,3.2-1.7,4.5-3.3
				c0,0,5.5-2.9,6.5-3.2c0,0,2.2-2.4-0.2-3.2l-3.4-1.7C326.3,532.9,305.3,533.1,303.3,534.5z"/>
			<path class="st128" d="M304.1,535.5c0,0-2.7,1-0.5,3.7c0,0,6.2,5.4,12.3,3.1c0,0,6.5-2.4,6.9-5.3c0,0-3.7-3.2-6-3
				C317,534,304.9,534,304.1,535.5z"/>
			<path class="st128" d="M303,537.5c5-2.6,12-2.2,12-2.2c3.2,0.8,3.6,3.2,3.6,3.2s0.3,1.9-1.1,2.8"/>
		</g>
		<path class="st124" d="M217.6,566c-35.4,4-57.6,12.1-57.6,12.1"/>
		<path class="st124" d="M218.6,565.9c0-0.1-2,0.3-2,0.3"/>
		<path class="st124" d="M350.8,577.6c-51.1-15.2-97.8-15.4-132.2-11.6"/>
		<path class="st124" d="M353.1,576.6c-104.9-33.1-193.2,0.1-193-0.3"/>
		<path class="st124" d="M355.8,576.4c-105.3-36.2-195.7-2-195.7-2"/>
		<ellipse class="st2" cx="253.1" cy="541.2" rx="9.2" ry="17.4"/>
		<g>
			<path class="st129" d="M243.7,543.2c0.1-3.6,19.6-11.1,19.6-11.1c3.3-2.3,7.2-7,7.2-7c1.6-1.1,4.5-3.7,4.5-3.7
				c1.5-1.4,6.8-2.7,6.8-2.7c1.7,0.5,11.2,0.7,11.2,0.7l9.6,2.9l4.4,1.7c1.5,0.5,5.4,3.7,5.4,3.7s0.8,2.7-2.4,3c0,0-5.2-1.8-6-2.9
				c0,0-6.8-0.2-9.2-1.4c0,0-5.1,0.1-5.8-0.3c0,0-2.8,1.6-4.5,2.2c0,0-0.7,0.9,0.3,3.4c0,0-0.4,2.9,1,4.1c0,0-0.3,1.5,6.8,1.5
				c0,0,3.4-0.9,7.6,2c0,0,2.9,2,1.6,4.1c0,0-0.5,2.6-6.6,0c0,0-2.1-1-4.8,0.5c0,0-4,0.4-5.2,0.7c0,0-3.8,0.7-5,1.8
				c0,0-6.7,3.8-10.7,2.6c0,0-8-1-11.1,0.4l-11.4,4.6C246.8,553.9,243.6,548.4,243.7,543.2z"/>
			<path class="st129" d="M301.6,527.9c0.3,1.9-2.2,3-2.2,3c-2.6,3.4-5.1,4-5.1,4s-3.1-0.8-1.7-3.2c0,0,1.8-2.5,2.6-3.4l-1.7-1.8
				l-1.1,3.1l-4.4,2.6c0,0-2.5,1.4-3.3,0.1c0,0-1.3-1.3,0.5-2.9l2.5-1.8l-0.1-1"/>
			<path class="st129" d="M297.7,520.6c0,0-1.4-3.5-2.8-3.7c0,0-1.7,0.5-3.2,0.8c0,0-2.6-0.1-3.9,0l-4,1.2"/>
		</g>
		<circle class="st16" cx="234.7" cy="522.9" r="1.3"/>
		<circle class="st16" cx="220.3" cy="532.6" r="1.3"/>
		<circle class="st16" cx="218.1" cy="522.8" r="1.3"/>
		<circle class="st16" cx="228.6" cy="511.6" r="1.3"/>
		<circle class="st16" cx="231.2" cy="486.1" r="1.3"/>
		<circle class="st16" cx="204.4" cy="551.1" r="1.3"/>
		<circle class="st16" cx="221.5" cy="549.1" r="1.3"/>
		<circle class="st16" cx="215.4" cy="514.6" r="1.3"/>
		<circle class="st16" cx="222.6" cy="474.4" r="1.3"/>
		<circle class="st16" cx="240" cy="472.5" r="1.3"/>
		<g>
			<path class="st84" d="M340.5,448l0.1,0c0.4,0,0.8-0.3,0.8-0.8l0.4-49.1c0-0.4-0.3-0.8-0.8-0.8l-0.1,0c-0.4,0-0.8,0.3-0.8,0.8
				l-0.4,49.1C339.7,447.6,340,448,340.5,448z"/>
			<path class="st84" d="M347.8,447.6l0.1,0c0.4,0,0.8-0.3,0.8-0.8l0.4-49.1c0-0.4-0.3-0.8-0.8-0.8l-0.1,0c-0.4,0-0.8,0.3-0.8,0.8
				l-0.4,49.1C347,447.2,347.3,447.6,347.8,447.6z"/>
			<path class="st84" d="M341,421.4L341,421.4c0.1,0.2,0.3,0.3,0.5,0.2l6.1-2.8c0.2-0.1,0.2-0.3,0.2-0.4l0,0
				c-0.1-0.2-0.3-0.2-0.4-0.2l-6.1,2.8C341,421,340.9,421.3,341,421.4z"/>
			<path class="st84" d="M340.9,418.6L340.9,418.6c-0.1,0.2,0,0.4,0.2,0.5l6.3,2.3c0.2,0.1,0.4,0,0.4-0.2l0,0c0.1-0.2,0-0.4-0.2-0.4
				l-6.3-2.3C341.1,418.3,340.9,418.4,340.9,418.6z"/>
			<path class="st84" d="M341,425.6L341,425.6c0.1,0.2,0.3,0.3,0.5,0.2l6.1-2.8c0.2-0.1,0.2-0.3,0.2-0.4l0,0
				c-0.1-0.2-0.3-0.2-0.4-0.2l-6.1,2.8C341,425.2,341,425.4,341,425.6z"/>
			<path class="st84" d="M340.9,422.7L340.9,422.7c-0.1,0.2,0,0.4,0.2,0.5l6.3,2.3c0.2,0.1,0.4,0,0.4-0.2l0,0c0.1-0.2,0-0.4-0.2-0.4
				l-6.3-2.3C341.2,422.5,341,422.6,340.9,422.7z"/>
			<path class="st84" d="M341,430L341,430c0.1,0.2,0.3,0.3,0.5,0.2l6.1-2.8c0.2-0.1,0.2-0.3,0.2-0.4l0,0c-0.1-0.2-0.3-0.2-0.4-0.2
				l-6.1,2.8C341,429.7,340.9,429.9,341,430z"/>
			<path class="st84" d="M340.9,427.2L340.9,427.2c-0.1,0.2,0,0.4,0.2,0.5l6.3,2.3c0.2,0.1,0.4,0,0.4-0.2l0,0c0.1-0.2,0-0.4-0.2-0.4
				l-6.3-2.3C341.1,426.9,340.9,427,340.9,427.2z"/>
			<path class="st84" d="M340.9,434.5L340.9,434.5c0.1,0.2,0.3,0.3,0.5,0.2l6.1-2.8c0.2-0.1,0.2-0.3,0.2-0.4l0,0
				c-0.1-0.2-0.3-0.2-0.4-0.2l-6.1,2.8C340.9,434.1,340.9,434.3,340.9,434.5z"/>
			<path class="st84" d="M340.8,431.7L340.8,431.7c-0.1,0.2,0,0.4,0.2,0.5l6.3,2.3c0.2,0.1,0.4,0,0.4-0.2l0,0c0.1-0.2,0-0.4-0.2-0.4
				l-6.3-2.3C341.1,431.4,340.9,431.5,340.8,431.7z"/>
			<path class="st84" d="M341,438.8L341,438.8c0.1,0.2,0.3,0.3,0.5,0.2l6.1-2.8c0.2-0.1,0.2-0.3,0.2-0.4l0,0
				c-0.1-0.2-0.3-0.2-0.4-0.2l-6.1,2.8C341,438.4,340.9,438.6,341,438.8z"/>
			<path class="st84" d="M340.9,436L340.9,436c-0.1,0.2,0,0.4,0.2,0.5l6.3,2.3c0.2,0.1,0.4,0,0.4-0.2l0,0c0.1-0.2,0-0.4-0.2-0.4
				l-6.3-2.3C341.1,435.7,341,435.8,340.9,436z"/>
			<path class="st84" d="M341.2,442.9L341.2,442.9c0.1,0.2,0.3,0.3,0.5,0.2l6.1-2.8c0.2-0.1,0.2-0.3,0.2-0.4l0,0
				c-0.1-0.2-0.3-0.2-0.4-0.2l-6.1,2.8C341.2,442.5,341.1,442.7,341.2,442.9z"/>
			<path class="st84" d="M341.1,440.1L341.1,440.1c-0.1,0.2,0,0.4,0.2,0.5l6.3,2.3c0.2,0.1,0.4,0,0.4-0.2l0,0c0.1-0.2,0-0.4-0.2-0.4
				l-6.3-2.3C341.4,439.8,341.2,439.9,341.1,440.1z"/>
		</g>
		<g>
			<path class="st84" d="M362.7,443.4L362.7,443.4c-0.5,0.2-0.9-0.1-1.1-0.5L347,396.1c-0.1-0.4,0.1-0.9,0.5-1l0.1,0
				c0.4-0.1,0.9,0.1,1,0.5l14.7,46.8C363.4,442.8,363.2,443.3,362.7,443.4z"/>
			<path class="st84" d="M355.7,445.1L355.7,445.1c-0.5,0.2-0.9-0.1-1.1-0.5l-14.7-46.8c-0.1-0.4,0.1-0.9,0.5-1l0.1,0
				c0.4-0.1,0.9,0.1,1,0.5l14.7,46.8C356.3,444.6,356.1,445,355.7,445.1z"/>
			<path class="st84" d="M353.2,414.2L353.2,414.2c0,0.2-0.2,0.4-0.4,0.3l-6.6-1c-0.2,0-0.3-0.2-0.3-0.4l0,0c0-0.2,0.2-0.3,0.4-0.3
				l6.6,1C353.1,413.8,353.2,414,353.2,414.2z"/>
			<path class="st84" d="M352.5,411.5L352.5,411.5c0.1,0.2,0.1,0.4,0,0.5l-5.4,4c-0.1,0.1-0.4,0.1-0.5-0.1l0,0
				c-0.1-0.1-0.1-0.4,0.1-0.5l5.4-4C352.2,411.3,352.4,411.3,352.5,411.5z"/>
			<path class="st84" d="M354.5,418.2L354.5,418.2c0,0.2-0.2,0.4-0.4,0.3l-6.6-1c-0.2,0-0.3-0.2-0.3-0.4l0,0c0-0.2,0.2-0.3,0.4-0.3
				l6.6,1C354.4,417.8,354.5,418,354.5,418.2z"/>
			<path class="st84" d="M353.8,415.4L353.8,415.4c0.1,0.2,0.1,0.4,0,0.5l-5.4,4c-0.1,0.1-0.4,0.1-0.5-0.1l0,0
				c-0.1-0.1-0.1-0.4,0.1-0.5l5.4-4C353.5,415.2,353.7,415.3,353.8,415.4z"/>
			<path class="st84" d="M355.7,422.1L355.7,422.1c0,0.2-0.2,0.4-0.4,0.3l-6.6-1c-0.2,0-0.3-0.2-0.3-0.4l0,0c0-0.2,0.2-0.3,0.4-0.3
				l6.6,1C355.6,421.8,355.7,422,355.7,422.1z"/>
			<path class="st84" d="M355,419.4L355,419.4c0.1,0.2,0.1,0.4,0,0.5l-5.4,4c-0.1,0.1-0.4,0.1-0.5-0.1l0,0c-0.1-0.1-0.1-0.4,0.1-0.5
				l5.4-4C354.6,419.2,354.8,419.3,355,419.4z"/>
			<path class="st84" d="M357,426.4L357,426.4c0,0.2-0.2,0.4-0.4,0.3l-6.6-1c-0.2,0-0.3-0.2-0.3-0.4l0,0c0-0.2,0.2-0.3,0.4-0.3
				l6.6,1C356.9,426,357,426.2,357,426.4z"/>
			<path class="st84" d="M356.3,423.7L356.3,423.7c0.1,0.2,0.1,0.4,0,0.5l-5.4,4c-0.1,0.1-0.4,0.1-0.5-0.1l0,0
				c-0.1-0.1-0.1-0.4,0.1-0.5l5.4-4C356,423.5,356.2,423.5,356.3,423.7z"/>
			<path class="st84" d="M358.4,430.7L358.4,430.7c0,0.2-0.2,0.4-0.4,0.3l-6.6-1c-0.2,0-0.3-0.2-0.3-0.4l0,0c0-0.2,0.2-0.3,0.4-0.3
				l6.6,1C358.3,430.3,358.4,430.5,358.4,430.7z"/>
			<path class="st84" d="M357.7,427.9L357.7,427.9c0.1,0.2,0.1,0.4,0,0.5l-5.4,4c-0.1,0.1-0.4,0.1-0.5-0.1l0,0
				c-0.1-0.1-0.1-0.4,0.1-0.5l5.4-4C357.3,427.7,357.5,427.8,357.7,427.9z"/>
			<path class="st84" d="M359.6,434.8L359.6,434.8c0,0.2-0.2,0.4-0.4,0.3l-6.6-1c-0.2,0-0.3-0.2-0.3-0.4l0,0c0-0.2,0.2-0.3,0.4-0.3
				l6.6,1C359.5,434.4,359.6,434.6,359.6,434.8z"/>
			<path class="st84" d="M358.8,432L358.8,432c0.1,0.2,0.1,0.4,0,0.5l-5.4,4c-0.1,0.1-0.4,0.1-0.5-0.1l0,0c-0.1-0.1-0.1-0.4,0.1-0.5
				l5.4-4C358.5,431.9,358.7,431.9,358.8,432z"/>
			<path class="st84" d="M360.6,438.8L360.6,438.8c0,0.2-0.2,0.4-0.4,0.3l-6.6-1c-0.2,0-0.3-0.2-0.3-0.4l0,0c0-0.2,0.2-0.3,0.4-0.3
				l6.6,1C360.5,438.4,360.6,438.6,360.6,438.8z"/>
			<path class="st84" d="M359.8,436L359.8,436c0.1,0.2,0.1,0.4,0,0.5l-5.4,4c-0.1,0.1-0.4,0.1-0.5-0.1l0,0c-0.1-0.1-0.1-0.4,0.1-0.5
				l5.4-4C359.5,435.9,359.7,435.9,359.8,436z"/>
		</g>
		<path class="st91" d="M335.4,482c0.1,1.1,0.1,1.1-0.5,1.9c-0.1,0.1-0.1,0.2-0.2,0.3c-0.8,1.2-0.9,2.4-0.9,3.8
			c0,0.5,0.3,0.8,0.9,0.8c0.2,0,0.5,0,0.7,0c0,0.3,0,0.6,0,0.9c-1.3,0.4-2.2,1.2-2.3,2.5c-0.2,1.4,0.5,2.4,1.8,3.1
			c0,0,0,0.1-0.1,0.1c-1.2,1.5-2.4,3-3.6,4.5c-0.1,0.1-0.2,0.1-0.4,0.2c-0.5,0-1.1,0-1.6,0c-0.6,0-0.9,0.3-0.9,0.9
			c0,1.9,0,3.9,0,5.8c0,0.6,0.3,0.9,0.9,0.9c4.7,0,9.4,0,14.2,0c0.6,0,0.9-0.3,0.9-0.8c0-2,0-3.9,0-5.9c0-0.5-0.3-0.8-0.9-0.8
			c-0.5,0-1,0-1.6,0c-0.3,0-0.4-0.1-0.5-0.3c-1.4-1.8-2.8-3.5-4.2-5.3c-0.2-0.3-0.5-0.5-0.8-0.5c-0.9,0-1.5-0.7-1.5-1.5
			c0-0.8,0.7-1.4,1.5-1.5c0.6,0,0.8-0.3,0.9-0.8c0-0.5,0-0.9,0-1.4c0.3,0,0.6,0,0.8,0c0.4,0,0.8-0.3,0.8-0.7
			c0.1-1.7-0.2-3.3-1.4-4.7c-0.1-0.1-0.1-0.2-0.1-0.2c0-0.4,0-0.7,0-1.1"/>
		<g>
			<polygon class="st91" points="353.7,496.7 347.5,495.6 347.5,490.6 353.7,491.7 			"/>
			<polygon class="st91" points="357.9,492.5 353.7,496.7 353.7,491.8 357.9,487.6 			"/>
			<polygon class="st16" points="351.7,486.5 357.9,487.6 353.7,491.7 347.5,490.6 			"/>
		</g>
		<line class="st130" x1="336.3" y1="482.5" x2="340.6" y2="446.7"/>
		<line class="st130" x1="347.7" y1="446.9" x2="336.3" y2="482.5"/>
		<line class="st130" x1="347.8" y1="447.6" x2="352.7" y2="489.1"/>
		<line class="st130" x1="339.7" y1="447.2" x2="352.7" y2="489.1"/>
	</g>
	<line class="st131" x1="495.9" y1="73.4" x2="496.3" y2="200.5"/>
	<g>
		<g>
			<path class="st132" d="M499.6,209.5c0.1,0.5,0.2,0.8,0.2,1.1c0,0.8-1.3,1.5-3,1.5c-1.7,0-3.1-0.7-3.1-1.5c0-0.1,0-0.6,0-0.6"/>
			<polygon class="st132" points="496.4,218.6 497.5,217.4 497.5,212.3 495.9,212.2 496,217.3 			"/>
			<ellipse class="st132" cx="496.6" cy="209.8" rx="3" ry="1.5"/>
		</g>
	</g>
	<line class="st131" x1="516.1" y1="425.7" x2="516.1" y2="490.3"/>
	<g>
		<g>
			<path class="st132" d="M519.8,498.7c0.1,0.5,0.2,0.8,0.2,1.1c0,0.8-1.3,1.5-3,1.5c-1.7,0-3.1-0.7-3.1-1.5c0-0.1,0-0.6,0-0.6"/>
			<polygon class="st132" points="516.6,507.8 517.7,506.6 517.7,501.5 516.1,501.4 516.2,506.5 			"/>
			<ellipse class="st132" cx="516.8" cy="499" rx="3" ry="1.5"/>
		</g>
	</g>
	<polygon class="st107" points="101.6,495.5 119,484.5 118.7,567.1 102.7,547.1 	"/>
	<line class="st107" x1="119" y1="484.5" x2="132.3" y2="487.7"/>
	<line class="st107" x1="118.7" y1="567.1" x2="158.6" y2="564.9"/>
	<line class="st107" x1="98.2" y1="507.6" x2="88" y2="507.6"/>
	<line class="st107" x1="98.2" y1="533.3" x2="102.1" y2="533.3"/>
	<polygon class="st107" points="94.5,455.6 103.4,457.6 103.7,477.5 95.1,476.2 	"/>
	<polyline class="st107" points="94.5,455.6 85.6,467.5 86.2,477.3 	"/>
	<polyline class="st107" points="103.7,471.6 94.6,480.2 89.4,479.4 	"/>
	<polygon class="st107" points="90.5,471.8 90.5,480.5 92.8,481.3 93.1,472.4 	"/>
	<polyline class="st107" points="90.5,471.8 83.9,481.5 84.2,488.1 90.5,480.5 	"/>
	<polyline class="st107" points="84.2,482.2 86.9,482.5 92.8,475.4 	"/>
	<line class="st107" x1="100.9" y1="510.3" x2="90.8" y2="510.3"/>
	<line class="st107" x1="98.2" y1="502.4" x2="88" y2="502.4"/>
	<line class="st107" x1="100.9" y1="505.2" x2="90.8" y2="505.2"/>
	<line class="st107" x1="98.2" y1="497.3" x2="88" y2="497.3"/>
	<line class="st107" x1="100.9" y1="500" x2="90.8" y2="500"/>
	<line class="st107" x1="98.2" y1="512.6" x2="88" y2="512.6"/>
	<line class="st107" x1="100.9" y1="515.4" x2="90.8" y2="515.4"/>
	<line class="st107" x1="98.2" y1="517.7" x2="88" y2="517.7"/>
	<line class="st107" x1="100.9" y1="520.4" x2="90.8" y2="520.4"/>
	<line class="st107" x1="98.2" y1="522.7" x2="88" y2="522.7"/>
	<line class="st107" x1="100.9" y1="525.5" x2="90.8" y2="525.5"/>
	<line class="st107" x1="98.2" y1="527.8" x2="88" y2="527.8"/>
	<line class="st107" x1="100.9" y1="530.5" x2="90.8" y2="530.5"/>
	<polyline class="st107" points="105.6,551.3 105.6,502.4 114.4,497.2 114.4,561.1 	"/>
	<ellipse class="st133" cx="516.1" cy="426.4" rx="3.8" ry="2.7"/>
	<ellipse class="st133" cx="296.3" cy="505.4" rx="3.8" ry="2.7"/>
	<line class="st131" x1="464.7" y1="510.2" x2="464.7" y2="569.1"/>
	<g>
		<polygon class="st132" points="468.7,575.8 468.7,574.7 465.7,573.5 465.7,574.6 		"/>
		<polygon class="st132" points="465.7,574.6 465.7,573.5 463,574.6 463,575.8 		"/>
		<g>
			<polygon class="st132" points="465.7,582.2 465.7,581.1 463,582.2 463,583.4 			"/>
			<polygon class="st132" points="468.7,583.4 468.7,582.3 465.7,581.1 465.7,582.2 			"/>
			<polygon class="st132" points="466,584.4 463,583.4 465.7,582.2 468.7,583.4 			"/>
			<line class="st132" x1="465.7" y1="581.1" x2="465.7" y2="574.6"/>
			<path class="st132" d="M463,582.2v-1.6c0,0,3-2.1,0-3.5v-1.4"/>
			<path class="st132" d="M468.7,582.3v-1.7c0,0-3-2.1,0-3.5v-1.4"/>
		</g>
	</g>
	<path class="st124" d="M160.5,588c0,0,103.8-31.1,194.7-0.6"/>
	<path class="st124" d="M160.5,591.2c0,0,103.8-31.1,194.7-0.6"/>
	<path class="st124" d="M160.5,594.4c0,0,103.8-31.1,194.7-0.6"/>
	<path class="st124" d="M160.5,597.6c0,0,103.8-31.1,194.7-0.6"/>
	<path class="st124" d="M160.5,600.8c0,0,103.8-31.1,194.7-0.6"/>
	<path class="st124" d="M160.5,604c0,0,103.8-31.1,194.7-0.6"/>
	<path class="st124" d="M160.5,588c0,0,103.8-31.1,194.7-0.6"/>
</g>
<rect class="st138" width="566.9" height="652"/>
</svg>
