<?xml version="1.0" encoding="utf-8"?>
<!-- Generator: Adobe Illustrator 19.1.0, SVG Export Plug-In . SVG Version: 6.00 Build 0)  -->
<svg version="1.1" id="圖層_1" xmlns="http://www.w3.org/2000/svg" xmlns:xlink="http://www.w3.org/1999/xlink" x="0px" y="0px"
	 viewBox="0 0 255.1 70.9" style="enable-background:new 0 0 255.1 70.9;" xml:space="preserve">
<style type="text/css">
	.st0{fill:#2A4399;stroke:#2A4399;stroke-width:0.25;stroke-miterlimit:10;}
	.st1{fill:#EC675A;}
	.st2{fill:none;stroke:#FFFFFF;stroke-linecap:round;stroke-miterlimit:10;}
	.st3{fill:#EC675A;stroke:#EC675A;stroke-width:0.25;stroke-miterlimit:10;}
	.st4{font-family:'Comfortaa-Regular';}
	.st5{font-size:24px;}
	.st6{fill:none;stroke:#2A4399;stroke-width:0.7984;stroke-miterlimit:10;}
	.st7{fill:none;stroke:#EC675A;stroke-width:0.75;stroke-miterlimit:10;}
</style>
<g>
	<g>
		<path class="st3" d="M13.6,42.6c-0.4-0.4-0.6-0.8-0.6-1.3c0-0.3,0-0.5,0.1-0.7s0.2-0.4,0.4-0.6c0.2-0.2,0.4-0.3,0.6-0.4
			s0.5-0.1,0.7-0.1c0.5,0,1,0.2,1.3,0.6c0.4,0.4,0.6,0.8,0.6,1.3c0,0.5-0.2,1-0.6,1.3c-0.1,0.1-0.1,0.1-0.2,0.2
			c0.1,0.1,0.2,0.1,0.3,0.2s0.2,0.1,0.2,0.2c0.4,0.4,0.7,1,0.7,1.6s-0.2,1.2-0.7,1.6c-0.4,0.4-1,0.7-1.6,0.7c-0.6,0-1.2-0.2-1.6-0.7
			c-0.4-0.4-0.7-1-0.7-1.6c0-0.6,0.2-1.2,0.7-1.6c0.1-0.1,0.3-0.3,0.5-0.4C13.7,42.8,13.6,42.7,13.6,42.6z M14.9,43.2
			c-0.5,0-0.9,0.2-1.2,0.5c-0.3,0.3-0.5,0.7-0.5,1.2c0,0.5,0.2,0.9,0.5,1.2c0.4,0.3,0.8,0.5,1.2,0.5c0.5,0,0.9-0.2,1.2-0.5
			c0.3-0.3,0.5-0.7,0.5-1.2c0-0.5-0.2-0.9-0.5-1.2C15.8,43.4,15.4,43.2,14.9,43.2z M14.9,40c-0.4,0-0.7,0.1-0.9,0.4
			c-0.3,0.2-0.4,0.5-0.4,0.9c0,0.4,0.1,0.7,0.4,0.9c0.3,0.3,0.6,0.4,0.9,0.4c0.4,0,0.7-0.1,0.9-0.4c0.3-0.3,0.4-0.6,0.4-0.9
			c0-0.4-0.1-0.7-0.4-0.9C15.6,40.1,15.3,40,14.9,40z"/>
		<path class="st3" d="M20.7,46.6c0.1,0,0.2,0,0.2,0.1s0.1,0.1,0.1,0.2c0,0.1,0,0.2-0.1,0.2s-0.1,0.1-0.2,0.1
			c-1.3,0-1.9-0.6-1.9-1.9v-2.9h-0.5c-0.1,0-0.2,0-0.2-0.1S18,42.1,18,42c0-0.1,0-0.2,0.1-0.2s0.1-0.1,0.2-0.1h0.5v-2
			c0-0.1,0-0.2,0.1-0.2s0.1-0.1,0.2-0.1s0.2,0,0.2,0.1s0.1,0.1,0.1,0.2v2h0.9c0.1,0,0.2,0,0.2,0.1s0.1,0.1,0.1,0.2
			c0,0.1,0,0.2-0.1,0.2s-0.1,0.1-0.2,0.1h-0.9v2.9C19.4,46.1,19.9,46.6,20.7,46.6z"/>
		<path class="st3" d="M21.9,39.7c0-0.1,0-0.2,0.1-0.2c0.1-0.1,0.1-0.1,0.2-0.1c0.1,0,0.2,0,0.2,0.1c0.1,0.1,0.1,0.1,0.1,0.2v2.9
			c0.6-0.6,1.2-0.9,1.9-0.9c0.7,0,1.3,0.2,1.8,0.7c0.5,0.5,0.7,1.1,0.7,1.8v2.6c0,0.1,0,0.2-0.1,0.2s-0.1,0.1-0.2,0.1
			s-0.2,0-0.2-0.1c-0.1-0.1-0.1-0.1-0.1-0.2v-2.6c0-0.5-0.2-1-0.6-1.3c-0.4-0.4-0.8-0.6-1.3-0.6s-1,0.2-1.3,0.6
			c-0.4,0.4-0.6,0.8-0.6,1.3v2.6c0,0.1,0,0.2-0.1,0.2c-0.1,0.1-0.1,0.1-0.2,0.1c-0.1,0-0.2,0-0.2-0.1c-0.1-0.1-0.1-0.1-0.1-0.2V39.7
			z"/>
		<path class="st3" d="M32.7,45.9c0-0.1,0-0.2,0.1-0.2c0.1-0.1,0.1-0.1,0.2-0.1c0.1,0,0.2,0,0.3,0.1c0,0.1,0.1,0.1,0.1,0.2
			c0.1,0.2,0.3,0.3,0.5,0.4c0.2,0.1,0.5,0.2,0.8,0.2c0.4,0,0.8-0.1,1.1-0.4c0.2-0.1,0.3-0.3,0.4-0.5c0.1-0.2,0.2-0.5,0.2-0.8
			c0-0.4-0.1-0.8-0.4-1.1c-0.3-0.3-0.7-0.5-1.1-0.6c-0.6-0.1-1-0.3-1.3-0.7c-0.1-0.2-0.3-0.4-0.3-0.6c-0.1-0.2-0.1-0.4-0.1-0.6
			c0-0.6,0.2-1.1,0.7-1.5c0.4-0.3,0.8-0.5,1.2-0.5c0.5,0,1,0.2,1.4,0.7c0.1,0.1,0.1,0.2,0.2,0.3c0,0,0,0.1,0,0.2
			c0,0.1,0,0.1-0.1,0.2c-0.1,0.1-0.1,0.1-0.2,0.1c-0.1,0-0.2,0-0.2-0.1c-0.1-0.1-0.1-0.2-0.2-0.2c-0.2-0.3-0.5-0.4-0.9-0.5
			c-0.4,0-0.7,0.1-0.9,0.3c-0.3,0.2-0.4,0.5-0.4,0.9c0,0.2,0,0.3,0.1,0.5c0,0.2,0.1,0.3,0.2,0.4c0.2,0.2,0.6,0.4,1.1,0.5
			c0.6,0.1,1.1,0.4,1.4,0.8c0.2,0.2,0.3,0.4,0.4,0.7c0.1,0.2,0.1,0.5,0.1,0.8c0,0.4-0.1,0.8-0.2,1.1c-0.1,0.3-0.3,0.5-0.6,0.7
			c-0.4,0.4-0.9,0.5-1.5,0.5c-0.7,0-1.3-0.3-1.8-0.8c-0.1-0.1-0.1-0.1-0.2-0.2C32.7,46.1,32.7,46,32.7,45.9z"/>
		<path class="st3" d="M40.5,46.6c0.1,0,0.2,0,0.2,0.1s0.1,0.1,0.1,0.2c0,0.1,0,0.2-0.1,0.2s-0.1,0.1-0.2,0.1
			c-1.3,0-1.9-0.6-1.9-1.9v-2.9h-0.5c-0.1,0-0.2,0-0.2-0.1s-0.1-0.1-0.1-0.2c0-0.1,0-0.2,0.1-0.2s0.1-0.1,0.2-0.1h0.5v-2
			c0-0.1,0-0.2,0.1-0.2s0.1-0.1,0.2-0.1s0.2,0,0.2,0.1s0.1,0.1,0.1,0.2v2h0.9c0.1,0,0.2,0,0.2,0.1s0.1,0.1,0.1,0.2
			c0,0.1,0,0.2-0.1,0.2s-0.1,0.1-0.2,0.1h-0.9v2.9C39.2,46.1,39.7,46.6,40.5,46.6z"/>
		<path class="st3" d="M46.7,46.9c0,0.1,0,0.2-0.1,0.2s-0.1,0.1-0.2,0.1s-0.2,0-0.2-0.1c-0.1-0.1-0.1-0.1-0.1-0.2v-0.6
			c-0.6,0.6-1.2,0.9-1.9,0.9c-0.7,0-1.3-0.2-1.8-0.7c-0.5-0.5-0.7-1.1-0.7-1.8V42c0-0.1,0-0.2,0.1-0.2c0.1-0.1,0.1-0.1,0.2-0.1
			c0.1,0,0.2,0,0.2,0.1c0.1,0.1,0.1,0.1,0.1,0.2v2.6c0,0.5,0.2,1,0.6,1.3c0.4,0.4,0.8,0.6,1.3,0.6c0.5,0,1-0.2,1.3-0.6
			c0.4-0.4,0.6-0.8,0.6-1.3V42c0-0.1,0-0.2,0.1-0.2c0.1-0.1,0.1-0.1,0.2-0.1s0.2,0,0.2,0.1s0.1,0.1,0.1,0.2V46.9z"/>
		<path class="st3" d="M52.3,39.7c0-0.1,0-0.2,0.1-0.2s0.1-0.1,0.2-0.1s0.2,0,0.2,0.1c0.1,0.1,0.1,0.1,0.1,0.2v4.7
			c0,0.7-0.3,1.4-0.8,1.9s-1.2,0.8-1.9,0.8c-0.7,0-1.4-0.3-1.9-0.8s-0.8-1.2-0.8-1.9s0.3-1.4,0.8-1.9s1.2-0.8,1.9-0.8
			c0.7,0,1.4,0.3,1.9,0.8l0.2,0.2V39.7z M52.3,44.5c0-0.6-0.2-1.1-0.6-1.5c-0.4-0.4-0.9-0.6-1.5-0.6s-1.1,0.2-1.5,0.6
			c-0.4,0.4-0.6,0.9-0.6,1.5s0.2,1.1,0.6,1.5c0.4,0.4,0.9,0.6,1.5,0.6s1.1-0.2,1.5-0.6C52.1,45.5,52.3,45,52.3,44.5z"/>
		<path class="st3" d="M57.9,46c0.1,0,0.2,0,0.2,0.1s0.1,0.1,0.1,0.2c0,0.1,0,0.2-0.1,0.2c-0.5,0.4-1.1,0.7-1.8,0.7
			c-0.7,0-1.4-0.3-1.9-0.8s-0.8-1.2-0.8-1.9s0.3-1.4,0.8-1.9s1.2-0.8,1.9-0.8c0.7,0,1.4,0.3,1.9,0.8s0.8,1.2,0.8,1.9
			c0,0.1,0,0.2-0.1,0.2c-0.1,0.1-0.1,0.1-0.2,0.1h-4.5c0.1,0.5,0.3,0.9,0.6,1.2c0.4,0.4,0.9,0.6,1.5,0.6c0.3,0,0.5,0,0.7-0.1
			c0.2-0.1,0.4-0.2,0.6-0.4C57.8,46,57.8,46,57.9,46z M58.4,44.2c-0.1-0.5-0.3-0.9-0.6-1.2c-0.4-0.4-0.9-0.6-1.5-0.6
			s-1.1,0.2-1.5,0.6c-0.3,0.3-0.5,0.7-0.6,1.2H58.4z"/>
		<path class="st3" d="M59.8,42c0-0.1,0-0.2,0.1-0.2c0.1-0.1,0.1-0.1,0.2-0.1c0.1,0,0.2,0,0.2,0.1c0.1,0.1,0.1,0.1,0.1,0.2v0.6
			c0.6-0.6,1.2-0.9,1.9-0.9c0.7,0,1.3,0.2,1.8,0.7c0.5,0.5,0.7,1.1,0.7,1.8v2.6c0,0.1,0,0.2-0.1,0.2s-0.1,0.1-0.2,0.1
			s-0.2,0-0.2-0.1c-0.1-0.1-0.1-0.1-0.1-0.2v-2.6c0-0.5-0.2-1-0.6-1.3c-0.4-0.4-0.8-0.6-1.3-0.6s-1,0.2-1.3,0.6
			c-0.4,0.4-0.6,0.8-0.6,1.3v2.6c0,0.1,0,0.2-0.1,0.2c-0.1,0.1-0.1,0.1-0.2,0.1c-0.1,0-0.2,0-0.2-0.1c-0.1-0.1-0.1-0.1-0.1-0.2V42z"
			/>
		<path class="st3" d="M68.4,46.6c0.1,0,0.2,0,0.2,0.1s0.1,0.1,0.1,0.2c0,0.1,0,0.2-0.1,0.2s-0.1,0.1-0.2,0.1
			c-1.3,0-1.9-0.6-1.9-1.9v-2.9H66c-0.1,0-0.2,0-0.2-0.1s-0.1-0.1-0.1-0.2c0-0.1,0-0.2,0.1-0.2s0.1-0.1,0.2-0.1h0.5v-2
			c0-0.1,0-0.2,0.1-0.2s0.1-0.1,0.2-0.1s0.2,0,0.2,0.1s0.1,0.1,0.1,0.2v2H68c0.1,0,0.2,0,0.2,0.1s0.1,0.1,0.1,0.2
			c0,0.1,0,0.2-0.1,0.2S68,42.3,68,42.3h-0.9v2.9C67.1,46.1,67.5,46.6,68.4,46.6z"/>
		<path class="st3" d="M82.2,43.3c0,1.1-0.4,2-1.1,2.7c-0.8,0.8-1.7,1.1-2.7,1.1c-0.5,0-1-0.1-1.5-0.3c-0.5-0.2-0.9-0.5-1.3-0.8
			c-0.4-0.4-0.6-0.8-0.8-1.3c-0.2-0.5-0.3-1-0.3-1.5c0-1.1,0.4-2,1.1-2.7c0.8-0.8,1.7-1.1,2.7-1.1c1.1,0,2,0.4,2.7,1.1
			C81.8,41.3,82.2,42.2,82.2,43.3z M78.4,40c-0.9,0-1.7,0.3-2.3,1c-0.6,0.6-1,1.4-1,2.3c0,0.9,0.3,1.7,1,2.3c0.6,0.6,1.4,1,2.3,1
			c0.9,0,1.7-0.3,2.3-1c0.6-0.6,1-1.4,1-2.3c0-0.9-0.3-1.7-1-2.3C80,40.3,79.3,40,78.4,40z"/>
		<path class="st3" d="M83,42c0-0.1,0-0.2,0.1-0.2c0.1-0.1,0.1-0.1,0.2-0.1c0.1,0,0.2,0,0.2,0.1c0.1,0.1,0.1,0.1,0.1,0.2v0.7
			c0.7-0.7,1.4-1,2.1-1c0.4,0,0.7,0.1,1,0.2c0.1,0,0.1,0,0.1,0.1c0.1,0.1,0.1,0.1,0.1,0.2c0,0.1,0,0.2-0.1,0.2s-0.1,0.1-0.2,0.1
			c-0.1,0-0.1,0-0.1,0c-0.2-0.1-0.5-0.2-0.8-0.2c-0.6,0-1.1,0.2-1.5,0.6c-0.4,0.4-0.6,0.9-0.6,1.5v2.4c0,0.1,0,0.2-0.1,0.2
			c-0.1,0.1-0.1,0.1-0.2,0.1c-0.1,0-0.2,0-0.2-0.1C83,47,83,46.9,83,46.9V42z"/>
		<path class="st3" d="M92.4,46.2c-0.6,0.7-1.3,1-2.1,1c-0.7,0-1.4-0.3-1.9-0.8c-0.5-0.5-0.8-1.2-0.8-1.9c0-0.7,0.3-1.4,0.8-1.9
			c0.5-0.5,1.2-0.8,1.9-0.8c0.7,0,1.4,0.3,1.9,0.8c0.5,0.5,0.8,1.2,0.8,1.9v2.7c0,0.6-0.2,1-0.6,1.4c-0.6,0.6-1.3,0.9-2.1,0.9
			c-0.8,0-1.5-0.3-2.1-0.9c-0.2-0.2-0.4-0.4-0.5-0.7c0-0.1-0.1-0.1-0.1-0.2c0-0.1,0-0.2,0.1-0.2c0.1-0.1,0.1-0.1,0.2-0.1
			s0.2,0,0.2,0.1c0,0,0,0.1,0.1,0.1c0.1,0.2,0.2,0.4,0.4,0.5c0.2,0.2,0.5,0.4,0.7,0.5c0.3,0.1,0.6,0.2,0.9,0.2
			c0.6,0,1.2-0.2,1.6-0.7c0.3-0.3,0.4-0.7,0.4-1V46.2z M90.3,42.3c-0.6,0-1.1,0.2-1.5,0.6c-0.4,0.4-0.6,0.9-0.6,1.5
			c0,0.6,0.2,1.1,0.6,1.5c0.4,0.4,0.9,0.6,1.5,0.6s1.1-0.2,1.5-0.6c0.4-0.4,0.6-0.9,0.6-1.5c0-0.6-0.2-1.1-0.6-1.5
			C91.4,42.6,90.9,42.3,90.3,42.3z"/>
		<path class="st3" d="M98.6,46.2c-0.7,0.7-1.4,1-2.1,1c-0.7,0-1.4-0.3-1.9-0.8s-0.8-1.2-0.8-1.9s0.3-1.4,0.8-1.9s1.2-0.8,1.9-0.8
			c0.7,0,1.4,0.3,1.9,0.8s0.8,1.2,0.8,1.9v2.4c0,0.1,0,0.2-0.1,0.2c-0.1,0.1-0.1,0.1-0.2,0.1s-0.2,0-0.2-0.1s-0.1-0.1-0.1-0.2V46.2z
			 M96.5,42.3c-0.6,0-1.1,0.2-1.5,0.6c-0.4,0.4-0.6,0.9-0.6,1.5s0.2,1.1,0.6,1.5c0.4,0.4,0.9,0.6,1.5,0.6s1.1-0.2,1.5-0.6
			c0.4-0.4,0.6-0.9,0.6-1.5S98.4,43.4,98,43C97.6,42.6,97.1,42.3,96.5,42.3z"/>
		<path class="st3" d="M100,42c0-0.1,0-0.2,0.1-0.2c0.1-0.1,0.1-0.1,0.2-0.1c0.1,0,0.2,0,0.2,0.1c0.1,0.1,0.1,0.1,0.1,0.2v0.6
			c0.6-0.6,1.2-0.9,1.9-0.9c0.7,0,1.3,0.2,1.8,0.7c0.5,0.5,0.7,1.1,0.7,1.8v2.6c0,0.1,0,0.2-0.1,0.2s-0.1,0.1-0.2,0.1
			s-0.2,0-0.2-0.1c-0.1-0.1-0.1-0.1-0.1-0.2v-2.6c0-0.5-0.2-1-0.6-1.3c-0.4-0.4-0.8-0.6-1.3-0.6s-1,0.2-1.3,0.6
			c-0.4,0.4-0.6,0.8-0.6,1.3v2.6c0,0.1,0,0.2-0.1,0.2c-0.1,0.1-0.1,0.1-0.2,0.1c-0.1,0-0.2,0-0.2-0.1c-0.1-0.1-0.1-0.1-0.1-0.2V42z"
			/>
		<path class="st3" d="M106.9,40.4c0,0.1,0,0.2-0.1,0.3s-0.2,0.1-0.3,0.1c-0.1,0-0.2,0-0.3-0.1c-0.1-0.1-0.1-0.2-0.1-0.3
			c0-0.1,0-0.2,0.1-0.3c0.1-0.1,0.2-0.1,0.3-0.1c0.1,0,0.2,0,0.3,0.1S106.9,40.3,106.9,40.4z M106.2,42c0-0.1,0-0.2,0.1-0.2
			c0.1-0.1,0.1-0.1,0.2-0.1s0.2,0,0.2,0.1s0.1,0.1,0.1,0.2v4.8c0,0.1,0,0.2-0.1,0.2s-0.1,0.1-0.2,0.1s-0.2,0-0.2-0.1
			c-0.1-0.1-0.1-0.1-0.1-0.2V42z"/>
		<path class="st3" d="M112.4,46.6c0.1,0,0.2,0,0.2,0.1c0.1,0.1,0.1,0.1,0.1,0.2c0,0.1,0,0.2-0.1,0.2c-0.1,0.1-0.1,0.1-0.2,0.1h-4
			c-0.1,0-0.2,0-0.2-0.1s-0.1-0.1-0.1-0.2c0-0.1,0-0.1,0.1-0.2l3.6-4.3h-3.4c-0.1,0-0.2,0-0.2-0.1s-0.1-0.1-0.1-0.2
			c0-0.1,0-0.2,0.1-0.2s0.1-0.1,0.2-0.1h4c0.1,0,0.2,0,0.2,0.1c0.1,0.1,0.1,0.1,0.1,0.2c0,0.1,0,0.1-0.1,0.2l-3.6,4.3H112.4z"/>
		<path class="st3" d="M117.5,46c0.1,0,0.2,0,0.2,0.1s0.1,0.1,0.1,0.2c0,0.1,0,0.2-0.1,0.2c-0.5,0.4-1.1,0.7-1.8,0.7
			c-0.7,0-1.4-0.3-1.9-0.8s-0.8-1.2-0.8-1.9s0.3-1.4,0.8-1.9s1.2-0.8,1.9-0.8c0.7,0,1.4,0.3,1.9,0.8s0.8,1.2,0.8,1.9
			c0,0.1,0,0.2-0.1,0.2c-0.1,0.1-0.1,0.1-0.2,0.1h-4.5c0.1,0.5,0.3,0.9,0.6,1.2c0.4,0.4,0.9,0.6,1.5,0.6c0.3,0,0.5,0,0.7-0.1
			c0.2-0.1,0.4-0.2,0.6-0.4C117.3,46,117.4,46,117.5,46z M118,44.2c-0.1-0.5-0.3-0.9-0.6-1.2c-0.4-0.4-0.9-0.6-1.5-0.6
			s-1.1,0.2-1.5,0.6c-0.3,0.3-0.5,0.7-0.6,1.2H118z"/>
		<path class="st3" d="M124.2,39.7c0-0.1,0-0.2,0.1-0.2s0.1-0.1,0.2-0.1s0.2,0,0.2,0.1c0.1,0.1,0.1,0.1,0.1,0.2v4.7
			c0,0.7-0.3,1.4-0.8,1.9s-1.2,0.8-1.9,0.8c-0.7,0-1.4-0.3-1.9-0.8s-0.8-1.2-0.8-1.9s0.3-1.4,0.8-1.9s1.2-0.8,1.9-0.8
			c0.7,0,1.4,0.3,1.9,0.8l0.2,0.2V39.7z M124.2,44.5c0-0.6-0.2-1.1-0.6-1.5c-0.4-0.4-0.9-0.6-1.5-0.6s-1.1,0.2-1.5,0.6
			c-0.4,0.4-0.6,0.9-0.6,1.5s0.2,1.1,0.6,1.5c0.4,0.4,0.9,0.6,1.5,0.6s1.1-0.2,1.5-0.6C124,45.5,124.2,45,124.2,44.5z"/>
		<path class="st3" d="M134.6,39.5c0.1-0.1,0.1-0.1,0.2-0.1c0.1,0,0.2,0,0.2,0.1c0,0,0.1,0.1,0.1,0.1l1.7,6.1l1.7-6.1
			c0,0,0-0.1,0.1-0.1c0.1-0.1,0.1-0.1,0.2-0.1c0.1,0,0.2,0,0.2,0.1s0.1,0.1,0.1,0.2c0,0,0,0.1,0,0.1l-1.9,7c0,0.1-0.1,0.1-0.1,0.2
			c-0.1,0.1-0.1,0.1-0.2,0.1c-0.1,0-0.2,0-0.2-0.1c0,0-0.1-0.1-0.1-0.2l-1.7-6l-1.7,6c0,0.1-0.1,0.1-0.1,0.2
			c-0.1,0.1-0.1,0.1-0.2,0.1c-0.1,0-0.2,0-0.2-0.1c0,0-0.1-0.1-0.1-0.2l-1.9-7c0-0.1,0-0.1,0-0.1c0-0.1,0-0.2,0.1-0.2
			s0.1-0.1,0.2-0.1s0.2,0,0.2,0.1c0,0,0.1,0.1,0.1,0.1l1.7,6.1l1.7-6.1C134.6,39.6,134.6,39.5,134.6,39.5z"/>
		<path class="st3" d="M144.9,44.5c0,0.7-0.3,1.4-0.8,1.9s-1.2,0.8-1.9,0.8c-0.7,0-1.4-0.3-1.9-0.8s-0.8-1.2-0.8-1.9
			s0.3-1.4,0.8-1.9s1.2-0.8,1.9-0.8c0.7,0,1.4,0.3,1.9,0.8S144.9,43.7,144.9,44.5z M142.2,42.3c-0.6,0-1.1,0.2-1.5,0.6
			c-0.4,0.4-0.6,0.9-0.6,1.5s0.2,1.1,0.6,1.5c0.4,0.4,0.9,0.6,1.5,0.6s1.1-0.2,1.5-0.6c0.4-0.4,0.6-0.9,0.6-1.5s-0.2-1.1-0.6-1.5
			C143.3,42.6,142.8,42.3,142.2,42.3z"/>
		<path class="st3" d="M145.7,42c0-0.1,0-0.2,0.1-0.2c0.1-0.1,0.1-0.1,0.2-0.1c0.1,0,0.2,0,0.2,0.1c0.1,0.1,0.1,0.1,0.1,0.2v0.7
			c0.7-0.7,1.4-1,2.1-1c0.4,0,0.7,0.1,1,0.2c0.1,0,0.1,0,0.1,0.1c0.1,0.1,0.1,0.1,0.1,0.2c0,0.1,0,0.2-0.1,0.2s-0.1,0.1-0.2,0.1
			c-0.1,0-0.1,0-0.1,0c-0.2-0.1-0.5-0.2-0.8-0.2c-0.6,0-1.1,0.2-1.5,0.6c-0.4,0.4-0.6,0.9-0.6,1.5v2.4c0,0.1,0,0.2-0.1,0.2
			c-0.1,0.1-0.1,0.1-0.2,0.1c-0.1,0-0.2,0-0.2-0.1c-0.1-0.1-0.1-0.1-0.1-0.2V42z"/>
		<path class="st3" d="M150.9,44.1l3.5-2.3c0,0,0.1,0,0.2,0c0.1,0,0.2,0,0.2,0.1c0.1,0.1,0.1,0.1,0.1,0.2c0,0.1,0,0.2-0.1,0.2
			l-2.4,1.6l2.5,2.8c0.1,0.1,0.1,0.1,0.1,0.2c0,0.1,0,0.2-0.1,0.2c-0.1,0.1-0.1,0.1-0.2,0.1c-0.1,0-0.2,0-0.2-0.1l-2.5-2.9l-0.9,0.6
			v2c0,0.1,0,0.2-0.1,0.2c-0.1,0.1-0.1,0.1-0.2,0.1c-0.1,0-0.2,0-0.2-0.1s-0.1-0.1-0.1-0.2v-7.1c0-0.1,0-0.2,0.1-0.2
			s0.1-0.1,0.2-0.1c0.1,0,0.2,0,0.2,0.1c0.1,0.1,0.1,0.1,0.1,0.2V44.1z"/>
		<path class="st3" d="M156.7,44.4L156.7,44.4c-0.1-0.1-0.3-0.1-0.4-0.2c-0.1-0.1-0.2-0.1-0.2-0.2c-0.2-0.2-0.3-0.5-0.3-0.8
			c0-0.3,0.1-0.6,0.3-0.8c0.5-0.5,1.1-0.7,1.8-0.7c0.4,0,0.8,0.1,1.1,0.3c0.4,0.2,0.7,0.4,1,0.7c0,0,0.1,0.1,0.1,0.2
			c0,0.1,0,0.2-0.1,0.2s-0.1,0.1-0.2,0.1c-0.1,0-0.1,0-0.2-0.1l-0.1-0.1c-0.4-0.4-0.9-0.6-1.5-0.6c-0.6,0-1.1,0.2-1.4,0.6
			c-0.1,0.1-0.1,0.3-0.1,0.4c0,0.1,0,0.2,0.1,0.3c0.1,0.1,0.1,0.1,0.2,0.2l2.5,0.8h0c0.1,0.1,0.3,0.1,0.4,0.2
			c0.1,0.1,0.2,0.1,0.2,0.2c0.2,0.2,0.3,0.5,0.3,0.8c0,0.3-0.1,0.6-0.3,0.8c-0.5,0.5-1.1,0.7-1.8,0.7c-0.8,0-1.5-0.3-2.1-1
			c0,0-0.1-0.1-0.1-0.2c0-0.1,0-0.2,0.1-0.2c0.1-0.1,0.1-0.1,0.2-0.1c0.1,0,0.1,0,0.2,0.1l0.2,0.1c0.4,0.4,0.9,0.6,1.5,0.6
			c0.6,0,1-0.2,1.4-0.6c0.1-0.1,0.1-0.3,0.1-0.4c0-0.2-0.1-0.3-0.3-0.4L156.7,44.4z"/>
		<path class="st3" d="M160.9,39.7c0-0.1,0-0.2,0.1-0.2c0.1-0.1,0.1-0.1,0.2-0.1c0.1,0,0.2,0,0.2,0.1c0.1,0.1,0.1,0.1,0.1,0.2v2.9
			c0.6-0.6,1.2-0.9,1.9-0.9c0.7,0,1.3,0.2,1.8,0.7c0.5,0.5,0.7,1.1,0.7,1.8v2.6c0,0.1,0,0.2-0.1,0.2s-0.1,0.1-0.2,0.1
			s-0.2,0-0.2-0.1c-0.1-0.1-0.1-0.1-0.1-0.2v-2.6c0-0.5-0.2-1-0.6-1.3c-0.4-0.4-0.8-0.6-1.3-0.6s-1,0.2-1.3,0.6
			c-0.4,0.4-0.6,0.8-0.6,1.3v2.6c0,0.1,0,0.2-0.1,0.2c-0.1,0.1-0.1,0.1-0.2,0.1c-0.1,0-0.2,0-0.2-0.1c-0.1-0.1-0.1-0.1-0.1-0.2V39.7
			z"/>
		<path class="st3" d="M172.1,44.5c0,0.7-0.3,1.4-0.8,1.9s-1.2,0.8-1.9,0.8c-0.7,0-1.4-0.3-1.9-0.8s-0.8-1.2-0.8-1.9
			s0.3-1.4,0.8-1.9s1.2-0.8,1.9-0.8c0.7,0,1.4,0.3,1.9,0.8S172.1,43.7,172.1,44.5z M169.4,42.3c-0.6,0-1.1,0.2-1.5,0.6
			c-0.4,0.4-0.6,0.9-0.6,1.5s0.2,1.1,0.6,1.5c0.4,0.4,0.9,0.6,1.5,0.6s1.1-0.2,1.5-0.6c0.4-0.4,0.6-0.9,0.6-1.5s-0.2-1.1-0.6-1.5
			C170.4,42.6,169.9,42.3,169.4,42.3z"/>
		<path class="st3" d="M173.4,49.2c0,0.1,0,0.2-0.1,0.2c-0.1,0.1-0.1,0.1-0.2,0.1c-0.1,0-0.2,0-0.2-0.1s-0.1-0.1-0.1-0.2v-4.7
			c0-0.7,0.3-1.4,0.8-1.9s1.2-0.8,1.9-0.8c0.7,0,1.4,0.3,1.9,0.8s0.8,1.2,0.8,1.9s-0.3,1.4-0.8,1.9s-1.2,0.8-1.9,0.8
			c-0.7,0-1.4-0.3-1.9-0.8l-0.2-0.2V49.2z M173.4,44.5c0,0.6,0.2,1.1,0.6,1.5c0.4,0.4,0.9,0.6,1.5,0.6s1.1-0.2,1.5-0.6
			c0.4-0.4,0.6-0.9,0.6-1.5s-0.2-1.1-0.6-1.5c-0.4-0.4-0.9-0.6-1.5-0.6s-1.1,0.2-1.5,0.6C173.7,43.4,173.4,43.9,173.4,44.5z"/>
		<path class="st3" d="M20.3,55.2c0,1.1-0.4,2-1.1,2.7c-0.8,0.8-1.7,1.1-2.7,1.1c-0.5,0-1-0.1-1.5-0.3c-0.5-0.2-0.9-0.5-1.3-0.8
			c-0.4-0.4-0.6-0.8-0.8-1.3c-0.2-0.5-0.3-1-0.3-1.5c0-1.1,0.4-2,1.1-2.7c0.8-0.8,1.7-1.1,2.7-1.1c1.1,0,2,0.4,2.7,1.1
			C20,53.2,20.3,54.1,20.3,55.2z M16.5,51.9c-0.9,0-1.7,0.3-2.3,1c-0.6,0.6-1,1.4-1,2.3c0,0.9,0.3,1.7,1,2.3c0.6,0.6,1.4,1,2.3,1
			c0.9,0,1.7-0.3,2.3-1c0.6-0.6,1-1.4,1-2.3c0-0.9-0.3-1.7-1-2.3C18.1,52.2,17.4,51.9,16.5,51.9z"/>
		<path class="st3" d="M21.1,53.9c0-0.1,0-0.2,0.1-0.2c0.1-0.1,0.1-0.1,0.2-0.1c0.1,0,0.2,0,0.2,0.1c0.1,0.1,0.1,0.1,0.1,0.2v0.6
			c0.6-0.6,1.2-0.9,1.9-0.9c0.7,0,1.3,0.2,1.8,0.7c0.5,0.5,0.7,1.1,0.7,1.8v2.6c0,0.1,0,0.2-0.1,0.2S25.9,59,25.8,59s-0.2,0-0.2-0.1
			c-0.1-0.1-0.1-0.1-0.1-0.2v-2.6c0-0.5-0.2-1-0.6-1.3c-0.4-0.4-0.8-0.6-1.3-0.6s-1,0.2-1.3,0.6c-0.4,0.4-0.6,0.8-0.6,1.3v2.6
			c0,0.1,0,0.2-0.1,0.2C21.6,59,21.5,59,21.4,59c-0.1,0-0.2,0-0.2-0.1c-0.1-0.1-0.1-0.1-0.1-0.2V53.9z"/>
		<path class="st3" d="M35.4,51.6c0-0.1,0-0.2,0.1-0.2s0.1-0.1,0.2-0.1c0.1,0,0.2,0,0.2,0.1s0.1,0.1,0.1,0.2v3.3h4.2v-3.3
			c0-0.1,0-0.2,0.1-0.2c0.1-0.1,0.1-0.1,0.2-0.1c0.1,0,0.1,0,0.2,0.1c0.1,0.1,0.1,0.1,0.1,0.2v7.1c0,0.1,0,0.2-0.1,0.2
			C40.6,59,40.6,59,40.5,59c-0.1,0-0.2,0-0.2-0.1c-0.1-0.1-0.1-0.1-0.1-0.2v-3.3H36v3.3c0,0.1,0,0.2-0.1,0.2S35.8,59,35.7,59
			c-0.1,0-0.2,0-0.2-0.1s-0.1-0.1-0.1-0.2V51.6z"/>
		<path class="st3" d="M46.6,58.7c0,0.1,0,0.2-0.1,0.2S46.4,59,46.3,59s-0.2,0-0.2-0.1C46,58.9,46,58.8,46,58.7v-0.6
			c-0.6,0.6-1.2,0.9-1.9,0.9c-0.7,0-1.3-0.2-1.8-0.7c-0.5-0.5-0.7-1.1-0.7-1.8v-2.6c0-0.1,0-0.2,0.1-0.2c0.1-0.1,0.1-0.1,0.2-0.1
			c0.1,0,0.2,0,0.2,0.1c0.1,0.1,0.1,0.1,0.1,0.2v2.6c0,0.5,0.2,1,0.6,1.3c0.4,0.4,0.8,0.6,1.3,0.6c0.5,0,1-0.2,1.3-0.6
			c0.4-0.4,0.6-0.8,0.6-1.3v-2.6c0-0.1,0-0.2,0.1-0.2c0.1-0.1,0.1-0.1,0.2-0.1s0.2,0,0.2,0.1s0.1,0.1,0.1,0.2V58.7z"/>
		<path class="st3" d="M48,58.7c0,0.1,0,0.2-0.1,0.2C47.8,59,47.8,59,47.7,59s-0.2,0-0.2-0.1c-0.1-0.1-0.1-0.1-0.1-0.2v-4.8
			c0-0.1,0-0.2,0.1-0.2c0.1-0.1,0.1-0.1,0.2-0.1s0.2,0,0.2,0.1c0.1,0.1,0.1,0.1,0.1,0.2v0.3c0.5-0.4,1-0.6,1.5-0.6
			c0.6,0,1.1,0.2,1.5,0.6c0.1,0.1,0.2,0.2,0.3,0.4c0.1-0.1,0.2-0.3,0.3-0.4c0.4-0.4,0.9-0.6,1.5-0.6s1.1,0.2,1.5,0.6
			c0.4,0.4,0.6,0.9,0.6,1.5v3c0,0.1,0,0.2-0.1,0.2C55,59,55,59,54.9,59c-0.1,0-0.2,0-0.2-0.1c-0.1-0.1-0.1-0.1-0.1-0.2v-3
			c0-0.4-0.1-0.8-0.4-1.1c-0.3-0.3-0.6-0.4-1.1-0.4c-0.4,0-0.8,0.1-1.1,0.4c-0.3,0.3-0.4,0.6-0.4,1.1v3c0,0.1,0,0.2-0.1,0.2
			S51.4,59,51.3,59s-0.2,0-0.2-0.1C51,58.9,51,58.8,51,58.7v-3c0-0.4-0.1-0.8-0.4-1.1c-0.3-0.3-0.7-0.4-1.1-0.4
			c-0.4,0-0.8,0.1-1.1,0.4C48.1,55,48,55.3,48,55.7V58.7z"/>
		<path class="st3" d="M60.7,58.1c-0.7,0.7-1.4,1-2.1,1c-0.7,0-1.4-0.3-1.9-0.8s-0.8-1.2-0.8-1.9s0.3-1.4,0.8-1.9s1.2-0.8,1.9-0.8
			c0.7,0,1.4,0.3,1.9,0.8s0.8,1.2,0.8,1.9v2.4c0,0.1,0,0.2-0.1,0.2C61.2,59,61.1,59,61,59s-0.2,0-0.2-0.1s-0.1-0.1-0.1-0.2V58.1z
			 M58.6,54.2c-0.6,0-1.1,0.2-1.5,0.6c-0.4,0.4-0.6,0.9-0.6,1.5s0.2,1.1,0.6,1.5c0.4,0.4,0.9,0.6,1.5,0.6s1.1-0.2,1.5-0.6
			c0.4-0.4,0.6-0.9,0.6-1.5s-0.2-1.1-0.6-1.5C59.7,54.4,59.2,54.2,58.6,54.2z"/>
		<path class="st3" d="M62.1,53.9c0-0.1,0-0.2,0.1-0.2c0.1-0.1,0.1-0.1,0.2-0.1c0.1,0,0.2,0,0.2,0.1c0.1,0.1,0.1,0.1,0.1,0.2v0.6
			c0.6-0.6,1.2-0.9,1.9-0.9c0.7,0,1.3,0.2,1.8,0.7c0.5,0.5,0.7,1.1,0.7,1.8v2.6c0,0.1,0,0.2-0.1,0.2S66.9,59,66.8,59s-0.2,0-0.2-0.1
			c-0.1-0.1-0.1-0.1-0.1-0.2v-2.6c0-0.5-0.2-1-0.6-1.3c-0.4-0.4-0.8-0.6-1.3-0.6s-1,0.2-1.3,0.6c-0.4,0.4-0.6,0.8-0.6,1.3v2.6
			c0,0.1,0,0.2-0.1,0.2C62.5,59,62.5,59,62.4,59c-0.1,0-0.2,0-0.2-0.1c-0.1-0.1-0.1-0.1-0.1-0.2V53.9z"/>
		<path class="st3" d="M68.2,56.6c-0.1,0-0.2,0-0.2-0.1c-0.1-0.1-0.1-0.1-0.1-0.2c0-0.1,0-0.2,0.1-0.2c0.1-0.1,0.1-0.1,0.2-0.1h2.4
			c0.1,0,0.2,0,0.2,0.1c0.1,0.1,0.1,0.1,0.1,0.2c0,0.1,0,0.2-0.1,0.2c-0.1,0.1-0.1,0.1-0.2,0.1H68.2z"/>
		<path class="st3" d="M76,57.9c0.1,0,0.2,0,0.2,0.1c0.1,0.1,0.1,0.1,0.1,0.2c0,0.1,0,0.2-0.1,0.2c-0.2,0.2-0.5,0.4-0.8,0.5
			C75.1,59,74.8,59,74.5,59c-0.7,0-1.4-0.3-1.9-0.8s-0.8-1.2-0.8-1.9s0.3-1.4,0.8-1.9s1.2-0.8,1.9-0.8c0.3,0,0.6,0.1,0.9,0.2
			c0.3,0.1,0.6,0.3,0.8,0.5c0,0,0.1,0.1,0.1,0.1c0,0,0,0.1,0,0.1c0,0.1,0,0.2-0.1,0.2c-0.1,0.1-0.1,0.1-0.2,0.1
			c-0.1,0-0.1,0-0.2-0.1c-0.4-0.3-0.9-0.5-1.4-0.5c-0.6,0-1.1,0.2-1.5,0.6c-0.4,0.4-0.6,0.9-0.6,1.5s0.2,1.1,0.6,1.5
			c0.4,0.4,0.9,0.6,1.5,0.6c0.3,0,0.5,0,0.7-0.1c0.2-0.1,0.5-0.2,0.6-0.4C75.9,57.9,75.9,57.9,76,57.9z"/>
		<path class="st3" d="M82.6,56.3c0,0.7-0.3,1.4-0.8,1.9S80.6,59,79.9,59c-0.7,0-1.4-0.3-1.9-0.8s-0.8-1.2-0.8-1.9s0.3-1.4,0.8-1.9
			s1.2-0.8,1.9-0.8c0.7,0,1.4,0.3,1.9,0.8S82.6,55.6,82.6,56.3z M79.9,54.2c-0.6,0-1.1,0.2-1.5,0.6c-0.4,0.4-0.6,0.9-0.6,1.5
			s0.2,1.1,0.6,1.5c0.4,0.4,0.9,0.6,1.5,0.6s1.1-0.2,1.5-0.6c0.4-0.4,0.6-0.9,0.6-1.5s-0.2-1.1-0.6-1.5
			C80.9,54.4,80.4,54.2,79.9,54.2z"/>
		<path class="st3" d="M83.9,58.7c0,0.1,0,0.2-0.1,0.2C83.8,59,83.7,59,83.6,59s-0.2,0-0.2-0.1s-0.1-0.1-0.1-0.2v-4.8
			c0-0.1,0-0.2,0.1-0.2s0.1-0.1,0.2-0.1s0.2,0,0.2,0.1c0.1,0.1,0.1,0.1,0.1,0.2v0.3c0.5-0.4,1-0.6,1.5-0.6c0.6,0,1.1,0.2,1.5,0.6
			c0.1,0.1,0.2,0.2,0.3,0.4c0.1-0.1,0.2-0.3,0.3-0.4c0.4-0.4,0.9-0.6,1.5-0.6s1.1,0.2,1.5,0.6c0.4,0.4,0.6,0.9,0.6,1.5v3
			c0,0.1,0,0.2-0.1,0.2C91,59,90.9,59,90.8,59c-0.1,0-0.2,0-0.2-0.1c-0.1-0.1-0.1-0.1-0.1-0.2v-3c0-0.4-0.1-0.8-0.4-1.1
			c-0.3-0.3-0.6-0.4-1.1-0.4c-0.4,0-0.8,0.1-1.1,0.4c-0.3,0.3-0.4,0.6-0.4,1.1v3c0,0.1,0,0.2-0.1,0.2S87.3,59,87.2,59
			s-0.2,0-0.2-0.1c-0.1-0.1-0.1-0.1-0.1-0.2v-3c0-0.4-0.1-0.8-0.4-1.1c-0.3-0.3-0.7-0.4-1.1-0.4c-0.4,0-0.8,0.1-1.1,0.4
			c-0.3,0.3-0.4,0.6-0.4,1.1V58.7z"/>
		<path class="st3" d="M96.9,58.7c0,0.1,0,0.2-0.1,0.2S96.6,59,96.6,59s-0.2,0-0.2-0.1c-0.1-0.1-0.1-0.1-0.1-0.2v-0.6
			C95.7,58.7,95,59,94.4,59c-0.7,0-1.3-0.2-1.8-0.7c-0.5-0.5-0.7-1.1-0.7-1.8v-2.6c0-0.1,0-0.2,0.1-0.2c0.1-0.1,0.1-0.1,0.2-0.1
			c0.1,0,0.2,0,0.2,0.1c0.1,0.1,0.1,0.1,0.1,0.2v2.6c0,0.5,0.2,1,0.6,1.3c0.4,0.4,0.8,0.6,1.3,0.6c0.5,0,1-0.2,1.3-0.6
			c0.4-0.4,0.6-0.8,0.6-1.3v-2.6c0-0.1,0-0.2,0.1-0.2c0.1-0.1,0.1-0.1,0.2-0.1s0.2,0,0.2,0.1s0.1,0.1,0.1,0.2V58.7z"/>
		<path class="st3" d="M98.3,61.1c0,0.1,0,0.2-0.1,0.2c-0.1,0.1-0.1,0.1-0.2,0.1c-0.1,0-0.2,0-0.2-0.1s-0.1-0.1-0.1-0.2v-4.7
			c0-0.7,0.3-1.4,0.8-1.9s1.2-0.8,1.9-0.8c0.7,0,1.4,0.3,1.9,0.8c0.5,0.5,0.8,1.2,0.8,1.9s-0.3,1.4-0.8,1.9
			c-0.5,0.5-1.2,0.8-1.9,0.8c-0.7,0-1.4-0.3-1.9-0.8l-0.2-0.2V61.1z M98.3,56.3c0,0.6,0.2,1.1,0.6,1.5c0.4,0.4,0.9,0.6,1.5,0.6
			s1.1-0.2,1.5-0.6c0.4-0.4,0.6-0.9,0.6-1.5s-0.2-1.1-0.6-1.5c-0.4-0.4-0.9-0.6-1.5-0.6s-1.1,0.2-1.5,0.6
			C98.5,55.3,98.3,55.7,98.3,56.3z"/>
		<path class="st3" d="M106.6,58.4c0.1,0,0.2,0,0.2,0.1s0.1,0.1,0.1,0.2c0,0.1,0,0.2-0.1,0.2s-0.1,0.1-0.2,0.1
			c-1.3,0-1.9-0.6-1.9-1.9v-2.9h-0.5c-0.1,0-0.2,0-0.2-0.1s-0.1-0.1-0.1-0.2c0-0.1,0-0.2,0.1-0.2s0.1-0.1,0.2-0.1h0.5v-2
			c0-0.1,0-0.2,0.1-0.2s0.1-0.1,0.2-0.1s0.2,0,0.2,0.1s0.1,0.1,0.1,0.2v2h0.9c0.1,0,0.2,0,0.2,0.1s0.1,0.1,0.1,0.2
			c0,0.1,0,0.2-0.1,0.2s-0.1,0.1-0.2,0.1h-0.9v2.9C105.3,58,105.7,58.4,106.6,58.4z"/>
		<path class="st3" d="M111.7,57.9c0.1,0,0.2,0,0.2,0.1s0.1,0.1,0.1,0.2c0,0.1,0,0.2-0.1,0.2c-0.5,0.4-1.1,0.7-1.8,0.7
			c-0.7,0-1.4-0.3-1.9-0.8s-0.8-1.2-0.8-1.9s0.3-1.4,0.8-1.9s1.2-0.8,1.9-0.8c0.7,0,1.4,0.3,1.9,0.8s0.8,1.2,0.8,1.9
			c0,0.1,0,0.2-0.1,0.2c-0.1,0.1-0.1,0.1-0.2,0.1H108c0.1,0.5,0.3,0.9,0.6,1.2c0.4,0.4,0.9,0.6,1.5,0.6c0.3,0,0.5,0,0.7-0.1
			c0.2-0.1,0.4-0.2,0.6-0.4C111.5,57.9,111.6,57.9,111.7,57.9z M112.2,56c-0.1-0.5-0.3-0.9-0.6-1.2c-0.4-0.4-0.9-0.6-1.5-0.6
			s-1.1,0.2-1.5,0.6c-0.3,0.3-0.5,0.7-0.6,1.2H112.2z"/>
		<path class="st3" d="M113.6,53.9c0-0.1,0-0.2,0.1-0.2c0.1-0.1,0.1-0.1,0.2-0.1c0.1,0,0.2,0,0.2,0.1c0.1,0.1,0.1,0.1,0.1,0.2v0.7
			c0.7-0.7,1.4-1,2.1-1c0.4,0,0.7,0.1,1,0.2c0.1,0,0.1,0,0.1,0.1c0.1,0.1,0.1,0.1,0.1,0.2c0,0.1,0,0.2-0.1,0.2s-0.1,0.1-0.2,0.1
			c-0.1,0-0.1,0-0.1,0c-0.2-0.1-0.5-0.2-0.8-0.2c-0.6,0-1.1,0.2-1.5,0.6c-0.4,0.4-0.6,0.9-0.6,1.5v2.4c0,0.1,0,0.2-0.1,0.2
			c-0.1,0.1-0.1,0.1-0.2,0.1c-0.1,0-0.2,0-0.2-0.1c-0.1-0.1-0.1-0.1-0.1-0.2V53.9z"/>
		<path class="st3" d="M127.2,51.6c0-0.1,0-0.2,0.1-0.2c0.1-0.1,0.1-0.1,0.2-0.1c0.1,0,0.2,0,0.2,0.1c0.1,0.1,0.1,0.1,0.1,0.2v7.1
			c0,0.1,0,0.2-0.1,0.2c-0.1,0.1-0.1,0.1-0.2,0.1c-0.1,0-0.2,0-0.2-0.1c-0.1-0.1-0.1-0.1-0.1-0.2V51.6z"/>
		<path class="st3" d="M129.1,53.9c0-0.1,0-0.2,0.1-0.2c0.1-0.1,0.1-0.1,0.2-0.1c0.1,0,0.2,0,0.2,0.1c0.1,0.1,0.1,0.1,0.1,0.2v0.6
			c0.6-0.6,1.2-0.9,1.9-0.9c0.7,0,1.3,0.2,1.8,0.7c0.5,0.5,0.7,1.1,0.7,1.8v2.6c0,0.1,0,0.2-0.1,0.2s-0.1,0.1-0.2,0.1
			s-0.2,0-0.2-0.1c-0.1-0.1-0.1-0.1-0.1-0.2v-2.6c0-0.5-0.2-1-0.6-1.3c-0.4-0.4-0.8-0.6-1.3-0.6s-1,0.2-1.3,0.6
			c-0.4,0.4-0.6,0.8-0.6,1.3v2.6c0,0.1,0,0.2-0.1,0.2c-0.1,0.1-0.1,0.1-0.2,0.1c-0.1,0-0.2,0-0.2-0.1c-0.1-0.1-0.1-0.1-0.1-0.2V53.9
			z"/>
		<path class="st3" d="M137.6,58.4c0.1,0,0.2,0,0.2,0.1s0.1,0.1,0.1,0.2c0,0.1,0,0.2-0.1,0.2s-0.1,0.1-0.2,0.1
			c-1.3,0-1.9-0.6-1.9-1.9v-2.9h-0.5c-0.1,0-0.2,0-0.2-0.1s-0.1-0.1-0.1-0.2c0-0.1,0-0.2,0.1-0.2s0.1-0.1,0.2-0.1h0.5v-2
			c0-0.1,0-0.2,0.1-0.2s0.1-0.1,0.2-0.1s0.2,0,0.2,0.1s0.1,0.1,0.1,0.2v2h0.9c0.1,0,0.2,0,0.2,0.1s0.1,0.1,0.1,0.2
			c0,0.1,0,0.2-0.1,0.2s-0.1,0.1-0.2,0.1h-0.9v2.9C136.3,58,136.7,58.4,137.6,58.4z"/>
		<path class="st3" d="M142.7,57.9c0.1,0,0.2,0,0.2,0.1s0.1,0.1,0.1,0.2c0,0.1,0,0.2-0.1,0.2c-0.5,0.4-1.1,0.7-1.8,0.7
			c-0.7,0-1.4-0.3-1.9-0.8s-0.8-1.2-0.8-1.9s0.3-1.4,0.8-1.9s1.2-0.8,1.9-0.8c0.7,0,1.4,0.3,1.9,0.8s0.8,1.2,0.8,1.9
			c0,0.1,0,0.2-0.1,0.2c-0.1,0.1-0.1,0.1-0.2,0.1H139c0.1,0.5,0.3,0.9,0.6,1.2c0.4,0.4,0.9,0.6,1.5,0.6c0.3,0,0.5,0,0.7-0.1
			c0.2-0.1,0.4-0.2,0.6-0.4C142.6,57.9,142.6,57.9,142.7,57.9z M143.2,56c-0.1-0.5-0.3-0.9-0.6-1.2c-0.4-0.4-0.9-0.6-1.5-0.6
			s-1.1,0.2-1.5,0.6c-0.3,0.3-0.5,0.7-0.6,1.2H143.2z"/>
		<path class="st3" d="M144.6,53.9c0-0.1,0-0.2,0.1-0.2c0.1-0.1,0.1-0.1,0.2-0.1c0.1,0,0.2,0,0.2,0.1c0.1,0.1,0.1,0.1,0.1,0.2v0.7
			c0.7-0.7,1.4-1,2.1-1c0.4,0,0.7,0.1,1,0.2c0.1,0,0.1,0,0.1,0.1c0.1,0.1,0.1,0.1,0.1,0.2c0,0.1,0,0.2-0.1,0.2s-0.1,0.1-0.2,0.1
			c-0.1,0-0.1,0-0.1,0c-0.2-0.1-0.5-0.2-0.8-0.2c-0.6,0-1.1,0.2-1.5,0.6c-0.4,0.4-0.6,0.9-0.6,1.5v2.4c0,0.1,0,0.2-0.1,0.2
			c-0.1,0.1-0.1,0.1-0.2,0.1c-0.1,0-0.2,0-0.2-0.1c-0.1-0.1-0.1-0.1-0.1-0.2V53.9z"/>
		<path class="st3" d="M153.5,57.9c0.1,0,0.2,0,0.2,0.1c0.1,0.1,0.1,0.1,0.1,0.2c0,0.1,0,0.2-0.1,0.2c-0.2,0.2-0.5,0.4-0.8,0.5
			c-0.3,0.1-0.6,0.2-0.9,0.2c-0.7,0-1.4-0.3-1.9-0.8s-0.8-1.2-0.8-1.9s0.3-1.4,0.8-1.9s1.2-0.8,1.9-0.8c0.3,0,0.6,0.1,0.9,0.2
			c0.3,0.1,0.6,0.3,0.8,0.5c0,0,0.1,0.1,0.1,0.1c0,0,0,0.1,0,0.1c0,0.1,0,0.2-0.1,0.2c-0.1,0.1-0.1,0.1-0.2,0.1
			c-0.1,0-0.1,0-0.2-0.1c-0.4-0.3-0.9-0.5-1.4-0.5c-0.6,0-1.1,0.2-1.5,0.6c-0.4,0.4-0.6,0.9-0.6,1.5s0.2,1.1,0.6,1.5
			c0.4,0.4,0.9,0.6,1.5,0.6c0.3,0,0.5,0,0.7-0.1c0.2-0.1,0.5-0.2,0.6-0.4C153.4,57.9,153.5,57.9,153.5,57.9z"/>
		<path class="st3" d="M159.5,58.1c-0.7,0.7-1.4,1-2.1,1c-0.7,0-1.4-0.3-1.9-0.8s-0.8-1.2-0.8-1.9s0.3-1.4,0.8-1.9s1.2-0.8,1.9-0.8
			c0.7,0,1.4,0.3,1.9,0.8s0.8,1.2,0.8,1.9v2.4c0,0.1,0,0.2-0.1,0.2c-0.1,0.1-0.1,0.1-0.2,0.1s-0.2,0-0.2-0.1s-0.1-0.1-0.1-0.2V58.1z
			 M157.4,54.2c-0.6,0-1.1,0.2-1.5,0.6c-0.4,0.4-0.6,0.9-0.6,1.5s0.2,1.1,0.6,1.5c0.4,0.4,0.9,0.6,1.5,0.6s1.1-0.2,1.5-0.6
			c0.4-0.4,0.6-0.9,0.6-1.5s-0.2-1.1-0.6-1.5C158.5,54.4,158,54.2,157.4,54.2z"/>
		<path class="st3" d="M163.6,58.4c0.1,0,0.2,0,0.2,0.1s0.1,0.1,0.1,0.2c0,0.1,0,0.2-0.1,0.2s-0.1,0.1-0.2,0.1
			c-1.3,0-1.9-0.6-1.9-1.9v-2.9h-0.5c-0.1,0-0.2,0-0.2-0.1s-0.1-0.1-0.1-0.2c0-0.1,0-0.2,0.1-0.2s0.1-0.1,0.2-0.1h0.5v-2
			c0-0.1,0-0.2,0.1-0.2s0.1-0.1,0.2-0.1s0.2,0,0.2,0.1s0.1,0.1,0.1,0.2v2h0.9c0.1,0,0.2,0,0.2,0.1s0.1,0.1,0.1,0.2
			c0,0.1,0,0.2-0.1,0.2s-0.1,0.1-0.2,0.1h-0.9v2.9C162.3,58,162.7,58.4,163.6,58.4z"/>
		<path class="st3" d="M165.9,52.3c0,0.1,0,0.2-0.1,0.3s-0.2,0.1-0.3,0.1c-0.1,0-0.2,0-0.3-0.1c-0.1-0.1-0.1-0.2-0.1-0.3
			c0-0.1,0-0.2,0.1-0.3c0.1-0.1,0.2-0.1,0.3-0.1c0.1,0,0.2,0,0.3,0.1S165.9,52.2,165.9,52.3z M165.2,53.9c0-0.1,0-0.2,0.1-0.2
			c0.1-0.1,0.1-0.1,0.2-0.1s0.2,0,0.2,0.1s0.1,0.1,0.1,0.2v4.8c0,0.1,0,0.2-0.1,0.2s-0.1,0.1-0.2,0.1s-0.2,0-0.2-0.1
			c-0.1-0.1-0.1-0.1-0.1-0.2V53.9z"/>
		<path class="st3" d="M172.5,56.3c0,0.7-0.3,1.4-0.8,1.9s-1.2,0.8-1.9,0.8c-0.7,0-1.4-0.3-1.9-0.8s-0.8-1.2-0.8-1.9
			s0.3-1.4,0.8-1.9s1.2-0.8,1.9-0.8c0.7,0,1.4,0.3,1.9,0.8S172.5,55.6,172.5,56.3z M169.8,54.2c-0.6,0-1.1,0.2-1.5,0.6
			c-0.4,0.4-0.6,0.9-0.6,1.5s0.2,1.1,0.6,1.5c0.4,0.4,0.9,0.6,1.5,0.6s1.1-0.2,1.5-0.6c0.4-0.4,0.6-0.9,0.6-1.5s-0.2-1.1-0.6-1.5
			C170.8,54.4,170.3,54.2,169.8,54.2z"/>
		<path class="st3" d="M173.2,53.9c0-0.1,0-0.2,0.1-0.2c0.1-0.1,0.1-0.1,0.2-0.1c0.1,0,0.2,0,0.2,0.1c0.1,0.1,0.1,0.1,0.1,0.2v0.6
			c0.6-0.6,1.2-0.9,1.9-0.9c0.7,0,1.3,0.2,1.8,0.7c0.5,0.5,0.7,1.1,0.7,1.8v2.6c0,0.1,0,0.2-0.1,0.2S178,59,177.9,59s-0.2,0-0.2-0.1
			c-0.1-0.1-0.1-0.1-0.1-0.2v-2.6c0-0.5-0.2-1-0.6-1.3c-0.4-0.4-0.8-0.6-1.3-0.6s-1,0.2-1.3,0.6c-0.4,0.4-0.6,0.8-0.6,1.3v2.6
			c0,0.1,0,0.2-0.1,0.2c-0.1,0.1-0.1,0.1-0.2,0.1c-0.1,0-0.2,0-0.2-0.1c-0.1-0.1-0.1-0.1-0.1-0.2V53.9z"/>
	</g>
	<text transform="matrix(1 0 0 1 12.6082 30.8844)" class="st2 st4 st5">OPEN HCI</text>
</g>
</svg>
