<svg id="圖層_1" data-name="圖層 1" xmlns="http://www.w3.org/2000/svg" viewBox="0 0 156 143.89"><defs><style>.cls-1{fill:#2a4399;}.cls-2{fill:none;stroke:#fff;stroke-miterlimit:10;stroke-width:3.25px;}</style></defs><title>icon_</title><path class="cls-1" d="M70.44,86.14v-.71c0-3,0-6,0-9a.76.76,0,0,0-.61-.87,10.83,10.83,0,0,1-7.38-8.56,11,11,0,0,1,7.29-12.27c.58-.18.75-.44.7-1a5.56,5.56,0,0,1,0-1.36,2.87,2.87,0,0,1,3-2.4,2.73,2.73,0,0,1,2.66,2.84c-.07,1.39.46,1.81,1.7,2.22A17.2,17.2,0,0,1,85.14,60a2.75,2.75,0,0,1-.09,3.83,2.8,2.8,0,0,1-3.73.16c-1.42-1.06-2.86-2.08-4.3-3.1a6.18,6.18,0,0,0-.93-.44c0,.27,0,.46,0,.65,0,3.05,0,6.1,0,9.16,0,.51.18.67.64.83a10.76,10.76,0,0,1,7.52,8.45,10.57,10.57,0,0,1-3.8,10.57,10.08,10.08,0,0,1-3.82,2c-.41.12-.56.3-.52.71a10.59,10.59,0,0,1,0,1.23,2.88,2.88,0,0,1-2.7,2.76,2.83,2.83,0,0,1-2.94-2.4,11.18,11.18,0,0,1-.06-1.7.61.61,0,0,0-.46-.7,20.94,20.94,0,0,1-8.62-6.17A2.77,2.77,0,0,1,61.38,82a3,3,0,0,1,4,.06c1.34,1.2,2.72,2.34,4.1,3.49A7.59,7.59,0,0,0,70.44,86.14Zm5.76-8.92v9.26a5.44,5.44,0,0,0,2.59-4.74A5,5,0,0,0,76.2,77.23ZM70.52,60.9c-1.55.66-2.5,2.61-2.42,4.82.07,1.73,1.4,3.83,2.42,4Z"/><circle class="cls-2" cx="74" cy="72.96" r="53.04"/></svg>