<svg id="圖層_1" data-name="圖層 1" xmlns="http://www.w3.org/2000/svg" viewBox="0 0 134.21 155.48"><defs><style>.cls-1{font-size:12.19px;}.cls-1,.cls-2,.cls-3{fill:#ec675a;}.cls-1,.cls-3{font-family:Comfortaa, Comfortaa;}.cls-3{font-size:7.04px;}.cls-4{fill:none;stroke:#fff;stroke-miterlimit:10;stroke-width:2.55px;}</style></defs><title>綠取名單＿icon</title><text class="cls-1" transform="translate(48.84 117.68) scale(1.2 1)">RE: _</text><rect class="cls-2" x="57.34" y="78.56" width="1.65" height="14.74" rx="0.83" ry="0.83"/><rect class="cls-2" x="50.45" y="78.56" width="1.65" height="24.53" rx="0.83" ry="0.83"/><path class="cls-2" d="M75.72,76.68h4.65a.86.86,0,0,0,.86-.86v-.39a.86.86,0,0,0-.86-.86h-5a.84.84,0,0,1-.7-.72v.72h0v-2.3a.83.83,0,0,0-1.65,0V74a.84.84,0,0,1-.73.58H67.83a.85.85,0,0,1-.81-.73V72.13a.83.83,0,0,0-1.65,0v1.75a.84.84,0,0,1-.77.7H56.36a.84.84,0,0,1-.77-.72V72.24a.83.83,0,0,0-1.65,0v1.62a.84.84,0,0,1-.77.73H50.45a.86.86,0,0,0-.86.86v.39a.86.86,0,0,0,.86.86h2.73a.84.84,0,0,1,.76.72v24.85a.83.83,0,0,0,1.65,0V77.39a.85.85,0,0,1,.77-.7H64.6a.86.86,0,0,1,.86.86v.29a.86.86,0,0,1-.86.86H61.43a.86.86,0,0,0-.86.86v.39a.86.86,0,0,0,.86.86H64.6a.86.86,0,0,1,.86.86V82a.86.86,0,0,1-.86.86H61.43a.86.86,0,0,0-.86.86v.39a.86.86,0,0,0,.86.86h6.69a.86.86,0,0,1,.86.86v.1a.86.86,0,0,1-.86.86H61.43a.86.86,0,0,0-.86.86V88s0,.05,0,.08v6.76a.84.84,0,0,1-.7.7H58.71a.86.86,0,0,0-.86.86v.39a.86.86,0,0,0,.86.86h1.16a.84.84,0,0,1,.71.7v3.83a.83.83,0,0,0,1.65,0V98.35a.85.85,0,0,1,.81-.7H76.41a.84.84,0,0,1,.69.62v4a.83.83,0,0,0,1.65,0V98.35a.85.85,0,0,1,.81-.7h.76a.86.86,0,0,0,.86-.86V96.4a.86.86,0,0,0-.86-.86h-.88a.85.85,0,0,1-.69-.8V87.68a.82.82,0,0,0-.16-.48.86.86,0,0,0-.75-.45H71.32a.86.86,0,0,1-.86-.86v-.1a.86.86,0,0,1,.86-.86h6.6a.86.86,0,0,0,.86-.86v-.39a.86.86,0,0,0-.86-.86h-2.2a.86.86,0,0,1-.86-.86v-.29a.86.86,0,0,1,.86-.86h2.2a.86.86,0,0,0,.86-.86v-.39a.86.86,0,0,0-.86-.86h-2.2a.86.86,0,0,1-.86-.86v-.29A.86.86,0,0,1,75.72,76.68ZM60.58,97.88v-.23h0Zm1.55-8A.86.86,0,0,1,63,89h5.13a.86.86,0,0,1,.86.86v.35a.86.86,0,0,1-.86.86H63a.86.86,0,0,1-.86-.86Zm.11,7.83v0h0Zm15-3.13a.86.86,0,0,1-.86.86H63a.86.86,0,0,1-.86-.86v-.35a.86.86,0,0,1,.86-.86H76.35a.86.86,0,0,1,.86.86ZM71.32,89h5.13a.86.86,0,0,1,.86.86v.35a.86.86,0,0,1-.86.86H71.32a.86.86,0,0,1-.86-.86v-.35A.86.86,0,0,1,71.32,89Zm2.07-7a.87.87,0,0,1-.86.88H67.82A.87.87,0,0,1,67,82v-.36a.87.87,0,0,1,.86-.88h4.71a.87.87,0,0,1,.86.88Zm0-4.15a.86.86,0,0,1-.86.86H67.82a.86.86,0,0,1-.86-.86v-.35a.86.86,0,0,1,.86-.86h4.71a.86.86,0,0,1,.86.86Z"/><path class="cls-2" d="M66.6,44.22H80.18a.86.86,0,0,0,.86-.86V43a.86.86,0,0,0-.86-.86H66.53a.83.83,0,0,1-.57-.68v.68h0V40a.84.84,0,0,1,.71-.68H77.81a.86.86,0,0,0,.86-.86v-.39a.86.86,0,0,0-.86-.86H52.06a.86.86,0,0,0-.86.86v.39a.86.86,0,0,0,.86.86H63.54a.85.85,0,0,1,.76.58v1.47a.84.84,0,0,1-.69.72H50.39a.86.86,0,0,0-.86.86v.39a.86.86,0,0,0,.86.86H63.58a.84.84,0,0,1,.72.72v1.3a.83.83,0,0,1-.6.7H52.06a.86.86,0,0,0-.86.86v.39a.85.85,0,0,0,0,.18v8.49a.85.85,0,0,0,0,.18v.39a.86.86,0,0,0,.86.86H63.63a.83.83,0,0,1,.67.69V60.8a.83.83,0,0,1-.64.71H52.06a.86.86,0,0,0-.86.86v.39a.86.86,0,0,0,.86.86H63.73a.83.83,0,0,1,.57.66v1.92a.83.83,0,0,1-.61.7H50.39a.86.86,0,0,0-.86.86v.39a.86.86,0,0,0,.86.86H80.18a.86.86,0,0,0,.86-.86v-.39a.86.86,0,0,0-.86-.86H66.67a.84.84,0,0,1-.72-.72v.72h0V64.27a.83.83,0,0,1,.63-.66H77.81a.86.86,0,0,0,.86-.86v-.39a.86.86,0,0,0-.86-.86H66.49a.83.83,0,0,1-.53-.67v.67h0V59a.84.84,0,0,1,.71-.68H77.81a.86.86,0,0,0,.86-.86V57a.85.85,0,0,0,0-.16V48.34a.85.85,0,0,0,0-.16V47.8a.86.86,0,0,0-.86-.86H66.62a.83.83,0,0,1-.66-.71v.71h0V44.84A.83.83,0,0,1,66.6,44.22ZM52.81,50.55a.86.86,0,0,1,.86-.86h9.78a.86.86,0,0,1,.86.86v.35a.86.86,0,0,1-.86.86H53.67a.86.86,0,0,1-.86-.86Zm24.24,4.8a.86.86,0,0,1-.86.86H53.67a.86.86,0,0,1-.86-.86V55a.86.86,0,0,1,.86-.86H76.19a.86.86,0,0,1,.86.86ZM66.77,49.69h9.42a.86.86,0,0,1,.86.86v.35a.86.86,0,0,1-.86.86H66.77a.86.86,0,0,1-.86-.86v-.35A.86.86,0,0,1,66.77,49.69Z"/><text class="cls-3" transform="translate(48.92 128.46) rotate(0.13)">OPEN HCI</text><rect class="cls-4" x="19.42" y="25.31" width="92.33" height="114.67" rx="8" ry="8"/><path class="cls-4" d="M28.29,25.31V24.14a8,8,0,0,1,8-8h76.33a8,8,0,0,1,8,8V122.8a8,8,0,0,1-8,8h-1.33"/></svg>