<svg id="圖層_1" data-name="圖層 1" xmlns="http://www.w3.org/2000/svg" viewBox="0 0 156 143.89"><defs><style>.cls-1{fill:#fff;}.cls-2{fill:#2a4399;}</style></defs><title>icon_</title><path class="cls-1" d="M31.11,75.4q0-22.07,0-44.13c0-2.11,1.08-3.18,3.2-3.18,6.64,0,13.28,0,19.93,0,.58,0,.83-.15.92-.73.13-.8.35-1.6.55-2.39a2.77,2.77,0,0,1,3-2.37H92.17c2,0,2.9.72,3.34,2.66.16.68.37,1.36.47,2s.34.78,1,.78c6.6,0,13.19,0,19.79,0,2.21,0,3.27,1,3.27,3.26q0,44.13,0,88.27c0,2.16-1.09,3.25-3.23,3.25H34.32q-3.22,0-3.22-3.26Q31.11,97.51,31.11,75.4Zm69-30.56c.15.62.29,1.16.41,1.71A2.71,2.71,0,0,1,97.8,50H53.39a2.72,2.72,0,0,1-2.74-3.45c.12-.57.25-1.13.39-1.75H47.9v61.29h55.38V44.84ZM36.72,33.69v83.55H114.4V33.7H97.49l1.29,5.5h6.86c2.12,0,3.21,1.08,3.21,3.18q0,33.08,0,66.17c0,2.11-1.08,3.18-3.2,3.18H45.45c-2.09,0-3.16-1.06-3.16-3.13q0-33.15,0-66.31a2.79,2.79,0,0,1,3.08-3.09h7l1.28-5.5ZM94.21,44.42a1.76,1.76,0,0,0,0-.3q-1.82-7.74-3.63-15.48c-.1-.44-.36-.46-.71-.46H61.25c-.46,0-.63.15-.74.61-1,4.16-1.95,8.32-2.92,12.48l-.74,3.16Z"/><path class="cls-2" d="M75.63,81.6H95.42a3,3,0,0,1,2.46,1,2.77,2.77,0,0,1-1.72,4.59,5.64,5.64,0,0,1-.77,0H55.74a3,3,0,0,1-2.42-.87,2.66,2.66,0,0,1-.58-2.92,2.62,2.62,0,0,1,2.41-1.75c.63,0,1.26,0,1.89,0Z"/><path class="cls-2" d="M75.57,62.08H55.44a2.76,2.76,0,0,1-2.75-3.66,2.6,2.6,0,0,1,2.11-1.83,5.09,5.09,0,0,1,.91-.07h39.7a2.9,2.9,0,0,1,2.9,1.57,2.76,2.76,0,0,1-2.47,4c-2.29,0-4.58,0-6.87,0Z"/><path class="cls-1" d="M75.57,69.08H95.7a2.77,2.77,0,0,1,.49,5.51,6.86,6.86,0,0,1-.84,0H55.78c-1.64,0-2.64-.6-3.08-1.82a2.76,2.76,0,0,1,2.66-3.73c3.48,0,7,0,10.45,0Z"/><path class="cls-1" d="M66.67,99.71c-3.76,0-7.53,0-11.29,0a2.74,2.74,0,0,1-2.69-3.64A2.61,2.61,0,0,1,55,94.19a5.28,5.28,0,0,1,.63,0H77.72A2.77,2.77,0,0,1,80.8,97,2.7,2.7,0,0,1,78,99.7c-2.95,0-5.89,0-8.84,0Z"/></svg>