<svg id="圖層_1" data-name="圖層 1" xmlns="http://www.w3.org/2000/svg" viewBox="0 0 166 200"><defs><style>.cls-1,.cls-10{fill:#fff;}.cls-2,.cls-5{fill:#2a4399;}.cls-3{fill:#d7d8d8;}.cls-4{fill:#d9dadb;}.cls-10,.cls-5,.cls-9{fill-rule:evenodd;}.cls-6{fill:#c9caca;}.cls-7,.cls-9{fill:#ec675a;}.cls-8{fill:#e0e1e1;}.cls-11{fill:#835412;}</style></defs><title>右下圖</title><path class="cls-1" d="M76.22,176.16s21-1.07,21.66-6.83c0,0,1.89-9.78-37.68-7.63Z"/><polygon class="cls-1" points="76.22 176.16 75.58 181.91 59.57 166.31 60.2 161.7 76.22 176.16"/><path class="cls-2" d="M97.86,176.24s0,6.33-22.28,5.67l.64-5.76s19.78-.5,21.66-6.83Z"/><path class="cls-1" d="M78.54,164s8-.38,8.26-2.25c0,0,.71-3.19-14.39-2.44Z"/><polygon class="cls-1" points="78.54 164.01 78.3 165.88 72.17 160.82 72.17 159.32 78.54 164.01"/><path class="cls-2" d="M86.8,164s0,2.06-8.49,1.88l.24-1.88s7.55-.19,8.26-2.25Z"/><polygon class="cls-1" points="78.36 145.18 62.7 142.47 62.71 135.07 78.37 137.78 78.36 145.18"/><path class="cls-3" d="M78.37,145.18h0l-15.66-2.7h0v-7.41h0l15.66,2.7h0Zm-15.66-2.72,15.64,2.7v-7.38l-15.64-2.7Z"/><polygon class="cls-4" points="84.65 138.9 78.38 145.18 78.38 137.8 84.65 131.52 84.65 138.9"/><polygon class="cls-2" points="68.97 128.81 84.66 131.52 78.4 137.78 62.71 135.07 68.97 128.81"/><g id="_群組_" data-name="&lt;群組&gt;"><g id="_群組_2" data-name="&lt;群組&gt;"><path class="cls-1" d="M58.94,69.23a3,3,0,0,1-1.17-2.31c0-1.25.82-3.19,4.76-5.36A36.48,36.48,0,0,1,73.36,58c6.58-1.18,12.36-.67,14.71,1.29a3,3,0,0,1,1.17,2.31c0,1.25-.82,3.19-4.76,5.36a36.48,36.48,0,0,1-10.83,3.6,37.47,37.47,0,0,1-7.16.62C63.09,71.09,60.37,70.43,58.94,69.23Zm14.68-9.82c-8.48,1.52-14.39,5.18-14.38,7.52h0a1.53,1.53,0,0,0,.64,1.18c2,1.64,7.52,2,13.51,1,8.48-1.52,14.39-5.18,14.38-7.52a1.53,1.53,0,0,0-.64-1.18c-1.17-1-3.59-1.51-6.62-1.56A36.17,36.17,0,0,0,73.62,59.41Z"/><path class="cls-1" d="M58.84,74.71a3,3,0,0,1-1.17-2.31c0-1.25.82-3.19,4.76-5.36a36.48,36.48,0,0,1,10.83-3.6c6.58-1.18,12.36-.67,14.71,1.29A3,3,0,0,1,89.14,67c0,1.25-.82,3.19-4.76,5.36A36.48,36.48,0,0,1,73.55,76a37.47,37.47,0,0,1-7.16.62C63,76.57,60.28,75.91,58.84,74.71Zm14.68-9.82C65,66.41,59.13,70.07,59.14,72.41h0a1.53,1.53,0,0,0,.64,1.18c2,1.64,7.52,2,13.51,1C81.77,73,87.68,69.38,87.67,67A1.53,1.53,0,0,0,87,65.86c-1.17-1-3.59-1.51-6.62-1.56A36.17,36.17,0,0,0,73.52,64.89Z"/><path class="cls-1" d="M59,63.75a3,3,0,0,1-1.17-2.31c0-1.25.82-3.19,4.76-5.36a36.48,36.48,0,0,1,10.83-3.6c6.58-1.18,12.36-.67,14.71,1.29a3,3,0,0,1,1.17,2.31c0,1.25-.82,3.19-4.76,5.36A36.48,36.48,0,0,1,73.74,65a37.47,37.47,0,0,1-7.16.62C63.19,65.6,60.47,64.95,59,63.75Zm14.68-9.82c-8.48,1.52-14.39,5.18-14.38,7.52h0A1.53,1.53,0,0,0,60,62.62c2,1.64,7.52,2,13.51,1,8.48-1.52,14.39-5.18,14.38-7.52a1.53,1.53,0,0,0-.64-1.18c-1.17-1-3.59-1.51-6.62-1.56A36.17,36.17,0,0,0,73.71,53.92Z"/><path class="cls-1" d="M58.65,85.68a3,3,0,0,1-1.17-2.31c0-1.25.82-3.19,4.76-5.36a36.48,36.48,0,0,1,10.83-3.6c6.58-1.18,12.36-.67,14.71,1.29A3,3,0,0,1,88.95,78c0,1.25-.82,3.19-4.76,5.36A36.48,36.48,0,0,1,73.35,87a37.47,37.47,0,0,1-7.16.62C62.8,87.54,60.09,86.88,58.65,85.68Zm14.68-9.82C64.85,77.38,58.94,81,58.95,83.37h0a1.53,1.53,0,0,0,.64,1.18c2,1.64,7.52,2,13.51,1C81.58,84,87.48,80.35,87.48,78a1.53,1.53,0,0,0-.64-1.18c-1.17-1-3.59-1.51-6.62-1.56A36.17,36.17,0,0,0,73.33,75.86Z"/><path class="cls-1" d="M58.74,80.2a3,3,0,0,1-1.17-2.31c0-1.25.82-3.19,4.76-5.36a36.48,36.48,0,0,1,10.83-3.6c6.58-1.18,12.36-.67,14.71,1.29A3,3,0,0,1,89,72.52c0,1.25-.82,3.19-4.76,5.36a36.48,36.48,0,0,1-10.83,3.6,37.47,37.47,0,0,1-7.16.62C62.9,82.05,60.18,81.4,58.74,80.2Zm14.68-9.82C64.94,71.89,59,75.55,59,77.89h0a1.53,1.53,0,0,0,.64,1.18c2,1.64,7.52,2,13.51,1,8.48-1.52,14.39-5.18,14.38-7.52a1.53,1.53,0,0,0-.64-1.18c-1.17-1-3.59-1.51-6.62-1.56A36.17,36.17,0,0,0,73.42,70.37Z"/><path class="cls-1" d="M58.46,96.65a3,3,0,0,1-1.17-2.31c0-1.25.82-3.19,4.76-5.36a36.48,36.48,0,0,1,10.83-3.6c6.58-1.18,12.36-.67,14.71,1.29A3,3,0,0,1,88.75,89c0,1.25-.82,3.19-4.76,5.36a36.48,36.48,0,0,1-10.83,3.6,37.47,37.47,0,0,1-7.16.62C62.61,98.51,59.89,97.85,58.46,96.65Zm14.68-9.82C64.65,88.34,58.75,92,58.75,94.34h0a1.53,1.53,0,0,0,.64,1.18c2,1.64,7.52,2,13.51,1C81.39,95,87.29,91.32,87.29,89a1.53,1.53,0,0,0-.64-1.18c-1.17-1-3.59-1.51-6.62-1.56A36.17,36.17,0,0,0,73.14,86.83Z"/><path class="cls-1" d="M58.55,91.17a3,3,0,0,1-1.17-2.31c0-1.25.82-3.19,4.76-5.36A36.48,36.48,0,0,1,73,79.9c6.58-1.18,12.36-.67,14.71,1.29a3,3,0,0,1,1.17,2.31c0,1.25-.82,3.19-4.76,5.36a36.48,36.48,0,0,1-10.83,3.6,37.47,37.47,0,0,1-7.16.62C62.7,93,60,92.37,58.55,91.17Zm14.68-9.82c-8.48,1.52-14.39,5.18-14.38,7.52h0A1.53,1.53,0,0,0,59.49,90c2,1.64,7.52,2,13.51,1,8.48-1.52,14.39-5.18,14.38-7.52a1.53,1.53,0,0,0-.64-1.18c-1.17-1-3.59-1.51-6.62-1.56A36.17,36.17,0,0,0,73.23,81.34Z"/><path class="cls-1" d="M58.36,102.14a3,3,0,0,1-1.17-2.31c0-1.25.82-3.19,4.76-5.36a36.48,36.48,0,0,1,10.83-3.6c6.58-1.18,12.36-.67,14.71,1.29a3,3,0,0,1,1.17,2.31c0,1.25-.82,3.19-4.76,5.36a36.48,36.48,0,0,1-10.83,3.6,37.47,37.47,0,0,1-7.16.62C62.51,104,59.8,103.33,58.36,102.14ZM73,92.31c-8.48,1.52-14.39,5.18-14.38,7.52h0A1.53,1.53,0,0,0,59.3,101c2,1.64,7.52,2,13.51,1,8.48-1.52,14.39-5.18,14.38-7.52a1.53,1.53,0,0,0-.64-1.18c-1.17-1-3.59-1.51-6.62-1.56A36.17,36.17,0,0,0,73,92.31Z"/><path class="cls-1" d="M65.82,60.16A37.54,37.54,0,0,0,73,59.54a36.48,36.48,0,0,0,10.83-3.6c3.94-2.17,4.77-4.11,4.76-5.36a2.91,2.91,0,0,0-.93-2.09C86.15,47,83,46.28,78.74,46.36a39.41,39.41,0,0,1-10.12-2.28l-.56,1.36a40.31,40.31,0,0,0,10.59,2.38h.07c3.76-.08,6.7.56,7.87,1.71a1.43,1.43,0,0,1,.49,1c0,2.34-5.9,6-14.38,7.52-5,.89-9.56.8-12.22-.25L60,59.21A17.3,17.3,0,0,0,65.82,60.16Z"/><path class="cls-1" d="M73.74,131.83l1.47,0,.27-15.31v0c-.26-3.19-2.22-5.46-5.67-6.56a15.89,15.89,0,0,0-5-.7C61,109,58.54,108,58.54,106.52c0-1.17,1.49-2.69,4-4.07A35,35,0,0,1,72.92,99c4.87-.87,9.38-.8,12.06.19l.51-1.38c-2.92-1.08-7.71-1.17-12.83-.26a36.48,36.48,0,0,0-10.83,3.6c-2.18,1.2-4.77,3.1-4.76,5.36,0,.88.41,2.12,2.36,3a14.78,14.78,0,0,0,5.38,1.14h.07a14.57,14.57,0,0,1,4.52.64c2.85.92,4.4,2.68,4.62,5.24Z"/></g></g><polygon class="cls-1" points="40.62 125.62 24.96 122.92 24.97 115.52 40.63 118.22 40.62 125.62"/><path class="cls-3" d="M40.62,125.63h0L25,122.93h0v-7.41h0l15.66,2.7h0ZM25,122.91l15.64,2.7v-7.38L25,115.53Z"/><polygon class="cls-4" points="46.91 119.35 40.63 125.62 40.63 118.25 46.91 111.97 46.91 119.35"/><polygon class="cls-2" points="31.23 109.26 46.92 111.96 40.66 118.22 24.96 115.52 31.23 109.26"/><g id="_群組_3" data-name="&lt;群組&gt;"><g id="_群組_4" data-name="&lt;群組&gt;"><path class="cls-1" d="M21.2,49.68A3,3,0,0,1,20,47.37c0-1.25.82-3.19,4.76-5.36a36.48,36.48,0,0,1,10.83-3.6C42.2,37.23,48,37.74,50.32,39.7A3,3,0,0,1,51.49,42c0,1.25-.82,3.19-4.76,5.36A36.48,36.48,0,0,1,35.9,51a37.47,37.47,0,0,1-7.16.62C25.35,51.53,22.63,50.88,21.2,49.68Zm14.68-9.82C27.39,41.37,21.49,45,21.49,47.37h0a1.53,1.53,0,0,0,.64,1.18c2,1.64,7.52,2,13.51,1C44.13,48,50,44.34,50,42a1.53,1.53,0,0,0-.64-1.18c-1.17-1-3.59-1.51-6.62-1.56A36.17,36.17,0,0,0,35.87,39.85Z"/><path class="cls-1" d="M21.1,55.16a3,3,0,0,1-1.17-2.31c0-1.25.82-3.19,4.76-5.36a36.48,36.48,0,0,1,10.83-3.6c6.58-1.18,12.36-.67,14.71,1.29a3,3,0,0,1,1.17,2.31c0,1.25-.82,3.19-4.76,5.36a36.48,36.48,0,0,1-10.83,3.6,37.47,37.47,0,0,1-7.16.62C25.25,57,22.54,56.36,21.1,55.16Zm14.68-9.82c-8.48,1.52-14.39,5.18-14.38,7.52h0A1.53,1.53,0,0,0,22,54c2,1.64,7.52,2,13.51,1,8.48-1.52,14.39-5.18,14.38-7.52a1.53,1.53,0,0,0-.64-1.18c-1.17-1-3.59-1.51-6.62-1.56A36.17,36.17,0,0,0,35.78,45.34Z"/><path class="cls-1" d="M21.29,44.19a3,3,0,0,1-1.17-2.31c0-1.25.82-3.19,4.76-5.36a36.48,36.48,0,0,1,10.83-3.6c6.58-1.18,12.36-.67,14.71,1.29a3,3,0,0,1,1.17,2.31c0,1.25-.82,3.19-4.76,5.36A36.48,36.48,0,0,1,36,45.48a37.47,37.47,0,0,1-7.16.62C25.44,46,22.73,45.39,21.29,44.19ZM36,34.37c-8.48,1.52-14.39,5.18-14.38,7.52h0a1.53,1.53,0,0,0,.64,1.18c2,1.64,7.52,2,13.51,1,8.48-1.52,14.39-5.18,14.38-7.52a1.53,1.53,0,0,0-.64-1.18c-1.17-1-3.59-1.51-6.62-1.56A36.17,36.17,0,0,0,36,34.37Z"/><path class="cls-1" d="M20.91,66.13a3,3,0,0,1-1.17-2.31c0-1.25.82-3.19,4.76-5.36a36.48,36.48,0,0,1,10.83-3.6c6.58-1.18,12.36-.67,14.71,1.29a3,3,0,0,1,1.17,2.31c0,1.25-.82,3.19-4.76,5.36a36.48,36.48,0,0,1-10.83,3.6,37.47,37.47,0,0,1-7.16.62C25.06,68,22.34,67.33,20.91,66.13Zm14.68-9.82C27.1,57.82,21.2,61.48,21.2,63.82h0A1.53,1.53,0,0,0,21.85,65c2,1.64,7.52,2,13.51,1,8.48-1.52,14.39-5.18,14.38-7.52a1.53,1.53,0,0,0-.64-1.18c-1.17-1-3.59-1.51-6.62-1.56A36.17,36.17,0,0,0,35.59,56.31Z"/><path class="cls-1" d="M21,60.65a3,3,0,0,1-1.17-2.31c0-1.25.82-3.19,4.76-5.36a36.48,36.48,0,0,1,10.83-3.6C42,48.2,47.78,48.7,50.13,50.67A3,3,0,0,1,51.3,53c0,1.25-.82,3.19-4.76,5.36a36.48,36.48,0,0,1-10.83,3.6,37.47,37.47,0,0,1-7.16.62C25.16,62.5,22.44,61.84,21,60.65Zm14.68-9.82C27.2,52.34,21.3,56,21.3,58.34h0a1.53,1.53,0,0,0,.64,1.18c2,1.64,7.52,2,13.51,1C43.93,59,49.84,55.31,49.83,53a1.53,1.53,0,0,0-.64-1.18c-1.17-1-3.59-1.51-6.62-1.56A36.17,36.17,0,0,0,35.68,50.82Z"/><path class="cls-1" d="M20.72,77.1a3,3,0,0,1-1.17-2.31c0-1.25.82-3.19,4.76-5.36a36.48,36.48,0,0,1,10.83-3.6c6.58-1.18,12.36-.67,14.71,1.29A3,3,0,0,1,51,69.42c0,1.25-.82,3.19-4.76,5.36a36.48,36.48,0,0,1-10.83,3.6,37.47,37.47,0,0,1-7.16.62C24.87,79,22.15,78.3,20.72,77.1Zm14.68-9.82C26.91,68.79,21,72.45,21,74.79h0A1.53,1.53,0,0,0,21.66,76c2,1.64,7.52,2,13.51,1,8.48-1.52,14.39-5.18,14.38-7.52a1.53,1.53,0,0,0-.64-1.18c-1.17-1-3.59-1.51-6.62-1.56A36.17,36.17,0,0,0,35.39,67.27Z"/><path class="cls-1" d="M20.81,71.61a3,3,0,0,1-1.17-2.31c0-1.25.82-3.19,4.76-5.36a36.48,36.48,0,0,1,10.83-3.6c6.58-1.18,12.36-.67,14.71,1.29a3,3,0,0,1,1.17,2.31c0,1.25-.82,3.19-4.76,5.36a36.48,36.48,0,0,1-10.83,3.6,37.47,37.47,0,0,1-7.16.62C25,73.47,22.25,72.81,20.81,71.61Zm14.68-9.82C27,63.31,21.1,67,21.11,69.3h0a1.53,1.53,0,0,0,.64,1.18c2,1.64,7.52,2,13.51,1,8.48-1.52,14.39-5.18,14.38-7.52A1.53,1.53,0,0,0,49,62.76c-1.17-1-3.59-1.51-6.62-1.56A36.17,36.17,0,0,0,35.49,61.79Z"/><path class="cls-1" d="M20.62,82.58a3,3,0,0,1-1.17-2.31c0-1.25.82-3.19,4.76-5.36A36.48,36.48,0,0,1,35,71.31c6.58-1.18,12.36-.67,14.71,1.29a3,3,0,0,1,1.17,2.31c0,1.25-.82,3.19-4.76,5.36a36.48,36.48,0,0,1-10.83,3.6,37.47,37.47,0,0,1-7.16.62C24.77,84.44,22.06,83.78,20.62,82.58ZM35.3,72.76c-8.48,1.52-14.39,5.18-14.38,7.52h0a1.53,1.53,0,0,0,.64,1.18c2,1.64,7.52,2,13.51,1,8.48-1.52,14.39-5.18,14.38-7.52a1.53,1.53,0,0,0-.64-1.18c-1.17-1-3.59-1.51-6.62-1.56A36.17,36.17,0,0,0,35.3,72.76Z"/><path class="cls-1" d="M28.07,40.61A37.54,37.54,0,0,0,35.23,40a36.48,36.48,0,0,0,10.83-3.6C50,34.21,50.83,32.27,50.83,31a2.91,2.91,0,0,0-.93-2.09c-1.49-1.45-4.64-2.21-8.89-2.13a39.41,39.41,0,0,1-10.12-2.28l-.56,1.36a40.31,40.31,0,0,0,10.59,2.38H41c3.76-.08,6.7.56,7.87,1.71a1.43,1.43,0,0,1,.49,1c0,2.34-5.9,6-14.38,7.52-5,.89-9.56.8-12.22-.25l-.54,1.37A17.3,17.3,0,0,0,28.07,40.61Z"/><path class="cls-1" d="M36,112.28l1.47,0L37.74,97v0c-.26-3.19-2.22-5.46-5.67-6.56a15.89,15.89,0,0,0-5-.7c-3.83-.21-6.31-1.28-6.31-2.72,0-1.17,1.49-2.69,4-4.07a35,35,0,0,1,10.38-3.45c4.87-.87,9.38-.8,12.06.19l.51-1.38C44.83,77.19,40,77.09,34.92,78a36.48,36.48,0,0,0-10.83,3.6c-2.18,1.2-4.77,3.1-4.76,5.36,0,.88.41,2.12,2.36,3a14.78,14.78,0,0,0,5.38,1.14h.07a14.57,14.57,0,0,1,4.52.64c2.85.92,4.4,2.68,4.62,5.24Z"/></g></g><path class="cls-5" d="M152.13,124.39V154.1c0,4.77-12.25,13.58-28,13.58S95,158.87,95,154.1V124.39Z"/><ellipse class="cls-1" cx="123.74" cy="124.98" rx="28.62" ry="11.08"/><circle class="cls-6" cx="139.56" cy="140.73" r="0.96"/><circle class="cls-6" cx="139.56" cy="144.17" r="0.96"/><circle class="cls-6" cx="139.56" cy="147.61" r="0.96"/><circle class="cls-6" cx="139.56" cy="151.05" r="0.96"/><circle class="cls-6" cx="139.56" cy="154.49" r="0.96"/><circle class="cls-6" cx="139.56" cy="157.93" r="0.96"/><ellipse class="cls-7" cx="124.19" cy="122.9" rx="15.96" ry="6.74"/><path class="cls-5" d="M139.3,105.3v16c0,2.57-6.55,7.31-15,7.31s-15.58-4.74-15.58-7.31v-16Z"/><ellipse class="cls-1" cx="124.02" cy="105.62" rx="15.4" ry="5.96"/><ellipse class="cls-8" cx="124.03" cy="105.36" rx="11.82" ry="4.58"/><path class="cls-9" d="M130.71,97.86v6.23c0,1-2.57,2.85-5.88,2.85s-6.1-1.85-6.1-2.85V97.86Z"/><ellipse class="cls-1" cx="124.76" cy="97.99" rx="6" ry="2.32"/><ellipse class="cls-4" cx="124.76" cy="97.89" rx="4.6" ry="1.78"/><path class="cls-1" d="M117.1,84.75c0-1.94,3.51-3.4,8.16-3.4s8.16,1.46,8.16,3.4-3.51,3.4-8.16,3.4S117.1,86.69,117.1,84.75Zm.77,0c0,1.24,3,2.62,7.39,2.62s7.39-1.38,7.39-2.62-3-2.62-7.39-2.62S117.87,83.51,117.87,84.75Z"/><path class="cls-10" d="M125.56,99.06a.68.68,0,0,1-.61.74h0a.68.68,0,0,1-.62-.73l-.06-10.75a.68.68,0,0,1,.61-.74h0a.68.68,0,0,1,.62.73Z"/><rect class="cls-1" x="124.55" y="85.23" width="8.15" height="0.77" transform="translate(-23.99 61.47) rotate(-24.66)"/><rect class="cls-1" x="122.76" y="84.73" width="6.82" height="0.77" transform="translate(-9.72 153.64) rotate(-60.76)"/><rect class="cls-1" x="123.63" y="81.46" width="0.77" height="7.05" transform="translate(-22.24 50.17) rotate(-21.03)"/><rect class="cls-1" x="121.52" y="81.76" width="0.77" height="7.05" transform="translate(-16.06 140.94) rotate(-56.94)"/><ellipse class="cls-11" cx="121.48" cy="174.21" rx="7.14" ry="0.92"/><rect class="cls-1" x="125.67" y="128.01" width="1.45" height="46.34" rx="0.32" ry="0.32" transform="translate(252.79 302.36) rotate(-180)"/><rect class="cls-1" x="116.26" y="128.01" width="1.45" height="46.34" rx="0.32" ry="0.32" transform="translate(233.97 302.36) rotate(-180)"/><rect class="cls-11" x="121.22" y="128.53" width="0.75" height="9.13" rx="0.17" ry="0.17" transform="matrix(0, 1, -1, 0, 254.68, 11.5)"/><rect class="cls-1" x="121.22" y="128.29" width="0.75" height="9.13" rx="0.17" ry="0.17" transform="translate(254.44 11.26) rotate(90)"/><rect class="cls-11" x="121.22" y="131.91" width="0.75" height="9.13" rx="0.17" ry="0.17" transform="translate(258.06 14.88) rotate(90)"/><rect class="cls-1" x="121.22" y="131.66" width="0.75" height="9.13" rx="0.17" ry="0.17" transform="translate(257.82 14.64) rotate(90)"/><rect class="cls-11" x="121.22" y="135.28" width="0.75" height="9.13" rx="0.17" ry="0.17" transform="translate(261.44 18.26) rotate(90)"/><rect class="cls-1" x="121.22" y="135.04" width="0.75" height="9.13" rx="0.17" ry="0.17" transform="matrix(0, 1, -1, 0, 261.2, 18.02)"/><rect class="cls-11" x="121.22" y="138.66" width="0.75" height="9.13" rx="0.17" ry="0.17" transform="translate(264.82 21.64) rotate(90)"/><rect class="cls-1" x="121.22" y="138.42" width="0.75" height="9.13" rx="0.17" ry="0.17" transform="translate(264.58 21.4) rotate(90)"/><rect class="cls-11" x="121.22" y="142.04" width="0.75" height="9.13" rx="0.17" ry="0.17" transform="translate(268.2 25.02) rotate(90)"/><rect class="cls-1" x="121.22" y="141.8" width="0.75" height="9.13" rx="0.17" ry="0.17" transform="translate(267.96 24.78) rotate(90)"/><rect class="cls-11" x="121.22" y="145.42" width="0.75" height="9.13" rx="0.17" ry="0.17" transform="matrix(0, 1, -1, 0, 271.58, 28.4)"/><rect class="cls-1" x="121.22" y="145.18" width="0.75" height="9.13" rx="0.17" ry="0.17" transform="translate(271.33 28.16) rotate(90)"/><rect class="cls-11" x="121.22" y="148.8" width="0.75" height="9.13" rx="0.17" ry="0.17" transform="matrix(0, 1, -1, 0, 274.95, 31.78)"/><rect class="cls-1" x="121.22" y="148.56" width="0.75" height="9.13" rx="0.17" ry="0.17" transform="matrix(0, 1, -1, 0, 274.71, 31.54)"/><rect class="cls-11" x="121.22" y="152.18" width="0.75" height="9.13" rx="0.17" ry="0.17" transform="matrix(0, 1, -1, 0, 278.33, 35.16)"/><rect class="cls-1" x="121.22" y="151.94" width="0.75" height="9.13" rx="0.17" ry="0.17" transform="translate(278.09 34.91) rotate(90)"/><rect class="cls-11" x="121.22" y="155.56" width="0.75" height="9.13" rx="0.17" ry="0.17" transform="translate(281.71 38.53) rotate(90)"/><rect class="cls-1" x="121.22" y="155.32" width="0.75" height="9.13" rx="0.17" ry="0.17" transform="translate(281.47 38.29) rotate(90)"/><rect class="cls-11" x="121.22" y="158.94" width="0.75" height="9.13" rx="0.17" ry="0.17" transform="matrix(0, 1, -1, 0, 285.09, 41.91)"/><rect class="cls-1" x="121.22" y="158.7" width="0.75" height="9.13" rx="0.17" ry="0.17" transform="translate(284.85 41.67) rotate(90)"/><rect class="cls-11" x="121.22" y="162.32" width="0.75" height="9.13" rx="0.17" ry="0.17" transform="translate(288.47 45.29) rotate(90)"/><rect class="cls-1" x="121.22" y="162.07" width="0.75" height="9.13" rx="0.17" ry="0.17" transform="matrix(0, 1, -1, 0, 288.23, 45.05)"/><rect class="cls-11" x="121.22" y="165.69" width="0.75" height="9.13" rx="0.17" ry="0.17" transform="translate(291.85 48.67) rotate(90)"/><rect class="cls-1" x="121.22" y="165.45" width="0.75" height="9.13" rx="0.17" ry="0.17" transform="matrix(0, 1, -1, 0, 291.61, 48.43)"/></svg>