<?xml version="1.0" encoding="UTF-8" standalone="no"?>
<!-- Generator: Adobe Illustrator 18.1.1, SVG Export Plug-In . SVG Version: 6.00 Build 0)  -->
<!DOCTYPE svg  PUBLIC '-//W3C//DTD SVG 1.1//EN'  'http://www.w3.org/Graphics/SVG/1.1/DTD/svg11.dtd'>
<svg id="logo" xmlns="http://www.w3.org/2000/svg" xml:space="preserve" viewBox="0 0 389 143" version="1.1" y="0px" x="0px" xmlns:xlink="http://www.w3.org/1999/xlink" enable-background="new 0 0 389 143">
  <path d="m95.5 23h-6.2c-36.7 0-64.2 14.3-66.4 49.6 0 17.8 7.3 29.3 19.1 36.4-0.6 1.9-1.6 4.1-2.8 6.8-3.2 7-8.5 13.1-7.3 14s9.4-1.8 16.8-5.9c7.6-4.2 11.1-6.8 12-7.6 0.1-0.1 0.2-0.2 0.3-0.2 8.6 1.9 18.2 2.9 28.3 2.9h6.2c36.7 0 66.4-8.7 66.4-46.5-3.4-37.7-29.8-49.5-66.4-49.5z" fill="#ED6C00"/>
  <g fill="#3E3A39">
    <path d="m321.5 89.6c-1.1 0-2.1 0.4-2.9 1.1-0.6 0.6-0.9 1.5-1 2.7 0 1.1 0.4 2.1 1.1 2.8 0.7 0.6 1.6 1 2.8 1 1.1 0 2-0.3 2.7-1s1.1-1.7 1.1-2.8-0.3-2-1-2.7-1.6-1.1-2.8-1.1z"/>
    <path d="m335.4 57.7c-0.6-0.6-1.4-0.9-2.4-0.9s-1.8 0.3-2.4 0.9-0.9 1.4-0.9 2.4 0.3 1.8 0.9 2.4 1.4 0.9 2.4 0.9 1.8-0.3 2.4-0.9 0.9-1.4 0.9-2.4c0.1-1-0.3-1.8-0.9-2.4z"/>
    <path d="m330.8 67.3c-0.1 0-0.1 0 0 0-0.3 0-0.4 0.1-0.4 0.3v0.7 26.1c0 2 3.7 2.7 5.1 2.8 0.2 0 0.3-0.1 0.3-0.3v-26c0.1-2.4-3.4-3.3-5-3.6z"/>
    <path d="m365.6 96.9v-17.9c0-2.9-0.4-5.2-1.3-6.6s-2.1-2.5-3.6-3.3c-1.6-0.8-3.4-1.2-5.4-1.2-2.5 0-4.7 0.9-6.6 2.8-0.1 0.1-0.1 0.1-0.2 0.1s-0.2-0.1-0.3-0.2c-1.1-2.2-3.6-2.9-5.1-3.2-0.2 0-0.3 0.1-0.3 0.3v26.6c0 1.9 3.7 2.8 5.1 3 0.2 0 0.3-0.1 0.3-0.3v-17.3c0.1-1.2 0.3-2.2 0.7-3 0.4-1 1.1-1.9 2.2-2.7 0.8-0.6 1.9-0.9 3.2-0.9 2 0 3.5 0.5 4.6 1.5 0.9 0.9 1.4 2.4 1.4 4.5v15.6c0 1.9 3.8 2.5 5.1 2.7h0.1c0-0.1 0.1-0.2 0.1-0.5v0z"/>
    <path d="m220.4 68.8c-1.8-1-4-1.5-6.6-1.5-2.7 0-5 0.5-6.9 1.7-2 1.4-3.5 3-4.6 4.8-1.3 2.3-2 5.1-2 8.2 0 3.3 0.6 6.3 1.7 8.6 1.1 2 2.6 3.6 4.5 4.9 2 1.2 4.4 1.9 7.2 1.9 2.9 0 5.5-0.7 7.7-2.2 1.7-1.1 3.1-2.8 4.2-5.1 0.9-2 1.4-4.7 1.4-7.8 0-3.4-0.7-6.4-2.1-8.9-1.1-1.9-2.6-3.4-4.5-4.6zm0.1 18.6c-0.5 1.2-1.4 2.3-2.5 3.1s-2.6 1.3-4.5 1.3c-1.5 0-2.9-0.4-4.1-1.2-1-0.7-1.9-1.8-2.7-3.1-0.6-1.4-1-3.4-1-5.6s0.4-4 1.1-5.3c0.7-1.1 1.6-2 2.7-2.7 1-0.6 2.4-1 4.1-1 1.4 0 2.8 0.4 4.1 1.1 0.9 0.6 1.7 1.6 2.5 2.9 0.6 1.2 1 3 1 5.3 0.1 2-0.2 3.8-0.7 5.2z"/>
    <path d="m195.6 79.1c0-3.2-0.5-5.7-1.6-7.3-0.9-1.3-2.1-2.4-3.5-3.2-1.6-0.8-3.4-1.2-5.5-1.2-2.6 0-4.8 0.9-6.7 2.6-0.1 0.1-0.2 0.1-0.3 0.1-0.2 0-0.3-0.1-0.3-0.4v-15c0-2.6-3.9-3.2-5.2-3.3h-0.1c-0.2 0-0.3 0.1-0.3 0.3v0.3 42.3c0 2.2 3.9 3 5.2 3.1h0.1c0.2 0 0.3-0.1 0.3-0.3v-17.3c0.1-1.2 0.3-2.2 0.7-3.1 0.4-1 1.1-2 2.2-2.8 0.8-0.6 1.9-0.9 3.3-0.9 2 0 3.6 0.5 4.7 1.5 0.9 0.9 1.4 2.4 1.4 4.5v15c0 2.5 3.9 3.2 5.2 3.3 0.2 0 0.3-0.1 0.3-0.3v-0.1-17.8z"/>
    <path d="m255.1 70.7c0-2.7-3.9-3.2-5.2-3.3h-0.1c-0.2 0-0.3 0.1-0.3 0.3v0.1 15.2c0 2.4-0.8 4.4-2.5 5.9-1.2 1.1-2.8 1.7-4.7 1.8-1.7 0-3-0.5-3.9-1.5-0.8-0.9-1.2-2.3-1.2-4.2v-14.4c0-2.7-3.9-3.2-5.2-3.3h-0.1c-0.2 0-0.3 0.1-0.3 0.3v17.2c0 3.8 0.9 6.7 2.6 8.7 1.5 1.7 3.9 2.6 7.2 2.6 2.2 0 4.1-0.6 5.5-1.9 0.9-0.8 1.5-1.5 2-2.1 0.1-0.1 0.2-0.2 0.3-0.2 0.2 0 0.3 0.1 0.3 0.3v1.8c0 2.5 3.9 3.2 5.2 3.3h0.1c0.2 0 0.3-0.1 0.4-0.3v-26.3z"/>
    <path d="m280.1 83.6c-1.2-1.2-3.8-2.5-7.8-4-3.2-1.2-5.1-2-5.7-2.5-0.4-0.3-0.7-0.9-0.7-1.6s0.3-1.4 1-1.9c0.8-0.6 2.1-1 3.7-1 1.4 0 2.6 0.2 3.4 0.6 0.7 0.4 1.3 0.9 1.8 1.5 1.4 1.4 4-0.5 5-1.4 0 0 0.1 0 0.1-0.1 0.1-0.1 0.1-0.1 0.1-0.2v-0.1c-0.1-0.4-0.3-0.7-0.5-1.1-0.9-1.6-2.3-2.8-4.1-3.6-1.6-0.7-3.4-1.1-5.3-1.1-3.4 0-6.1 0.9-8.1 2.8-1.6 1.6-2.5 3.6-2.5 5.8 0 1.5 0.4 2.8 1.2 3.9 0.9 1.1 3.8 2.6 8.7 4.6 3.1 1.3 5 2.2 5.5 2.8 0.3 0.4 0.5 1 0.6 1.7 0 0.6-0.4 1.3-1.2 2-0.6 0.6-1.9 0.9-3.9 0.9-1.7 0-3.1-0.3-4.1-0.9s-1.6-1.3-2.1-2.3c-0.8-1.4-3.9 0.1-5.2 1 0 0-0.1 0-0.1 0.1-0.1 0.1-0.1 0.2-0.1 0.3v0.1c0.1 0.5 0.3 1.1 0.7 1.6 0.8 1.6 2.1 3 3.7 4 1.8 1.1 4.1 1.7 6.7 1.7 3.5 0 6.3-0.8 8.2-2.5 2.1-1.8 3.2-4 3.2-6.5-0.1-1.7-0.8-3.3-2.2-4.6z"/>
    <path d="m293.1 84.1h16.5c1.9 0 2.9-0.8 3-2.4 0-3.5-0.6-6.3-1.9-8.4s-2.9-3.7-4.8-4.7c-1.8-0.9-3.6-1.4-5.5-1.4-4.2 0-7.6 1.7-10.2 5-2.1 2.8-3.2 6.2-3.3 10.1 0 4 1.3 7.6 3.8 10.4 2.6 3 6 4.6 10 4.6 1.9 0 3.9-0.6 6-1.8s3.7-2.6 4.7-4.2c0.1-0.3 0.3-0.5 0.4-0.7v-0.1-0.1c0-0.1 0-0.2-0.1-0.3-1.1-0.9-3.9-2.8-5.4-1.3-0.6 0.9-1.4 1.6-2.4 2.2-0.9 0.5-1.9 0.8-3.1 0.8-2.3 0-4.3-0.9-5.8-2.6-1.1-1.3-1.8-2.9-2.1-4.6-0.2-0.3 0-0.5 0.2-0.5zm-0.1-5.4c0.3-1.1 0.9-2.1 1.6-3 1.5-1.9 3.5-2.9 5.8-3 1.6 0 3.1 0.7 4.4 2 0.9 0.9 1.5 2.2 1.8 4.1 0 0.3-0.1 0.4-0.4 0.4h-12.9c-0.1 0-0.4-0.2-0.3-0.5z"/>
  </g>
  <g fill="#fff">
    <path d="m114.7 56.7c-1.2-0.3-5.5-1.1-6.6 1.3l-6 15.8-3.4 8.8c0 0.1-0.1 0.1-0.2 0.1s-0.2-0.1-0.2-0.1l-3.2-8.8-5.6-15.5c-1.2-2.7-5.7-1.9-6.7-1.7-0.1 0-0.1 0.1-0.1 0.2v0.1l6.3 16.9 6 16c0.2 0.5 0.6 1 1.2 1.6s1.3 0.8 2.3 0.8c0.8 0 1.6-0.3 2.1-0.8 0.6-0.5 1-1.1 1.2-1.6 0 0 3.1-7.9 6.3-16 3-7.6 6.1-15.4 6.7-16.8v-0.1c0.1-0.1 0-0.2-0.1-0.2z"/>
    <path d="m63.8 86.2h-14.8c-0.1 0-0.2-0.1-0.2-0.2v-26.3c0-2.4-4.4-3.2-5.7-3.3-0.1 0-0.2 0.1-0.2 0.2v31.4c0 2.8 1.4 4.1 4.1 4.1h19.8c0.1 0 0.2-0.1 0.2-0.2-0.2-1.2-0.6-5.7-3.2-5.7z"/>
    <path d="m72.1 56.3c-0.1 0-0.2 0.1-0.2 0.2v32.3c0 2.4 4.4 3.2 5.7 3.3 0.1 0 0.2-0.1 0.2-0.2v-32.2c0-2.5-4.4-3.2-5.7-3.4z"/>
    <path d="m139.9 86.3h-14c-0.1 0-0.2-0.1-0.2-0.2v-23.6c0-0.1 0.1-0.2 0.2-0.2h17.2c0.1 0 0.2-0.1 0.2-0.2-0.1-1.4-0.7-5.7-3.4-5.7h-16.1c-2.7 0-4.1 1.4-4.1 4.1v27.6c0 2.8 1.4 4.1 4.1 4.1h18.9 0.4c0.1 0 0.2-0.1 0.2-0.2-0.1-1.5-0.6-5.7-3.4-5.7z"/>
    <path d="m142.4 72.2l-7.4-4.8c-1.4-1-3.7 0.2-3.7 1.9v9.3c0 1.5 2.2 2.8 3.7 1.7l7.4-4.7c1.2-1.1 1.3-2.5 0-3.4z"/>
  </g>
</svg>
