<?xml version="1.0" encoding="utf-8"?>
<!-- Generator: Adobe Illustrator 19.0.0, SVG Export Plug-In . SVG Version: 6.00 Build 0)  -->
<svg version="1.1" id="圖層_1" xmlns="http://www.w3.org/2000/svg" xmlns:xlink="http://www.w3.org/1999/xlink" x="0px" y="0px"
	 viewBox="-264 406.9 66 28" style="enable-background:new -264 406.9 66 28;" xml:space="preserve">
<style type="text/css">
	.st0{fill:#FFFFFF;}
</style>
<path id="XMLID_421_" class="st0" d="M-207.2,408h-6.4l0,0h-5.3h-3.4h-12.4v1.9h1.6c0.3,0,0.5,0,0.7,0.1c0.2,0.1,0.4,0.2,0.6,0.3
	c0.2,0.2,0.3,0.4,0.4,0.7c0.1,0.3,0.1,0.7,0.1,1.2v13.2c0,1.2-0.1,2.2-0.4,3.1c-0.3,0.8-0.6,1.5-1.1,2c-0.4,0.5-1,0.9-1.5,1.1
	c-0.6,0.2-1.2,0.3-1.8,0.3h-0.7c0,0,0,0-0.1,0c-0.3-0.1-0.5-0.2-0.8-0.4c-0.2-0.2-0.5-0.5-0.7-0.8c-0.2-0.3-0.4-0.8-0.6-1.3l-8-21.2
	h-5.2l-8,21.1c-0.2,0.5-0.4,1-0.7,1.3c-0.2,0.3-0.4,0.6-0.7,0.8c-0.2,0.2-0.5,0.3-0.8,0.4c-0.2,0.1-0.5,0.1-0.9,0.1h-0.4v1.9h9.9
	v-1.9h-1.6c-0.2,0-0.4,0-0.6-0.1c-0.2-0.1-0.4-0.1-0.5-0.3c-0.2-0.1-0.3-0.3-0.4-0.4c-0.1-0.2-0.1-0.4-0.1-0.6c0-0.3,0.1-0.6,0.2-1
	c0.1-0.4,0.2-0.7,0.3-1l1.1-3.1h9.3l1.3,3.6c0.1,0.2,0.1,0.4,0.2,0.7c0.1,0.3,0.1,0.6,0.1,0.8c0,0.2,0,0.5-0.1,0.6
	c-0.1,0.2-0.2,0.3-0.4,0.4s-0.3,0.2-0.5,0.2c-0.4,0.2-0.6,0.2-0.8,0.2h-1.5v1.9h11.1h1.4h0.1l0,0c0.8,0,1.6,0,2.4-0.1
	s1.6-0.3,2.4-0.6c0.8-0.3,1.4-0.6,2.1-1.1c0.6-0.4,1.2-1,1.6-1.6c0.5-0.6,0.8-1.4,1.1-2.2c0.3-0.8,0.4-1.8,0.4-2.9v-13.1
	c0-0.5,0.1-0.9,0.2-1.2c0.1-0.3,0.2-0.5,0.4-0.7c0.2-0.2,0.4-0.3,0.6-0.3c0.1,0,2.7,0,5.1,0l0,0h3.7h0.2l-8.2,23.9h5.6l1.9-6.1h9.9
	l1.9,6.1h5.6L-207.2,408z M-254.8,423.2l2.3-6.1c0.1-0.4,0.3-0.9,0.5-1.3c0.2-0.5,0.3-0.9,0.5-1.4s0.3-0.9,0.5-1.3
	c0.1-0.4,0.3-0.8,0.4-1.2c0.1,0.4,0.2,0.9,0.3,1.3c0.1,0.5,0.3,0.9,0.4,1.4c0.1,0.5,0.3,0.9,0.4,1.4s0.3,0.9,0.4,1.3l2,5.9H-254.8z
	 M-214.2,423.1l1-3.1c0,0,0.4-1.4,0.5-1.6c0.1-0.3,0.4-1.3,0.5-1.7c0.1-0.4,0.4-1.3,0.5-1.8l1.1-3.4l1.1,3.5
	c0.2,0.6,0.3,0.9,0.4,1.4s0.3,0.8,0.3,1l1.8,5.6h-7.2V423.1z"/>
</svg>
